<?xml version="1.0" encoding="utf-8"?>
<!-- Generator: Adobe Illustrator 25.1.0, SVG Export Plug-In . SVG Version: 6.00 Build 0)  -->
<svg version="1.1" xmlns="http://www.w3.org/2000/svg" xmlns:xlink="http://www.w3.org/1999/xlink" x="0px" y="0px"
	 viewBox="0 0 472 190" style="enable-background:new 0 0 472 190;" xml:space="preserve">
<style type="text/css">
	.st0{fill:#FFFFFF;}
	.st1{opacity:0.2;fill:#5EA0EF;enable-background:new    ;}
	.st2{opacity:0.55;fill:url(#Rectangle-path_26_);enable-background:new    ;}
	.st3{opacity:0.55;fill:url(#Rectangle-path_27_);enable-background:new    ;}
	.st4{opacity:0.55;fill:url(#Rectangle-path_28_);enable-background:new    ;}
	.st5{fill:#003067;}
	.st6{fill:#A3A3A3;}
	.st7{fill:#E6E6E6;}
	.st8{fill:#F04049;}
	.st9{fill:#821010;}
	.st10{fill:#1E1E1E;}
	.st11{opacity:0.55;fill:url(#Rectangle-path_29_);enable-background:new    ;}
	.st12{opacity:0.55;fill:url(#Rectangle-path_30_);enable-background:new    ;}
	.st13{opacity:0.55;fill:url(#Rectangle-path_31_);enable-background:new    ;}
	.st14{fill:none;}
</style>
<g id="source">
	<g id="Page-1">
		<g id="_x32_-kubernetes-benefits">
			<g id="Shapes">
				<rect id="Rectangle-path" class="st0" width="471.2" height="190"/>
				<g id="Group" transform="translate(158.909091, 60.454545)">
					<rect id="Rectangle-path_1_" x="0.7" y="0.2" class="st0" width="152" height="129.3"/>
					<rect id="Rectangle-path_2_" x="0.7" y="0.2" class="st1" width="152" height="129.3"/>
				</g>
				<g id="Group_1_" transform="translate(158.909091, 0.000000)">
					<rect id="Rectangle-path_3_" x="0.7" class="st0" width="152" height="61.4"/>
					
						<linearGradient id="Rectangle-path_26_" gradientUnits="userSpaceOnUse" x1="-226.9551" y1="487.1144" x2="-226.9551" y2="486.1144" gradientTransform="matrix(152 0 0 -61.4045 34573.8711 29911.0352)">
						<stop  offset="0" style="stop-color:#5EA0EF"/>
						<stop  offset="1" style="stop-color:#0078D4"/>
					</linearGradient>
					<rect id="Rectangle-path_4_" x="0.7" class="st2" width="152" height="61.4"/>
				</g>
				<g id="Group_2_" transform="translate(317.818182, 60.454545)">
					<rect id="Rectangle-path_5_" x="1.4" y="0.2" class="st0" width="152" height="129.3"/>
					<rect id="Rectangle-path_6_" x="1.4" y="0.2" class="st1" width="152" height="129.3"/>
				</g>
				<g id="Group_3_" transform="translate(317.818182, 0.000000)">
					<rect id="Rectangle-path_7_" x="1.4" class="st0" width="152" height="61.4"/>
					
						<linearGradient id="Rectangle-path_27_" gradientUnits="userSpaceOnUse" x1="-385.8642" y1="487.1144" x2="-385.8642" y2="486.1144" gradientTransform="matrix(152 0 0 -61.4045 58728.7461 29911.0352)">
						<stop  offset="0" style="stop-color:#5EA0EF"/>
						<stop  offset="1" style="stop-color:#0078D4"/>
					</linearGradient>
					<rect id="Rectangle-path_8_" x="1.4" class="st3" width="152" height="61.4"/>
				</g>
				<g id="Group_4_" transform="translate(0.000000, 60.454545)">
					<rect id="Rectangle-path_9_" y="0.2" class="st0" width="152" height="129.3"/>
					<rect id="Rectangle-path_10_" y="0.2" class="st1" width="152" height="129.3"/>
				</g>
				<g id="Group_5_">
					<rect id="Rectangle-path_11_" class="st0" width="152" height="61.4"/>
					
						<linearGradient id="Rectangle-path_28_" gradientUnits="userSpaceOnUse" x1="-68.0461" y1="487.1144" x2="-68.0461" y2="486.1144" gradientTransform="matrix(152 0 0 -61.4045 10419 29911.0352)">
						<stop  offset="0" style="stop-color:#5EA0EF"/>
						<stop  offset="1" style="stop-color:#0078D4"/>
					</linearGradient>
					<rect id="Rectangle-path_12_" class="st4" width="152" height="61.4"/>
				</g>
				<g id="Group_6_" transform="translate(366.181818, 88.090909)">
					<path id="Shape" class="st5" d="M8,42.9c-2.1-5.6-1.9-11.8,0.5-17.2s7-9.7,12.6-11.8c3.2-1.2,6.7-1.7,10.1-1.3l-1,5.5l12.2-6.6
						L33.3,0.7l-1.1,6C19.5,5.3,7.4,12.6,2.6,24.5s-0.8,25.6,9.5,33.2l1.1,0.8l3.5-4.8l-1.1-0.8C12.1,50.4,9.5,46.9,8,42.9z"/>
					<path id="Shape_1_" class="st5" d="M55.6,24.9c-1.7-4.5-4.5-8.5-8.2-11.6l-3.9,4.5c6.1,5.1,9,13.1,7.7,21
						c-1.4,7.9-6.8,14.4-14.3,17.2c-2,0.7-4.1,1.2-6.2,1.3l0.3-6l-11.4,7.9l10.4,10.7l0.4-6.6c3-0.1,5.9-0.7,8.6-1.7
						C53.8,56,61.2,39.6,55.6,24.9z"/>
				</g>
				<g id="Group_7_" transform="translate(200.363636, 91.545455)">
					<polygon id="Shape_2_" class="st6" points="69.8,1.2 15.2,1.2 15.2,47.9 69.8,47.9 					"/>
					<polygon id="Shape_3_" class="st5" points="55.3,15.4 0.7,15.4 0.7,62.4 55.3,62.4 					"/>
					<polygon id="Shape_4_" class="st7" points="40.4,26.3 30.1,26.3 32.6,28.9 13.6,47.9 18.7,53.1 37.7,34 40.3,36.6 					"/>
				</g>
				<path id="Shape_5_" class="st8" d="M76.2,157.9c35.5-25.4,36.3-39.9,36.3-44.4c0-6.5-0.7-23.3-17.6-24.3
					c-8.4-0.7-16.1,4.4-18.9,12.3c-2.6-8-10.3-13.2-18.6-12.6c-16.9,1.2-17.8,18.2-17.8,24.6c0,4.5,1.1,19,36.3,44.2"/>
				<path id="Shape_6_" class="st9" d="M50.6,115.2c0,0.9,0.1,1.9,0.3,2.8h-3.7c-0.1-0.4-0.2-0.9-0.2-1.4v-1.4
					c0-6.2,3.7-11.9,9.4-14.3c1.9-0.8,4-1.2,6-1.2c2,0,4,0.4,5.9,1.2c1.9,0.8,3.6,2,5,3.5l2.7,2.7l2.7-2.7c1.4-1.5,3.1-2.7,5-3.5
					c1.9-0.8,4-1.2,6-1.1c4.1,0,8,1.6,10.9,4.5c1.4,1.4,2.5,3.1,3.3,4.9c0.8,1.9,1.2,3.9,1.2,6c0,1.8-0.3,3.7-1,5.4
					c-0.6,1.7-1.6,3.3-2.7,4.7H88.1l-2.9-2.9l-2.9,2.9h-5.2l8-8l4.4,4.4h10.1c0.6-1,1.1-2,1.4-3.1c0.3-1.1,0.5-2.2,0.5-3.3
					c0-1.6-0.3-3.2-0.9-4.7c-0.6-1.4-1.4-2.7-2.5-3.7c-1.1-1-2.4-1.9-3.8-2.5c-1.5-0.6-3-0.9-4.6-0.8c-1.5,0-3.1,0.3-4.5,0.9
					c-1.4,0.6-2.8,1.4-3.9,2.5l-5.3,5.3l-5.4-5.3c-2.2-2.2-5.2-3.5-8.4-3.5c-3.1,0-6.2,1.3-8.4,3.5c-1.1,1.1-1.9,2.3-2.5,3.7
					C50.9,112,50.6,113.6,50.6,115.2z M55.7,125.3l20,20c0.2,0.8,0.3,1.5,0.6,2.3c0.3,0.8,0.6,1.5,1,2.2l-1.1,1.1l-24.6-24.6
					c-0.6-0.7-1.2-1.4-1.7-2.1c-0.5-0.8-1-1.6-1.4-2.5h6.9l8-8l12.8,12.7v5.2l-12.8-12.8l-6.5,6.5H55.7z M105.2,141.8
					c0,1.7-0.3,3.4-1,4.9c-0.6,1.5-1.6,2.9-2.7,4c-1.2,1.2-2.5,2.1-4,2.7c-1.6,0.7-3.3,1-5,1c-1.7,0-3.4-0.3-5-1
					c-1.5-0.6-2.9-1.6-4-2.7c-1.2-1.2-2.1-2.5-2.7-4c-0.7-1.6-1-3.3-1-5.1c0-3.4,1.4-6.7,3.9-9.1h-3.9v-3.6h10.9v11h-3.6v-5.5
					c-1.1,0.8-2,1.9-2.7,3.2c-1.2,2.4-1.3,5.1-0.3,7.6c0.9,2.2,2.7,3.9,4.9,4.9c2.3,1,4.8,1,7.1,0c2.2-0.9,3.9-2.7,4.8-4.8
					c0.5-1.1,0.7-2.3,0.7-3.6c0-0.9-0.1-1.9-0.4-2.8c-0.3-0.9-0.7-1.7-1.2-2.4c-0.5-0.7-1.2-1.4-1.9-2c-0.8-0.6-1.6-1-2.5-1.3
					l1.2-3.5c1.2,0.4,2.4,1.1,3.5,1.9c1,0.8,1.9,1.7,2.7,2.8c0.8,1,1.4,2.2,1.7,3.5c0.4,1.3,0.6,2.6,0.6,3.9V141.8z"/>
			</g>
			<g id="Text" transform="translate(17.272727, 8.636364)">
				<g id="Group_8_" transform="translate(0.000000, 12.090909)">
					<path id="Shape_7_" class="st10" d="M1.6,16.7v-3.2c1.1,0.9,2.5,1.5,4,1.5c0.4,0,0.7,0,1.1-0.1c0.3-0.1,0.5-0.2,0.8-0.3
						c0.2-0.1,0.4-0.3,0.5-0.4C8,13.9,8,13.7,8,13.5c0-0.3-0.1-0.5-0.2-0.8c-0.2-0.2-0.4-0.5-0.7-0.6c-0.3-0.2-0.7-0.4-1-0.6L4.9,11
						c-1-0.4-1.8-1-2.5-1.7C1.8,8.6,1.5,7.8,1.5,6.9c0-0.7,0.1-1.3,0.4-2c0.3-0.5,0.7-1,1.2-1.3C3.8,3.3,4.4,3,5,2.8
						c0.7-0.2,1.5-0.3,2.2-0.2c0.7,0,1.3,0,2,0.1c0.6,0.1,1.1,0.2,1.6,0.4v3c-0.3-0.2-0.5-0.3-0.8-0.4C9.8,5.6,9.5,5.5,9.2,5.4
						C8.9,5.3,8.6,5.3,8.3,5.2c-0.3,0-0.6,0-0.9,0c-0.3,0-0.7,0-1,0.1C6.1,5.4,5.9,5.5,5.6,5.6C5.4,5.8,5.3,5.9,5.1,6.1
						C4.9,6.5,4.9,7,5.1,7.4c0.2,0.2,0.3,0.4,0.6,0.6C6,8.1,6.3,8.3,6.6,8.4c0.4,0.2,0.8,0.4,1.1,0.5c0.5,0.2,1.1,0.5,1.6,0.8
						c0.4,0.2,0.8,0.6,1.2,0.9c0.3,0.3,0.6,0.7,0.8,1.2c0.2,0.5,0.3,1,0.3,1.6c0,0.7-0.1,1.4-0.5,2c-0.3,0.5-0.7,1-1.2,1.3
						c-0.6,0.3-1.2,0.5-1.8,0.6c-0.7,0.1-1.5,0.2-2.2,0.2c-0.8,0-1.5-0.1-2.3-0.2C2.8,17.2,2.2,17,1.6,16.7z"/>
					<path id="Shape_8_" class="st10" d="M22.9,13h-6.8c0.1,1.5,1.1,2.2,2.9,2.2c1.1,0,2.1-0.3,3-0.8v2.3c-1.2,0.6-2.4,0.8-3.7,0.8
						c-1.4,0.1-2.9-0.4-3.9-1.4c-1-1-1.5-2.5-1.4-3.9c-0.1-1.5,0.5-3,1.5-4.1c1-1,2.3-1.6,3.7-1.5c1.3-0.1,2.5,0.4,3.5,1.3
						c0.9,1,1.3,2.3,1.2,3.7L22.9,13z M19.9,11c0-1.5-0.6-2.2-1.7-2.2c-0.5,0-1,0.2-1.3,0.6c-0.4,0.4-0.6,1-0.7,1.6H19.9z"/>
					<polygon id="Shape_9_" class="st10" points="28.1,17.3 24.9,17.3 24.9,1.9 28.1,1.9 					"/>
					<path id="Shape_10_" class="st10" d="M37.5,4.4c-0.4-0.1-0.8-0.2-1.2-0.2c-1,0-1.5,0.6-1.5,1.7v1.1h2.4v2.3h-2.4v8h-3.2v-8
						h-1.7V6.9h1.7V5.6c0-1.1,0.4-2.1,1.2-2.9c0.9-0.7,2-1.1,3.1-1c0.5,0,1.1,0.1,1.6,0.2V4.4z"/>
					<polygon id="Shape_11_" class="st10" points="43.5,12.9 38,12.9 38,10.6 43.5,10.6 					"/>
					<path id="Shape_12_" class="st10" d="M56,17.3h-3.2v-5.9c0-1.5-0.6-2.3-1.7-2.3c-0.5,0-1,0.2-1.4,0.6c-0.4,0.5-0.6,1-0.5,1.6
						v5.9H46V1.9h3.2v6.5c0.7-1.1,1.9-1.8,3.2-1.7c2.3,0,3.5,1.4,3.5,4.2L56,17.3z"/>
					<path id="Shape_13_" class="st10" d="M67.9,13h-6.8c0.1,1.5,1.1,2.2,2.8,2.2c1.1,0,2.1-0.3,3-0.8v2.3c-1.2,0.6-2.4,0.8-3.7,0.8
						c-1.4,0.1-2.9-0.4-3.9-1.4c-1-1-1.5-2.5-1.4-3.9c-0.1-1.5,0.5-3,1.5-4.1c1-1,2.3-1.6,3.7-1.5c1.3-0.1,2.5,0.4,3.5,1.3
						c0.9,1,1.3,2.3,1.2,3.7L67.9,13z M64.9,11c0-1.5-0.6-2.2-1.7-2.2c-0.5,0-1,0.2-1.3,0.6c-0.4,0.4-0.6,1-0.7,1.6H64.9z"/>
					<path id="Shape_14_" class="st10" d="M78.5,17.3h-3v-1.5c-0.6,1.1-1.8,1.8-3.1,1.7c-0.9,0-1.7-0.3-2.4-0.9
						c-0.6-0.6-0.9-1.4-0.9-2.3c0-2,1.2-3.2,3.6-3.5l2.8-0.4c0-1.1-0.6-1.7-1.8-1.7c-1.2,0-2.4,0.4-3.5,1.1V7.5
						C70.8,7.3,71.4,7,72,6.9c0.7-0.2,1.4-0.3,2.1-0.3c1.2-0.2,2.4,0.2,3.3,1.1s1.3,2.1,1.1,3.3V17.3z M75.5,13.1v-0.7l-1.9,0.2
						c-1,0.1-1.6,0.6-1.6,1.4c0,0.3,0.1,0.7,0.4,0.9c0.3,0.2,0.7,0.4,1,0.3c0.6,0,1.1-0.2,1.5-0.6C75.3,14.2,75.5,13.6,75.5,13.1z"
						/>
					<polygon id="Shape_15_" class="st10" points="84.2,17.3 81,17.3 81,1.9 84.2,1.9 					"/>
					<path id="Shape_16_" class="st10" d="M88.5,5.3c-0.5,0-1-0.2-1.3-0.5c-0.3-0.3-0.5-0.7-0.5-1.2c0-0.4,0.2-0.9,0.5-1.2
						C87.5,2.1,88,2,88.5,2c0.5,0,1,0.1,1.3,0.4c0.3,0.3,0.5,0.7,0.5,1.2c0,0.5-0.2,0.9-0.5,1.2C89.5,5.1,89,5.3,88.5,5.3z
						 M90.1,17.4h-3.2V6.9h3.2V17.4z"/>
					<path id="Shape_17_" class="st10" d="M102.8,17.3h-3.2v-5.8c0-1.6-0.6-2.4-1.7-2.4c-0.5,0-1,0.2-1.4,0.6
						c-0.4,0.5-0.6,1-0.5,1.6v5.9h-3.2V6.9h3.2v1.7c0.7-1.2,1.9-1.9,3.3-1.9c2.3,0,3.5,1.4,3.5,4.3L102.8,17.3z"/>
					<path id="Shape_18_" class="st10" d="M115.5,16.1c0.1,1.7-0.5,3.3-1.7,4.5c-1.3,1.1-3.1,1.7-4.8,1.6c-1.1,0-2.3-0.2-3.3-0.6
						v-2.7c1,0.6,2.1,0.9,3.2,0.9c0.9,0.1,1.8-0.2,2.6-0.8c0.6-0.6,0.9-1.5,0.8-2.4v-0.8c-0.7,1.1-1.9,1.8-3.2,1.7
						c-1.2,0.1-2.4-0.5-3.2-1.4c-0.8-1.1-1.2-2.4-1.2-3.7c-0.1-1.5,0.4-3,1.3-4.2c0.8-1,2.1-1.6,3.5-1.6c1.1,0,2.2,0.5,2.8,1.5V6.9
						h3.2L115.5,16.1z M112.4,12.3v-0.8c0-0.6-0.2-1.2-0.6-1.7c-0.4-0.5-0.9-0.7-1.5-0.7c-0.7,0-1.3,0.3-1.7,0.8
						c-0.4,0.7-0.7,1.5-0.6,2.3c0,0.7,0.2,1.4,0.6,2c0.4,0.5,1,0.8,1.6,0.8c0.6,0,1.2-0.3,1.6-0.8C112.1,13.7,112.4,13,112.4,12.3z"
						/>
				</g>
				<g id="Group_9_" transform="translate(176.181818, 0.000000)">
					<path id="Shape_19_" class="st10" d="M1.2,16.6V2.1h5.2c5.1,0,7.7,2.4,7.7,7.1c0.1,2-0.7,4-2.1,5.4c-1.5,1.4-3.5,2.1-5.6,2H1.2
						z M4.4,4.7v9.2h1.6c1.2,0.1,2.5-0.4,3.3-1.3c0.8-0.9,1.3-2.2,1.2-3.5c0.1-1.2-0.4-2.4-1.2-3.3C8.5,5.1,7.2,4.6,6,4.8L4.4,4.7z"
						/>
					<path id="Shape_20_" class="st10" d="M26.2,6.2L22,17.4c-1,2.7-2.5,4-4.6,4c-0.6,0-1.3-0.1-1.9-0.3v-2.6
						c0.4,0.2,0.9,0.4,1.4,0.4c0.8,0,1.5-0.4,1.7-1.2l0.6-1.3L15,6.2h3.5l1.9,6.3c0.1,0.5,0.2,0.9,0.3,1.4c0.1-0.5,0.2-0.9,0.3-1.4
						l2-6.3L26.2,6.2z"/>
					<path id="Shape_21_" class="st10" d="M37.6,16.6h-3.2v-5.8c0-1.6-0.6-2.4-1.7-2.4c-0.5,0-1,0.2-1.4,0.6c-0.4,0.5-0.6,1-0.5,1.6
						v5.9h-3.2V6.2h3.2v1.7c0.7-1.2,2-1.9,3.3-1.9c2.3,0,3.5,1.4,3.5,4.3V16.6z"/>
					<path id="Shape_22_" class="st10" d="M48.8,16.6h-3v-1.5c-0.6,1.1-1.8,1.8-3.1,1.7c-0.9,0-1.7-0.3-2.4-0.9
						c-0.6-0.6-0.9-1.4-0.9-2.3c0-2,1.2-3.2,3.6-3.5l2.8-0.4c0-1.1-0.6-1.7-1.8-1.7c-1.2,0-2.4,0.4-3.5,1.1V6.9
						c0.6-0.3,1.2-0.5,1.8-0.6C43.1,6.1,43.8,6,44.5,6c1.2-0.1,2.4,0.3,3.2,1.1s1.3,2,1.1,3.2V16.6z M45.8,12.4v-0.7L44,11.9
						c-1,0.1-1.6,0.6-1.6,1.4c0,0.3,0.1,0.7,0.4,0.9c0.3,0.2,0.7,0.4,1,0.3c0.6,0,1.1-0.2,1.5-0.6C45.7,13.5,45.9,12.9,45.8,12.4z"
						/>
					<path id="Shape_23_" class="st10" d="M67.8,16.6h-3.2v-5.9c0-1.5-0.6-2.3-1.7-2.3c-0.5,0-1,0.2-1.3,0.7
						c-0.3,0.5-0.5,1.1-0.5,1.7v5.8h-3.2v-6c0-1.5-0.5-2.2-1.6-2.2c-0.5,0-1,0.2-1.3,0.7c-0.3,0.5-0.5,1.1-0.5,1.7v5.8h-3.2V6.2h3.2
						v1.6c0.3-0.6,0.8-1,1.4-1.4c0.6-0.3,1.3-0.5,2-0.5c1.3-0.1,2.5,0.7,3,1.9c0.7-1.2,2-2,3.5-1.9c2.3,0,3.5,1.4,3.5,4.2L67.8,16.6
						z"/>
					<path id="Shape_24_" class="st10" d="M71.9,4.6c-0.5,0-1-0.2-1.3-0.5c-0.3-0.3-0.5-0.7-0.5-1.2c0-0.4,0.2-0.9,0.5-1.2
						c0.8-0.6,1.9-0.6,2.6,0c0.3,0.3,0.5,0.7,0.5,1.2c0,0.5-0.2,0.9-0.5,1.2C72.9,4.4,72.4,4.6,71.9,4.6z M73.5,16.7h-3.2V6.3h3.2
						V16.7z"/>
					<path id="Shape_25_" class="st10" d="M84,16.2c-1,0.5-2.1,0.7-3.1,0.6c-1.4,0.1-2.8-0.5-3.9-1.5c-1-1-1.5-2.3-1.5-3.7
						c-0.1-1.5,0.5-3.1,1.6-4.2c1.1-1.1,2.7-1.6,4.2-1.5c0.9-0.1,1.8,0.1,2.7,0.5v2.7c-0.6-0.5-1.4-0.7-2.2-0.7
						c-0.8,0-1.6,0.3-2.2,0.8c-0.6,0.6-0.9,1.4-0.8,2.2c0,0.8,0.2,1.6,0.8,2.2c0.6,0.6,1.3,0.8,2.1,0.8c0.8,0,1.7-0.3,2.3-0.8V16.2z
						"/>
					<path id="Shape_26_" class="st10" d="M9,41.2v-2.6c0.5,0.3,1,0.5,1.6,0.7c0.5,0.2,1,0.2,1.5,0.2c0.5,0,0.9-0.1,1.3-0.2
						c0.3-0.1,0.5-0.4,0.5-0.7c0-0.2-0.1-0.4-0.2-0.5c-0.2-0.1-0.4-0.3-0.6-0.4c-0.3-0.1-0.5-0.2-0.8-0.3l-0.8-0.3
						c-0.4-0.1-0.7-0.3-1.1-0.5c-0.3-0.2-0.6-0.4-0.8-0.6c-0.2-0.2-0.4-0.5-0.5-0.8C9.1,34.9,9,34.5,9,34.1c0-0.5,0.1-1,0.4-1.5
						c0.2-0.4,0.6-0.8,1-1c0.4-0.3,0.9-0.5,1.5-0.6c0.6-0.1,1.1-0.2,1.7-0.2c0.5,0,0.9,0,1.4,0.1c0.5,0.1,0.9,0.2,1.4,0.3v2.5
						c-0.4-0.2-0.8-0.4-1.3-0.5c-0.4-0.1-0.9-0.2-1.4-0.2c-0.2,0-0.4,0-0.6,0c-0.2,0-0.3,0.1-0.5,0.2c-0.1,0.1-0.2,0.2-0.3,0.3
						c-0.1,0.1-0.1,0.2-0.1,0.4c0,0.2,0.1,0.4,0.2,0.5c0.1,0.1,0.3,0.3,0.5,0.3c0.2,0.1,0.4,0.2,0.7,0.3l0.7,0.2
						c0.4,0.1,0.8,0.3,1.2,0.5c0.3,0.2,0.6,0.4,0.9,0.6c0.2,0.2,0.4,0.5,0.6,0.8c0.1,0.4,0.2,0.8,0.2,1.1c0,0.6-0.1,1.1-0.4,1.6
						c-0.3,0.4-0.6,0.8-1.1,1.1c-0.5,0.3-1,0.5-1.5,0.6c-0.6,0.1-1.1,0.2-1.7,0.2C11.2,41.7,10.1,41.5,9,41.2z"/>
					<path id="Shape_27_" class="st10" d="M26.7,41.1c-1,0.5-2,0.7-3.1,0.6c-1.4,0.1-2.8-0.5-3.9-1.5c-1-1-1.5-2.3-1.5-3.7
						c-0.1-1.6,0.5-3.1,1.6-4.2c1.2-1,2.7-1.6,4.2-1.5c0.9-0.1,1.8,0.1,2.6,0.5V34c-0.6-0.5-1.4-0.7-2.2-0.7
						c-1.2,0.1-2.3,0.8-2.7,1.9c-0.5,1.1-0.3,2.4,0.5,3.3c0.6,0.6,1.3,0.8,2.1,0.8c0.8,0,1.6-0.3,2.3-0.8V41.1z"/>
					<path id="Shape_28_" class="st10" d="M37.6,41.5h-3.1V40c-0.6,1.1-1.8,1.8-3.1,1.7c-0.9,0-1.7-0.3-2.4-0.9
						c-0.6-0.6-0.9-1.4-0.9-2.3c0-2,1.2-3.2,3.6-3.5l2.7-0.4c0-1.1-0.6-1.7-1.8-1.7c-1.2,0-2.4,0.4-3.5,1.1v-2.4
						c0.6-0.3,1.2-0.5,1.8-0.6c0.7-0.2,1.4-0.3,2.1-0.3c1.2-0.2,2.4,0.2,3.3,1.1s1.3,2.1,1.1,3.3L37.6,41.5z M34.5,37.2v-0.7
						l-1.7,0.2c-1,0.1-1.6,0.6-1.6,1.4c0,0.3,0.1,0.7,0.4,0.9c0.3,0.2,0.6,0.4,1,0.3c0.6,0,1.1-0.2,1.5-0.6
						C34.5,38.4,34.6,37.8,34.5,37.2z"/>
					<polygon id="Shape_29_" class="st10" points="43.3,41.5 40.1,41.5 40.1,26.1 43.3,26.1 					"/>
					<path id="Shape_30_" class="st10" d="M47.6,29.5c-0.5,0-1-0.2-1.3-0.5c-0.3-0.3-0.5-0.7-0.5-1.2c0-0.4,0.2-0.9,0.5-1.2
						c0.4-0.3,0.8-0.5,1.3-0.4c0.5,0,1,0.1,1.3,0.4c0.3,0.3,0.5,0.7,0.5,1.2c0,0.5-0.2,0.9-0.5,1.2C48.6,29.3,48.1,29.5,47.6,29.5z
						 M49.2,41.5H46V31.1h3.2V41.5z"/>
					<path id="Shape_31_" class="st10" d="M61.9,41.5h-3.1v-5.8c0-1.6-0.6-2.4-1.7-2.4c-0.5,0-1,0.2-1.4,0.6c-0.4,0.5-0.6,1-0.5,1.6
						v5.9h-3.3V31.1H55v1.7c0.7-1.2,2-1.9,3.3-1.9c2.3,0,3.5,1.4,3.5,4.3L61.9,41.5z"/>
					<path id="Shape_32_" class="st10" d="M74.6,40.3c0.1,1.7-0.5,3.3-1.7,4.5c-1.3,1.1-3.1,1.7-4.8,1.6c-1.1,0-2.3-0.2-3.3-0.6V43
						c1,0.6,2.1,0.9,3.2,0.9c0.9,0.1,1.8-0.2,2.5-0.8c0.6-0.6,0.9-1.5,0.9-2.3V40c-0.7,1.1-1.9,1.8-3.2,1.7
						c-1.2,0.1-2.4-0.5-3.1-1.4c-0.8-1.1-1.2-2.4-1.2-3.7c-0.1-1.5,0.4-3,1.3-4.2c0.8-1,2.1-1.6,3.5-1.6c1.1-0.1,2.2,0.5,2.8,1.5
						v-1.2h3.2L74.6,40.3z M71.5,36.5v-0.8c0-0.6-0.2-1.2-0.6-1.7c-0.4-0.5-0.9-0.7-1.5-0.7c-0.7,0-1.3,0.3-1.7,0.8
						c-0.5,0.7-0.7,1.5-0.6,2.3c0,0.7,0.2,1.4,0.6,2c0.4,0.5,1,0.8,1.6,0.8c0.6,0,1.2-0.3,1.6-0.8C71.2,37.9,71.5,37.2,71.5,36.5z"
						/>
				</g>
				<g id="Group_10_" transform="translate(338.545455, 0.000000)">
					<path id="Shape_33_" class="st10" d="M18.8,16.6H15l-2.3-3.7c-0.1-0.3-0.3-0.5-0.5-0.8c-0.1-0.2-0.3-0.4-0.5-0.6
						c-0.1-0.2-0.3-0.3-0.5-0.4c-0.2-0.1-0.4-0.1-0.6-0.1H9.8v5.6H6.6V2.1h5.2C15.3,2.1,17,3.4,17,6c0,0.5-0.1,1-0.2,1.4
						c-0.1,0.4-0.4,0.8-0.7,1.2c-0.3,0.4-0.6,0.7-1,0.9c-0.4,0.3-0.9,0.5-1.3,0.6c0.2,0.1,0.4,0.2,0.6,0.3c0.2,0.2,0.4,0.3,0.6,0.5
						c0.2,0.2,0.4,0.4,0.5,0.7c0.2,0.2,0.3,0.5,0.5,0.7L18.8,16.6z M9.8,4.5v4.1h1.4c0.6,0,1.3-0.2,1.7-0.6c0.4-0.4,0.7-0.9,0.6-1.5
						c0-1.3-0.8-1.9-2.3-1.9L9.8,4.5z"/>
					<path id="Shape_34_" class="st10" d="M24.5,16.8c-1.5,0.1-3-0.4-4.1-1.5c-1-1.1-1.6-2.5-1.5-4c-0.1-1.5,0.5-3,1.5-4
						c1.1-1,2.6-1.5,4.2-1.5c1.5-0.1,2.9,0.4,4,1.5c1,1,1.5,2.4,1.5,3.9c0.1,1.5-0.5,3-1.5,4.1C27.5,16.4,26,16.9,24.5,16.8z
						 M24.5,8.4c-0.7,0-1.3,0.3-1.7,0.8c-0.5,0.6-0.7,1.4-0.6,2.2c0,2,0.8,3,2.4,3c1.6,0,2.3-1,2.3-3.1S26.1,8.4,24.5,8.4L24.5,8.4z
						"/>
					<polygon id="Shape_35_" class="st10" points="35.4,16.6 32.2,16.6 32.2,1.2 35.4,1.2 					"/>
					<polygon id="Shape_36_" class="st10" points="41.2,16.6 38,16.6 38,1.2 41.2,1.2 					"/>
					<path id="Shape_37_" class="st10" d="M45.5,4.6c-0.5,0-1-0.2-1.3-0.5c-0.3-0.3-0.5-0.7-0.5-1.2c0-0.4,0.2-0.9,0.5-1.2
						c0.4-0.3,0.8-0.5,1.3-0.4c0.5,0,1,0.1,1.3,0.4c0.3,0.3,0.5,0.7,0.5,1.2c0,0.5-0.2,0.9-0.5,1.2C46.5,4.4,46,4.6,45.5,4.6z
						 M47.1,16.7h-3.2V6.3h3.2V16.7z"/>
					<path id="Shape_38_" class="st10" d="M59.7,16.6h-3.2v-5.8c0-1.6-0.6-2.4-1.7-2.4c-0.5,0-1,0.2-1.4,0.6c-0.4,0.5-0.6,1-0.5,1.6
						v5.9h-3.2V6.2h3.2v1.7c0.7-1.2,2-1.9,3.3-1.9c2.3,0,3.5,1.4,3.5,4.3L59.7,16.6z"/>
					<path id="Shape_39_" class="st10" d="M72.5,15.4c0.1,1.7-0.5,3.3-1.7,4.5c-1.3,1.1-3.1,1.7-4.8,1.6c-1.1,0-2.3-0.2-3.3-0.6
						v-2.7c1,0.6,2.1,0.9,3.2,0.9c0.9,0.1,1.8-0.2,2.5-0.8c0.6-0.6,0.9-1.5,0.9-2.3v-0.8c-0.7,1.1-1.9,1.8-3.2,1.7
						c-1.2,0-2.4-0.5-3.1-1.4c-0.8-1.1-1.2-2.4-1.2-3.7c-0.1-1.5,0.4-3,1.3-4.2c0.8-1,2.1-1.6,3.5-1.6c1.1-0.1,2.2,0.5,2.8,1.5V6.2
						h3.2V15.4z M69.4,11.6v-0.8c0-0.6-0.2-1.2-0.6-1.7c-0.4-0.5-0.9-0.7-1.5-0.7c-0.7,0-1.3,0.3-1.7,0.8c-0.4,0.7-0.7,1.5-0.6,2.3
						c0,0.7,0.2,1.4,0.6,2c0.4,0.5,1,0.8,1.6,0.8c0.6,0,1.2-0.3,1.6-0.8C69.2,13,69.4,12.3,69.4,11.6L69.4,11.6z"/>
					<path id="Shape_40_" class="st10" d="M11.6,41.5H8.4v-1.6c-0.7,1.2-1.9,1.9-3.2,1.8c-2.4,0-3.6-1.5-3.6-4.4v-6.3h3.2v6
						c0,1.5,0.6,2.2,1.7,2.2c0.5,0,1-0.2,1.4-0.6c0.4-0.5,0.6-1,0.5-1.6v-5.9h3.2L11.6,41.5z"/>
					<path id="Shape_41_" class="st10" d="M17.5,40.2v6h-3.2V31.1h3.2v1.6c0.7-1.1,2-1.8,3.3-1.7c1.2-0.1,2.4,0.5,3.1,1.4
						c0.8,1.1,1.2,2.4,1.1,3.8c0.1,1.5-0.4,3-1.3,4.2c-0.8,1-2.1,1.6-3.5,1.6C19.2,41.8,18.1,41.2,17.5,40.2z M17.4,36v0.8
						c0,0.6,0.2,1.2,0.6,1.7c0.4,0.4,0.9,0.7,1.5,0.7c0.7,0,1.3-0.3,1.7-0.8c0.4-0.7,0.7-1.6,0.6-2.4c0-1.8-0.7-2.7-2.1-2.7
						c-0.6,0-1.2,0.3-1.6,0.7C17.6,34.6,17.4,35.3,17.4,36z"/>
					<path id="Shape_42_" class="st10" d="M37.3,41.5h-3.2V40c-0.7,1.1-1.9,1.8-3.2,1.7c-1.2,0-2.3-0.5-3.1-1.4
						c-0.9-1.1-1.3-2.5-1.2-3.8c-0.1-1.5,0.4-2.9,1.3-4.1c0.8-1,2.1-1.6,3.5-1.6c1.1-0.1,2.2,0.5,2.8,1.5v-6.2h3.2L37.3,41.5z
						 M34.2,36.4v-0.8c0-0.6-0.2-1.2-0.6-1.7c-0.4-0.5-1-0.7-1.6-0.7c-0.6,0-1.2,0.3-1.6,0.8c-0.4,0.7-0.6,1.5-0.6,2.3
						c0,0.7,0.2,1.5,0.6,2.1c0.4,0.5,1,0.8,1.6,0.8s1.2-0.3,1.6-0.8C34,37.9,34.2,37.1,34.2,36.4z"/>
					<path id="Shape_43_" class="st10" d="M48.7,41.5h-3V40c-0.6,1.1-1.8,1.8-3.1,1.7c-0.9,0-1.7-0.3-2.4-0.9
						c-0.6-0.6-0.9-1.4-0.9-2.3c0-2,1.2-3.2,3.6-3.5l2.8-0.4c0-1.1-0.6-1.7-1.8-1.7c-1.2,0-2.4,0.4-3.5,1.1v-2.4
						c0.6-0.3,1.2-0.5,1.8-0.6c0.7-0.2,1.4-0.3,2.1-0.3c1.2-0.2,2.4,0.2,3.3,1.1s1.3,2.1,1.1,3.3L48.7,41.5z M45.7,37.2v-0.7
						l-1.9,0.2c-1,0.1-1.6,0.6-1.6,1.4c0,0.3,0.1,0.7,0.4,0.9c0.3,0.2,0.6,0.4,1,0.3c0.6,0,1.1-0.2,1.5-0.6
						C45.5,38.4,45.7,37.8,45.7,37.2z"/>
					<path id="Shape_44_" class="st10" d="M57.3,41.3c-0.7,0.3-1.4,0.4-2.1,0.4c-2.3,0-3.5-1.2-3.5-3.5v-4.8H50v-2.3h1.7v-2.2
						l3.2-0.9v3.1h2.3v2.3h-2.3v4.2c0,1.1,0.4,1.6,1.3,1.6c0.4,0,0.7-0.1,1-0.3L57.3,41.3z"/>
					<path id="Shape_45_" class="st10" d="M68.4,37.2h-6.8c0.1,1.5,1.1,2.2,2.8,2.2c1.1,0,2.1-0.3,3-0.8v2.3
						c-1.2,0.6-2.4,0.8-3.7,0.8c-1.4,0.1-2.9-0.4-3.9-1.4c-1-1-1.5-2.5-1.4-3.9c-0.1-1.5,0.5-3,1.5-4.1c1-1,2.3-1.5,3.7-1.5
						c1.3-0.1,2.5,0.4,3.5,1.3c0.9,1,1.3,2.3,1.2,3.7L68.4,37.2z M65.4,35.2c0-1.5-0.6-2.2-1.7-2.2c-0.5,0-1,0.2-1.3,0.6
						c-0.4,0.4-0.6,1-0.7,1.6H65.4z"/>
					<path id="Shape_46_" class="st10" d="M69.9,41.2v-2.6c0.5,0.3,1,0.5,1.6,0.7c0.5,0.2,1,0.2,1.5,0.2c0.5,0,0.9-0.1,1.3-0.2
						c0.3-0.1,0.5-0.4,0.5-0.7c0-0.2-0.1-0.4-0.2-0.5c-0.2-0.2-0.4-0.3-0.6-0.4c-0.2-0.1-0.5-0.2-0.8-0.3l-0.8-0.3
						c-0.4-0.1-0.7-0.3-1.1-0.5c-0.3-0.2-0.6-0.4-0.8-0.6c-0.2-0.2-0.4-0.5-0.5-0.8c-0.1-0.4-0.2-0.7-0.2-1.1c0-0.5,0.1-1,0.4-1.5
						c0.3-0.4,0.6-0.8,1-1c0.4-0.3,0.9-0.5,1.5-0.6c0.6-0.1,1.1-0.2,1.7-0.2c0.5,0,0.9,0,1.4,0.1l1.4,0.3v2.5
						c-0.4-0.2-0.9-0.4-1.3-0.5C75.5,33.1,75,33,74.6,33c-0.2,0-0.4,0-0.6,0c-0.2,0-0.3,0.1-0.5,0.2c-0.1,0.1-0.3,0.2-0.3,0.3
						c-0.1,0.1-0.1,0.2-0.1,0.4c0,0.2,0.1,0.4,0.2,0.5c0.1,0.1,0.3,0.3,0.5,0.3c0.2,0.1,0.4,0.2,0.6,0.3l0.7,0.2
						c0.4,0.1,0.8,0.3,1.1,0.5c0.3,0.2,0.6,0.4,0.9,0.6c0.2,0.2,0.4,0.5,0.6,0.8c0.1,0.4,0.2,0.7,0.2,1.1c0,0.6-0.1,1.1-0.4,1.6
						c-0.3,0.4-0.6,0.8-1.1,1.1c-0.5,0.3-1,0.5-1.5,0.6c-0.6,0.1-1.1,0.2-1.7,0.2C72.1,41.7,70.9,41.5,69.9,41.2z"/>
				</g>
			</g>
		</g>
	</g>
</g>
<g id="cleaned">
	<g id="Page-1_1_">
		<g id="_x32_-kubernetes-benefits_1_">
			<g id="Shapes_1_">
				<rect id="Rectangle-path_25_" x="0" class="st0" width="471.2" height="190"/>
				<g id="Group_21_" transform="translate(158.909091, 60.454545)">
					<rect id="Rectangle-path_24_" x="0.7" y="0.2" class="st0" width="152" height="129.3"/>
					<rect id="Rectangle-path_23_" x="0.7" y="0.2" class="st1" width="152" height="129.3"/>
				</g>
				<g id="Group_20_" transform="translate(158.909091, 0.000000)">
					<rect id="Rectangle-path_22_" x="0.7" class="st0" width="152" height="61.4"/>
					
						<linearGradient id="Rectangle-path_29_" gradientUnits="userSpaceOnUse" x1="-226.9551" y1="487.1144" x2="-226.9551" y2="486.1144" gradientTransform="matrix(152 0 0 -61.4045 34573.8711 29911.0352)">
						<stop  offset="0" style="stop-color:#5EA0EF"/>
						<stop  offset="1" style="stop-color:#0078D4"/>
					</linearGradient>
					<rect id="Rectangle-path_21_" x="0.7" class="st11" width="152" height="61.4"/>
				</g>
				<g id="Group_19_" transform="translate(317.818182, 60.454545)">
					<rect id="Rectangle-path_20_" x="1.4" y="0.2" class="st0" width="152" height="129.3"/>
					<rect id="Rectangle-path_19_" x="1.4" y="0.2" class="st1" width="152" height="129.3"/>
				</g>
				<g id="Group_18_" transform="translate(317.818182, 0.000000)">
					<rect id="Rectangle-path_18_" x="1.4" class="st0" width="152" height="61.4"/>
					
						<linearGradient id="Rectangle-path_30_" gradientUnits="userSpaceOnUse" x1="-385.8642" y1="487.1144" x2="-385.8642" y2="486.1144" gradientTransform="matrix(152 0 0 -61.4045 58728.7461 29911.0352)">
						<stop  offset="0" style="stop-color:#5EA0EF"/>
						<stop  offset="1" style="stop-color:#0078D4"/>
					</linearGradient>
					<rect id="Rectangle-path_17_" x="1.4" class="st12" width="152" height="61.4"/>
				</g>
				<g id="Group_17_" transform="translate(0.000000, 60.454545)">
					<rect id="Rectangle-path_16_" y="0.2" class="st0" width="152" height="129.3"/>
					<rect id="Rectangle-path_15_" y="0.2" class="st1" width="152" height="129.3"/>
				</g>
				<g id="Group_16_">
					<rect id="Rectangle-path_14_" class="st0" width="152" height="61.4"/>
					
						<linearGradient id="Rectangle-path_31_" gradientUnits="userSpaceOnUse" x1="-68.0461" y1="487.1144" x2="-68.0461" y2="486.1144" gradientTransform="matrix(152 0 0 -61.4045 10419 29911.0352)">
						<stop  offset="0" style="stop-color:#5EA0EF"/>
						<stop  offset="1" style="stop-color:#0078D4"/>
					</linearGradient>
					<rect id="Rectangle-path_13_" class="st13" width="152" height="61.4"/>
				</g>
				<g id="Group_15_" transform="translate(366.181818, 88.090909)">
					<path id="Shape_93_" class="st5" d="M8,42.9c-2.1-5.6-1.9-11.8,0.5-17.2s7-9.7,12.6-11.8c3.2-1.2,6.7-1.7,10.1-1.3l-1,5.5
						l12.2-6.6L33.3,0.7l-1.1,6C19.5,5.3,7.4,12.6,2.6,24.5s-0.8,25.6,9.5,33.2l1.1,0.8l3.5-4.8l-1.1-0.8C12.1,50.4,9.5,46.9,8,42.9
						z"/>
					<path id="Shape_92_" class="st5" d="M55.6,24.9c-1.7-4.5-4.5-8.5-8.2-11.6l-3.9,4.5c6.1,5.1,9,13.1,7.7,21
						c-1.4,7.9-6.8,14.4-14.3,17.2c-2,0.7-4.1,1.2-6.2,1.3l0.3-6l-11.4,7.9l10.4,10.7l0.4-6.6c3-0.1,5.9-0.7,8.6-1.7
						C53.8,56,61.2,39.6,55.6,24.9z"/>
				</g>
				<g id="Group_14_" transform="translate(200.363636, 91.545455)">
					<polygon id="Shape_91_" class="st6" points="69.8,1.2 15.2,1.2 15.2,47.9 69.8,47.9 					"/>
					<polygon id="Shape_90_" class="st5" points="55.3,15.4 0.7,15.4 0.7,62.4 55.3,62.4 					"/>
					<polygon id="Shape_89_" class="st7" points="40.4,26.3 30.1,26.3 32.6,28.9 13.6,47.9 18.7,53.1 37.7,34 40.3,36.6 					"/>
				</g>
				<path id="Shape_88_" class="st8" d="M76.2,157.9c35.5-25.4,36.3-39.9,36.3-44.4c0-6.5-0.7-23.3-17.6-24.3
					c-8.4-0.7-16.1,4.4-18.9,12.3c-2.6-8-10.3-13.2-18.6-12.6c-16.9,1.2-17.8,18.2-17.8,24.6c0,4.5,1.1,19,36.3,44.2"/>
				<path id="Shape_87_" class="st9" d="M50.6,115.2c0,0.9,0.1,1.9,0.3,2.8h-3.7c-0.1-0.4-0.2-0.9-0.2-1.4v-1.4
					c0-6.2,3.7-11.9,9.4-14.3c1.9-0.8,4-1.2,6-1.2c2,0,4,0.4,5.9,1.2c1.9,0.8,3.6,2,5,3.5l2.7,2.7l2.7-2.7c1.4-1.5,3.1-2.7,5-3.5
					c1.9-0.8,4-1.2,6-1.1c4.1,0,8,1.6,10.9,4.5c1.4,1.4,2.5,3.1,3.3,4.9c0.8,1.9,1.2,3.9,1.2,6c0,1.8-0.3,3.7-1,5.4
					c-0.6,1.7-1.6,3.3-2.7,4.7H88.1l-2.9-2.9l-2.9,2.9h-5.2l8-8l4.4,4.4h10.1c0.6-1,1.1-2,1.4-3.1c0.3-1.1,0.5-2.2,0.5-3.3
					c0-1.6-0.3-3.2-0.9-4.7c-0.6-1.4-1.4-2.7-2.5-3.7c-1.1-1-2.4-1.9-3.8-2.5c-1.5-0.6-3-0.9-4.6-0.8c-1.5,0-3.1,0.3-4.5,0.9
					c-1.4,0.6-2.8,1.4-3.9,2.5l-5.3,5.3l-5.4-5.3c-2.2-2.2-5.2-3.5-8.4-3.5c-3.1,0-6.2,1.3-8.4,3.5c-1.1,1.1-1.9,2.3-2.5,3.7
					C50.9,112,50.6,113.6,50.6,115.2z M55.7,125.3l20,20c0.2,0.8,0.3,1.5,0.6,2.3c0.3,0.8,0.6,1.5,1,2.2l-1.1,1.1l-24.6-24.6
					c-0.6-0.7-1.2-1.4-1.7-2.1c-0.5-0.8-1-1.6-1.4-2.5h6.9l8-8l12.8,12.7v5.2l-12.8-12.8l-6.5,6.5H55.7z M105.2,141.8
					c0,1.7-0.3,3.4-1,4.9c-0.6,1.5-1.6,2.9-2.7,4c-1.2,1.2-2.5,2.1-4,2.7c-1.6,0.7-3.3,1-5,1c-1.7,0-3.4-0.3-5-1
					c-1.5-0.6-2.9-1.6-4-2.7c-1.2-1.2-2.1-2.5-2.7-4c-0.7-1.6-1-3.3-1-5.1c0-3.4,1.4-6.7,3.9-9.1h-3.9v-3.6h10.9v11h-3.6v-5.5
					c-1.1,0.8-2,1.9-2.7,3.2c-1.2,2.4-1.3,5.1-0.3,7.6c0.9,2.2,2.7,3.9,4.9,4.9c2.3,1,4.8,1,7.1,0c2.2-0.9,3.9-2.7,4.8-4.8
					c0.5-1.1,0.7-2.3,0.7-3.6c0-0.9-0.1-1.9-0.4-2.8c-0.3-0.9-0.7-1.7-1.2-2.4c-0.5-0.7-1.2-1.4-1.9-2c-0.8-0.6-1.6-1-2.5-1.3
					l1.2-3.5c1.2,0.4,2.4,1.1,3.5,1.9c1,0.8,1.9,1.7,2.7,2.8c0.8,1,1.4,2.2,1.7,3.5c0.4,1.3,0.6,2.6,0.6,3.9V141.8z"/>
			</g>
		</g>
	</g>
</g>
<g id="text">
	<g>
		<path d="M41.2,28h-2.5l-1.5-2.5c-0.1-0.2-0.2-0.4-0.3-0.5s-0.2-0.3-0.3-0.4s-0.2-0.2-0.3-0.2s-0.2-0.1-0.4-0.1h-0.6V28h-2.2v-9.8
			h3.5c2.4,0,3.6,0.9,3.6,2.7c0,0.3-0.1,0.7-0.2,0.9s-0.3,0.6-0.4,0.8S39,23,38.7,23.2s-0.6,0.3-0.9,0.4v0c0.1,0,0.3,0.1,0.4,0.2
			s0.3,0.2,0.4,0.4s0.2,0.3,0.4,0.4s0.2,0.3,0.3,0.5L41.2,28z M35.1,19.9v2.7h1c0.5,0,0.9-0.1,1.1-0.4c0.3-0.3,0.4-0.6,0.4-1
			c0-0.9-0.5-1.3-1.5-1.3H35.1z"/>
		<path d="M47.8,25.1h-4.6c0.1,1,0.7,1.5,1.9,1.5c0.8,0,1.4-0.2,2-0.5v1.6c-0.6,0.3-1.5,0.5-2.5,0.5c-1.1,0-2-0.3-2.6-0.9
			s-0.9-1.5-0.9-2.6c0-1.2,0.3-2.1,1-2.8s1.5-1,2.5-1c1,0,1.8,0.3,2.4,0.9s0.8,1.4,0.8,2.5V25.1z M45.8,23.8c0-1-0.4-1.5-1.2-1.5
			c-0.3,0-0.6,0.1-0.9,0.4s-0.4,0.6-0.5,1.1H45.8z"/>
		<path d="M54.4,27.7c-0.5,0.3-1.2,0.4-2.1,0.4c-1.1,0-1.9-0.3-2.6-1s-1-1.5-1-2.5c0-1.2,0.4-2.1,1.1-2.8s1.7-1,2.9-1
			c0.8,0,1.4,0.1,1.8,0.3V23c-0.5-0.3-1-0.5-1.5-0.5c-0.6,0-1.1,0.2-1.5,0.5s-0.5,0.9-0.5,1.5c0,0.6,0.2,1.1,0.5,1.5
			s0.8,0.5,1.4,0.5c0.5,0,1.1-0.2,1.6-0.5V27.7z"/>
		<path d="M62.5,28h-2.2v-1.1h0c-0.5,0.8-1.2,1.2-2.1,1.2c-1.6,0-2.4-1-2.4-2.9V21h2.2v4c0,1,0.4,1.5,1.2,1.5c0.4,0,0.7-0.1,0.9-0.4
			s0.3-0.6,0.3-1.1v-4h2.2V28z"/>
		<path d="M66.5,27.2L66.5,27.2l0,4h-2.2V21h2.2v1.1h0c0.5-0.8,1.3-1.2,2.2-1.2c0.9,0,1.6,0.3,2.1,0.9s0.7,1.5,0.7,2.5
			c0,1.2-0.3,2.1-0.9,2.8s-1.3,1.1-2.3,1.1C67.6,28.2,66.9,27.8,66.5,27.2z M66.4,24.3v0.6c0,0.5,0.1,0.9,0.4,1.2s0.6,0.5,1,0.5
			c0.5,0,0.9-0.2,1.1-0.6s0.4-0.9,0.4-1.6c0-1.2-0.5-1.8-1.4-1.8c-0.4,0-0.8,0.2-1.1,0.5S66.4,23.8,66.4,24.3z"/>
		<path d="M79.3,25.1h-4.6c0.1,1,0.7,1.5,1.9,1.5c0.8,0,1.4-0.2,2-0.5v1.6c-0.6,0.3-1.5,0.5-2.5,0.5c-1.1,0-2-0.3-2.6-0.9
			s-0.9-1.5-0.9-2.6c0-1.2,0.3-2.1,1-2.8s1.5-1,2.5-1c1,0,1.8,0.3,2.4,0.9s0.8,1.4,0.8,2.5V25.1z M77.3,23.8c0-1-0.4-1.5-1.2-1.5
			c-0.3,0-0.6,0.1-0.9,0.4s-0.4,0.6-0.5,1.1H77.3z"/>
		<path d="M85.1,22.9c-0.3-0.1-0.6-0.2-0.9-0.2c-0.5,0-0.8,0.2-1.1,0.5s-0.4,0.8-0.4,1.4V28h-2.2v-7h2.2v1.3h0
			c0.3-0.9,1-1.4,1.8-1.4c0.2,0,0.4,0,0.5,0.1V22.9z"/>
		<path d="M91.9,28h-2v-1h0c-0.5,0.8-1.2,1.2-2.1,1.2c-0.7,0-1.2-0.2-1.6-0.6s-0.6-0.9-0.6-1.5c0-1.4,0.8-2.1,2.4-2.4l1.9-0.3
			c0-0.8-0.4-1.1-1.2-1.1c-0.8,0-1.6,0.2-2.4,0.7v-1.6c0.3-0.2,0.7-0.3,1.2-0.4s1-0.2,1.4-0.2c2,0,3,1,3,3V28z M89.9,25.2v-0.5
			l-1.3,0.2c-0.7,0.1-1.1,0.4-1.1,1c0,0.2,0.1,0.4,0.3,0.6s0.4,0.2,0.7,0.2c0.4,0,0.7-0.1,1-0.4S89.9,25.6,89.9,25.2z"/>
		<path d="M98.9,27.7c-0.5,0.3-1.2,0.4-2.1,0.4c-1.1,0-1.9-0.3-2.6-1s-1-1.5-1-2.5c0-1.2,0.4-2.1,1.1-2.8s1.7-1,2.9-1
			c0.8,0,1.4,0.1,1.8,0.3V23c-0.5-0.3-1-0.5-1.5-0.5c-0.6,0-1.1,0.2-1.5,0.5s-0.5,0.9-0.5,1.5c0,0.6,0.2,1.1,0.5,1.5
			s0.8,0.5,1.4,0.5c0.5,0,1.1-0.2,1.6-0.5V27.7z"/>
		<path d="M101.5,19.9c-0.4,0-0.7-0.1-0.9-0.3s-0.3-0.5-0.3-0.8c0-0.3,0.1-0.6,0.3-0.8s0.5-0.3,0.9-0.3c0.4,0,0.7,0.1,0.9,0.3
			s0.3,0.5,0.3,0.8c0,0.3-0.1,0.6-0.3,0.8S101.8,19.9,101.5,19.9z M102.5,28h-2.2v-7h2.2V28z"/>
		<path d="M107.7,28.2c-1.2,0-2.1-0.3-2.8-1s-1-1.5-1-2.7c0-1.2,0.3-2.1,1-2.7s1.6-1,2.8-1c1.2,0,2.1,0.3,2.7,1s1,1.5,1,2.6
			c0,1.2-0.3,2.1-1,2.8S108.9,28.2,107.7,28.2z M107.7,22.5c-0.5,0-0.9,0.2-1.2,0.5s-0.4,0.8-0.4,1.5c0,1.3,0.5,2,1.6,2
			c1,0,1.6-0.7,1.6-2.1C109.3,23.1,108.8,22.5,107.7,22.5z M110.1,17.7l-2.1,2.2h-1.6l1.8-2.2H110.1z"/>
		<path d="M119.7,28h-2.2v-3.9c0-1.1-0.4-1.6-1.2-1.6c-0.4,0-0.7,0.1-0.9,0.4s-0.4,0.7-0.4,1.1v4h-2.2v-7h2.2v1.1h0
			c0.5-0.9,1.3-1.3,2.2-1.3c1.5,0,2.3,1,2.3,2.9V28z"/>
		<path d="M45.9,44.8h-2v-1h0c-0.5,0.8-1.2,1.2-2.1,1.2c-0.7,0-1.2-0.2-1.6-0.6s-0.6-0.9-0.6-1.5c0-1.4,0.8-2.1,2.4-2.4l1.9-0.3
			c0-0.8-0.4-1.1-1.2-1.1c-0.8,0-1.6,0.2-2.4,0.7v-1.6c0.3-0.2,0.7-0.3,1.2-0.4s1-0.2,1.4-0.2c2,0,3,1,3,3V44.8z M43.8,42v-0.5
			l-1.3,0.2c-0.7,0.1-1.1,0.4-1.1,1c0,0.2,0.1,0.4,0.3,0.6s0.4,0.2,0.7,0.2c0.4,0,0.7-0.1,1-0.4S43.8,42.4,43.8,42z"/>
		<path d="M54.2,44.8h-2.2v-1.1h0c-0.5,0.8-1.2,1.2-2.1,1.2c-1.6,0-2.4-1-2.4-2.9v-4.2h2.2v4c0,1,0.4,1.5,1.2,1.5
			c0.4,0,0.7-0.1,0.9-0.4s0.3-0.6,0.3-1.1v-4h2.2V44.8z"/>
		<path d="M60.3,44.7C60,44.9,59.5,45,58.8,45c-1.5,0-2.3-0.8-2.3-2.4v-3.2h-1.1v-1.6h1.1v-1.5l2.2-0.6v2.1h1.6v1.6h-1.6v2.8
			c0,0.7,0.3,1.1,0.9,1.1c0.2,0,0.5-0.1,0.7-0.2V44.7z"/>
		<path d="M64.8,45c-1.2,0-2.1-0.3-2.8-1s-1-1.5-1-2.7c0-1.2,0.3-2.1,1-2.7s1.6-1,2.8-1c1.2,0,2.1,0.3,2.7,1s1,1.5,1,2.6
			c0,1.2-0.3,2.1-1,2.8S66,45,64.8,45z M64.8,39.3c-0.5,0-0.9,0.2-1.2,0.5s-0.4,0.8-0.4,1.5c0,1.3,0.5,2,1.6,2c1,0,1.6-0.7,1.6-2.1
			C66.4,39.9,65.9,39.3,64.8,39.3z"/>
		<path d="M81.1,44.8H79v-4c0-1-0.4-1.5-1.1-1.5c-0.4,0-0.6,0.2-0.9,0.5s-0.3,0.7-0.3,1.1v3.9h-2.2v-4c0-1-0.4-1.5-1.1-1.5
			c-0.4,0-0.7,0.1-0.9,0.4s-0.3,0.7-0.3,1.2v3.9H70v-7h2.2v1.1h0c0.2-0.4,0.5-0.7,0.9-0.9s0.8-0.4,1.3-0.4c1,0,1.7,0.4,2,1.3
			c0.5-0.9,1.3-1.3,2.4-1.3c1.5,0,2.3,0.9,2.3,2.8V44.8z"/>
		<path d="M88.7,44.8h-2v-1h0c-0.5,0.8-1.2,1.2-2.1,1.2c-0.7,0-1.2-0.2-1.6-0.6s-0.6-0.9-0.6-1.5c0-1.4,0.8-2.1,2.4-2.4l1.9-0.3
			c0-0.8-0.4-1.1-1.2-1.1c-0.8,0-1.6,0.2-2.4,0.7v-1.6c0.3-0.2,0.7-0.3,1.2-0.4s1-0.2,1.4-0.2c2,0,3,1,3,3V44.8z M86.6,42v-0.5
			l-1.3,0.2c-0.7,0.1-1.1,0.4-1.1,1c0,0.2,0.1,0.4,0.3,0.6s0.4,0.2,0.7,0.2c0.4,0,0.7-0.1,1-0.4S86.6,42.4,86.6,42z M88,34.5
			l-2.1,2.2h-1.6l1.8-2.2H88z"/>
		<path d="M94.6,44.7c-0.3,0.2-0.8,0.3-1.4,0.3c-1.5,0-2.3-0.8-2.3-2.4v-3.2h-1.1v-1.6h1.1v-1.5l2.2-0.6v2.1h1.6v1.6H93v2.8
			c0,0.7,0.3,1.1,0.9,1.1c0.2,0,0.5-0.1,0.7-0.2V44.7z"/>
		<path d="M96.9,36.7c-0.4,0-0.7-0.1-0.9-0.3s-0.3-0.5-0.3-0.8c0-0.3,0.1-0.6,0.3-0.8s0.5-0.3,0.9-0.3c0.4,0,0.7,0.1,0.9,0.3
			s0.3,0.5,0.3,0.8c0,0.3-0.1,0.6-0.3,0.8S97.3,36.7,96.9,36.7z M98,44.8h-2.2v-7H98V44.8z"/>
		<path d="M105.1,44.5c-0.5,0.3-1.2,0.4-2.1,0.4c-1.1,0-1.9-0.3-2.6-1s-1-1.5-1-2.5c0-1.2,0.4-2.1,1.1-2.8s1.7-1,2.9-1
			c0.8,0,1.4,0.1,1.8,0.3v1.8c-0.5-0.3-1-0.5-1.5-0.5c-0.6,0-1.1,0.2-1.5,0.5s-0.5,0.9-0.5,1.5c0,0.6,0.2,1.1,0.5,1.5
			s0.8,0.5,1.4,0.5c0.5,0,1.1-0.2,1.6-0.5V44.5z"/>
		<path d="M112.3,44.8h-2v-1h0c-0.5,0.8-1.2,1.2-2.1,1.2c-0.7,0-1.2-0.2-1.6-0.6s-0.6-0.9-0.6-1.5c0-1.4,0.8-2.1,2.4-2.4l1.9-0.3
			c0-0.8-0.4-1.1-1.2-1.1c-0.8,0-1.6,0.2-2.4,0.7v-1.6c0.3-0.2,0.7-0.3,1.2-0.4s1-0.2,1.4-0.2c2,0,3,1,3,3V44.8z M110.3,42v-0.5
			l-1.3,0.2c-0.7,0.1-1.1,0.4-1.1,1c0,0.2,0.1,0.4,0.3,0.6s0.4,0.2,0.7,0.2c0.4,0,0.7-0.1,1-0.4S110.3,42.4,110.3,42z"/>
	</g>
	<g>
		<rect x="159.4" y="26.3" class="st14" width="150.4" height="69.1"/>
		<path d="M181,36.6h-5.9v-9.8h5.7v1.8h-3.4v2.2h3.2v1.8h-3.2v2.2h3.7V36.6z"/>
		<path d="M181.9,36.4v-1.8c0.4,0.2,0.7,0.4,1.1,0.5s0.7,0.2,1,0.2c0.4,0,0.7-0.1,0.9-0.2s0.3-0.3,0.3-0.5c0-0.1-0.1-0.3-0.2-0.3
			s-0.2-0.2-0.4-0.2s-0.3-0.1-0.5-0.2s-0.4-0.1-0.5-0.2c-0.3-0.1-0.5-0.2-0.7-0.3s-0.4-0.3-0.5-0.4s-0.3-0.3-0.3-0.6
			s-0.1-0.5-0.1-0.7c0-0.4,0.1-0.7,0.3-1s0.4-0.5,0.7-0.7s0.6-0.3,1-0.4s0.7-0.1,1.1-0.1c0.3,0,0.6,0,0.9,0.1s0.6,0.1,0.9,0.2v1.7
			c-0.3-0.2-0.6-0.3-0.9-0.4s-0.6-0.1-0.9-0.1c-0.1,0-0.3,0-0.4,0s-0.2,0.1-0.3,0.1s-0.2,0.1-0.2,0.2s-0.1,0.2-0.1,0.3
			c0,0.1,0,0.2,0.1,0.3s0.2,0.2,0.3,0.2s0.3,0.1,0.4,0.2s0.3,0.1,0.5,0.2c0.3,0.1,0.5,0.2,0.8,0.3s0.4,0.3,0.6,0.4s0.3,0.3,0.4,0.6
			s0.1,0.5,0.1,0.8c0,0.4-0.1,0.8-0.3,1.1s-0.4,0.5-0.7,0.7s-0.6,0.3-1,0.4s-0.8,0.1-1.2,0.1C183.3,36.8,182.5,36.7,181.9,36.4z"/>
		<path d="M193.8,36.4c-0.5,0.3-1.2,0.4-2.1,0.4c-1.1,0-1.9-0.3-2.6-1s-1-1.5-1-2.5c0-1.2,0.4-2.1,1.1-2.8s1.7-1,2.9-1
			c0.8,0,1.4,0.1,1.8,0.3v1.8c-0.5-0.3-1-0.5-1.5-0.5c-0.6,0-1.1,0.2-1.5,0.5s-0.5,0.9-0.5,1.5c0,0.6,0.2,1.1,0.5,1.5
			s0.8,0.5,1.4,0.5c0.5,0,1.1-0.2,1.6-0.5V36.4z"/>
		<path d="M201,36.6h-2v-1h0c-0.5,0.8-1.2,1.2-2.1,1.2c-0.7,0-1.2-0.2-1.6-0.6s-0.6-0.9-0.6-1.5c0-1.4,0.8-2.1,2.4-2.4l1.9-0.3
			c0-0.8-0.4-1.1-1.2-1.1c-0.8,0-1.6,0.2-2.4,0.7V30c0.3-0.2,0.7-0.3,1.2-0.4s1-0.2,1.4-0.2c2,0,3,1,3,3V36.6z M199,33.8v-0.5
			l-1.3,0.2c-0.7,0.1-1.1,0.4-1.1,1c0,0.2,0.1,0.4,0.3,0.6s0.4,0.2,0.7,0.2c0.4,0,0.7-0.1,1-0.4S199,34.2,199,33.8z"/>
		<path d="M204.9,36.6h-2.2V26.3h2.2V36.6z"/>
		<path d="M212.6,36.6h-2v-1h0c-0.5,0.8-1.2,1.2-2.1,1.2c-0.7,0-1.2-0.2-1.6-0.6s-0.6-0.9-0.6-1.5c0-1.4,0.8-2.1,2.4-2.4l1.9-0.3
			c0-0.8-0.4-1.1-1.2-1.1c-0.8,0-1.6,0.2-2.4,0.7V30c0.3-0.2,0.7-0.3,1.2-0.4s1-0.2,1.4-0.2c2,0,3,1,3,3V36.6z M210.5,33.8v-0.5
			l-1.3,0.2c-0.7,0.1-1.1,0.4-1.1,1c0,0.2,0.1,0.4,0.3,0.6s0.4,0.2,0.7,0.2c0.4,0,0.7-0.1,1-0.4S210.5,34.2,210.5,33.8z"/>
		<path d="M221.1,36.6H219v-1h0c-0.5,0.8-1.2,1.1-2.2,1.1c-0.9,0-1.6-0.3-2.1-0.9s-0.8-1.5-0.8-2.6c0-1.2,0.3-2.1,0.9-2.8
			s1.4-1,2.3-1c0.9,0,1.5,0.3,1.9,1h0v-4.2h2.2V36.6z M219,33.2v-0.5c0-0.5-0.1-0.8-0.4-1.1s-0.6-0.5-1-0.5c-0.5,0-0.9,0.2-1.1,0.6
			s-0.4,0.9-0.4,1.5c0,0.6,0.1,1.1,0.4,1.4s0.6,0.5,1.1,0.5c0.4,0,0.8-0.2,1.1-0.5S219,33.8,219,33.2z"/>
		<path d="M226.3,36.8c-1.2,0-2.1-0.3-2.8-1s-1-1.5-1-2.7c0-1.2,0.3-2.1,1-2.7s1.6-1,2.8-1c1.2,0,2.1,0.3,2.7,1s1,1.5,1,2.6
			c0,1.2-0.3,2.1-1,2.8S227.5,36.8,226.3,36.8z M226.3,31.1c-0.5,0-0.9,0.2-1.2,0.5s-0.4,0.8-0.4,1.5c0,1.3,0.5,2,1.6,2
			c1,0,1.6-0.7,1.6-2.1C227.9,31.8,227.4,31.1,226.3,31.1z"/>
		<path d="M242.2,36.6H240v-1h0c-0.5,0.8-1.2,1.1-2.2,1.1c-0.9,0-1.6-0.3-2.1-0.9s-0.8-1.5-0.8-2.6c0-1.2,0.3-2.1,0.9-2.8
			s1.4-1,2.3-1c0.9,0,1.5,0.3,1.9,1h0v-4.2h2.2V36.6z M240.1,33.2v-0.5c0-0.5-0.1-0.8-0.4-1.1s-0.6-0.5-1-0.5
			c-0.5,0-0.9,0.2-1.1,0.6s-0.4,0.9-0.4,1.5c0,0.6,0.1,1.1,0.4,1.4s0.6,0.5,1.1,0.5c0.4,0,0.8-0.2,1.1-0.5
			C239.9,34.3,240.1,33.8,240.1,33.2z"/>
		<path d="M245.1,28.5c-0.4,0-0.7-0.1-0.9-0.3s-0.3-0.5-0.3-0.8c0-0.3,0.1-0.6,0.3-0.8s0.5-0.3,0.9-0.3c0.4,0,0.7,0.1,0.9,0.3
			c0.2,0.2,0.3,0.5,0.3,0.8c0,0.3-0.1,0.6-0.3,0.8C245.8,28.4,245.5,28.5,245.1,28.5z M246.2,36.6H244v-7h2.2V36.6z"/>
		<path d="M254.8,36.6h-2.2v-3.9c0-1.1-0.4-1.6-1.2-1.6c-0.4,0-0.7,0.1-0.9,0.4s-0.4,0.7-0.4,1.1v4H248v-7h2.2v1.1h0
			c0.5-0.9,1.3-1.3,2.2-1.3c1.5,0,2.3,1,2.3,2.9V36.6z"/>
		<path d="M262.3,36.6h-2v-1h0c-0.5,0.8-1.2,1.2-2.1,1.2c-0.7,0-1.2-0.2-1.6-0.6c-0.4-0.4-0.6-0.9-0.6-1.5c0-1.4,0.8-2.1,2.4-2.4
			l1.9-0.3c0-0.8-0.4-1.1-1.2-1.1c-0.8,0-1.6,0.2-2.4,0.7V30c0.3-0.2,0.7-0.3,1.2-0.4c0.5-0.1,1-0.2,1.4-0.2c2,0,3,1,3,3V36.6z
			 M260.3,33.8v-0.5l-1.3,0.2c-0.7,0.1-1.1,0.4-1.1,1c0,0.2,0.1,0.4,0.3,0.6c0.2,0.2,0.4,0.2,0.7,0.2c0.4,0,0.7-0.1,1-0.4
			S260.3,34.2,260.3,33.8z M261.7,26.3l-2.1,2.2H258l1.8-2.2H261.7z"/>
		<path d="M275.1,36.6H273v-4c0-1-0.4-1.5-1.1-1.5c-0.4,0-0.6,0.2-0.9,0.5s-0.3,0.7-0.3,1.1v3.9h-2.2v-4c0-1-0.4-1.5-1.1-1.5
			c-0.4,0-0.7,0.1-0.9,0.4c-0.2,0.3-0.3,0.7-0.3,1.2v3.9H264v-7h2.2v1.1h0c0.2-0.4,0.5-0.7,0.9-0.9c0.4-0.2,0.8-0.4,1.3-0.4
			c1,0,1.7,0.4,2,1.3c0.5-0.9,1.3-1.3,2.4-1.3c1.5,0,2.3,0.9,2.3,2.8V36.6z"/>
		<path d="M277.9,28.5c-0.4,0-0.7-0.1-0.9-0.3s-0.3-0.5-0.3-0.8c0-0.3,0.1-0.6,0.3-0.8s0.5-0.3,0.9-0.3c0.4,0,0.7,0.1,0.9,0.3
			c0.2,0.2,0.3,0.5,0.3,0.8c0,0.3-0.1,0.6-0.3,0.8C278.6,28.4,278.3,28.5,277.9,28.5z M279,36.6h-2.2v-7h2.2V36.6z"/>
		<path d="M286.1,36.4c-0.5,0.3-1.2,0.4-2.1,0.4c-1.1,0-1.9-0.3-2.6-1s-1-1.5-1-2.5c0-1.2,0.4-2.1,1.1-2.8c0.7-0.7,1.7-1,2.9-1
			c0.8,0,1.4,0.1,1.8,0.3v1.8c-0.5-0.3-1-0.5-1.5-0.5c-0.6,0-1.1,0.2-1.5,0.5c-0.4,0.4-0.5,0.9-0.5,1.5c0,0.6,0.2,1.1,0.5,1.5
			s0.8,0.5,1.4,0.5c0.5,0,1.1-0.2,1.6-0.5V36.4z"/>
		<path d="M290.9,36.8c-1.2,0-2.1-0.3-2.8-1c-0.7-0.7-1-1.5-1-2.7c0-1.2,0.3-2.1,1-2.7s1.6-1,2.8-1c1.2,0,2.1,0.3,2.7,1s1,1.5,1,2.6
			c0,1.2-0.3,2.1-1,2.8C293,36.5,292,36.8,290.9,36.8z M290.9,31.1c-0.5,0-0.9,0.2-1.2,0.5s-0.4,0.8-0.4,1.5c0,1.3,0.5,2,1.6,2
			c1,0,1.6-0.7,1.6-2.1C292.5,31.8,292,31.1,290.9,31.1z"/>
	</g>
	<g>
		<rect x="319.3" y="17.3" class="st14" width="152.3" height="89.1"/>
		<path d="M337.9,27.7h-2.5l-1.5-2.5c-0.1-0.2-0.2-0.4-0.3-0.5s-0.2-0.3-0.3-0.4c-0.1-0.1-0.2-0.2-0.3-0.2c-0.1-0.1-0.2-0.1-0.4-0.1
			h-0.6v3.8h-2.2v-9.8h3.5c2.4,0,3.6,0.9,3.6,2.7c0,0.3-0.1,0.7-0.2,0.9s-0.3,0.6-0.4,0.8s-0.4,0.4-0.7,0.6
			c-0.3,0.2-0.6,0.3-0.9,0.4v0c0.1,0,0.3,0.1,0.4,0.2s0.3,0.2,0.4,0.4s0.3,0.3,0.4,0.4c0.1,0.2,0.2,0.3,0.3,0.5L337.9,27.7z
			 M331.9,19.5v2.7h1c0.5,0,0.9-0.1,1.1-0.4c0.3-0.3,0.4-0.6,0.4-1c0-0.9-0.5-1.3-1.5-1.3H331.9z"/>
		<path d="M341.3,27.8c-1.2,0-2.1-0.3-2.8-1c-0.7-0.7-1-1.5-1-2.7c0-1.2,0.3-2.1,1-2.7s1.6-1,2.8-1c1.2,0,2.1,0.3,2.7,1s1,1.5,1,2.6
			c0,1.2-0.3,2.1-1,2.8C343.4,27.5,342.5,27.8,341.3,27.8z M341.3,22.2c-0.5,0-0.9,0.2-1.2,0.5s-0.4,0.8-0.4,1.5c0,1.3,0.5,2,1.6,2
			c1,0,1.6-0.7,1.6-2.1C342.9,22.8,342.4,22.2,341.3,22.2z"/>
		<path d="M348.4,27.7h-2.2V17.3h2.2V27.7z"/>
		<path d="M352.1,27.7h-2.2V17.3h2.2V27.7z"/>
		<path d="M354.7,19.6c-0.4,0-0.7-0.1-0.9-0.3s-0.3-0.5-0.3-0.8c0-0.3,0.1-0.6,0.3-0.8s0.5-0.3,0.9-0.3c0.4,0,0.7,0.1,0.9,0.3
			c0.2,0.2,0.3,0.5,0.3,0.8c0,0.3-0.1,0.6-0.3,0.8C355.4,19.5,355.1,19.6,354.7,19.6z M355.8,27.7h-2.2v-7h2.2V27.7z"/>
		<path d="M364.1,27.7h-2.2v-3.9c0-1.1-0.4-1.6-1.2-1.6c-0.4,0-0.7,0.1-0.9,0.4s-0.4,0.7-0.4,1.1v4h-2.2v-7h2.2v1.1h0
			c0.5-0.9,1.3-1.3,2.2-1.3c1.5,0,2.3,1,2.3,2.9V27.7z"/>
		<path d="M374.3,27.7h-2.4l-0.7-2.2h-3.5l-0.7,2.2h-2.4l3.6-9.8h2.6L374.3,27.7z M370.7,23.8l-1.1-3.3c-0.1-0.2-0.1-0.5-0.2-0.9
			h-0.1c0,0.3-0.1,0.6-0.2,0.9l-1.1,3.3H370.7z"/>
		<path d="M380.4,27.4c-0.5,0.3-1.2,0.4-2.1,0.4c-1.1,0-1.9-0.3-2.6-1s-1-1.5-1-2.5c0-1.2,0.4-2.1,1.1-2.8c0.7-0.7,1.7-1,2.9-1
			c0.8,0,1.4,0.1,1.8,0.3v1.8c-0.5-0.3-1-0.5-1.5-0.5c-0.6,0-1.1,0.2-1.5,0.5c-0.4,0.4-0.5,0.9-0.5,1.5c0,0.6,0.2,1.1,0.5,1.5
			s0.8,0.5,1.4,0.5c0.5,0,1.1-0.2,1.6-0.5V27.4z"/>
		<path d="M385.7,27.6c-0.3,0.2-0.8,0.3-1.4,0.3c-1.5,0-2.3-0.8-2.3-2.4v-3.2h-1.1v-1.6h1.1v-1.5l2.2-0.6v2.1h1.6v1.6h-1.6v2.8
			c0,0.7,0.3,1.1,0.9,1.1c0.2,0,0.5-0.1,0.7-0.2V27.6z"/>
		<path d="M393.3,27.7h-2.2v-1.1h0c-0.5,0.8-1.2,1.2-2.1,1.2c-1.6,0-2.4-1-2.4-2.9v-4.2h2.2v4c0,1,0.4,1.5,1.2,1.5
			c0.4,0,0.7-0.1,0.9-0.4s0.3-0.6,0.3-1.1v-4h2.2V27.7z"/>
		<path d="M400.7,27.7h-2v-1h0c-0.5,0.8-1.2,1.2-2.1,1.2c-0.7,0-1.2-0.2-1.6-0.6c-0.4-0.4-0.6-0.9-0.6-1.5c0-1.4,0.8-2.1,2.4-2.4
			l1.9-0.3c0-0.8-0.4-1.1-1.2-1.1c-0.8,0-1.6,0.2-2.4,0.7v-1.6c0.3-0.2,0.7-0.3,1.2-0.4c0.5-0.1,1-0.2,1.4-0.2c2,0,3,1,3,3V27.7z
			 M398.7,24.8v-0.5l-1.3,0.2c-0.7,0.1-1.1,0.4-1.1,1c0,0.2,0.1,0.4,0.3,0.6c0.2,0.2,0.4,0.2,0.7,0.2c0.4,0,0.7-0.1,1-0.4
			S398.7,25.3,398.7,24.8z"/>
		<path d="M404.3,27.7h-2.2V17.3h2.2V27.7z"/>
		<path d="M406.9,19.6c-0.4,0-0.7-0.1-0.9-0.3s-0.3-0.5-0.3-0.8c0-0.3,0.1-0.6,0.3-0.8s0.5-0.3,0.9-0.3c0.4,0,0.7,0.1,0.9,0.3
			c0.2,0.2,0.3,0.5,0.3,0.8c0,0.3-0.1,0.6-0.3,0.8C407.6,19.5,407.3,19.6,406.9,19.6z M408,27.7h-2.2v-7h2.2V27.7z"/>
		<path d="M415.1,27.7h-6.3v-0.9l3.5-4.5h-3.2v-1.6h5.9v1.1l-3.3,4.3h3.4V27.7z"/>
		<path d="M421.8,27.7h-2v-1h0c-0.5,0.8-1.2,1.2-2.1,1.2c-0.7,0-1.2-0.2-1.6-0.6c-0.4-0.4-0.6-0.9-0.6-1.5c0-1.4,0.8-2.1,2.4-2.4
			l1.9-0.3c0-0.8-0.4-1.1-1.2-1.1c-0.8,0-1.6,0.2-2.4,0.7v-1.6c0.3-0.2,0.7-0.3,1.2-0.4c0.5-0.1,1-0.2,1.4-0.2c2,0,3,1,3,3V27.7z
			 M419.7,24.8v-0.5l-1.3,0.2c-0.7,0.1-1.1,0.4-1.1,1c0,0.2,0.1,0.4,0.3,0.6c0.2,0.2,0.4,0.2,0.7,0.2c0.4,0,0.7-0.1,1-0.4
			S419.7,25.3,419.7,24.8z"/>
		<path d="M428.5,27.4c-0.5,0.3-1.2,0.4-2.1,0.4c-1.1,0-1.9-0.3-2.6-1s-1-1.5-1-2.5c0-1.2,0.4-2.1,1.1-2.8c0.7-0.7,1.7-1,2.9-1
			c0.8,0,1.4,0.1,1.8,0.3v1.8c-0.5-0.3-1-0.5-1.5-0.5c-0.6,0-1.1,0.2-1.5,0.5c-0.4,0.4-0.5,0.9-0.5,1.5c0,0.6,0.2,1.1,0.5,1.5
			s0.8,0.5,1.4,0.5c0.5,0,1.1-0.2,1.6-0.5V27.4z"/>
		<path d="M430.7,19.6c-0.4,0-0.7-0.1-0.9-0.3s-0.3-0.5-0.3-0.8c0-0.3,0.1-0.6,0.3-0.8s0.5-0.3,0.9-0.3c0.4,0,0.7,0.1,0.9,0.3
			c0.2,0.2,0.3,0.5,0.3,0.8c0,0.3-0.1,0.6-0.3,0.8C431.4,19.5,431.1,19.6,430.7,19.6z M431.8,27.7h-2.2v-7h2.2V27.7z"/>
		<path d="M436.7,27.8c-1.2,0-2.1-0.3-2.8-1c-0.7-0.7-1-1.5-1-2.7c0-1.2,0.3-2.1,1-2.7s1.6-1,2.8-1c1.2,0,2.1,0.3,2.7,1s1,1.5,1,2.6
			c0,1.2-0.3,2.1-1,2.8C438.8,27.5,437.9,27.8,436.7,27.8z M436.7,22.2c-0.5,0-0.9,0.2-1.2,0.5s-0.4,0.8-0.4,1.5c0,1.3,0.5,2,1.6,2
			c1,0,1.6-0.7,1.6-2.1C438.3,22.8,437.8,22.2,436.7,22.2z"/>
		<path d="M448.4,27.7h-2.2v-3.9c0-1.1-0.4-1.6-1.2-1.6c-0.4,0-0.7,0.1-0.9,0.4s-0.4,0.7-0.4,1.1v4h-2.2v-7h2.2v1.1h0
			c0.5-0.9,1.3-1.3,2.2-1.3c1.5,0,2.3,1,2.3,2.9V27.7z"/>
		<path d="M456.1,24.8h-4.6c0.1,1,0.7,1.5,1.9,1.5c0.8,0,1.4-0.2,2-0.5v1.6c-0.6,0.3-1.5,0.5-2.5,0.5c-1.1,0-2-0.3-2.6-0.9
			s-0.9-1.5-0.9-2.6c0-1.2,0.3-2.1,1-2.8s1.5-1,2.5-1c1,0,1.8,0.3,2.4,0.9c0.6,0.6,0.8,1.4,0.8,2.5V24.8z M454.1,23.5
			c0-1-0.4-1.5-1.2-1.5c-0.3,0-0.6,0.1-0.9,0.4c-0.3,0.3-0.4,0.6-0.5,1.1H454.1z"/>
		<path d="M456.6,27.5v-1.8c0.4,0.2,0.7,0.4,1.1,0.5c0.4,0.1,0.7,0.2,1,0.2c0.4,0,0.7-0.1,0.9-0.2c0.2-0.1,0.3-0.3,0.3-0.5
			c0-0.1,0-0.3-0.2-0.3s-0.2-0.2-0.4-0.2c-0.2-0.1-0.3-0.1-0.5-0.2s-0.4-0.1-0.5-0.2c-0.3-0.1-0.5-0.2-0.7-0.3
			c-0.2-0.1-0.4-0.3-0.5-0.4c-0.1-0.2-0.3-0.3-0.3-0.6c-0.1-0.2-0.1-0.5-0.1-0.7c0-0.4,0.1-0.7,0.3-1c0.2-0.3,0.4-0.5,0.7-0.7
			c0.3-0.2,0.6-0.3,1-0.4c0.4-0.1,0.7-0.1,1.1-0.1c0.3,0,0.6,0,0.9,0.1s0.6,0.1,0.9,0.2v1.7c-0.3-0.2-0.6-0.3-0.9-0.4
			c-0.3-0.1-0.6-0.1-0.9-0.1c-0.1,0-0.3,0-0.4,0c-0.1,0-0.2,0.1-0.3,0.1s-0.2,0.1-0.2,0.2s-0.1,0.2-0.1,0.3c0,0.1,0,0.2,0.1,0.3
			s0.2,0.2,0.3,0.2s0.3,0.1,0.4,0.2c0.2,0.1,0.3,0.1,0.5,0.2c0.3,0.1,0.5,0.2,0.8,0.3s0.4,0.3,0.6,0.4c0.2,0.2,0.3,0.3,0.4,0.6
			c0.1,0.2,0.1,0.5,0.1,0.8c0,0.4-0.1,0.8-0.3,1.1c-0.2,0.3-0.4,0.5-0.7,0.7c-0.3,0.2-0.6,0.3-1,0.4c-0.4,0.1-0.8,0.1-1.2,0.1
			C458,27.8,457.3,27.7,456.6,27.5z"/>
		<path d="M341,43.7c0,1.3-0.4,2.3-1.1,3s-1.8,1.1-3.3,1.1c-0.9,0-1.7-0.1-2.2-0.4v-1.8c0.7,0.4,1.4,0.6,2.2,0.6
			c0.7,0,1.3-0.2,1.7-0.6s0.6-0.9,0.6-1.6v-0.6h0c-0.5,0.8-1.2,1.2-2.2,1.2c-0.9,0-1.6-0.3-2.1-0.9s-0.8-1.5-0.8-2.5
			c0-1.2,0.3-2.1,0.9-2.8s1.4-1,2.3-1c0.9,0,1.5,0.3,1.9,1h0v-0.8h2.2V43.7z M338.9,41.1v-0.6c0-0.4-0.1-0.8-0.4-1.1
			c-0.3-0.3-0.6-0.5-1-0.5c-0.5,0-0.9,0.2-1.1,0.6s-0.4,0.9-0.4,1.6c0,0.6,0.1,1,0.4,1.4s0.6,0.5,1.1,0.5c0.4,0,0.8-0.2,1.1-0.5
			C338.7,42.1,338.9,41.7,338.9,41.1z"/>
		<path d="M347.1,39.4c-0.3-0.1-0.6-0.2-0.9-0.2c-0.5,0-0.8,0.2-1.1,0.5s-0.4,0.8-0.4,1.4v3.3h-2.2v-7h2.2v1.3h0
			c0.3-0.9,1-1.4,1.8-1.4c0.2,0,0.4,0,0.5,0.1V39.4z"/>
		<path d="M353.7,44.5h-2v-1h0c-0.5,0.8-1.2,1.2-2.1,1.2c-0.7,0-1.2-0.2-1.6-0.6c-0.4-0.4-0.6-0.9-0.6-1.5c0-1.4,0.8-2.1,2.4-2.4
			l1.9-0.3c0-0.8-0.4-1.1-1.2-1.1c-0.8,0-1.6,0.2-2.4,0.7v-1.6c0.3-0.2,0.7-0.3,1.2-0.4c0.5-0.1,1-0.2,1.4-0.2c2,0,3,1,3,3V44.5z
			 M351.6,41.6v-0.5l-1.3,0.2c-0.7,0.1-1.1,0.4-1.1,1c0,0.2,0.1,0.4,0.3,0.6c0.2,0.2,0.4,0.2,0.7,0.2c0.4,0,0.7-0.1,1-0.4
			S351.6,42.1,351.6,41.6z"/>
		<path d="M361.9,44.5h-2.2v-1h0c-0.5,0.8-1.2,1.1-2.2,1.1c-0.9,0-1.6-0.3-2.1-0.9s-0.8-1.5-0.8-2.6c0-1.2,0.3-2.1,0.9-2.8
			s1.4-1,2.3-1c0.9,0,1.5,0.3,1.9,1h0v-4.2h2.2V44.5z M359.8,41.1v-0.5c0-0.5-0.1-0.8-0.4-1.1s-0.6-0.5-1-0.5
			c-0.5,0-0.9,0.2-1.1,0.6s-0.4,0.9-0.4,1.5c0,0.6,0.1,1.1,0.4,1.4s0.6,0.5,1.1,0.5c0.4,0,0.8-0.2,1.1-0.5
			C359.7,42.1,359.8,41.7,359.8,41.1z"/>
		<path d="M370.1,44.5H368v-1.1h0c-0.5,0.8-1.2,1.2-2.1,1.2c-1.6,0-2.4-1-2.4-2.9v-4.2h2.2v4c0,1,0.4,1.5,1.2,1.5
			c0.4,0,0.7-0.1,0.9-0.4s0.3-0.6,0.3-1.1v-4h2.2V44.5z"/>
		<path d="M377.5,44.5h-2v-1h0c-0.5,0.8-1.2,1.2-2.1,1.2c-0.7,0-1.2-0.2-1.6-0.6c-0.4-0.4-0.6-0.9-0.6-1.5c0-1.4,0.8-2.1,2.4-2.4
			l1.9-0.3c0-0.8-0.4-1.1-1.2-1.1c-0.8,0-1.6,0.2-2.4,0.7v-1.6c0.3-0.2,0.7-0.3,1.2-0.4c0.5-0.1,1-0.2,1.4-0.2c2,0,3,1,3,3V44.5z
			 M375.5,41.6v-0.5l-1.3,0.2c-0.7,0.1-1.1,0.4-1.1,1c0,0.2,0.1,0.4,0.3,0.6c0.2,0.2,0.4,0.2,0.7,0.2c0.4,0,0.7-0.1,1-0.4
			S375.5,42.1,375.5,41.6z"/>
		<path d="M381.1,44.5h-2.2V34.1h2.2V44.5z"/>
		<path d="M388.9,41.6h-4.6c0.1,1,0.7,1.5,1.9,1.5c0.8,0,1.4-0.2,2-0.5v1.6c-0.6,0.3-1.5,0.5-2.5,0.5c-1.1,0-2-0.3-2.6-0.9
			s-0.9-1.5-0.9-2.6c0-1.2,0.3-2.1,1-2.8s1.5-1,2.5-1c1,0,1.8,0.3,2.4,0.9c0.6,0.6,0.8,1.4,0.8,2.5V41.6z M386.9,40.3
			c0-1-0.4-1.5-1.2-1.5c-0.3,0-0.6,0.1-0.9,0.4c-0.3,0.3-0.4,0.6-0.5,1.1H386.9z"/>
		<path d="M389.4,44.3v-1.8c0.4,0.2,0.7,0.4,1.1,0.5c0.4,0.1,0.7,0.2,1,0.2c0.4,0,0.7-0.1,0.9-0.2c0.2-0.1,0.3-0.3,0.3-0.5
			c0-0.1,0-0.3-0.2-0.3s-0.2-0.2-0.4-0.2c-0.2-0.1-0.3-0.1-0.5-0.2s-0.4-0.1-0.5-0.2c-0.3-0.1-0.5-0.2-0.7-0.3
			c-0.2-0.1-0.4-0.3-0.5-0.4c-0.1-0.2-0.3-0.3-0.3-0.6c-0.1-0.2-0.1-0.5-0.1-0.7c0-0.4,0.1-0.7,0.3-1c0.2-0.3,0.4-0.5,0.7-0.7
			c0.3-0.2,0.6-0.3,1-0.4c0.4-0.1,0.7-0.1,1.1-0.1c0.3,0,0.6,0,0.9,0.1s0.6,0.1,0.9,0.2v1.7c-0.3-0.2-0.6-0.3-0.9-0.4
			c-0.3-0.1-0.6-0.1-0.9-0.1c-0.1,0-0.3,0-0.4,0c-0.1,0-0.2,0.1-0.3,0.1s-0.2,0.1-0.2,0.2s-0.1,0.2-0.1,0.3c0,0.1,0,0.2,0.1,0.3
			s0.2,0.2,0.3,0.2s0.3,0.1,0.4,0.2c0.2,0.1,0.3,0.1,0.5,0.2c0.3,0.1,0.5,0.2,0.8,0.3s0.4,0.3,0.6,0.4c0.2,0.2,0.3,0.3,0.4,0.6
			c0.1,0.2,0.1,0.5,0.1,0.8c0,0.4-0.1,0.8-0.3,1.1c-0.2,0.3-0.4,0.5-0.7,0.7c-0.3,0.2-0.6,0.3-1,0.4c-0.4,0.1-0.8,0.1-1.2,0.1
			C390.8,44.6,390.1,44.5,389.4,44.3z"/>
		<path d="M402.6,43.7c0,1.3-0.4,2.3-1.1,3s-1.8,1.1-3.3,1.1c-0.9,0-1.7-0.1-2.2-0.4v-1.8c0.7,0.4,1.4,0.6,2.2,0.6
			c0.7,0,1.3-0.2,1.7-0.6s0.6-0.9,0.6-1.6v-0.6h0c-0.5,0.8-1.2,1.2-2.2,1.2c-0.9,0-1.6-0.3-2.1-0.9s-0.8-1.5-0.8-2.5
			c0-1.2,0.3-2.1,0.9-2.8s1.4-1,2.3-1c0.9,0,1.5,0.3,1.9,1h0v-0.8h2.2V43.7z M400.5,41.1v-0.6c0-0.4-0.1-0.8-0.4-1.1
			c-0.3-0.3-0.6-0.5-1-0.5c-0.5,0-0.9,0.2-1.1,0.6s-0.4,0.9-0.4,1.6c0,0.6,0.1,1,0.4,1.4s0.6,0.5,1.1,0.5c0.4,0,0.8-0.2,1.1-0.5
			C400.4,42.1,400.5,41.7,400.5,41.1z"/>
		<path d="M414.4,44.5h-2.2v-1.1h0c-0.5,0.8-1.2,1.2-2.1,1.2c-1.6,0-2.4-1-2.4-2.9v-4.2h2.2v4c0,1,0.4,1.5,1.2,1.5
			c0.4,0,0.7-0.1,0.9-0.4s0.3-0.6,0.3-1.1v-4h2.2V44.5z"/>
		<path d="M418.1,43.7L418.1,43.7l0,4h-2.2V37.5h2.2v1.1h0c0.5-0.8,1.3-1.2,2.2-1.2c0.9,0,1.6,0.3,2.1,0.9c0.5,0.6,0.7,1.5,0.7,2.5
			c0,1.2-0.3,2.1-0.9,2.8c-0.6,0.7-1.3,1.1-2.3,1.1C419.2,44.6,418.6,44.3,418.1,43.7z M418.1,40.8v0.6c0,0.5,0.1,0.9,0.4,1.2
			s0.6,0.5,1,0.5c0.5,0,0.9-0.2,1.1-0.6c0.3-0.4,0.4-0.9,0.4-1.6c0-1.2-0.5-1.8-1.4-1.8c-0.4,0-0.8,0.2-1.1,0.5
			C418.2,39.8,418.1,40.2,418.1,40.8z"/>
		<path d="M431.2,44.5H429v-1h0c-0.5,0.8-1.2,1.1-2.2,1.1c-0.9,0-1.6-0.3-2.1-0.9s-0.8-1.5-0.8-2.6c0-1.2,0.3-2.1,0.9-2.8
			s1.4-1,2.3-1c0.9,0,1.5,0.3,1.9,1h0v-4.2h2.2V44.5z M429.1,41.1v-0.5c0-0.5-0.1-0.8-0.4-1.1s-0.6-0.5-1-0.5
			c-0.5,0-0.9,0.2-1.1,0.6s-0.4,0.9-0.4,1.5c0,0.6,0.1,1.1,0.4,1.4s0.6,0.5,1.1,0.5c0.4,0,0.8-0.2,1.1-0.5
			C428.9,42.1,429.1,41.7,429.1,41.1z"/>
		<path d="M438.6,44.5h-2v-1h0c-0.5,0.8-1.2,1.2-2.1,1.2c-0.7,0-1.2-0.2-1.6-0.6c-0.4-0.4-0.6-0.9-0.6-1.5c0-1.4,0.8-2.1,2.4-2.4
			l1.9-0.3c0-0.8-0.4-1.1-1.2-1.1c-0.8,0-1.6,0.2-2.4,0.7v-1.6c0.3-0.2,0.7-0.3,1.2-0.4c0.5-0.1,1-0.2,1.4-0.2c2,0,3,1,3,3V44.5z
			 M436.5,41.6v-0.5l-1.3,0.2c-0.7,0.1-1.1,0.4-1.1,1c0,0.2,0.1,0.4,0.3,0.6c0.2,0.2,0.4,0.2,0.7,0.2c0.4,0,0.7-0.1,1-0.4
			S436.5,42.1,436.5,41.6z"/>
		<path d="M444.2,44.4c-0.3,0.2-0.8,0.3-1.4,0.3c-1.5,0-2.3-0.8-2.3-2.4v-3.2h-1.1v-1.6h1.1V36l2.2-0.6v2.1h1.6v1.6h-1.6v2.8
			c0,0.7,0.3,1.1,0.9,1.1c0.2,0,0.5-0.1,0.7-0.2V44.4z"/>
		<path d="M451.4,41.6h-4.6c0.1,1,0.7,1.5,1.9,1.5c0.8,0,1.4-0.2,2-0.5v1.6c-0.6,0.3-1.5,0.5-2.5,0.5c-1.1,0-2-0.3-2.6-0.9
			s-0.9-1.5-0.9-2.6c0-1.2,0.3-2.1,1-2.8s1.5-1,2.5-1c1,0,1.8,0.3,2.4,0.9c0.6,0.6,0.8,1.4,0.8,2.5V41.6z M449.4,40.3
			c0-1-0.4-1.5-1.2-1.5c-0.3,0-0.6,0.1-0.9,0.4c-0.3,0.3-0.4,0.6-0.5,1.1H449.4z"/>
		<path d="M451.9,44.3v-1.8c0.4,0.2,0.7,0.4,1.1,0.5c0.4,0.1,0.7,0.2,1,0.2c0.4,0,0.7-0.1,0.9-0.2c0.2-0.1,0.3-0.3,0.3-0.5
			c0-0.1,0-0.3-0.2-0.3s-0.2-0.2-0.4-0.2c-0.2-0.1-0.3-0.1-0.5-0.2s-0.4-0.1-0.5-0.2c-0.3-0.1-0.5-0.2-0.7-0.3
			c-0.2-0.1-0.4-0.3-0.5-0.4c-0.1-0.2-0.3-0.3-0.3-0.6c-0.1-0.2-0.1-0.5-0.1-0.7c0-0.4,0.1-0.7,0.3-1c0.2-0.3,0.4-0.5,0.7-0.7
			c0.3-0.2,0.6-0.3,1-0.4c0.4-0.1,0.7-0.1,1.1-0.1c0.3,0,0.6,0,0.9,0.1s0.6,0.1,0.9,0.2v1.7c-0.3-0.2-0.6-0.3-0.9-0.4
			c-0.3-0.1-0.6-0.1-0.9-0.1c-0.1,0-0.3,0-0.4,0c-0.1,0-0.2,0.1-0.3,0.1s-0.2,0.1-0.2,0.2s-0.1,0.2-0.1,0.3c0,0.1,0,0.2,0.1,0.3
			s0.2,0.2,0.3,0.2s0.3,0.1,0.4,0.2c0.2,0.1,0.3,0.1,0.5,0.2c0.3,0.1,0.5,0.2,0.8,0.3s0.4,0.3,0.6,0.4c0.2,0.2,0.3,0.3,0.4,0.6
			c0.1,0.2,0.1,0.5,0.1,0.8c0,0.4-0.1,0.8-0.3,1.1c-0.2,0.3-0.4,0.5-0.7,0.7c-0.3,0.2-0.6,0.3-1,0.4c-0.4,0.1-0.8,0.1-1.2,0.1
			C453.3,44.6,452.6,44.5,451.9,44.3z"/>
	</g>
</g>
</svg>
