<svg id="Layer_1" data-name="Layer 1" xmlns="http://www.w3.org/2000/svg" viewBox="0 0 630.39 231"><defs><style>.cls-1{fill:#fff;}.cls-12,.cls-2,.cls-5{fill:#3c3c41;}.cls-2{opacity:0.18;}.cls-10,.cls-19,.cls-2,.cls-3,.cls-5,.cls-6,.cls-8,.cls-9{isolation:isolate;}.cls-19,.cls-3,.cls-8{fill:#50e6ff;}.cls-3{opacity:0.06;}.cls-11,.cls-4,.cls-7{fill:none;}.cls-11,.cls-4{stroke:#3c3c41;}.cls-4{stroke-dasharray:1 2;}.cls-19,.cls-5{opacity:0.15;}.cls-6{fill:#0072c6;opacity:0.09;}.cls-7{stroke:#0072c6;stroke-width:0.5px;}.cls-8{opacity:0.7;}.cls-9{fill:#0078d4;opacity:0.5;}.cls-10{fill:#008575;opacity:0.4;}.cls-11{stroke-miterlimit:10;}.cls-13{fill:#804998;}.cls-14{fill:#40244c;}.cls-15{fill:#5c4168;}.cls-16{fill:#c0a4cc;}.cls-17{fill:#a092a6;}.cls-18{fill:#996dad;}</style></defs><title>OJ104601287</title><g id="Shapes"><rect class="cls-1" width="630.39" height="231"/><rect class="cls-1" x="149.62" width="480.77" height="231"/><rect class="cls-2" x="149.62" width="480.77" height="231"/><rect class="cls-1" width="140.16" height="231"/><rect class="cls-2" width="140.16" height="231"/><rect class="cls-1" x="155.87" y="26.5" width="360" height="200" rx="5"/><rect class="cls-3" x="155.87" y="26.5" width="360" height="200" rx="5"/><rect class="cls-4" x="155.87" y="26.5" width="360" height="200" rx="5"/><rect class="cls-1" x="524.89" y="26.5" width="100" height="200" rx="5"/><rect class="cls-3" x="524.89" y="26.5" width="100" height="200" rx="5"/><rect class="cls-4" x="524.89" y="26.5" width="100" height="200" rx="5"/><rect class="cls-1" x="356.98" y="61" width="144.73" height="155"/><rect class="cls-5" x="356.98" y="61" width="144.73" height="155"/><rect class="cls-1" x="171.64" y="181" width="125" height="35"/><rect class="cls-6" x="171.64" y="181" width="125" height="35"/><rect class="cls-7" x="171.64" y="181" width="125" height="35"/><rect class="cls-1" x="171.64" y="122" width="125" height="35"/><rect class="cls-6" x="171.64" y="122" width="125" height="35"/><rect class="cls-7" x="171.64" y="122" width="125" height="35"/><rect class="cls-1" x="7.58" y="44.35" width="125" height="25"/><rect class="cls-8" x="7.58" y="44.35" width="125" height="25"/><rect class="cls-1" x="7.58" y="89.5" width="125" height="25"/><rect class="cls-9" x="7.58" y="89.5" width="125" height="25"/><rect class="cls-1" x="7.58" y="134.5" width="125" height="25"/><rect class="cls-10" x="7.58" y="134.5" width="125" height="25"/><rect class="cls-1" x="366.84" y="90.85" width="125" height="25"/><rect class="cls-8" x="366.84" y="90.85" width="125" height="25"/><rect class="cls-1" x="366.84" y="136" width="125" height="25"/><rect class="cls-9" x="366.84" y="136" width="125" height="25"/><rect class="cls-1" x="366.84" y="181" width="125" height="25"/><rect class="cls-10" x="366.84" y="181" width="125" height="25"/><line class="cls-11" x1="234.14" y1="162.38" x2="234.14" y2="175.62"/><polygon class="cls-12" points="230.4 163.48 234.14 157 237.88 163.48 230.4 163.48"/><polygon class="cls-12" points="230.4 174.52 234.14 181 237.88 174.52 230.4 174.52"/><line class="cls-11" x1="234.14" y1="102.38" x2="234.14" y2="115.62"/><polygon class="cls-12" points="230.4 103.48 234.14 97 237.88 103.48 230.4 103.48"/><polygon class="cls-12" points="230.4 114.52 234.14 121 237.88 114.52 230.4 114.52"/><line class="cls-11" x1="351.6" y1="79.5" x2="302.02" y2="79.5"/><polygon class="cls-12" points="350.5 75.76 356.98 79.5 350.5 83.24 350.5 75.76"/><polygon class="cls-12" points="303.12 75.76 296.64 79.5 303.12 83.24 303.12 75.76"/><polyline class="cls-13" points="574.69 81.94 555.8 88.22 555.8 103.82 573.3 110.28 574.67 110.79 574.67 110.79 593.8 103.85 593.8 88.23 574.69 81.94"/><path class="cls-14" d="M557.81,89.73l-.45.16v13.22l.31.11h.14V89.73m.78-.9-1.23.42v.64l.46-.16h0l.78-.27v-.63"/><path class="cls-14" d="M560.39,88.85l-.6.21v14.87l.6.2V88.85m1.23-1-1.83.62v.64l.6-.2h0l1.23-.42V87.8"/><path d="M559.79,88.42l1.84-.62Z"/><path class="cls-14" d="M563.26,87.88l-.58.2v16.83l.58.2V87.88m1.8-.62-1.06.36,1.06-.34h0m0-.64-2.38.82v.63l.58-.2h0l.74-.24,1-.36v-.63"/><path class="cls-14" d="M566.93,86.63l-.6.2v19.32l.6.18V86.63m2-1.35-2.61.91v.64l.6-.2h0l2-.68v-.66"/><path class="cls-14" d="M570.67,85.36l-.61.2v21.83l.61.22V85.36m2.65-1.54-3.26,1.11v.63l.61-.2h0l2.65-.9v-.64"/><path class="cls-15" d="M592.39,88.59a.51.51,0,1,0,.51.51.51.51,0,0,0-.51-.51h0"/><path class="cls-16" d="M557.36,89.89h0m2.43-.83-2,.67h0l2-.67m2.89-1-2.29.77,2.29-.77m1.32-.45h0l-.74.25.74-.25m2.33-.8-1.28.44,1.28-.44m3.73-1.27-3.13,1.07,3.13-1.07m3.26-1.11h0l-2.65.91h0l2.65-.91"/><polyline class="cls-17" points="557.81 89.73 557.36 89.89 557.36 89.89 557.81 89.73 557.81 89.73"/><polyline class="cls-17" points="560.39 88.86 559.79 89.06 560.39 88.86"/><path class="cls-17" d="M563.26,87.88l-.58.2.58-.2m1.8-.62-1.06.36,1.06-.36"/><polyline class="cls-17" points="566.93 86.63 566.33 86.83 566.93 86.63"/><path class="cls-18" d="M574.69,82v28.82l19.1-6.94V88.26Zm17.7,6.62a.51.51,0,1,1-.51.51.51.51,0,0,1,.51-.51h0ZM576,83.34a.5.5,0,0,1,.5.5h0a.5.5,0,0,1-.5.5h0a.5.5,0,0,1-.51-.49h0a.51.51,0,0,1,.51-.51Z"/><polyline class="cls-13" points="574.69 121.94 555.8 128.22 555.8 143.82 573.3 150.28 574.67 150.79 574.67 150.79 593.8 143.85 593.8 128.23 574.69 121.94"/><path class="cls-14" d="M557.81,129.73l-.45.16v13.22l.31.11h.14V129.73m.78-.9-1.23.42v.64l.46-.16h0l.78-.27v-.63"/><path class="cls-14" d="M560.39,128.85l-.6.21v14.87l.6.2V128.85m1.23-1-1.83.62v.64l.6-.2h0l1.23-.42v-.64"/><path d="M559.79,128.42l1.84-.62Z"/><path class="cls-14" d="M563.26,127.88l-.58.2v16.83l.58.2V127.88m1.8-.62-1.06.36,1.06-.34h0m0-.64-2.38.82v.63l.58-.2h0l.74-.24,1-.36v-.63"/><path class="cls-14" d="M566.93,126.63l-.6.2v19.32l.6.18v-19.7m2-1.35-2.61.91v.64l.6-.2h0l2-.68v-.66"/><path class="cls-14" d="M570.67,125.36l-.61.2v21.83l.61.22V125.36m2.65-1.54-3.26,1.11v.63l.61-.2h0l2.65-.9v-.64"/><path class="cls-15" d="M592.39,128.59a.51.51,0,1,0,.51.51.51.51,0,0,0-.51-.51h0"/><path class="cls-16" d="M557.36,129.89h0m2.43-.83-2,.67h0l2-.67m2.89-1-2.29.77,2.29-.77m1.32-.45h0l-.74.25.74-.25m2.33-.8-1.28.44,1.28-.44m3.73-1.27-3.13,1.07,3.13-1.07m3.26-1.11h0l-2.65.91h0l2.65-.91"/><polyline class="cls-17" points="557.81 129.73 557.36 129.88 557.36 129.88 557.81 129.73 557.81 129.73"/><polyline class="cls-17" points="560.39 128.85 559.79 129.06 560.39 128.85"/><path class="cls-17" d="M563.26,127.88l-.58.2.58-.2m1.8-.62-1.06.36,1.06-.36"/><polyline class="cls-17" points="566.93 126.63 566.33 126.83 566.93 126.63"/><path class="cls-18" d="M574.69,122v28.82l19.1-6.94V128.26Zm17.7,6.62a.51.51,0,1,1-.51.51.51.51,0,0,1,.51-.51h0ZM576,123.34a.5.5,0,0,1,.5.5h0a.5.5,0,0,1-.5.5h0a.5.5,0,0,1-.51-.49h0a.51.51,0,0,1,.51-.51Z"/><polyline class="cls-13" points="574.69 161.94 555.8 168.22 555.8 183.82 573.3 190.28 574.67 190.79 574.67 190.79 593.8 183.85 593.8 168.23 574.69 161.94"/><path class="cls-14" d="M557.81,169.73l-.45.16v13.22l.31.11h.14V169.73m.78-.9-1.23.42v.64l.46-.16h0l.78-.27v-.63"/><path class="cls-14" d="M560.39,168.85l-.6.21v14.87l.6.2V168.85m1.23-1-1.83.62v.64l.6-.2h0l1.23-.42v-.64"/><path d="M559.79,168.42l1.84-.62Z"/><path class="cls-14" d="M563.26,167.88l-.58.2v16.83l.58.2V167.88m1.8-.62-1.06.36,1.06-.34h0m0-.64-2.38.82v.63l.58-.2h0l.74-.24,1-.36v-.63"/><path class="cls-14" d="M566.93,166.63l-.6.2v19.32l.6.18v-19.7m2-1.35-2.61.91v.64l.6-.2h0l2-.68v-.66"/><path class="cls-14" d="M570.67,165.36l-.61.2v21.83l.61.22V165.36m2.65-1.54-3.26,1.11v.63l.61-.2h0l2.65-.9v-.64"/><path class="cls-15" d="M592.39,168.59a.51.51,0,1,0,.51.51.51.51,0,0,0-.51-.51h0"/><path class="cls-16" d="M557.36,169.89h0m2.43-.83-2,.67h0l2-.67m2.89-1-2.29.77,2.29-.77m1.32-.45h0l-.74.25.74-.25m2.33-.8-1.28.44,1.28-.44m3.73-1.27-3.13,1.07,3.13-1.07m3.26-1.11h0l-2.65.91h0l2.65-.91"/><polyline class="cls-17" points="557.81 169.73 557.36 169.88 557.36 169.88 557.81 169.73 557.81 169.73"/><polyline class="cls-17" points="560.39 168.85 559.79 169.06 560.39 168.85"/><path class="cls-17" d="M563.26,167.88l-.58.2.58-.2m1.8-.62-1.06.36,1.06-.36"/><polyline class="cls-17" points="566.93 166.63 566.33 166.83 566.93 166.63"/><path class="cls-18" d="M574.69,162v28.82l19.1-6.94V168.26Zm17.7,6.62a.51.51,0,1,1-.51.51.51.51,0,0,1,.51-.51h0ZM576,163.34a.5.5,0,0,1,.5.5h0a.5.5,0,0,1-.5.5h0a.5.5,0,0,1-.51-.49h0a.51.51,0,0,1,.51-.51Z"/><rect class="cls-1" x="171.64" y="61" width="125" height="35"/><rect class="cls-19" x="171.64" y="61" width="125" height="35"/><rect class="cls-7" x="171.64" y="61" width="125" height="35"/><path class="cls-11" d="M280.39,55V47.83a5,5,0,0,1,5-5H531.28"/><polygon class="cls-12" points="284.13 53.89 280.39 60.36 276.65 53.89 284.13 53.89"/><polygon class="cls-12" points="530.18 46.57 536.66 42.83 530.18 39.09 530.18 46.57"/><line class="cls-11" x1="130.77" y1="79.5" x2="165.05" y2="79.5"/><polygon class="cls-12" points="131.87 83.24 125.39 79.5 131.87 75.76 131.87 83.24"/><polygon class="cls-12" points="163.95 83.24 170.43 79.5 163.95 75.76 163.95 83.24"/></g><path d="M421.18,197.46H420l-4.32-6.69a2.94,2.94,0,0,1-.27-.53h0a8.6,8.6,0,0,1,.05,1.15v6.07h-1v-8.4h1.28l4.21,6.59c.17.28.29.46.34.57h0a8.84,8.84,0,0,1-.06-1.24v-5.92h1Z"/><path d="M428.37,197q0,3.32-3.16,3.31a4.31,4.31,0,0,1-1.95-.42v-1a4.06,4.06,0,0,0,1.94.56c1.47,0,2.21-.79,2.21-2.36v-.65h0a2.44,2.44,0,0,1-3.87.34,3.19,3.19,0,0,1-.68-2.14,3.73,3.73,0,0,1,.74-2.43,2.44,2.44,0,0,1,2-.91,2,2,0,0,1,1.8,1h0v-.84h1Zm-1-2.23v-.88a1.73,1.73,0,0,0-.48-1.23,1.59,1.59,0,0,0-1.21-.51,1.68,1.68,0,0,0-1.39.65,2.86,2.86,0,0,0-.5,1.81,2.53,2.53,0,0,0,.48,1.61,1.56,1.56,0,0,0,1.28.6,1.7,1.7,0,0,0,1.32-.58A2.16,2.16,0,0,0,427.41,194.75Z"/><path d="M430.81,189.94a.6.6,0,0,1-.44-.18.57.57,0,0,1-.18-.44.61.61,0,0,1,.18-.45.6.6,0,0,1,.44-.18.62.62,0,0,1,.63.63.6.6,0,0,1-.18.44A.61.61,0,0,1,430.81,189.94Zm.47,7.52h-1v-6h1Z"/><path d="M438.21,197.46h-1V194c0-1.27-.46-1.91-1.39-1.91a1.5,1.5,0,0,0-1.19.54,2,2,0,0,0-.47,1.37v3.42h-1v-6h1v1h0a2.16,2.16,0,0,1,2-1.14,1.84,1.84,0,0,1,1.5.64,2.82,2.82,0,0,1,.53,1.84Z"/><path d="M444.4,191.46l-2,3,2,3h-1.12l-1.17-1.94a5.17,5.17,0,0,1-.27-.46h0l-.28.46-1.2,1.94h-1.1l2-2.94-2-3.06h1.12l1.16,2,.25.47h0l1.5-2.52Z"/><path d="M415.73,144.35l-2.38,8.41H412.2l-1.73-6.14a3.87,3.87,0,0,1-.13-.86h0a3.89,3.89,0,0,1-.15.84l-1.74,6.16h-1.14l-2.46-8.41h1.08l1.79,6.45a4.6,4.6,0,0,1,.14.84h0a5.16,5.16,0,0,1,.18-.84l1.86-6.45h.94l1.78,6.5a4.78,4.78,0,0,1,.14.78h0a4.18,4.18,0,0,1,.15-.81l1.72-6.47Z"/><path d="M417.34,145.23a.64.64,0,0,1-.44-.17.65.65,0,0,1,0-.9.6.6,0,0,1,.44-.18.64.64,0,0,1,.45.18.61.61,0,0,1,.18.45.6.6,0,0,1-.18.44A.64.64,0,0,1,417.34,145.23Zm.47,7.53h-1v-6h1Z"/><path d="M424.73,152.76h-1v-3.43c0-1.27-.46-1.91-1.39-1.91a1.48,1.48,0,0,0-1.19.55,2,2,0,0,0-.48,1.36v3.43h-1v-6h1v1h0a2.15,2.15,0,0,1,2-1.13,1.84,1.84,0,0,1,1.5.63,2.82,2.82,0,0,1,.52,1.84Z"/><path d="M431.67,152.76h-1v-1h0a2.42,2.42,0,0,1-3.87.35,3.32,3.32,0,0,1-.68-2.19,3.6,3.6,0,0,1,.75-2.39,2.47,2.47,0,0,1,2-.89,1.91,1.91,0,0,1,1.8,1h0v-3.72h1Zm-1-2.72v-.88a1.7,1.7,0,0,0-.48-1.23,1.59,1.59,0,0,0-1.22-.51,1.67,1.67,0,0,0-1.38.65,2.85,2.85,0,0,0-.5,1.78,2.56,2.56,0,0,0,.48,1.64,1.59,1.59,0,0,0,1.3.6,1.66,1.66,0,0,0,1.3-.58A2.15,2.15,0,0,0,430.7,150Z"/><path d="M436.12,152.9a2.79,2.79,0,0,1-2.13-.84,3.12,3.12,0,0,1-.79-2.23,3.27,3.27,0,0,1,.83-2.37,3,3,0,0,1,2.23-.84,2.68,2.68,0,0,1,2.09.82,3.25,3.25,0,0,1,.76,2.29,3.18,3.18,0,0,1-.82,2.3A2.82,2.82,0,0,1,436.12,152.9Zm.07-5.48a1.84,1.84,0,0,0-1.47.63,2.59,2.59,0,0,0-.54,1.74,2.46,2.46,0,0,0,.55,1.68,1.85,1.85,0,0,0,1.46.62,1.73,1.73,0,0,0,1.43-.61,2.57,2.57,0,0,0,.5-1.71,2.65,2.65,0,0,0-.5-1.74A1.76,1.76,0,0,0,436.19,147.42Z"/><path d="M448.2,146.76l-1.8,6h-1l-1.24-4.3a2.26,2.26,0,0,1-.09-.56h0a2.51,2.51,0,0,1-.12.55l-1.34,4.31h-1l-1.82-6h1l1.24,4.51a2.21,2.21,0,0,1,.08.54h.05a2.78,2.78,0,0,1,.1-.55l1.39-4.5h.88l1.24,4.52a3,3,0,0,1,.09.54h0a2.61,2.61,0,0,1,.1-.54l1.22-4.52Z"/><path d="M449,152.54v-1a2.88,2.88,0,0,0,1.73.58c.84,0,1.26-.28,1.26-.85a.72.72,0,0,0-.1-.4,1.22,1.22,0,0,0-.3-.3,2.44,2.44,0,0,0-.43-.23l-.54-.21-.7-.32a2,2,0,0,1-.5-.37,1.21,1.21,0,0,1-.31-.46,1.79,1.79,0,0,1-.1-.6,1.45,1.45,0,0,1,.2-.75,1.64,1.64,0,0,1,.51-.54,2.26,2.26,0,0,1,.74-.33,3,3,0,0,1,.85-.11,3.59,3.59,0,0,1,1.39.26v1a2.71,2.71,0,0,0-1.52-.44,1.53,1.53,0,0,0-.49.07,1.14,1.14,0,0,0-.37.17.85.85,0,0,0-.24.26.69.69,0,0,0-.08.35.8.8,0,0,0,.08.39.83.83,0,0,0,.25.28,1.67,1.67,0,0,0,.4.22l.53.22c.27.1.51.21.72.31a2.44,2.44,0,0,1,.54.37,1.36,1.36,0,0,1,.46,1.09,1.45,1.45,0,0,1-.2.77,1.7,1.7,0,0,1-.52.55,2.49,2.49,0,0,1-.76.32,3.68,3.68,0,0,1-.89.11A3.39,3.39,0,0,1,449,152.54Z"/><path d="M400.52,104.43q0,3.54-3.19,3.54c-2,0-3.06-1.14-3.06-3.4V99.43h1v5.07c0,1.72.73,2.58,2.18,2.58s2.11-.83,2.11-2.49V99.43h1Z"/><path d="M403.48,107h0v.87h-1V99h1v3.93h0a2.27,2.27,0,0,1,2.07-1.19,2.23,2.23,0,0,1,1.81.8,3.37,3.37,0,0,1,.65,2.16,3.69,3.69,0,0,1-.73,2.41,2.44,2.44,0,0,1-2,.91A2,2,0,0,1,403.48,107Zm0-2.42v.84a1.73,1.73,0,0,0,.49,1.26,1.71,1.71,0,0,0,2.59-.15,3,3,0,0,0,.5-1.85,2.39,2.39,0,0,0-.47-1.57,1.52,1.52,0,0,0-1.25-.57,1.7,1.7,0,0,0-1.35.58A2.15,2.15,0,0,0,403.45,104.54Z"/><path d="M414.4,107.83h-1v-1h0a2,2,0,0,1-1.85,1.09c-1.43,0-2.14-.85-2.14-2.55v-3.59h.95v3.43c0,1.27.49,1.9,1.46,1.9a1.45,1.45,0,0,0,1.15-.52,1.94,1.94,0,0,0,.46-1.35v-3.46h1Z"/><path d="M421.32,107.83h-1v-3.42c0-1.28-.47-1.91-1.4-1.91a1.5,1.5,0,0,0-1.19.54,2,2,0,0,0-.47,1.37v3.42h-1v-6h1v1h0a2.16,2.16,0,0,1,2-1.14,1.85,1.85,0,0,1,1.51.63,2.9,2.9,0,0,1,.52,1.84Z"/><path d="M425.91,107.77a1.8,1.8,0,0,1-.9.19c-1.05,0-1.57-.59-1.57-1.76v-3.55h-1v-.82h1v-1.47l1-.31v1.78h1.51v.82H424.4V106a1.45,1.45,0,0,0,.2.86.84.84,0,0,0,.68.26,1,1,0,0,0,.63-.2Z"/><path d="M432.05,107.83h-1v-1h0a2,2,0,0,1-1.85,1.09c-1.43,0-2.14-.85-2.14-2.55v-3.59H428v3.43c0,1.27.48,1.9,1.45,1.9a1.46,1.46,0,0,0,1.16-.52,2,2,0,0,0,.45-1.35v-3.46h1Z"/><path d="M441.76,107.83H437.4v-8.4h1v7.51h3.37Z"/><path d="M443.41,100.31a.6.6,0,0,1-.44-.18.61.61,0,0,1-.18-.45.59.59,0,0,1,.18-.44.6.6,0,0,1,.44-.18.61.61,0,0,1,.45.18.6.6,0,0,1,0,.88A.58.58,0,0,1,443.41,100.31Zm.47,7.52h-1v-6h1Z"/><path d="M450.81,107.83h-1v-3.42c0-1.28-.47-1.91-1.4-1.91a1.5,1.5,0,0,0-1.19.54,2,2,0,0,0-.47,1.37v3.42h-1v-6h1v1h0a2.16,2.16,0,0,1,2-1.14,1.85,1.85,0,0,1,1.51.63,2.9,2.9,0,0,1,.52,1.84Z"/><path d="M457.47,107.83h-1v-1h0a2,2,0,0,1-1.86,1.09c-1.43,0-2.14-.85-2.14-2.55v-3.59h.95v3.43c0,1.27.49,1.9,1.46,1.9a1.44,1.44,0,0,0,1.15-.52,1.94,1.94,0,0,0,.46-1.35v-3.46h1Z"/><path d="M463.79,101.83l-2,3,2,3h-1.12l-1.18-2-.26-.45h0l-.27.45-1.2,2h-1.11l2-2.94-1.95-3.06h1.12l1.16,2,.25.47h0l1.5-2.52Z"/><path d="M405.47,76.63h-1v-8.4h1Z"/><path d="M416.07,76.63h-1V73.19a2.52,2.52,0,0,0-.31-1.44,1.15,1.15,0,0,0-1-.45,1.3,1.3,0,0,0-1,.56,2.16,2.16,0,0,0-.43,1.35v3.42h-1V73.07c0-1.18-.46-1.77-1.37-1.77a1.27,1.27,0,0,0-1,.53,2.24,2.24,0,0,0-.41,1.38v3.42h-1v-6h1v1h0a2.06,2.06,0,0,1,1.87-1.09,1.76,1.76,0,0,1,1.7,1.25,2.14,2.14,0,0,1,2-1.25c1.32,0,2,.82,2,2.45Z"/><path d="M422.18,76.63h-1V75.7h0a2,2,0,0,1-1.85,1.07,2,2,0,0,1-1.4-.47,1.65,1.65,0,0,1-.51-1.26c0-1.12.66-1.77,2-2l1.8-.25c0-1-.41-1.53-1.24-1.53a3,3,0,0,0-2,.74v-1a3.68,3.68,0,0,1,2-.57c1.41,0,2.11.75,2.11,2.24Zm-1-3-1.45.2a2.35,2.35,0,0,0-1,.33,1,1,0,0,0-.34.84.93.93,0,0,0,.32.72,1.24,1.24,0,0,0,.83.28,1.55,1.55,0,0,0,1.18-.5,1.81,1.81,0,0,0,.47-1.27Zm.13-6-1.54,1.92h-.74l1.31-1.92Z"/><path d="M429.11,76.15q0,3.31-3.16,3.31A4.31,4.31,0,0,1,424,79v-1a4.06,4.06,0,0,0,1.94.56c1.47,0,2.21-.79,2.21-2.36v-.65h0a2.45,2.45,0,0,1-3.87.35,3.24,3.24,0,0,1-.68-2.15,3.73,3.73,0,0,1,.74-2.43,2.44,2.44,0,0,1,2-.91,2,2,0,0,1,1.8,1h0v-.84h1Zm-1-2.23V73a1.73,1.73,0,0,0-.48-1.23,1.6,1.6,0,0,0-1.21-.51,1.68,1.68,0,0,0-1.39.65,2.86,2.86,0,0,0-.5,1.81,2.51,2.51,0,0,0,.48,1.61,1.56,1.56,0,0,0,1.28.6,1.66,1.66,0,0,0,1.31-.58A2.12,2.12,0,0,0,428.15,73.92Z"/><path d="M435.88,73.87h-4.24a2.28,2.28,0,0,0,.54,1.55,1.89,1.89,0,0,0,1.42.55,3,3,0,0,0,1.86-.67v.9a3.47,3.47,0,0,1-2.09.57,2.56,2.56,0,0,1-2-.81,3.37,3.37,0,0,1-.72-2.3,3.25,3.25,0,0,1,.79-2.28,2.55,2.55,0,0,1,2-.89,2.26,2.26,0,0,1,1.83.77,3.15,3.15,0,0,1,.64,2.11Zm-1-.81a1.93,1.93,0,0,0-.41-1.29,1.36,1.36,0,0,0-1.09-.47,1.54,1.54,0,0,0-1.16.49,2.15,2.15,0,0,0-.58,1.27Z"/><path d="M442.31,76.63h-1V73.21c0-1.27-.46-1.91-1.39-1.91a1.5,1.5,0,0,0-1.19.54,2,2,0,0,0-.48,1.37v3.42h-1v-6h1v1h0a2.16,2.16,0,0,1,2-1.14,1.85,1.85,0,0,1,1.5.64,2.82,2.82,0,0,1,.52,1.84Z"/><path d="M449,73.87h-4.24a2.28,2.28,0,0,0,.54,1.55,1.87,1.87,0,0,0,1.42.55,3,3,0,0,0,1.86-.67v.9a3.5,3.5,0,0,1-2.09.57,2.54,2.54,0,0,1-2-.81,3.37,3.37,0,0,1-.73-2.3,3.25,3.25,0,0,1,.8-2.28,2.54,2.54,0,0,1,2-.89,2.26,2.26,0,0,1,1.82.77,3.15,3.15,0,0,1,.65,2.11Zm-1-.81a1.93,1.93,0,0,0-.4-1.29,1.36,1.36,0,0,0-1.1-.47,1.52,1.52,0,0,0-1.15.49,2.22,2.22,0,0,0-.59,1.27Z"/><path d="M450,76.42v-1a2.87,2.87,0,0,0,1.72.58c.85,0,1.27-.28,1.27-.85a.72.72,0,0,0-.11-.4,1,1,0,0,0-.29-.3,2.18,2.18,0,0,0-.43-.23l-.54-.22a5.16,5.16,0,0,1-.7-.32,1.74,1.74,0,0,1-.5-.36,1.29,1.29,0,0,1-.31-.46,1.57,1.57,0,0,1-.1-.6,1.44,1.44,0,0,1,.19-.75,1.58,1.58,0,0,1,.52-.54,2.45,2.45,0,0,1,.73-.34,3.59,3.59,0,0,1,2.25.16v1a2.71,2.71,0,0,0-1.52-.44,1.83,1.83,0,0,0-.49.06,1,1,0,0,0-.37.18.66.66,0,0,0-.24.26.7.7,0,0,0-.09.35.8.8,0,0,0,.09.39.82.82,0,0,0,.25.28,1.81,1.81,0,0,0,.39.22l.54.22c.26.1.5.21.71.31a2.44,2.44,0,0,1,.54.37,1.38,1.38,0,0,1,.34.46A1.54,1.54,0,0,1,454,75a1.47,1.47,0,0,1-.19.77,1.74,1.74,0,0,1-.53.55,2.43,2.43,0,0,1-.75.32,3.82,3.82,0,0,1-.9.1A3.34,3.34,0,0,1,450,76.42Z"/><path d="M193.45,202.28a4.92,4.92,0,0,1-2.32.49,3.72,3.72,0,0,1-2.87-1.15,4.26,4.26,0,0,1-1.08-3,4.47,4.47,0,0,1,1.21-3.26,4.11,4.11,0,0,1,3.08-1.24,5,5,0,0,1,2,.35v1.05a4,4,0,0,0-2-.51,3,3,0,0,0-2.34,1,3.62,3.62,0,0,0-.9,2.58,3.47,3.47,0,0,0,.84,2.45,2.86,2.86,0,0,0,2.21.91,4.2,4.2,0,0,0,2.19-.56Z"/><path d="M196,202.63h-1v-8.88h1Z"/><path d="M198.43,195.11a.6.6,0,0,1-.44-.18.57.57,0,0,1-.18-.44A.61.61,0,0,1,198,194a.6.6,0,0,1,.44-.18.64.64,0,0,1,.45.18.61.61,0,0,1,.18.45.6.6,0,0,1-.18.44A.64.64,0,0,1,198.43,195.11Zm.47,7.52h-1v-6h1Z"/><path d="M205.66,199.87h-4.23a2.19,2.19,0,0,0,.54,1.55,1.85,1.85,0,0,0,1.41.55,3,3,0,0,0,1.87-.67v.9a3.52,3.52,0,0,1-2.09.57,2.54,2.54,0,0,1-2-.81,3.33,3.33,0,0,1-.73-2.3,3.25,3.25,0,0,1,.8-2.28,2.52,2.52,0,0,1,2-.89,2.28,2.28,0,0,1,1.82.76,3.19,3.19,0,0,1,.64,2.12Zm-1-.81a2,2,0,0,0-.4-1.3,1.4,1.4,0,0,0-1.1-.46,1.56,1.56,0,0,0-1.16.49,2.21,2.21,0,0,0-.58,1.27Z"/><path d="M212.1,202.63h-1v-3.42c0-1.27-.47-1.91-1.4-1.91a1.5,1.5,0,0,0-1.19.54,2,2,0,0,0-.47,1.37v3.42h-1v-6h1v1h0a2.16,2.16,0,0,1,2-1.14,1.86,1.86,0,0,1,1.51.64,2.88,2.88,0,0,1,.52,1.84Z"/><path d="M216.69,202.58a1.92,1.92,0,0,1-.9.18c-1,0-1.57-.58-1.57-1.76v-3.55h-1v-.82h1v-1.46l1-.31v1.77h1.51v.82h-1.51v3.38a1.49,1.49,0,0,0,.2.87.83.83,0,0,0,.68.25,1,1,0,0,0,.63-.2Z"/><path d="M222.8,199.87h-4.24a2.28,2.28,0,0,0,.54,1.55,1.87,1.87,0,0,0,1.42.55,3,3,0,0,0,1.86-.67v.9a3.5,3.5,0,0,1-2.09.57,2.54,2.54,0,0,1-2-.81,3.37,3.37,0,0,1-.73-2.3,3.25,3.25,0,0,1,.8-2.28,2.54,2.54,0,0,1,2-.89,2.28,2.28,0,0,1,1.82.76,3.2,3.2,0,0,1,.65,2.12Zm-1-.81a2,2,0,0,0-.4-1.3,1.39,1.39,0,0,0-1.1-.46,1.52,1.52,0,0,0-1.15.49,2.22,2.22,0,0,0-.59,1.27Z"/><path d="M232.66,202.63h-1v-1h0a2.2,2.2,0,0,1-2.06,1.16,2.24,2.24,0,0,1-1.81-.8,3.32,3.32,0,0,1-.67-2.2,3.59,3.59,0,0,1,.75-2.38,2.46,2.46,0,0,1,2-.9,1.92,1.92,0,0,1,1.8,1h0v-3.72h1Zm-1-2.71V199a1.7,1.7,0,0,0-.48-1.23,1.61,1.61,0,0,0-1.22-.51,1.68,1.68,0,0,0-1.39.65,2.85,2.85,0,0,0-.5,1.78,2.58,2.58,0,0,0,.48,1.64,1.6,1.6,0,0,0,1.3.6,1.68,1.68,0,0,0,1.31-.58A2.2,2.2,0,0,0,231.7,199.92Z"/><path d="M239.43,199.87h-4.24a2.19,2.19,0,0,0,.54,1.55,1.86,1.86,0,0,0,1.42.55,3,3,0,0,0,1.86-.67v.9a3.52,3.52,0,0,1-2.09.57,2.54,2.54,0,0,1-2-.81,3.37,3.37,0,0,1-.73-2.3,3.25,3.25,0,0,1,.8-2.28,2.54,2.54,0,0,1,2-.89,2.28,2.28,0,0,1,1.82.76,3.2,3.2,0,0,1,.65,2.12Zm-1-.81a2,2,0,0,0-.4-1.3,1.39,1.39,0,0,0-1.1-.46,1.52,1.52,0,0,0-1.15.49,2.16,2.16,0,0,0-.59,1.27Z"/><path d="M244.29,202.63v-8.4h2.32q4.45,0,4.45,4.1a4.09,4.09,0,0,1-1.24,3.12,4.55,4.55,0,0,1-3.3,1.18Zm1-7.51v6.62h1.25a3.55,3.55,0,0,0,2.57-.88,3.3,3.3,0,0,0,.92-2.51q0-3.22-3.43-3.23Z"/><path d="M255.09,202.77a2.79,2.79,0,0,1-2.13-.84,3.1,3.1,0,0,1-.79-2.23,3.22,3.22,0,0,1,.83-2.36,3,3,0,0,1,2.23-.85,2.69,2.69,0,0,1,2.09.83,3.28,3.28,0,0,1,.76,2.29,3.19,3.19,0,0,1-.82,2.3A2.81,2.81,0,0,1,255.09,202.77Zm.07-5.47a1.84,1.84,0,0,0-1.47.63,2.59,2.59,0,0,0-.54,1.74,2.46,2.46,0,0,0,.55,1.68,1.85,1.85,0,0,0,1.46.62,1.76,1.76,0,0,0,1.43-.61,2.62,2.62,0,0,0,.5-1.71,2.71,2.71,0,0,0-.5-1.74A1.73,1.73,0,0,0,255.16,197.3Z"/><path d="M263.7,202.36a3.1,3.1,0,0,1-1.64.41,2.68,2.68,0,0,1-2.07-.83,3,3,0,0,1-.79-2.17,3.32,3.32,0,0,1,.85-2.38,3,3,0,0,1,2.27-.9,3.06,3.06,0,0,1,1.39.3v1a2.45,2.45,0,0,0-1.43-.47,2,2,0,0,0-1.51.66,2.51,2.51,0,0,0-.58,1.73,2.39,2.39,0,0,0,.55,1.67,1.92,1.92,0,0,0,1.48.61,2.4,2.4,0,0,0,1.48-.53Z"/><path d="M270.13,202.63h-1.34l-2.65-2.88h0v2.88h-1v-8.88h1v5.63h0l2.52-2.75h1.26l-2.79,2.9Z"/><path d="M275.94,199.87H271.7a2.28,2.28,0,0,0,.54,1.55,1.89,1.89,0,0,0,1.42.55,3,3,0,0,0,1.86-.67v.9a3.47,3.47,0,0,1-2.09.57,2.53,2.53,0,0,1-2-.81,3.33,3.33,0,0,1-.73-2.3,3.25,3.25,0,0,1,.79-2.28,2.55,2.55,0,0,1,2-.89,2.29,2.29,0,0,1,1.83.76,3.19,3.19,0,0,1,.64,2.12Zm-1-.81a2,2,0,0,0-.4-1.3,1.4,1.4,0,0,0-1.1-.46,1.54,1.54,0,0,0-1.16.49,2.21,2.21,0,0,0-.58,1.27Z"/><path d="M280.52,197.61a1.16,1.16,0,0,0-.72-.2,1.24,1.24,0,0,0-1,.58,2.68,2.68,0,0,0-.42,1.59v3h-1v-6h1v1.24h0a2.09,2.09,0,0,1,.63-1,1.44,1.44,0,0,1,.94-.35,1.65,1.65,0,0,1,.57.08Z"/><path d="M210.11,144.15H209l-.89-2.36h-3.56l-.84,2.36h-1.1l3.23-8.41h1Zm-2.3-3.24-1.32-3.58a3.55,3.55,0,0,1-.13-.57h0a3.38,3.38,0,0,1-.14.57l-1.31,3.58Z"/><path d="M212.33,141v3.18h-1v-8.41h2.3a3,3,0,0,1,2.09.66,2.33,2.33,0,0,1,.74,1.85,2.54,2.54,0,0,1-.82,2,3.13,3.13,0,0,1-2.22.76Zm0-4.34v3.45h1a2.33,2.33,0,0,0,1.56-.47,1.65,1.65,0,0,0,.53-1.31c0-1.11-.65-1.67-2-1.67Z"/><path d="M219.05,144.15h-1v-8.41h1Z"/><path d="M229.54,144.15h-1v-1h0a2.21,2.21,0,0,1-2.06,1.16,2.26,2.26,0,0,1-1.81-.81,3.31,3.31,0,0,1-.67-2.19,3.6,3.6,0,0,1,.75-2.39,2.45,2.45,0,0,1,2-.89,1.9,1.9,0,0,1,1.79,1h0v-3.72h1Zm-1-2.72v-.88a1.7,1.7,0,0,0-.48-1.23,1.61,1.61,0,0,0-1.22-.51,1.64,1.64,0,0,0-1.38.65,2.79,2.79,0,0,0-.51,1.78,2.51,2.51,0,0,0,.49,1.64,1.57,1.57,0,0,0,1.29.6,1.65,1.65,0,0,0,1.31-.58A2.2,2.2,0,0,0,228.58,141.43Z"/><path d="M236.31,141.39h-4.24a2.27,2.27,0,0,0,.54,1.54,1.84,1.84,0,0,0,1.42.55,2.93,2.93,0,0,0,1.86-.67v.9a3.43,3.43,0,0,1-2.09.58,2.56,2.56,0,0,1-2-.82,3.37,3.37,0,0,1-.73-2.3,3.29,3.29,0,0,1,.8-2.28,2.53,2.53,0,0,1,2-.88,2.24,2.24,0,0,1,1.82.76,3.17,3.17,0,0,1,.65,2.11Zm-1-.82a2,2,0,0,0-.4-1.29,1.36,1.36,0,0,0-1.1-.47,1.56,1.56,0,0,0-1.15.49,2.25,2.25,0,0,0-.59,1.27Z"/><path d="M247.2,144.15H246l-1.41-2.36a6.05,6.05,0,0,0-.37-.56,2.27,2.27,0,0,0-.38-.38,1.23,1.23,0,0,0-.41-.21,1.49,1.49,0,0,0-.49-.07h-.81v3.58h-1v-8.41h2.5a3.64,3.64,0,0,1,1,.14,2.23,2.23,0,0,1,.81.42,1.84,1.84,0,0,1,.53.7,2.32,2.32,0,0,1,.2,1,2.59,2.59,0,0,1-.13.81,2.22,2.22,0,0,1-.38.65,2.29,2.29,0,0,1-.58.49,2.76,2.76,0,0,1-.77.31v0a1.55,1.55,0,0,1,.36.21,2.69,2.69,0,0,1,.3.29l.28.37.3.48Zm-5-7.52v3.05h1.34a2.15,2.15,0,0,0,.68-.11,1.46,1.46,0,0,0,.54-.32,1.57,1.57,0,0,0,.36-.51,1.83,1.83,0,0,0,.13-.68,1.33,1.33,0,0,0-.44-1.05,1.88,1.88,0,0,0-1.26-.38Z"/><path d="M252.81,144.15h-4.46v-8.41h4.27v.89h-3.28v2.8h3v.88h-3v2.95h3.47Z"/><path d="M254,143.81v-1.16a2.21,2.21,0,0,0,.48.31,3,3,0,0,0,.58.24l.62.15a4.13,4.13,0,0,0,.58.05,2.28,2.28,0,0,0,1.35-.33,1.15,1.15,0,0,0,.45-1,1.16,1.16,0,0,0-.15-.6,1.74,1.74,0,0,0-.41-.46,4.42,4.42,0,0,0-.62-.39l-.78-.41a7.93,7.93,0,0,1-.82-.45,3.17,3.17,0,0,1-.66-.5,1.85,1.85,0,0,1-.61-1.44,2,2,0,0,1,.25-1,2.13,2.13,0,0,1,.67-.7,2.8,2.8,0,0,1,.93-.41,4.3,4.3,0,0,1,1.07-.14,4.08,4.08,0,0,1,1.81.3V137a3.29,3.29,0,0,0-1.91-.52,3.48,3.48,0,0,0-.64.07,2,2,0,0,0-.58.22,1.27,1.27,0,0,0-.41.39,1.1,1.1,0,0,0-.16.59,1.25,1.25,0,0,0,.12.56,1.28,1.28,0,0,0,.36.42,3.76,3.76,0,0,0,.57.38l.78.4c.3.15.58.3.85.47a3.59,3.59,0,0,1,.71.54,2.32,2.32,0,0,1,.48.66,1.89,1.89,0,0,1,.18.84,2.14,2.14,0,0,1-.24,1.05,2,2,0,0,1-.66.7,2.8,2.8,0,0,1-1,.39,5.24,5.24,0,0,1-1.14.12,3.29,3.29,0,0,1-.49,0l-.6-.09a4.74,4.74,0,0,1-.57-.15A2,2,0,0,1,254,143.81Z"/><path d="M265.77,136.63h-2.43v7.52h-1v-7.52h-2.42v-.89h5.83Z"/><path d="M192.71,82.46V81.3a1.91,1.91,0,0,0,.48.32,5.19,5.19,0,0,0,.59.24c.2.06.41.11.61.15a4.13,4.13,0,0,0,.58,0,2.18,2.18,0,0,0,1.35-.34,1.12,1.12,0,0,0,.45-1,1.15,1.15,0,0,0-.15-.59,1.6,1.6,0,0,0-.41-.46,4.43,4.43,0,0,0-.62-.4l-.78-.4c-.29-.15-.57-.3-.82-.45a3.46,3.46,0,0,1-.66-.5,2.14,2.14,0,0,1-.45-.63,2,2,0,0,1-.16-.81,1.88,1.88,0,0,1,.26-1,1.93,1.93,0,0,1,.66-.7,2.8,2.8,0,0,1,.93-.41,4.3,4.3,0,0,1,1.07-.14,4.08,4.08,0,0,1,1.81.3v1.11a3.22,3.22,0,0,0-1.91-.52,2.79,2.79,0,0,0-.64.07,1.75,1.75,0,0,0-.58.22,1.38,1.38,0,0,0-.41.39,1.1,1.1,0,0,0-.16.59,1.07,1.07,0,0,0,.13.55,1.28,1.28,0,0,0,.35.43,3.76,3.76,0,0,0,.57.38l.78.4c.3.14.58.3.85.46a4,4,0,0,1,.71.55,2.57,2.57,0,0,1,.49.66,2,2,0,0,1,.17.83,2.16,2.16,0,0,1-.24,1.06,2,2,0,0,1-.66.7,2.8,2.8,0,0,1-1,.39,5.22,5.22,0,0,1-1.13.12c-.14,0-.3,0-.5,0l-.59-.09a4.45,4.45,0,0,1-.58-.15A1.64,1.64,0,0,1,192.71,82.46Z"/><path d="M204.17,80h-4.23a2.19,2.19,0,0,0,.54,1.55,1.82,1.82,0,0,0,1.41.55,3,3,0,0,0,1.87-.67v.9a3.52,3.52,0,0,1-2.09.58,2.55,2.55,0,0,1-2-.82,3.33,3.33,0,0,1-.73-2.3,3.29,3.29,0,0,1,.79-2.28,2.56,2.56,0,0,1,2-.89,2.26,2.26,0,0,1,1.82.77,3.15,3.15,0,0,1,.64,2.11Zm-1-.81a2,2,0,0,0-.4-1.29,1.38,1.38,0,0,0-1.1-.47,1.56,1.56,0,0,0-1.16.49,2.21,2.21,0,0,0-.58,1.27Z"/><path d="M208.75,77.78a1.14,1.14,0,0,0-.72-.2,1.25,1.25,0,0,0-1,.58,2.68,2.68,0,0,0-.41,1.59v3h-1v-6h1V78h0a2.17,2.17,0,0,1,.63-1,1.44,1.44,0,0,1,.94-.35,1.65,1.65,0,0,1,.57.08Z"/><path d="M214.51,76.8l-2.39,6h-.94l-2.27-6H210l1.53,4.36a4.27,4.27,0,0,1,.21.84h0a3.7,3.7,0,0,1,.19-.81l1.59-4.39Z"/><path d="M216,75.28a.64.64,0,0,1-.44-.17.65.65,0,0,1,0-.9A.6.6,0,0,1,216,74a.64.64,0,0,1,.45.18.61.61,0,0,1,.18.45.6.6,0,0,1-.18.44A.64.64,0,0,1,216,75.28Zm.47,7.52h-1v-6h1Z"/><path d="M223.57,82.8h-1v-1h0a2.42,2.42,0,0,1-3.87.35A3.32,3.32,0,0,1,218,80a3.6,3.6,0,0,1,.75-2.39,2.48,2.48,0,0,1,2-.9,1.94,1.94,0,0,1,1.8,1h0V73.92h1Zm-1-2.71v-.88a1.7,1.7,0,0,0-.48-1.23,1.59,1.59,0,0,0-1.22-.51,1.67,1.67,0,0,0-1.38.65,2.79,2.79,0,0,0-.5,1.78,2.56,2.56,0,0,0,.48,1.64,1.57,1.57,0,0,0,1.3.6,1.66,1.66,0,0,0,1.3-.58A2.15,2.15,0,0,0,222.61,80.09Z"/><path d="M228,83a2.77,2.77,0,0,1-2.13-.85,3.09,3.09,0,0,1-.79-2.22,3.27,3.27,0,0,1,.82-2.37,3,3,0,0,1,2.24-.85,2.69,2.69,0,0,1,2.09.83,3.27,3.27,0,0,1,.75,2.29,3.23,3.23,0,0,1-.81,2.3A2.82,2.82,0,0,1,228,83Zm.07-5.48a1.84,1.84,0,0,0-1.47.63,2.59,2.59,0,0,0-.54,1.74,2.41,2.41,0,0,0,.55,1.68,1.85,1.85,0,0,0,1.46.62,1.73,1.73,0,0,0,1.43-.61,2.62,2.62,0,0,0,.5-1.71,2.71,2.71,0,0,0-.5-1.74A1.76,1.76,0,0,0,228.1,77.47Z"/><path d="M235.68,77.78a1.18,1.18,0,0,0-.73-.2,1.25,1.25,0,0,0-1,.58,2.75,2.75,0,0,0-.41,1.59v3h-1v-6h1V78h0a2.17,2.17,0,0,1,.63-1,1.46,1.46,0,0,1,.94-.35,1.71,1.71,0,0,1,.58.08Z"/><path d="M240.14,82.8V74.4h2.32q4.44,0,4.44,4.1a4.12,4.12,0,0,1-1.23,3.12,4.59,4.59,0,0,1-3.31,1.18Zm1-7.51v6.62h1.26A3.56,3.56,0,0,0,245,81a3.34,3.34,0,0,0,.92-2.51q0-3.22-3.44-3.23Z"/><path d="M250.93,83a2.74,2.74,0,0,1-2.12-.85,3.1,3.1,0,0,1-.8-2.22,3.27,3.27,0,0,1,.83-2.37,3,3,0,0,1,2.23-.85,2.71,2.71,0,0,1,2.1.83,3.27,3.27,0,0,1,.75,2.29,3.23,3.23,0,0,1-.81,2.3A2.84,2.84,0,0,1,250.93,83Zm.07-5.48a1.81,1.81,0,0,0-1.46.63,2.59,2.59,0,0,0-.54,1.74,2.46,2.46,0,0,0,.54,1.68,1.87,1.87,0,0,0,1.46.62,1.73,1.73,0,0,0,1.43-.61,2.57,2.57,0,0,0,.5-1.71,2.65,2.65,0,0,0-.5-1.74A1.76,1.76,0,0,0,251,77.47Z"/><path d="M259.54,82.53a3.08,3.08,0,0,1-1.64.42,2.72,2.72,0,0,1-2.07-.84A3.06,3.06,0,0,1,255,80a3.37,3.37,0,0,1,.85-2.39,3,3,0,0,1,2.27-.9,3.13,3.13,0,0,1,1.4.3v1a2.49,2.49,0,0,0-1.43-.47,1.92,1.92,0,0,0-1.51.66,2.47,2.47,0,0,0-.59,1.73,2.39,2.39,0,0,0,.55,1.67,1.94,1.94,0,0,0,1.49.61,2.44,2.44,0,0,0,1.47-.52Z"/><path d="M266,82.8h-1.35L262,79.92h0V82.8h-1V73.92h1v5.63h0l2.52-2.75h1.26L263,79.7Z"/><path d="M271.78,80h-4.23a2.19,2.19,0,0,0,.54,1.55,1.82,1.82,0,0,0,1.41.55,3,3,0,0,0,1.87-.67v.9a3.52,3.52,0,0,1-2.09.58,2.55,2.55,0,0,1-2-.82,3.33,3.33,0,0,1-.73-2.3,3.25,3.25,0,0,1,.8-2.28,2.54,2.54,0,0,1,2-.89,2.26,2.26,0,0,1,1.82.77,3.15,3.15,0,0,1,.64,2.11Zm-1-.81a1.93,1.93,0,0,0-.4-1.29,1.38,1.38,0,0,0-1.1-.47,1.52,1.52,0,0,0-1.15.49,2.16,2.16,0,0,0-.59,1.27Z"/><path d="M276.37,77.78a1.18,1.18,0,0,0-.73-.2,1.25,1.25,0,0,0-1,.58,2.75,2.75,0,0,0-.41,1.59v3h-1v-6h1V78h0a2.17,2.17,0,0,1,.63-1,1.44,1.44,0,0,1,.94-.35,1.75,1.75,0,0,1,.58.08Z"/><path d="M174.39,46h-1.87V41c0-.54,0-1.14.07-1.8h0a8.14,8.14,0,0,1-.27,1.11l-2,5.72h-1.54l-2-5.66c0-.15-.14-.54-.26-1.17h-.05c.05.83.07,1.55.07,2.18V46h-1.7V37.57h2.77l1.72,5a7.48,7.48,0,0,1,.29,1.2h0c.11-.46.22-.86.33-1.21l1.72-5h2.7Z"/><path d="M179,46.12a3.23,3.23,0,0,1-2.36-.84,3.47,3.47,0,0,1,0-4.61,3.38,3.38,0,0,1,2.41-.84,3.2,3.2,0,0,1,2.35.84,3,3,0,0,1,.84,2.22,3.16,3.16,0,0,1-.87,2.36A3.26,3.26,0,0,1,179,46.12Zm.05-4.87a1.23,1.23,0,0,0-1,.45,1.93,1.93,0,0,0-.37,1.28c0,1.15.47,1.72,1.4,1.72s1.33-.59,1.33-1.77S179.92,41.25,179,41.25Z"/><path d="M187.08,45.91a2.78,2.78,0,0,1-1.23.21,1.76,1.76,0,0,1-2-2V41.34h-1V40h1v-1.3l1.85-.53V40h1.34v1.36h-1.34v2.43c0,.62.24.93.74.93a1.17,1.17,0,0,0,.6-.17Z"/><path d="M190.94,46.12a3.23,3.23,0,0,1-2.36-.84,3.47,3.47,0,0,1,0-4.61,3.38,3.38,0,0,1,2.41-.84,3.16,3.16,0,0,1,2.34.84,3,3,0,0,1,.85,2.22,3.16,3.16,0,0,1-.87,2.36A3.27,3.27,0,0,1,190.94,46.12Zm.05-4.87a1.23,1.23,0,0,0-1,.45A1.93,1.93,0,0,0,189.6,43c0,1.15.47,1.72,1.4,1.72s1.33-.59,1.33-1.77S191.88,41.25,191,41.25Z"/><path d="M199.33,41.65a1.5,1.5,0,0,0-.78-.19,1.1,1.1,0,0,0-.94.45,1.88,1.88,0,0,0-.34,1.2V46h-1.85V40h1.85v1.11h0a1.6,1.6,0,0,1,1.58-1.22,1.14,1.14,0,0,1,.46.07Z"/><path d="M209.37,46h-1.85v-.83h0a2.07,2.07,0,0,1-1.86,1,2.27,2.27,0,0,1-1.81-.79,3.28,3.28,0,0,1-.69-2.22,3.58,3.58,0,0,1,.76-2.38,2.45,2.45,0,0,1,2-.9,1.7,1.7,0,0,1,1.62.83h0V37.09h1.85Zm-1.81-2.92v-.45a1.48,1.48,0,0,0-.34-1,1.16,1.16,0,0,0-.89-.38,1.12,1.12,0,0,0-1,.48,2.26,2.26,0,0,0-.35,1.33,2,2,0,0,0,.34,1.22,1.19,1.19,0,0,0,1.84,0A1.86,1.86,0,0,0,207.56,43.06Z"/><path d="M216.32,43.5h-3.91c.06.87.61,1.31,1.64,1.31a3.24,3.24,0,0,0,1.74-.47v1.34a4.63,4.63,0,0,1-2.16.44,2.79,2.79,0,0,1-3.06-3,3.2,3.2,0,0,1,.87-2.37,2.9,2.9,0,0,1,2.13-.87,2.6,2.6,0,0,1,2,.78,3,3,0,0,1,.72,2.11Zm-1.72-1.13c0-.86-.34-1.29-1-1.29a1,1,0,0,0-.77.37,1.58,1.58,0,0,0-.39.92Z"/><path d="M220.92,46V37.57h3q4.49,0,4.48,4.1a4.14,4.14,0,0,1-1.22,3.13A4.53,4.53,0,0,1,223.89,46Zm1.89-6.87v5.33h.94a2.55,2.55,0,0,0,1.93-.74,2.82,2.82,0,0,0,.7-2,2.56,2.56,0,0,0-.7-1.89,2.64,2.64,0,0,0-2-.69Z"/><path d="M232.44,46.12a3.23,3.23,0,0,1-2.36-.84,3.47,3.47,0,0,1,0-4.61,3.38,3.38,0,0,1,2.41-.84,3.2,3.2,0,0,1,2.35.84,3,3,0,0,1,.85,2.22,3.17,3.17,0,0,1-.88,2.36A3.24,3.24,0,0,1,232.44,46.12Zm.05-4.87a1.23,1.23,0,0,0-1,.45A2,2,0,0,0,231.1,43c0,1.15.47,1.72,1.4,1.72s1.33-.59,1.33-1.77S233.38,41.25,232.49,41.25Z"/><path d="M241.46,45.76a3.66,3.66,0,0,1-1.81.36,3,3,0,0,1-2.23-.84,2.85,2.85,0,0,1-.86-2.16,3.19,3.19,0,0,1,.92-2.41,3.38,3.38,0,0,1,2.45-.88,3.07,3.07,0,0,1,1.53.28v1.57a2.07,2.07,0,0,0-1.29-.43,1.7,1.7,0,0,0-1.26.46,1.75,1.75,0,0,0-.47,1.29,1.69,1.69,0,0,0,.45,1.25,1.62,1.62,0,0,0,1.22.45,2.42,2.42,0,0,0,1.35-.43Z"/><path d="M248.69,46h-2.22l-1.92-3h0v3h-1.85V37.09h1.85v5.66h0L246.34,40h2.2l-2.15,2.81Z"/><path d="M254.61,43.5h-3.92c.06.87.61,1.31,1.65,1.31a3.24,3.24,0,0,0,1.74-.47v1.34a4.68,4.68,0,0,1-2.16.44,2.78,2.78,0,0,1-3.06-3,3.2,3.2,0,0,1,.87-2.37,2.87,2.87,0,0,1,2.13-.87,2.63,2.63,0,0,1,2,.78,3,3,0,0,1,.72,2.11Zm-1.72-1.13c0-.86-.35-1.29-1-1.29a1,1,0,0,0-.77.37,1.65,1.65,0,0,0-.4.92Z"/><path d="M259.62,41.65a1.5,1.5,0,0,0-.78-.19,1.12,1.12,0,0,0-.94.45,1.88,1.88,0,0,0-.34,1.2V46h-1.85V40h1.85v1.11h0a1.61,1.61,0,0,1,1.59-1.22,1.12,1.12,0,0,1,.45.07Z"/><path d="M62.33,151H61.12l-4.33-6.7a3.16,3.16,0,0,1-.26-.52h0a8.6,8.6,0,0,1,0,1.15V151h-1v-8.4h1.28L61,149.2c.17.27.29.46.34.56h0a8.58,8.58,0,0,1-.06-1.23v-5.92h1Z"/><path d="M69.52,150.53c0,2.2-1,3.31-3.16,3.31a4.18,4.18,0,0,1-2-.43v-1a4,4,0,0,0,1.94.57c1.47,0,2.21-.79,2.21-2.36V150h0a2.43,2.43,0,0,1-3.87.35,3.21,3.21,0,0,1-.68-2.14,3.78,3.78,0,0,1,.74-2.44,2.46,2.46,0,0,1,2-.9,2,2,0,0,1,1.8,1h0V145h1Zm-1-2.23v-.89a1.72,1.72,0,0,0-.48-1.22,1.62,1.62,0,0,0-1.21-.51,1.66,1.66,0,0,0-1.39.65,2.85,2.85,0,0,0-.51,1.81,2.48,2.48,0,0,0,.49,1.6,1.56,1.56,0,0,0,1.28.6,1.65,1.65,0,0,0,1.31-.57A2.12,2.12,0,0,0,68.56,148.3Z"/><path d="M72,143.49a.6.6,0,0,1-.44-.18.57.57,0,0,1-.18-.44.61.61,0,0,1,.18-.45.6.6,0,0,1,.44-.18.64.64,0,0,1,.45.18.61.61,0,0,1,.18.45.6.6,0,0,1-.18.44A.64.64,0,0,1,72,143.49Zm.47,7.52h-1v-6h1Z"/><path d="M79.35,151h-1v-3.42c0-1.27-.46-1.91-1.39-1.91a1.5,1.5,0,0,0-1.19.54,2,2,0,0,0-.48,1.37V151h-1v-6h1v1h0a2.16,2.16,0,0,1,2-1.14,1.82,1.82,0,0,1,1.5.64,2.79,2.79,0,0,1,.52,1.83Z"/><path d="M85.55,145l-2,3,2,3H84.39l-1.18-1.94-.26-.46h0l-.28.46L81.45,151H80.34l2-2.94-2-3.06h1.12l1.16,2.05c.09.15.17.31.25.47h0l1.5-2.52Z"/><path d="M56.88,97.9l-2.38,8.4H53.35l-1.73-6.14a3.69,3.69,0,0,1-.13-.85h0a3.89,3.89,0,0,1-.15.84l-1.74,6.15H48.43L46,97.9h1.08l1.79,6.45a4.6,4.6,0,0,1,.14.84h0a5,5,0,0,1,.18-.84l1.86-6.45H52l1.78,6.49a5.13,5.13,0,0,1,.14.79h0a5.38,5.38,0,0,1,.16-.81l1.72-6.47Z"/><path d="M58.49,98.78a.6.6,0,0,1-.44-.18.57.57,0,0,1-.18-.44.61.61,0,0,1,.18-.45.6.6,0,0,1,.44-.18.64.64,0,0,1,.45.18.61.61,0,0,1,.18.45.6.6,0,0,1-.18.44A.64.64,0,0,1,58.49,98.78ZM59,106.3H58v-6h1Z"/><path d="M65.88,106.3h-1v-3.42c0-1.27-.46-1.91-1.39-1.91a1.54,1.54,0,0,0-1.2.54,2.05,2.05,0,0,0-.47,1.37v3.42h-1v-6h1v1h0a2.16,2.16,0,0,1,2-1.14,1.86,1.86,0,0,1,1.51.64,2.82,2.82,0,0,1,.52,1.84Z"/><path d="M72.81,106.3h-1v-1h0a2.43,2.43,0,0,1-3.87.36,3.33,3.33,0,0,1-.68-2.2,3.59,3.59,0,0,1,.75-2.38,2.48,2.48,0,0,1,2-.9,1.94,1.94,0,0,1,1.8,1h0V97.42h1Zm-1-2.71v-.88a1.7,1.7,0,0,0-.48-1.23,1.59,1.59,0,0,0-1.22-.51,1.67,1.67,0,0,0-1.38.65,2.79,2.79,0,0,0-.5,1.78,2.56,2.56,0,0,0,.48,1.64,1.57,1.57,0,0,0,1.3.6,1.66,1.66,0,0,0,1.3-.58A2.15,2.15,0,0,0,71.85,103.59Z"/><path d="M77.27,106.44a2.79,2.79,0,0,1-2.13-.84,3.1,3.1,0,0,1-.79-2.23,3.26,3.26,0,0,1,.82-2.36,3,3,0,0,1,2.24-.85,2.69,2.69,0,0,1,2.09.83,3.27,3.27,0,0,1,.75,2.29,3.23,3.23,0,0,1-.81,2.3A2.81,2.81,0,0,1,77.27,106.44Zm.07-5.47a1.84,1.84,0,0,0-1.47.63,2.59,2.59,0,0,0-.54,1.74,2.41,2.41,0,0,0,.55,1.68,1.85,1.85,0,0,0,1.46.62,1.73,1.73,0,0,0,1.43-.61,2.62,2.62,0,0,0,.5-1.71,2.71,2.71,0,0,0-.5-1.74A1.76,1.76,0,0,0,77.34,101Z"/><path d="M89.35,100.3l-1.8,6h-1L85.32,102a2.81,2.81,0,0,1-.1-.56h0a2.64,2.64,0,0,1-.12.55l-1.34,4.3h-1l-1.81-6h1l1.24,4.52a2.85,2.85,0,0,1,.08.53h0a2.38,2.38,0,0,1,.1-.55l1.39-4.5h.87L87,104.83a3.12,3.12,0,0,1,.08.54h0a2.4,2.4,0,0,1,.1-.54l1.22-4.53Z"/><path d="M90.1,106.09v-1a2.88,2.88,0,0,0,1.73.58c.84,0,1.26-.29,1.26-.85a.65.65,0,0,0-.11-.4,1,1,0,0,0-.29-.3,2.18,2.18,0,0,0-.43-.23l-.54-.22a5.79,5.79,0,0,1-.7-.32,1.74,1.74,0,0,1-.5-.36,1.29,1.29,0,0,1-.31-.46,1.57,1.57,0,0,1-.1-.6,1.44,1.44,0,0,1,.19-.75,1.58,1.58,0,0,1,.52-.54,2.45,2.45,0,0,1,.73-.34,3.49,3.49,0,0,1,.86-.11,3.41,3.41,0,0,1,1.39.27v1a2.71,2.71,0,0,0-1.52-.44,1.88,1.88,0,0,0-.49.06,1.06,1.06,0,0,0-.37.18.85.85,0,0,0-.24.26.7.7,0,0,0-.09.35.8.8,0,0,0,.09.39.94.94,0,0,0,.25.28,1.67,1.67,0,0,0,.4.22l.53.22c.27.1.5.21.72.31a2.16,2.16,0,0,1,.53.37,1.41,1.41,0,0,1,.35.46,1.54,1.54,0,0,1,.12.63,1.47,1.47,0,0,1-.2.77,1.7,1.7,0,0,1-.52.55,2.49,2.49,0,0,1-.76.32,3.71,3.71,0,0,1-.9.1A3.37,3.37,0,0,1,90.1,106.09Z"/><path d="M41.67,58q0,3.54-3.19,3.54t-3.06-3.41V53h1v5.07c0,1.72.73,2.58,2.18,2.58s2.11-.83,2.11-2.49V53h1Z"/><path d="M44.62,60.51h0v.87h-1V52.49h1v3.94h0a2.3,2.3,0,0,1,2.08-1.19,2.23,2.23,0,0,1,1.81.8,3.37,3.37,0,0,1,.65,2.16,3.69,3.69,0,0,1-.73,2.41,2.44,2.44,0,0,1-2,.91A2,2,0,0,1,44.62,60.51Zm0-2.42v.84a1.79,1.79,0,0,0,.48,1.26,1.73,1.73,0,0,0,2.6-.15,3,3,0,0,0,.49-1.86,2.43,2.43,0,0,0-.46-1.57,1.51,1.51,0,0,0-1.25-.56,1.7,1.7,0,0,0-1.35.58A2.13,2.13,0,0,0,44.6,58.09Z"/><path d="M55.55,61.38h-1v-1h0a2,2,0,0,1-1.85,1.09c-1.43,0-2.14-.85-2.14-2.56V55.38h1v3.43c0,1.27.48,1.9,1.45,1.9a1.46,1.46,0,0,0,1.16-.52,2,2,0,0,0,.45-1.36V55.38h1Z"/><path d="M62.47,61.38h-1V58c0-1.28-.46-1.91-1.39-1.91a1.5,1.5,0,0,0-1.19.54A2,2,0,0,0,58.45,58v3.42h-1v-6h1v1h0a2.17,2.17,0,0,1,2-1.13,1.83,1.83,0,0,1,1.5.63,2.84,2.84,0,0,1,.53,1.84Z"/><path d="M67.06,61.32a1.94,1.94,0,0,1-.9.19c-1,0-1.57-.59-1.57-1.76V56.2h-1v-.82h1V53.91l1-.31v1.78h1.51v.82H65.55v3.38a1.45,1.45,0,0,0,.2.86.84.84,0,0,0,.68.26,1.05,1.05,0,0,0,.63-.2Z"/><path d="M73.19,61.38h-1v-1h0a2,2,0,0,1-1.85,1.09c-1.43,0-2.15-.85-2.15-2.56V55.38h1v3.43c0,1.27.48,1.9,1.45,1.9a1.46,1.46,0,0,0,1.16-.52,2,2,0,0,0,.45-1.36V55.38h1Z"/><path d="M82.91,61.38H78.55V53h1v7.51h3.38Z"/><path d="M84.56,53.85a.6.6,0,0,1-.44-.17.65.65,0,0,1,0-.9.64.64,0,0,1,.44-.17.64.64,0,0,1,.45.17.61.61,0,0,1,.18.45.6.6,0,0,1-.18.44A.61.61,0,0,1,84.56,53.85ZM85,61.38h-1v-6h1Z"/><path d="M92,61.38H91V58c0-1.28-.47-1.91-1.4-1.91a1.5,1.5,0,0,0-1.19.54A2,2,0,0,0,87.94,58v3.42H87v-6h1v1h0a2.17,2.17,0,0,1,2-1.13,1.83,1.83,0,0,1,1.5.63A2.84,2.84,0,0,1,92,57.71Z"/><path d="M98.62,61.38h-1v-1h0a2,2,0,0,1-1.85,1.09c-1.43,0-2.14-.85-2.14-2.56V55.38h1v3.43c0,1.27.49,1.9,1.46,1.9a1.45,1.45,0,0,0,1.15-.52,2,2,0,0,0,.46-1.36V55.38h1Z"/><path d="M104.94,55.38l-2,3,2,3h-1.12l-1.18-2c-.08-.12-.16-.27-.27-.45h0l-.27.45-1.21,2h-1.1l2-2.94-2-3.06h1.11l1.16,2c.09.15.17.31.26.47h0l1.5-2.52Z"/><path d="M38.09,18.49v-8.4h3c3,0,4.48,1.36,4.48,4.09a4.15,4.15,0,0,1-1.23,3.14,4.48,4.48,0,0,1-3.25,1.17ZM40,11.63V17h.93a2.5,2.5,0,0,0,1.93-.74,2.78,2.78,0,0,0,.7-2,2.55,2.55,0,0,0-.69-1.89,2.67,2.67,0,0,0-2-.68Z"/><path d="M49.62,18.63a3.23,3.23,0,0,1-2.36-.84,3.05,3.05,0,0,1-.86-2.28,3.07,3.07,0,0,1,.89-2.33,3.38,3.38,0,0,1,2.41-.84,3.16,3.16,0,0,1,2.34.84,3,3,0,0,1,.85,2.23A3.19,3.19,0,0,1,52,17.77,3.27,3.27,0,0,1,49.62,18.63Zm.05-4.87a1.23,1.23,0,0,0-1,.45,2,2,0,0,0-.37,1.28c0,1.15.47,1.73,1.4,1.73S51,16.62,51,15.44,50.56,13.76,49.67,13.76Z"/><path d="M58.64,18.27a3.69,3.69,0,0,1-1.81.36,3.1,3.1,0,0,1-2.24-.83,2.9,2.9,0,0,1-.85-2.17,3.19,3.19,0,0,1,.91-2.41,3.44,3.44,0,0,1,2.46-.88,3.22,3.22,0,0,1,1.53.28v1.57a2.09,2.09,0,0,0-1.29-.43,1.61,1.61,0,0,0-1.73,1.75,1.73,1.73,0,0,0,.44,1.25,1.67,1.67,0,0,0,1.23.46,2.43,2.43,0,0,0,1.35-.44Z"/><path d="M65.87,18.49H63.65l-1.92-3h0v3H59.85V9.6h1.86v5.66h0l1.79-2.77h2.19l-2.15,2.82Z"/><path d="M71.78,16H67.87c.06.87.61,1.3,1.65,1.3a3.15,3.15,0,0,0,1.74-.47v1.34a4.56,4.56,0,0,1-2.16.44,3,3,0,0,1-2.26-.8,3,3,0,0,1-.8-2.25,3.27,3.27,0,0,1,.86-2.37A2.9,2.9,0,0,1,69,12.34a2.63,2.63,0,0,1,2,.78,3,3,0,0,1,.71,2.12Zm-1.71-1.14q0-1.29-1-1.29a1,1,0,0,0-.77.37,1.71,1.71,0,0,0-.39.92Z"/><path d="M76.8,14.16A1.61,1.61,0,0,0,76,14a1.1,1.1,0,0,0-.94.44,1.88,1.88,0,0,0-.34,1.2v2.87H72.89v-6h1.85V13.6h0a1.6,1.6,0,0,1,1.58-1.22,1.35,1.35,0,0,1,.46.07Z"/><path d="M88.43,18.49h-1.9V15.07H83.05v3.42h-1.9v-8.4h1.9v3.35h3.48V10.09h1.9Z"/><path d="M95.87,18.49H94v-.92h0a2.09,2.09,0,0,1-1.83,1.06c-1.39,0-2.09-.84-2.09-2.52V12.49h1.85v3.45c0,.85.33,1.28,1,1.28a1,1,0,0,0,.79-.35,1.41,1.41,0,0,0,.3-1V12.49h1.85Z"/><path d="M99.3,17.79h0v.7H97.43V9.6h1.85v3.79h0a2.2,2.2,0,0,1,2-1.05,2.16,2.16,0,0,1,1.79.8,3.43,3.43,0,0,1,.63,2.18,3.73,3.73,0,0,1-.74,2.41,2.39,2.39,0,0,1-2,.9A1.9,1.9,0,0,1,99.3,17.79Zm0-2.53v.61a1.44,1.44,0,0,0,.33,1,1.1,1.1,0,0,0,.86.38,1.15,1.15,0,0,0,1-.49,2.4,2.4,0,0,0,.35-1.39,1.9,1.9,0,0,0-.32-1.16,1.09,1.09,0,0,0-.91-.42,1.2,1.2,0,0,0-.93.42A1.57,1.57,0,0,0,99.25,15.26Z"/><path d="M545.92,45.41a5.47,5.47,0,0,1-2.4.44,4,4,0,0,1-3-1.13,4.16,4.16,0,0,1-1.11-3,4.42,4.42,0,0,1,1.25-3.27,4.35,4.35,0,0,1,3.23-1.26,5.92,5.92,0,0,1,2.07.32V39.3a3.63,3.63,0,0,0-1.92-.51,2.55,2.55,0,0,0-1.91.75,2.76,2.76,0,0,0-.72,2,2.71,2.71,0,0,0,.68,2,2.43,2.43,0,0,0,1.85.72,3.89,3.89,0,0,0,2-.54Z"/><path d="M550.07,45.85a3.23,3.23,0,0,1-2.36-.84,3.47,3.47,0,0,1,0-4.61,3.37,3.37,0,0,1,2.41-.84,3.16,3.16,0,0,1,2.34.84,3,3,0,0,1,.85,2.23,3.19,3.19,0,0,1-.87,2.36A3.31,3.31,0,0,1,550.07,45.85Zm0-4.87a1.26,1.26,0,0,0-1,.45,2,2,0,0,0-.36,1.28c0,1.15.47,1.73,1.4,1.73s1.33-.6,1.33-1.78S551,41,550.11,41Z"/><path d="M560.34,45.71h-1.85V42.37c0-.93-.33-1.39-1-1.39a1,1,0,0,0-.79.37,1.38,1.38,0,0,0-.31.94v3.42h-1.86v-6h1.86v.95h0a2.12,2.12,0,0,1,1.93-1.1c1.32,0,2,.83,2,2.47Z"/><path d="M565.43,45.64a2.8,2.8,0,0,1-1.24.21c-1.3,0-2-.67-2-2V41.07h-1V39.71h1v-1.3l1.84-.52v1.82h1.35v1.36h-1.35V43.5c0,.62.25.94.75.94a1.31,1.31,0,0,0,.6-.17Z"/><path d="M571.82,43.23H567.9c.07.88.61,1.31,1.65,1.31a3.15,3.15,0,0,0,1.74-.47v1.34a4.53,4.53,0,0,1-2.16.44,3,3,0,0,1-2.26-.8,3.08,3.08,0,0,1-.8-2.25,3.23,3.23,0,0,1,.87-2.37,2.88,2.88,0,0,1,2.13-.87,2.63,2.63,0,0,1,2,.78,3,3,0,0,1,.72,2.12ZM570.1,42.1c0-.86-.35-1.29-1-1.29a1,1,0,0,0-.77.37,1.65,1.65,0,0,0-.4.92Z"/><path d="M578.71,45.71h-1.84V42.37c0-.93-.33-1.39-1-1.39a1,1,0,0,0-.79.37,1.38,1.38,0,0,0-.31.94v3.42h-1.85v-6h1.85v.95h0a2.14,2.14,0,0,1,1.93-1.1c1.33,0,2,.83,2,2.47Z"/><path d="M585.57,43.23h-3.91c.06.88.61,1.31,1.64,1.31a3.15,3.15,0,0,0,1.74-.47v1.34a4.51,4.51,0,0,1-2.16.44,3,3,0,0,1-2.26-.8,3.08,3.08,0,0,1-.8-2.25,3.23,3.23,0,0,1,.87-2.37,2.9,2.9,0,0,1,2.13-.87,2.62,2.62,0,0,1,2,.78,3,3,0,0,1,.72,2.12Zm-1.72-1.13c0-.86-.35-1.29-1-1.29a1,1,0,0,0-.77.37,1.65,1.65,0,0,0-.4.92Z"/><path d="M592.54,45.71h-1.85v-.83h0a2.07,2.07,0,0,1-1.86,1,2.27,2.27,0,0,1-1.81-.79,3.28,3.28,0,0,1-.69-2.22,3.59,3.59,0,0,1,.76-2.38,2.45,2.45,0,0,1,2-.9,1.7,1.7,0,0,1,1.62.83h0V36.82h1.85Zm-1.81-2.92v-.45a1.43,1.43,0,0,0-.34-1,1.14,1.14,0,0,0-.89-.39,1.12,1.12,0,0,0-1,.48,2.26,2.26,0,0,0-.35,1.33,2,2,0,0,0,.34,1.22,1.12,1.12,0,0,0,.92.43,1.1,1.1,0,0,0,.92-.46A1.84,1.84,0,0,0,590.73,42.79Z"/><path d="M597,45.85A3.23,3.23,0,0,1,594.6,45a3.47,3.47,0,0,1,0-4.61,3.38,3.38,0,0,1,2.41-.84,3.2,3.2,0,0,1,2.35.84,3,3,0,0,1,.85,2.23,3.2,3.2,0,0,1-.88,2.36A3.28,3.28,0,0,1,597,45.85ZM597,41a1.23,1.23,0,0,0-1,.45,2,2,0,0,0-.37,1.28c0,1.15.47,1.73,1.4,1.73s1.33-.6,1.33-1.78S597.9,41,597,41Z"/><path d="M605.35,41.38a1.61,1.61,0,0,0-.78-.18,1.1,1.1,0,0,0-.94.44,1.88,1.88,0,0,0-.34,1.2v2.87h-1.85v-6h1.85v1.11h0a1.6,1.6,0,0,1,1.58-1.22,1.35,1.35,0,0,1,.46.07Z"/><path d="M611.56,43.23h-3.92c.06.88.61,1.31,1.65,1.31a3.15,3.15,0,0,0,1.74-.47v1.34a4.56,4.56,0,0,1-2.16.44,3,3,0,0,1-2.26-.8,3.08,3.08,0,0,1-.8-2.25,3.27,3.27,0,0,1,.86-2.37,2.9,2.9,0,0,1,2.14-.87,2.63,2.63,0,0,1,2,.78,3,3,0,0,1,.72,2.12Zm-1.72-1.13c0-.86-.35-1.29-1-1.29a1,1,0,0,0-.77.37,1.65,1.65,0,0,0-.4.92Z"/><path d="M612.26,45.55v-1.5a4.13,4.13,0,0,0,.92.41,2.93,2.93,0,0,0,.85.13,1.86,1.86,0,0,0,.78-.13.43.43,0,0,0,.28-.41.37.37,0,0,0-.12-.29,1.23,1.23,0,0,0-.34-.21,3.72,3.72,0,0,0-.44-.16,3.57,3.57,0,0,1-.46-.16,3.07,3.07,0,0,1-.63-.29,1.84,1.84,0,0,1-.46-.36,1.47,1.47,0,0,1-.28-.47,2,2,0,0,1-.1-.64,1.75,1.75,0,0,1,.22-.87,1.85,1.85,0,0,1,.59-.59,2.43,2.43,0,0,1,.84-.34,4.46,4.46,0,0,1,1-.11,5.62,5.62,0,0,1,.81.06,5.88,5.88,0,0,1,.81.18v1.43a3,3,0,0,0-.76-.31,3,3,0,0,0-.78-.1,1.9,1.9,0,0,0-.35,0,1.16,1.16,0,0,0-.28.1.49.49,0,0,0-.19.15.36.36,0,0,0-.07.22.43.43,0,0,0,.1.29,1.06,1.06,0,0,0,.28.2,3.17,3.17,0,0,0,.37.15l.42.14a5.19,5.19,0,0,1,.67.28,2.12,2.12,0,0,1,.51.36,1.37,1.37,0,0,1,.33.48,1.8,1.8,0,0,1,.11.65,1.73,1.73,0,0,1-.23.91,1.84,1.84,0,0,1-.62.62,2.89,2.89,0,0,1-.88.35,5.1,5.1,0,0,1-1,.1A5.5,5.5,0,0,1,612.26,45.55Z"/><path d="M355.07,17.83h-1.9V14.41h-3.48v3.42h-1.9V9.43h1.9v3.35h3.48V9.43h1.9Z"/><path d="M359.67,18a3.19,3.19,0,0,1-2.36-.85,3.05,3.05,0,0,1-.86-2.28,3.07,3.07,0,0,1,.89-2.33,3.37,3.37,0,0,1,2.41-.84,3.18,3.18,0,0,1,2.34.84,3,3,0,0,1,.85,2.23,3.19,3.19,0,0,1-.87,2.36A3.27,3.27,0,0,1,359.67,18Zm0-4.88a1.26,1.26,0,0,0-1,.45,2,2,0,0,0-.36,1.28c0,1.15.46,1.73,1.39,1.73s1.33-.59,1.33-1.78S360.61,13.1,359.71,13.1Z"/><path d="M363.75,17.67v-1.5a4.06,4.06,0,0,0,.91.41,3,3,0,0,0,.86.14,1.84,1.84,0,0,0,.78-.14.43.43,0,0,0,.28-.41.36.36,0,0,0-.13-.29,1.17,1.17,0,0,0-.33-.21,3.72,3.72,0,0,0-.44-.16,3.68,3.68,0,0,1-.47-.15,6.21,6.21,0,0,1-.63-.29,2.09,2.09,0,0,1-.45-.36,1.29,1.29,0,0,1-.28-.48,1.76,1.76,0,0,1-.1-.64,1.6,1.6,0,0,1,.22-.86,1.78,1.78,0,0,1,.59-.6,2.68,2.68,0,0,1,.83-.34,4.62,4.62,0,0,1,1-.11,5.49,5.49,0,0,1,.8.06,6.83,6.83,0,0,1,.81.18v1.43a3.12,3.12,0,0,0-.75-.31,3.64,3.64,0,0,0-.79-.1,1.87,1.87,0,0,0-.34,0l-.29.1a.49.49,0,0,0-.19.16.32.32,0,0,0-.07.22.41.41,0,0,0,.11.28,1,1,0,0,0,.27.2,1.88,1.88,0,0,0,.38.15l.41.14a6.16,6.16,0,0,1,.67.28,1.94,1.94,0,0,1,.51.36,1.29,1.29,0,0,1,.33.48,1.62,1.62,0,0,1,.12.66,1.69,1.69,0,0,1-.24.91,1.87,1.87,0,0,1-.61.61,3,3,0,0,1-.89.35,5,5,0,0,1-1,.11A5.41,5.41,0,0,1,363.75,17.67Z"/><path d="M373.05,17.76a2.8,2.8,0,0,1-1.24.22q-1.95,0-1.95-2V13.19h-1V11.83h1v-1.3L371.7,10v1.82h1.35v1.36H371.7v2.43c0,.63.25.94.75.94a1.31,1.31,0,0,0,.6-.17Z"/><path d="M383.27,17.83h-1.85V17h0a2.08,2.08,0,0,1-1.86,1,2.28,2.28,0,0,1-1.81-.8A3.28,3.28,0,0,1,377,15a3.59,3.59,0,0,1,.76-2.38,2.45,2.45,0,0,1,2-.9,1.7,1.7,0,0,1,1.62.83h0V9h1.85Zm-1.81-2.92v-.45a1.45,1.45,0,0,0-.34-1,1.2,1.2,0,0,0-1.85.09,2.28,2.28,0,0,0-.34,1.33,2,2,0,0,0,.33,1.22,1.18,1.18,0,0,0,1.84,0A1.87,1.87,0,0,0,381.46,14.91Z"/><path d="M390.22,15.36h-3.91c.06.87.61,1.3,1.65,1.3a3.15,3.15,0,0,0,1.74-.47v1.34a4.57,4.57,0,0,1-2.17.45,3,3,0,0,1-2.25-.81,3,3,0,0,1-.81-2.25,3.19,3.19,0,0,1,.87-2.36,2.87,2.87,0,0,1,2.13-.88,2.6,2.6,0,0,1,2,.78,3,3,0,0,1,.72,2.12Zm-1.71-1.14q0-1.29-1.05-1.29a1,1,0,0,0-.77.37,1.67,1.67,0,0,0-.39.92Z"/><path d="M394.82,17.83V9.43h3q4.48,0,4.48,4.09a4.16,4.16,0,0,1-1.22,3.14,4.52,4.52,0,0,1-3.26,1.17ZM396.71,11v5.32h.94a2.54,2.54,0,0,0,1.93-.73,2.86,2.86,0,0,0,.7-2,2.52,2.52,0,0,0-.7-1.89,2.64,2.64,0,0,0-1.95-.69Z"/><path d="M406.34,18a3.21,3.21,0,0,1-2.36-.85,3,3,0,0,1-.85-2.28,3,3,0,0,1,.89-2.33,3.34,3.34,0,0,1,2.4-.84,3.2,3.2,0,0,1,2.35.84,3,3,0,0,1,.85,2.23,3.16,3.16,0,0,1-.88,2.36A3.24,3.24,0,0,1,406.34,18Zm.05-4.88a1.23,1.23,0,0,0-1,.45,2,2,0,0,0-.36,1.28c0,1.15.46,1.73,1.39,1.73s1.33-.59,1.33-1.78S407.28,13.1,406.39,13.1Z"/><path d="M415.37,17.61a3.72,3.72,0,0,1-1.82.37,3,3,0,0,1-2.23-.84,2.9,2.9,0,0,1-.86-2.16,3.22,3.22,0,0,1,.92-2.42,3.42,3.42,0,0,1,2.45-.88,3.26,3.26,0,0,1,1.54.28v1.57a2.18,2.18,0,0,0-1.3-.43,1.71,1.71,0,0,0-1.26.47,1.74,1.74,0,0,0-.47,1.28,1.69,1.69,0,0,0,.45,1.25,1.59,1.59,0,0,0,1.22.46,2.49,2.49,0,0,0,1.36-.44Z"/><path d="M422.59,17.83h-2.22l-1.92-3h0v3h-1.85V9h1.85V14.6h0l1.79-2.77h2.2l-2.15,2.82Z"/><path d="M428.51,15.36h-3.92c.07.87.62,1.3,1.65,1.3a3.15,3.15,0,0,0,1.74-.47v1.34a4.5,4.5,0,0,1-2.16.45,3,3,0,0,1-2.26-.81,3.08,3.08,0,0,1-.8-2.25,3.19,3.19,0,0,1,.87-2.36,2.87,2.87,0,0,1,2.13-.88,2.63,2.63,0,0,1,2,.78,3,3,0,0,1,.72,2.12Zm-1.72-1.14c0-.86-.35-1.29-1-1.29a1,1,0,0,0-.77.37,1.68,1.68,0,0,0-.4.92Z"/><path d="M433.52,13.5a1.61,1.61,0,0,0-.78-.18,1.11,1.11,0,0,0-.94.44,1.9,1.9,0,0,0-.34,1.2v2.87h-1.85v-6h1.85v1.11h0a1.61,1.61,0,0,1,1.59-1.22,1.32,1.32,0,0,1,.45.07Z"/></svg>