<svg xmlns="http://www.w3.org/2000/svg" viewBox="0 0 407 205"><defs><style>.cls-1{fill:#fff;}.cls-10,.cls-2{fill:#3c3c41;}.cls-2{opacity:0.1;}.cls-15,.cls-2,.cls-3,.cls-5,.cls-6,.cls-7,.cls-8{isolation:isolate;}.cls-11,.cls-3,.cls-7{fill:#50e6ff;}.cls-3{opacity:0.05;}.cls-16,.cls-4,.cls-9{fill:none;}.cls-4{stroke:#0072c6;}.cls-16,.cls-4{stroke-width:0.5px;}.cls-15,.cls-5{fill:#75757a;}.cls-5{opacity:0.15;}.cls-6,.cls-8{fill:#0072c6;}.cls-6{opacity:0.35;}.cls-7{opacity:0.7;}.cls-8{opacity:0.45;}.cls-9{stroke:#3c3c41;}.cls-12{fill:#0072c5;}.cls-13{fill:#3bcaf4;}.cls-14{fill:#0078d4;}.cls-15{opacity:0.5;}.cls-16{stroke:#231f20;}</style></defs><title>OJ104601277</title><g id="source"><g id="text_shapes" data-name="text+shapes"><g id="Shapes"><g id="Group"><rect id="Rectangle-path" class="cls-1" width="406.25" height="205"/><rect class="cls-2" width="406.25" height="205"/></g><rect class="cls-1" x="5.63" y="24.4" width="395" height="175.71"/><rect class="cls-3" x="5.63" y="24.4" width="395" height="175.71"/><rect class="cls-4" x="5.63" y="24.4" width="395" height="175.71"/><rect class="cls-1" x="16.25" y="55" width="145" height="135"/><rect class="cls-5" x="16.25" y="55" width="145" height="135"/><rect class="cls-1" x="26.25" y="145" width="125" height="35"/><rect class="cls-6" x="26.25" y="145" width="125" height="35"/><rect class="cls-1" x="26.25" y="86" width="125" height="35"/><rect class="cls-7" x="26.25" y="86" width="125" height="35"/><rect class="cls-1" x="231.25" y="55" width="125" height="35"/><rect class="cls-8" x="231.25" y="55" width="125" height="35"/><path id="Shape" class="cls-9" d="M151.25,165h35a5,5,0,0,0,5-5V78.5a5,5,0,0,1,5-5h29.62"/><polygon class="cls-10" points="224.77 77.24 231.25 73.5 224.77 69.76 224.77 77.24"/><path class="cls-9" d="M260.28,95.38v19.24"/><polygon class="cls-10" points="256.54 96.48 260.28 90 264.02 96.48 256.54 96.48"/><polygon class="cls-10" points="256.54 113.52 260.28 120 264.02 113.52 256.54 113.52"/><path class="cls-9" d="M88.75,126.38v13.24"/><polygon class="cls-10" points="85.01 127.48 88.75 121 92.49 127.48 85.01 127.48"/><polygon class="cls-10" points="85.01 138.52 88.75 145 92.49 138.52 85.01 138.52"/><path class="cls-9" d="M330.21,95.38v19.24"/><polygon class="cls-10" points="326.47 96.48 330.21 90 333.95 96.48 326.47 96.48"/><polygon class="cls-10" points="326.47 113.52 330.21 120 333.95 113.52 326.47 113.52"/><path class="cls-11" d="M249.32,125v21c0,2.16,4.87,4,10.9,4V125Z"/><path class="cls-12" d="M260.1,150h.18c6,0,10.9-1.76,10.9-4V125H260.1Z"/><path class="cls-13" d="M260,150h.17c6.09,0,11.07-1.76,11.07-4V124.93H260Z"/><path class="cls-1" d="M271.17,125c0,2.17-4.86,4-10.89,4s-10.9-1.76-10.9-4,4.86-4,10.9-4S271.17,122.82,271.17,125Z"/><path class="cls-14" d="M269,124.75c0,1.46-3.87,2.63-8.67,2.63s-8.67-1.17-8.67-2.63,3.86-2.64,8.67-2.64S269,123.28,269,124.75Z"/><path class="cls-13" d="M267.13,126.33c1.12-.47,1.82-1,1.82-1.58,0-1.47-3.87-2.64-8.67-2.64s-8.67,1.17-8.67,2.64c0,.58.7,1.17,1.81,1.58a20,20,0,0,1,6.86-1A21,21,0,0,1,267.13,126.33Z"/><rect class="cls-1" x="313.92" y="129.52" width="32.59" height="5.93"/><rect class="cls-15" x="313.92" y="129.52" width="32.59" height="5.93"/><rect class="cls-16" x="313.92" y="129.52" width="32.59" height="5.93"/><rect class="cls-1" x="313.92" y="123.5" width="32.59" height="5.93"/><rect class="cls-15" x="313.92" y="123.5" width="32.59" height="5.93"/><rect class="cls-16" x="313.92" y="123.5" width="32.59" height="5.93"/><rect class="cls-1" x="313.92" y="141.57" width="32.59" height="5.93"/><rect class="cls-15" x="313.92" y="141.57" width="32.59" height="5.93"/><rect class="cls-16" x="313.92" y="141.57" width="32.59" height="5.93"/><rect class="cls-1" x="313.92" y="135.55" width="32.59" height="5.93"/><rect class="cls-15" x="313.92" y="135.55" width="32.59" height="5.93"/><rect class="cls-16" x="313.92" y="135.55" width="32.59" height="5.93"/></g></g></g><g id="text"><path d="M130,16.16V14.28a3.45,3.45,0,0,0,1.11.64,3.4,3.4,0,0,0,1.21.22,2.35,2.35,0,0,0,.62-.07,1.57,1.57,0,0,0,.45-.17,1,1,0,0,0,.26-.27.69.69,0,0,0,.09-.34.77.77,0,0,0-.14-.44,1.47,1.47,0,0,0-.38-.36,4.45,4.45,0,0,0-.58-.31c-.22-.11-.46-.21-.72-.31a3.66,3.66,0,0,1-1.47-1,2.19,2.19,0,0,1-.48-1.43,2.21,2.21,0,0,1,.26-1.12,2.16,2.16,0,0,1,.72-.78A3.33,3.33,0,0,1,132,8.08a5.75,5.75,0,0,1,1.27-.14,6.81,6.81,0,0,1,1.16.08,4.22,4.22,0,0,1,.93.24V10a2.9,2.9,0,0,0-.46-.26,3.82,3.82,0,0,0-.51-.18,3.46,3.46,0,0,0-.52-.11l-.5,0a2.74,2.74,0,0,0-.59.06,1.62,1.62,0,0,0-.44.17.73.73,0,0,0-.28.27.6.6,0,0,0-.1.35.67.67,0,0,0,.11.37,1.21,1.21,0,0,0,.32.32,2.76,2.76,0,0,0,.49.29c.2.1.42.2.67.3a7.55,7.55,0,0,1,.9.45,3.15,3.15,0,0,1,.69.53,2.08,2.08,0,0,1,.44.69,2.4,2.4,0,0,1,.15.89,2.48,2.48,0,0,1-.26,1.18,2.08,2.08,0,0,1-.73.77,3.15,3.15,0,0,1-1.06.43,6.61,6.61,0,0,1-1.28.13,7,7,0,0,1-1.32-.12A4.42,4.42,0,0,1,130,16.16Z"/><path d="M137.83,9.53a1.07,1.07,0,0,1-.77-.28.88.88,0,0,1-.3-.68.87.87,0,0,1,.3-.68,1.11,1.11,0,0,1,.77-.26,1.09,1.09,0,0,1,.77.26.87.87,0,0,1,.3.68.89.89,0,0,1-.3.69A1.1,1.1,0,0,1,137.83,9.53Zm.91,7h-1.85v-6h1.85Z"/><path d="M139.91,16.32v-1.5a3.88,3.88,0,0,0,.91.42,3.39,3.39,0,0,0,.86.13,2,2,0,0,0,.78-.13.44.44,0,0,0,.28-.42.37.37,0,0,0-.13-.29,1,1,0,0,0-.33-.21,3.76,3.76,0,0,0-.44-.15c-.16-.05-.32-.1-.46-.16a6.48,6.48,0,0,1-.63-.28,1.67,1.67,0,0,1-.46-.34,1.31,1.31,0,0,1-.28-.45,1.74,1.74,0,0,1-.1-.63,1.51,1.51,0,0,1,.22-.85,1.7,1.7,0,0,1,.59-.57,2.65,2.65,0,0,1,.83-.31,4.62,4.62,0,0,1,1-.1h2.64V9.19L147,8.66v1.82h1.35v1.37H147v2.42c0,.63.25.94.74.94a1.31,1.31,0,0,0,.61-.17v1.37a2.83,2.83,0,0,1-1.24.22c-1.3,0-2-.68-2-2V11.85h-2.91l-.29,0a.48.48,0,0,0-.19.09.25.25,0,0,0-.07.19.3.3,0,0,0,.11.24.91.91,0,0,0,.27.18,3.34,3.34,0,0,0,.38.15l.41.13a6.16,6.16,0,0,1,.67.28,1.94,1.94,0,0,1,.51.36,1.29,1.29,0,0,1,.33.48,1.69,1.69,0,0,1,.12.66,1.65,1.65,0,0,1-.24.91,1.78,1.78,0,0,1-.61.61,2.72,2.72,0,0,1-.89.35,5,5,0,0,1-1,.11A5.17,5.17,0,0,1,139.91,16.32Z"/><path d="M154.81,14H150.9c.06.87.61,1.3,1.64,1.3a3.23,3.23,0,0,0,1.74-.46v1.33a4.5,4.5,0,0,1-2.16.45,2.81,2.81,0,0,1-3.06-3.06,3.19,3.19,0,0,1,.87-2.36,2.91,2.91,0,0,1,2.13-.88,2.62,2.62,0,0,1,2,.78,3,3,0,0,1,.72,2.12Zm-1.72-1.14c0-.86-.34-1.29-1-1.29a1,1,0,0,0-.77.37,1.6,1.6,0,0,0-.39.92Z"/><path d="M165.44,16.48h-1.85V13.06c0-.87-.32-1.31-1-1.31a.88.88,0,0,0-.74.39,1.65,1.65,0,0,0-.29,1v3.36h-1.85V13c0-.84-.31-1.27-.94-1.27a.91.91,0,0,0-.76.38,1.65,1.65,0,0,0-.29,1v3.33h-1.85v-6h1.85v.94h0a2.22,2.22,0,0,1,.8-.78,2.17,2.17,0,0,1,1.14-.31,1.75,1.75,0,0,1,1.74,1.12,2.22,2.22,0,0,1,2-1.12c1.31,0,2,.81,2,2.42Z"/><path d="M171.9,16.48h-1.75v-.86h0a2,2,0,0,1-1.79,1,1.86,1.86,0,0,1-1.37-.5,1.79,1.79,0,0,1-.5-1.32c0-1.16.69-1.84,2.07-2l1.63-.21c0-.66-.36-1-1.07-1a3.72,3.72,0,0,0-2,.64V10.84a4.67,4.67,0,0,1,1.06-.35,5.12,5.12,0,0,1,1.22-.16,2.27,2.27,0,0,1,2.57,2.56ZM170.16,14v-.4l-1.09.14c-.6.08-.91.35-.91.81a.69.69,0,0,0,.22.52.84.84,0,0,0,.6.2,1.1,1.1,0,0,0,.85-.36A1.29,1.29,0,0,0,170.16,14Z"/><path d="M179.53,16.63a3.24,3.24,0,0,1-2.36-.84,3.08,3.08,0,0,1-.86-2.29,3.05,3.05,0,0,1,.9-2.33,3.34,3.34,0,0,1,2.4-.84,3.2,3.2,0,0,1,2.35.84,3,3,0,0,1,.85,2.23,3.16,3.16,0,0,1-.88,2.36A3.24,3.24,0,0,1,179.53,16.63Zm.05-4.88a1.23,1.23,0,0,0-1,.45,2,2,0,0,0-.36,1.28c0,1.15.46,1.73,1.39,1.73s1.33-.59,1.33-1.78S180.47,11.75,179.58,11.75Z"/><path d="M185.88,15.78h0v3.46H184V10.48h1.85v.9h0a2.36,2.36,0,0,1,3.73-.25,3.39,3.39,0,0,1,.64,2.18,3.73,3.73,0,0,1-.74,2.41,2.44,2.44,0,0,1-2,.91A1.86,1.86,0,0,1,185.88,15.78Zm0-2.46v.48a1.54,1.54,0,0,0,.33,1,1.06,1.06,0,0,0,.86.39,1.12,1.12,0,0,0,1-.49,2.4,2.4,0,0,0,.35-1.39c0-1.05-.41-1.58-1.23-1.58a1.18,1.18,0,0,0-.93.43A1.73,1.73,0,0,0,185.83,13.32Z"/><path d="M196.84,14h-3.91c.06.87.61,1.3,1.64,1.3a3.23,3.23,0,0,0,1.74-.46v1.33a4.5,4.5,0,0,1-2.16.45,2.81,2.81,0,0,1-3.06-3.06,3.19,3.19,0,0,1,.87-2.36,2.91,2.91,0,0,1,2.13-.88,2.62,2.62,0,0,1,2,.78,3,3,0,0,1,.72,2.12Zm-1.72-1.14c0-.86-.34-1.29-1-1.29a1,1,0,0,0-.77.37,1.68,1.68,0,0,0-.4.92Z"/><path d="M201.86,12.15a1.66,1.66,0,0,0-.78-.18,1.14,1.14,0,0,0-1,.44,2,2,0,0,0-.34,1.21v2.86h-1.85v-6h1.85v1.11h0a1.59,1.59,0,0,1,1.58-1.21,1.17,1.17,0,0,1,.46.07Z"/><path d="M207.71,16.48H206v-.86h0a2,2,0,0,1-1.78,1,1.88,1.88,0,0,1-1.38-.5,1.79,1.79,0,0,1-.5-1.32c0-1.16.69-1.84,2.07-2l1.63-.21c0-.66-.36-1-1.07-1a3.72,3.72,0,0,0-2,.64V10.84a4.67,4.67,0,0,1,1.06-.35,5.18,5.18,0,0,1,1.22-.16,2.27,2.27,0,0,1,2.57,2.56ZM206,14v-.4l-1.09.14q-.9.12-.9.81a.66.66,0,0,0,.22.52.8.8,0,0,0,.59.2,1.1,1.1,0,0,0,.85-.36A1.29,1.29,0,0,0,206,14Z"/><path d="M212.8,16.41a2.77,2.77,0,0,1-1.24.22q-2,0-1.95-2V11.85h-1V10.48h1V9.19l1.84-.53v1.82h1.35v1.37h-1.35v2.42c0,.63.25.94.75.94a1.31,1.31,0,0,0,.6-.17Z"/><path d="M214.78,9.53a1.07,1.07,0,0,1-.77-.28.88.88,0,0,1-.3-.68.87.87,0,0,1,.3-.68,1.11,1.11,0,0,1,.77-.26,1.09,1.09,0,0,1,.77.26.87.87,0,0,1,.3.68.89.89,0,0,1-.3.69A1.1,1.1,0,0,1,214.78,9.53Zm.92,7h-1.86v-6h1.86Z"/><path d="M223,10.48l-2.24,6h-2.1l-2.13-6h2l1,3.7a5.3,5.3,0,0,1,.21,1.06h0a6.23,6.23,0,0,1,.22-1L221,10.48Z"/><path d="M226.5,16.63a3.23,3.23,0,0,1-2.36-.84,3.08,3.08,0,0,1-.86-2.29,3.08,3.08,0,0,1,.89-2.33,3.38,3.38,0,0,1,2.41-.84,3.2,3.2,0,0,1,2.35.84,3,3,0,0,1,.85,2.23,3.2,3.2,0,0,1-.88,2.36A3.24,3.24,0,0,1,226.5,16.63Zm.05-4.88a1.23,1.23,0,0,0-1,.45,2,2,0,0,0-.37,1.28c0,1.15.47,1.73,1.4,1.73s1.33-.59,1.33-1.78S227.44,11.75,226.55,11.75Z"/><path d="M240.16,16.48h-1.85v-.83h0a2.07,2.07,0,0,1-1.85,1,2.27,2.27,0,0,1-1.81-.8,3.27,3.27,0,0,1-.69-2.21,3.55,3.55,0,0,1,.76-2.39,2.45,2.45,0,0,1,2-.9,1.67,1.67,0,0,1,1.61.84h0V7.6h1.85Zm-1.82-2.92v-.45a1.4,1.4,0,0,0-.34-1,1.19,1.19,0,0,0-1.84.1,2.22,2.22,0,0,0-.35,1.32,2,2,0,0,0,.33,1.22,1.19,1.19,0,0,0,1.85,0A1.92,1.92,0,0,0,238.34,13.56Z"/><path d="M247.11,14h-3.92c.07.87.61,1.3,1.65,1.3a3.23,3.23,0,0,0,1.74-.46v1.33a4.53,4.53,0,0,1-2.16.45,3,3,0,0,1-2.26-.81,3.06,3.06,0,0,1-.8-2.25,3.19,3.19,0,0,1,.87-2.36,2.89,2.89,0,0,1,2.13-.88,2.63,2.63,0,0,1,2,.78,3,3,0,0,1,.72,2.12Zm-1.72-1.14c0-.86-.35-1.29-1-1.29a1,1,0,0,0-.77.37,1.68,1.68,0,0,0-.4.92Z"/><path d="M250.06,16.48h-1.85V7.6h1.85Z"/><path d="M260.69,16.48h-1.85V13.07q0-1.32-1-1.32a1,1,0,0,0-.79.37,1.4,1.4,0,0,0-.31.94v3.42h-1.85V7.6h1.85v3.77h0a2.12,2.12,0,0,1,1.85-1q2,0,2,2.46Z"/><path d="M265,16.63a3.2,3.2,0,0,1-2.35-.84,3,3,0,0,1-.86-2.29,3,3,0,0,1,.89-2.33,3.35,3.35,0,0,1,2.41-.84,3.19,3.19,0,0,1,2.34.84,3,3,0,0,1,.85,2.23,3.16,3.16,0,0,1-.88,2.36A3.24,3.24,0,0,1,265,16.63Zm.05-4.88a1.23,1.23,0,0,0-1,.45,2,2,0,0,0-.36,1.28c0,1.15.46,1.73,1.39,1.73s1.33-.59,1.33-1.78S266,11.75,265.06,11.75Z"/><path d="M269.1,16.32v-1.5a3.7,3.7,0,0,0,.91.42,3.39,3.39,0,0,0,.86.13,2,2,0,0,0,.78-.13.45.45,0,0,0,.28-.42.41.41,0,0,0-.13-.29,1.33,1.33,0,0,0-.33-.21,4.53,4.53,0,0,0-.44-.15l-.47-.16c-.23-.09-.44-.19-.62-.28a1.67,1.67,0,0,1-.46-.34,1.34,1.34,0,0,1-.29-.45,2,2,0,0,1-.09-.63,1.51,1.51,0,0,1,.22-.85,1.67,1.67,0,0,1,.58-.57,2.81,2.81,0,0,1,.84-.31,4.53,4.53,0,0,1,1-.1h2.65V9.19l1.85-.53v1.82h1.34v1.37h-1.34v2.42c0,.63.24.94.74.94a1.24,1.24,0,0,0,.6-.17v1.37a2.75,2.75,0,0,1-1.23.22c-1.31,0-2-.68-2-2V11.85h-2.91l-.29,0A.48.48,0,0,0,271,12a.25.25,0,0,0-.07.19.3.3,0,0,0,.1.24,1,1,0,0,0,.28.18,2.74,2.74,0,0,0,.38.15l.41.13a6.16,6.16,0,0,1,.67.28,1.94,1.94,0,0,1,.51.36,1.58,1.58,0,0,1,.33.48,1.69,1.69,0,0,1,.11.66,1.64,1.64,0,0,1-.23.91,1.87,1.87,0,0,1-.61.61,2.72,2.72,0,0,1-.89.35,5,5,0,0,1-1,.11A5.17,5.17,0,0,1,269.1,16.32Z"/><path d="M159,43.37V41.49a3.68,3.68,0,0,0,1.11.65,3.57,3.57,0,0,0,1.2.21,2.93,2.93,0,0,0,.63-.06,1.82,1.82,0,0,0,.44-.18.87.87,0,0,0,.27-.27.69.69,0,0,0,.09-.34.77.77,0,0,0-.14-.44,1.7,1.7,0,0,0-.39-.36,3.74,3.74,0,0,0-.57-.31l-.72-.31a3.66,3.66,0,0,1-1.47-1,2.13,2.13,0,0,1-.49-1.42,2.22,2.22,0,0,1,.27-1.13,2.07,2.07,0,0,1,.72-.78,3.33,3.33,0,0,1,1-.45,5.72,5.72,0,0,1,1.26-.14,8.06,8.06,0,0,1,1.17.08,4.37,4.37,0,0,1,.93.24v1.75a2.87,2.87,0,0,0-.46-.25,3.52,3.52,0,0,0-.51-.19,5,5,0,0,0-.53-.11l-.49,0a2.68,2.68,0,0,0-.59.06,1.62,1.62,0,0,0-.44.17.81.81,0,0,0-.28.27.67.67,0,0,0,0,.72,1.17,1.17,0,0,0,.31.32,3.3,3.3,0,0,0,.5.29l.66.3a7,7,0,0,1,.91.45,3.49,3.49,0,0,1,.69.53,2.08,2.08,0,0,1,.44.69,2.4,2.4,0,0,1,.15.89,2.37,2.37,0,0,1-.27,1.18,2.05,2.05,0,0,1-.72.77,3.24,3.24,0,0,1-1.06.43,6,6,0,0,1-1.28.13,7,7,0,0,1-1.32-.12A3.81,3.81,0,0,1,159,43.37Z"/><path d="M171.3,41.22h-3.91c.06.87.61,1.31,1.64,1.31a3.24,3.24,0,0,0,1.74-.47v1.33a4.5,4.5,0,0,1-2.16.45,2.81,2.81,0,0,1-3.06-3.05,3.2,3.2,0,0,1,.87-2.37,2.9,2.9,0,0,1,2.13-.87,2.65,2.65,0,0,1,2,.77,3,3,0,0,1,.72,2.12Zm-1.72-1.14c0-.86-.34-1.29-1-1.29a1,1,0,0,0-.77.37,1.63,1.63,0,0,0-.39.92Z"/><path d="M176.32,39.36a1.66,1.66,0,0,0-.78-.18,1.15,1.15,0,0,0-.95.44,2,2,0,0,0-.34,1.21v2.86H172.4v-6h1.85v1.12h0a1.59,1.59,0,0,1,1.58-1.22,1.14,1.14,0,0,1,.46.07Z"/><path d="M183.37,37.69l-2.23,6H179l-2.13-6h2l1.05,3.7a5.91,5.91,0,0,1,.2,1.07h0a6.11,6.11,0,0,1,.22-1l1.07-3.73Z"/><path d="M185.1,36.74a1.07,1.07,0,0,1-.77-.28.88.88,0,0,1-.3-.68.87.87,0,0,1,.3-.68,1.16,1.16,0,0,1,.77-.26,1.14,1.14,0,0,1,.77.26.87.87,0,0,1,.3.68.89.89,0,0,1-.3.69A1.1,1.1,0,0,1,185.1,36.74Zm.91,6.95h-1.85v-6H186Z"/><path d="M193.44,43.69h-1.85v-.82h0a2.09,2.09,0,0,1-1.86,1,2.28,2.28,0,0,1-1.81-.8,3.23,3.23,0,0,1-.68-2.21,3.6,3.6,0,0,1,.75-2.39,2.47,2.47,0,0,1,2-.89,1.68,1.68,0,0,1,1.62.83h0V34.81h1.85Zm-1.81-2.92v-.45a1.45,1.45,0,0,0-.34-1,1.12,1.12,0,0,0-.89-.39,1.1,1.1,0,0,0-1,.49,2.23,2.23,0,0,0-.34,1.32,2,2,0,0,0,.33,1.22,1.18,1.18,0,0,0,1.84,0A1.87,1.87,0,0,0,191.63,40.77Z"/><path d="M197.86,43.84A3.24,3.24,0,0,1,195.5,43a3,3,0,0,1-.85-2.28,3,3,0,0,1,.89-2.33,3.34,3.34,0,0,1,2.4-.84,3.2,3.2,0,0,1,2.35.84,3,3,0,0,1,.85,2.22,3.15,3.15,0,0,1-.88,2.36A3.24,3.24,0,0,1,197.86,43.84Zm0-4.88a1.23,1.23,0,0,0-1,.45,2,2,0,0,0-.36,1.28c0,1.15.46,1.73,1.39,1.73s1.33-.59,1.33-1.77S198.8,39,197.91,39Z"/><path d="M206.25,39.36a1.61,1.61,0,0,0-.78-.18,1.14,1.14,0,0,0-.94.44,1.93,1.93,0,0,0-.34,1.21v2.86h-1.85v-6h1.85v1.12h0a1.6,1.6,0,0,1,1.59-1.22,1.12,1.12,0,0,1,.45.07Z"/><path d="M210.61,43.69v-8.4h3c3,0,4.48,1.36,4.48,4.1a4.16,4.16,0,0,1-1.22,3.13,4.52,4.52,0,0,1-3.26,1.17Zm1.89-6.86v5.33h.94a2.55,2.55,0,0,0,1.93-.74,2.82,2.82,0,0,0,.7-2,2.52,2.52,0,0,0-.7-1.89,2.64,2.64,0,0,0-2-.69Z"/><path d="M222.13,43.84a3.24,3.24,0,0,1-2.36-.84,3,3,0,0,1-.85-2.28,3,3,0,0,1,.89-2.33,3.34,3.34,0,0,1,2.4-.84,3.2,3.2,0,0,1,2.35.84,3,3,0,0,1,.85,2.22,3.15,3.15,0,0,1-.88,2.36A3.24,3.24,0,0,1,222.13,43.84Zm.05-4.88a1.23,1.23,0,0,0-1,.45,2,2,0,0,0-.36,1.28c0,1.15.46,1.73,1.39,1.73s1.33-.59,1.33-1.77S223.07,39,222.18,39Z"/><path d="M231.16,43.48a3.73,3.73,0,0,1-1.82.36,3,3,0,0,1-2.23-.84,2.9,2.9,0,0,1-.86-2.16,3.19,3.19,0,0,1,.92-2.41,3.38,3.38,0,0,1,2.45-.88,3.14,3.14,0,0,1,1.54.28V39.4a2.13,2.13,0,0,0-1.3-.44,1.71,1.71,0,0,0-1.26.47,1.75,1.75,0,0,0-.47,1.29,1.71,1.71,0,0,0,.45,1.25,1.62,1.62,0,0,0,1.22.45,2.47,2.47,0,0,0,1.36-.43Z"/><path d="M238.38,43.69h-2.22l-1.92-3h0v3h-1.85V34.81h1.85v5.65h0L236,37.69h2.2l-2.15,2.82Z"/><path d="M244.3,41.22h-3.92c.07.87.62,1.31,1.65,1.31a3.24,3.24,0,0,0,1.74-.47v1.33a4.5,4.5,0,0,1-2.16.45,2.79,2.79,0,0,1-3.06-3.05,3.2,3.2,0,0,1,.87-2.37,2.9,2.9,0,0,1,2.13-.87,2.66,2.66,0,0,1,2,.77,3,3,0,0,1,.72,2.12Zm-1.72-1.14c0-.86-.35-1.29-1-1.29a1,1,0,0,0-.77.37,1.72,1.72,0,0,0-.4.92Z"/><path d="M249.31,39.36a1.61,1.61,0,0,0-.78-.18,1.14,1.14,0,0,0-.94.44,1.93,1.93,0,0,0-.34,1.21v2.86H245.4v-6h1.85v1.12h0a1.6,1.6,0,0,1,1.59-1.22,1.12,1.12,0,0,1,.45.07Z"/><path d="M60.21,104.72q0,3.54-3.2,3.54c-2,0-3-1.13-3-3.4V99.72h1v5.07c0,1.72.73,2.59,2.18,2.59s2.1-.84,2.1-2.5V99.72h1Z"/><path d="M63.16,107.25h0v.87h-1V99.24h1v3.93h0A2.27,2.27,0,0,1,65.23,102a2.21,2.21,0,0,1,1.81.8,3.32,3.32,0,0,1,.66,2.16,3.69,3.69,0,0,1-.74,2.41,2.42,2.42,0,0,1-2,.91A2,2,0,0,1,63.16,107.25Zm0-2.42v.84a1.77,1.77,0,0,0,.48,1.26,1.59,1.59,0,0,0,1.23.52,1.6,1.6,0,0,0,1.37-.67,3,3,0,0,0,.49-1.85,2.39,2.39,0,0,0-.46-1.57,1.54,1.54,0,0,0-1.26-.57,1.69,1.69,0,0,0-1.34.58A2.15,2.15,0,0,0,63.14,104.83Z"/><path d="M74.08,108.12h-1v-1h0a2,2,0,0,1-1.85,1.09c-1.43,0-2.15-.85-2.15-2.55v-3.59h1v3.43c0,1.27.48,1.9,1.45,1.9a1.47,1.47,0,0,0,1.16-.52,2,2,0,0,0,.45-1.35v-3.46h1Z"/><path d="M81,108.12H80V104.7c0-1.28-.46-1.91-1.39-1.91a1.54,1.54,0,0,0-1.2.54A2,2,0,0,0,77,104.7v3.42H76v-6h1v1h0A2.16,2.16,0,0,1,79,102a1.85,1.85,0,0,1,1.51.63,2.84,2.84,0,0,1,.52,1.84Z"/><path d="M85.6,108.06a1.82,1.82,0,0,1-.9.19c-1,0-1.58-.59-1.58-1.76v-3.55h-1v-.82h1v-1.47l1-.31v1.78H85.6v.82H84.08v3.38a1.37,1.37,0,0,0,.21.86.83.83,0,0,0,.68.26,1.05,1.05,0,0,0,.63-.2Z"/><path d="M91.73,108.12h-1v-1h0a2,2,0,0,1-1.86,1.09c-1.43,0-2.14-.85-2.14-2.55v-3.59h1v3.43c0,1.27.48,1.9,1.45,1.9a1.47,1.47,0,0,0,1.16-.52,2,2,0,0,0,.45-1.35v-3.46h1Z"/><path d="M101.45,108.12H97.09v-8.4h1v7.51h3.38Z"/><path d="M103.1,100.6a.61.61,0,0,1-.62-.62.61.61,0,0,1,.18-.45.6.6,0,0,1,.44-.18.64.64,0,0,1,.45.18.61.61,0,0,1,.18.45.58.58,0,0,1-.18.43A.61.61,0,0,1,103.1,100.6Zm.47,7.52h-1v-6h1Z"/><path d="M110.49,108.12h-1V104.7c0-1.28-.46-1.91-1.39-1.91a1.54,1.54,0,0,0-1.2.54,2,2,0,0,0-.47,1.37v3.42h-1v-6h1v1h0a2.16,2.16,0,0,1,2-1.14,1.85,1.85,0,0,1,1.51.63,2.84,2.84,0,0,1,.52,1.84Z"/><path d="M117.15,108.12h-1v-1h0a2,2,0,0,1-1.85,1.09c-1.43,0-2.15-.85-2.15-2.55v-3.59h1v3.43c0,1.27.48,1.9,1.45,1.9a1.46,1.46,0,0,0,1.16-.52,2,2,0,0,0,.45-1.35v-3.46h1Z"/><path d="M123.48,102.12l-2,3,2,3h-1.12l-1.18-2-.26-.45h0l-.28.45-1.2,2h-1.11l2-2.94-2-3.06h1.12l1.16,2c.09.15.17.31.25.47h0l1.5-2.52Z"/><path d="M42.65,166.79H41.28L38,162.94a1.89,1.89,0,0,1-.23-.29h0v4.14h-1v-8.41h1v4h0a2.39,2.39,0,0,1,.23-.28l3.14-3.67H42.4l-3.6,4Z"/><path d="M48.3,164H44.06a2.26,2.26,0,0,0,.54,1.54,1.85,1.85,0,0,0,1.42.55,2.94,2.94,0,0,0,1.87-.67v.9a3.46,3.46,0,0,1-2.1.58,2.51,2.51,0,0,1-2-.82,3.83,3.83,0,0,1,.06-4.58,2.54,2.54,0,0,1,2-.88,2.26,2.26,0,0,1,1.83.76,3.17,3.17,0,0,1,.64,2.11Zm-1-.82a2,2,0,0,0-.4-1.29,1.37,1.37,0,0,0-1.1-.46,1.57,1.57,0,0,0-1.16.48,2.24,2.24,0,0,0-.58,1.27Z"/><path d="M52.88,161.76a1.14,1.14,0,0,0-.72-.19,1.21,1.21,0,0,0-1,.58,2.62,2.62,0,0,0-.41,1.58v3.06h-1v-6h1V162h0a2,2,0,0,1,.63-1,1.4,1.4,0,0,1,.94-.36,1.65,1.65,0,0,1,.57.08Z"/><path d="M58.91,166.79H58v-3.42c0-1.28-.47-1.91-1.4-1.91a1.5,1.5,0,0,0-1.19.54,2,2,0,0,0-.47,1.37v3.42h-1v-6h1v1h0a2.17,2.17,0,0,1,2-1.13,1.85,1.85,0,0,1,1.51.63,2.9,2.9,0,0,1,.52,1.84Z"/><path d="M65.54,164H61.3a2.26,2.26,0,0,0,.54,1.54,1.85,1.85,0,0,0,1.42.55,2.89,2.89,0,0,0,1.86-.67v.9a3.41,3.41,0,0,1-2.09.58,2.53,2.53,0,0,1-2-.82,3.35,3.35,0,0,1-.72-2.3,3.28,3.28,0,0,1,.79-2.28,2.54,2.54,0,0,1,2-.88,2.26,2.26,0,0,1,1.83.76,3.22,3.22,0,0,1,.64,2.11Zm-1-.82a2,2,0,0,0-.41-1.29,1.35,1.35,0,0,0-1.09-.46,1.57,1.57,0,0,0-1.16.48,2.25,2.25,0,0,0-.59,1.27Z"/><path d="M68,166.79H67V157.9h1Z"/><path d="M78.31,166.79h-1v-1h0a2.21,2.21,0,0,1-2.06,1.16,2.24,2.24,0,0,1-1.81-.81,3.31,3.31,0,0,1-.67-2.19,3.62,3.62,0,0,1,.75-2.39,2.48,2.48,0,0,1,2-.89,1.91,1.91,0,0,1,1.8,1h0V157.9h1Zm-1-2.72v-.88a1.71,1.71,0,0,0-.48-1.23,1.6,1.6,0,0,0-1.22-.5,1.67,1.67,0,0,0-1.39.64,2.85,2.85,0,0,0-.5,1.78,2.56,2.56,0,0,0,.48,1.64,1.6,1.6,0,0,0,1.3.6,1.65,1.65,0,0,0,1.31-.58A2.2,2.2,0,0,0,77.35,164.07Z"/><path d="M85.07,164H80.84a2.16,2.16,0,0,0,.54,1.54,1.82,1.82,0,0,0,1.42.55,2.93,2.93,0,0,0,1.86-.67v.9a3.45,3.45,0,0,1-2.09.58,2.52,2.52,0,0,1-2-.82,3.81,3.81,0,0,1,.07-4.58,2.53,2.53,0,0,1,2-.88,2.25,2.25,0,0,1,1.82.76,3.17,3.17,0,0,1,.64,2.11Zm-1-.82a2,2,0,0,0-.4-1.29,1.36,1.36,0,0,0-1.1-.46,1.55,1.55,0,0,0-1.15.48,2.19,2.19,0,0,0-.59,1.27Z"/><path d="M86.16,166.57v-1a2.84,2.84,0,0,0,1.73.58c.85,0,1.27-.28,1.27-.84a.76.76,0,0,0-.11-.41,1.17,1.17,0,0,0-.29-.3,3,3,0,0,0-.44-.23l-.53-.21a6.76,6.76,0,0,1-.7-.32,2.23,2.23,0,0,1-.51-.37,1.31,1.31,0,0,1-.3-.46,1.57,1.57,0,0,1-.1-.6,1.44,1.44,0,0,1,.19-.75,1.78,1.78,0,0,1,.52-.54,2.21,2.21,0,0,1,.73-.33,3.05,3.05,0,0,1,.85-.11,3.46,3.46,0,0,1,1.4.27v1a2.71,2.71,0,0,0-1.53-.43,1.75,1.75,0,0,0-.48.06,1.15,1.15,0,0,0-.37.17.62.62,0,0,0-.24.27.64.64,0,0,0-.09.34.75.75,0,0,0,.09.39.8.8,0,0,0,.24.28,2.48,2.48,0,0,0,.4.23l.54.21a6.81,6.81,0,0,1,.71.32,2.12,2.12,0,0,1,.54.36,1.38,1.38,0,0,1,.34.46,1.54,1.54,0,0,1,.12.63A1.5,1.5,0,0,1,90,166a1.71,1.71,0,0,1-.53.54,2.54,2.54,0,0,1-.75.32,3.82,3.82,0,0,1-.9.11A3.41,3.41,0,0,1,86.16,166.57Z"/><path d="M96.74,166.79h-1v-1h0a2.42,2.42,0,0,1-3.87.35,3.32,3.32,0,0,1-.68-2.19,3.62,3.62,0,0,1,.75-2.39,2.5,2.5,0,0,1,2-.89,1.93,1.93,0,0,1,1.8,1h0V157.9h1Zm-1-2.72v-.88A1.71,1.71,0,0,0,95.3,162a1.6,1.6,0,0,0-1.22-.5,1.64,1.64,0,0,0-1.38.64,2.79,2.79,0,0,0-.51,1.78,2.51,2.51,0,0,0,.49,1.64,1.57,1.57,0,0,0,1.3.6,1.64,1.64,0,0,0,1.3-.58A2.2,2.2,0,0,0,95.78,164.07Z"/><path d="M103.51,164H99.27a2.26,2.26,0,0,0,.54,1.54,1.84,1.84,0,0,0,1.42.55,2.91,2.91,0,0,0,1.86-.67v.9a3.43,3.43,0,0,1-2.09.58,2.53,2.53,0,0,1-2-.82,3.35,3.35,0,0,1-.72-2.3,3.28,3.28,0,0,1,.79-2.28,2.54,2.54,0,0,1,2-.88,2.24,2.24,0,0,1,1.82.76,3.17,3.17,0,0,1,.65,2.11Zm-1-.82a1.9,1.9,0,0,0-.4-1.29,1.36,1.36,0,0,0-1.1-.46,1.56,1.56,0,0,0-1.15.48,2.25,2.25,0,0,0-.59,1.27Z"/><path d="M113.07,164h-4.24a2.26,2.26,0,0,0,.54,1.54,1.85,1.85,0,0,0,1.42.55,2.89,2.89,0,0,0,1.86-.67v.9a3.41,3.41,0,0,1-2.09.58,2.54,2.54,0,0,1-2-.82,3.35,3.35,0,0,1-.72-2.3,3.28,3.28,0,0,1,.79-2.28,2.54,2.54,0,0,1,2-.88,2.26,2.26,0,0,1,1.83.76,3.17,3.17,0,0,1,.64,2.11Zm-1-.82a2,2,0,0,0-.4-1.29,1.37,1.37,0,0,0-1.1-.46,1.57,1.57,0,0,0-1.16.48,2.24,2.24,0,0,0-.58,1.27Z"/><path d="M115.48,166.79h-1V157.9h1Z"/><path d="M125.7,166.79h-1v-3.46c0-1.25-.47-1.87-1.4-1.87a1.51,1.51,0,0,0-1.18.54,2,2,0,0,0-.48,1.39v3.4h-1V157.9h1v3.88h0a2.19,2.19,0,0,1,2-1.13c1.35,0,2,.81,2,2.44Z"/><path d="M130,166.93a2.79,2.79,0,0,1-2.13-.84,3.12,3.12,0,0,1-.79-2.23,3.23,3.23,0,0,1,.82-2.36,3,3,0,0,1,2.24-.85,2.68,2.68,0,0,1,2.09.82,3.29,3.29,0,0,1,.75,2.29,3.21,3.21,0,0,1-.81,2.3A2.82,2.82,0,0,1,130,166.93Zm.07-5.47a1.86,1.86,0,0,0-1.47.62,2.59,2.59,0,0,0-.54,1.74,2.41,2.41,0,0,0,.55,1.68,1.85,1.85,0,0,0,1.46.62,1.75,1.75,0,0,0,1.43-.6,2.67,2.67,0,0,0,.5-1.72,2.71,2.71,0,0,0-.5-1.74A1.75,1.75,0,0,0,130.09,161.46Z"/><path d="M141.48,166.73a1.92,1.92,0,0,1-.89.19c-1.05,0-1.58-.59-1.58-1.76v-3.55h-2.65a2.43,2.43,0,0,0-.49,0,1,1,0,0,0-.37.12.5.5,0,0,0-.24.21.55.55,0,0,0-.09.32.75.75,0,0,0,.09.39.74.74,0,0,0,.25.28,2.36,2.36,0,0,0,.39.23l.54.21a6.81,6.81,0,0,1,.71.32,2.12,2.12,0,0,1,.54.36,1.32,1.32,0,0,1,.34.47A1.68,1.68,0,0,1,138,166a1.71,1.71,0,0,1-.53.54,2.43,2.43,0,0,1-.75.32,3.82,3.82,0,0,1-.9.11,3.34,3.34,0,0,1-1.6-.36v-1a2.79,2.79,0,0,0,1.72.58c.85,0,1.27-.28,1.27-.84a.72.72,0,0,0-.11-.4,1,1,0,0,0-.29-.29,2.19,2.19,0,0,0-.43-.24c-.17-.08-.35-.15-.54-.22a6.76,6.76,0,0,1-.7-.32,2,2,0,0,1-.5-.37,1.21,1.21,0,0,1-.31-.46,1.57,1.57,0,0,1-.1-.6,1.37,1.37,0,0,1,.18-.72,1.5,1.5,0,0,1,.47-.5,2,2,0,0,1,.65-.28,3.2,3.2,0,0,1,.75-.09H139v-1.47l1-.31v1.78h1.51v.82H140V165a1.37,1.37,0,0,0,.21.86.81.81,0,0,0,.68.26,1,1,0,0,0,.62-.2Z"/><path d="M284.33,75.74H283l-3.25-3.85a2.38,2.38,0,0,1-.22-.29h0v4.14h-1V67.33h1v4h0a2.2,2.2,0,0,1,.22-.28l3.14-3.67h1.23l-3.61,4Z"/><path d="M290,73h-4.24a2.27,2.27,0,0,0,.54,1.54,1.84,1.84,0,0,0,1.42.55,3,3,0,0,0,1.86-.67v.9a3.5,3.5,0,0,1-2.09.58,2.56,2.56,0,0,1-2-.82,3.37,3.37,0,0,1-.72-2.3,3.26,3.26,0,0,1,.79-2.28,2.55,2.55,0,0,1,2-.89,2.24,2.24,0,0,1,1.82.77,3.15,3.15,0,0,1,.65,2.11Zm-1-.82a1.88,1.88,0,0,0-.4-1.29,1.36,1.36,0,0,0-1.1-.47,1.57,1.57,0,0,0-1.15.49,2.22,2.22,0,0,0-.59,1.27Z"/><path d="M294.56,70.71a1.18,1.18,0,0,0-.73-.2,1.25,1.25,0,0,0-1,.58,2.75,2.75,0,0,0-.41,1.59v3.06h-1v-6h1V71h0a2.08,2.08,0,0,1,.62-1,1.47,1.47,0,0,1,.95-.35,1.65,1.65,0,0,1,.57.08Z"/><path d="M300.58,75.74h-1V72.31c0-1.27-.46-1.91-1.39-1.91A1.48,1.48,0,0,0,297,71a2,2,0,0,0-.48,1.36v3.43h-1v-6h1v1h0a2.16,2.16,0,0,1,2-1.14,1.85,1.85,0,0,1,1.5.64,2.82,2.82,0,0,1,.52,1.84Z"/><path d="M307.22,73H303a2.23,2.23,0,0,0,.54,1.54,1.82,1.82,0,0,0,1.42.55,3,3,0,0,0,1.86-.67v.9a3.5,3.5,0,0,1-2.09.58,2.55,2.55,0,0,1-2-.82,3.37,3.37,0,0,1-.73-2.3,3.27,3.27,0,0,1,.8-2.28,2.54,2.54,0,0,1,2-.89,2.26,2.26,0,0,1,1.82.77,3.15,3.15,0,0,1,.65,2.11Zm-1-.82a1.93,1.93,0,0,0-.4-1.29,1.36,1.36,0,0,0-1.1-.47,1.56,1.56,0,0,0-1.15.49,2.22,2.22,0,0,0-.59,1.27Z"/><path d="M309.63,75.74h-1V66.85h1Z"/><path d="M40.93,60.23a2.3,2.3,0,0,0-.35-.2,3.16,3.16,0,0,0-.43-.16,3.89,3.89,0,0,0-.49-.12,4.21,4.21,0,0,0-.5,0,2,2,0,0,0-.78.14,1.29,1.29,0,0,0-.52.33,1.07,1.07,0,0,0-.27.44,1.29,1.29,0,0,0-.09.45,1.54,1.54,0,0,0,.08.5,1.39,1.39,0,0,0,.23.43,2.46,2.46,0,0,0,.39.41c.16.14.35.28.56.44a7.39,7.39,0,0,1,.65.52,3.34,3.34,0,0,1,.48.53,2.23,2.23,0,0,1,.3.57,2,2,0,0,1,.11.66,3,3,0,0,1,0,.48,2.21,2.21,0,0,1-.16.52,2.17,2.17,0,0,1-.31.52,2,2,0,0,1-.51.44,2.66,2.66,0,0,1-.74.31,3.86,3.86,0,0,1-1,.12,4.48,4.48,0,0,1-.64,0,5.31,5.31,0,0,1-.6-.12,4.54,4.54,0,0,1-.52-.17L35.34,67l.17-1a2.87,2.87,0,0,0,.43.25,3.89,3.89,0,0,0,.51.21,4.94,4.94,0,0,0,.55.15,3.66,3.66,0,0,0,.57,0,2.51,2.51,0,0,0,.77-.11,1.38,1.38,0,0,0,.52-.29,1.18,1.18,0,0,0,.31-.43,1.63,1.63,0,0,0,.09-.55,1.19,1.19,0,0,0-.08-.47,1.55,1.55,0,0,0-.25-.42A3.44,3.44,0,0,0,38.5,64c-.17-.14-.38-.29-.62-.46a5.58,5.58,0,0,1-.55-.44,3.17,3.17,0,0,1-.45-.52,2.34,2.34,0,0,1-.31-.61,2.09,2.09,0,0,1-.12-.72,2.34,2.34,0,0,1,.18-.91,2.09,2.09,0,0,1,.53-.75A2.69,2.69,0,0,1,38,59a3.44,3.44,0,0,1,1.2-.19,4.44,4.44,0,0,1,1,.12l.46.12c.15,0,.28.09.39.14Z"/><path d="M43.52,67.35a1.36,1.36,0,0,1-.33.07,2.19,2.19,0,0,1-.36,0,1.19,1.19,0,0,1-.89-.29,1.11,1.11,0,0,1-.29-.8,2.35,2.35,0,0,1,0-.34c0-.13,0-.3.09-.49l.88-4.16h1l-.88,4.18a2.9,2.9,0,0,0-.07.38,1,1,0,0,0,0,.23.49.49,0,0,0,.13.37.59.59,0,0,0,.42.12,1,1,0,0,0,.26,0l.22,0Zm.69-8.12a.61.61,0,0,1-.18.45.58.58,0,0,1-.44.19.64.64,0,0,1-.45-.18.62.62,0,0,1-.19-.46.56.56,0,0,1,.19-.44.68.68,0,0,1,.45-.17.6.6,0,0,1,.44.18A.57.57,0,0,1,44.21,59.23Z"/><path d="M52.12,62.19H50.61l-.68,3.18c0,.12,0,.25-.07.39a2.47,2.47,0,0,0,0,.34.58.58,0,0,0,.13.43.57.57,0,0,0,.42.13.62.62,0,0,0,.18,0l.23-.06L51,66.5l.2-.08-.18.85a2.76,2.76,0,0,1-.46.15,2.27,2.27,0,0,1-.5.06,1.62,1.62,0,0,1-.57-.09,1,1,0,0,1-.38-.24,1,1,0,0,1-.22-.38,2,2,0,0,1-.07-.51,3.37,3.37,0,0,1,0-.4c0-.15,0-.28.08-.41l.69-3.26H47.34a2.78,2.78,0,0,0-.51,0,1.52,1.52,0,0,0-.41.14.73.73,0,0,0-.28.24A.61.61,0,0,0,46,63a1,1,0,0,0,.05.31,1.11,1.11,0,0,0,.17.27,1.64,1.64,0,0,0,.27.24l.39.25a5.74,5.74,0,0,1,.55.38,2.42,2.42,0,0,1,.39.4,1.35,1.35,0,0,1,.22.43,1.51,1.51,0,0,1,.07.48,1.84,1.84,0,0,1-.12.66,1.51,1.51,0,0,1-.4.57,2.26,2.26,0,0,1-.72.41,3.3,3.3,0,0,1-1.06.15l-.39,0a3.1,3.1,0,0,1-.42-.08,2.75,2.75,0,0,1-.41-.11,1.82,1.82,0,0,1-.34-.15l.19-.92a1.85,1.85,0,0,0,.29.17l.37.14.43.11a3.13,3.13,0,0,0,.43,0,1.42,1.42,0,0,0,.88-.23.82.82,0,0,0,.29-.66.87.87,0,0,0-.05-.28.83.83,0,0,0-.15-.25,1.6,1.6,0,0,0-.3-.26q-.18-.13-.45-.3a3,3,0,0,1-.89-.76,1.54,1.54,0,0,1-.28-.89,1.54,1.54,0,0,1,.58-1.21,2.14,2.14,0,0,1,.69-.36,3.48,3.48,0,0,1,1-.13h2.54l.31-1.46.09,0,.19-.06.24-.07.23-.07.19,0,.09,0-.37,1.77H52.3Z"/><path d="M57.57,62.78a1.79,1.79,0,0,1-.21.86,1.75,1.75,0,0,1-.7.67,4,4,0,0,1-1.28.43,10.79,10.79,0,0,1-2,.16.57.57,0,0,0,0,.13v.12a2.35,2.35,0,0,0,.08.6,1.26,1.26,0,0,0,.28.49,1.39,1.39,0,0,0,.47.34,1.81,1.81,0,0,0,.69.12,2.75,2.75,0,0,0,.89-.16,3.7,3.7,0,0,0,.92-.44l-.18,1a4.68,4.68,0,0,1-.77.33,3.43,3.43,0,0,1-1,.14,2.63,2.63,0,0,1-1.12-.21,1.94,1.94,0,0,1-.73-.54,2.08,2.08,0,0,1-.4-.8,3.19,3.19,0,0,1-.13-.94,4.17,4.17,0,0,1,.12-1,4.26,4.26,0,0,1,.33-.91,3.68,3.68,0,0,1,.51-.77,3.17,3.17,0,0,1,.67-.6,3.25,3.25,0,0,1,.77-.38,2.82,2.82,0,0,1,.87-.13,2.51,2.51,0,0,1,.81.12,1.55,1.55,0,0,1,1,.83A1.53,1.53,0,0,1,57.57,62.78Zm-1,0a.69.69,0,0,0-.27-.58,1.15,1.15,0,0,0-.73-.2,1.72,1.72,0,0,0-.69.15,2.26,2.26,0,0,0-.61.43,2.71,2.71,0,0,0-.49.65,2.77,2.77,0,0,0-.3.82A9.64,9.64,0,0,0,54.93,64a3.33,3.33,0,0,0,1-.25,1.23,1.23,0,0,0,.54-.4A.93.93,0,0,0,56.59,62.83Z"/><path d="M67.48,62.88a1.25,1.25,0,0,1,0,.24c0,.1,0,.21,0,.33l-.06.34c0,.12,0,.22-.06.29l-.71,3.29h-1l.73-3.51c0-.07,0-.14.05-.23s0-.16,0-.24a2.07,2.07,0,0,0,0-.22c0-.07,0-.12,0-.16a1.16,1.16,0,0,0-.2-.72.77.77,0,0,0-.62-.24,1.09,1.09,0,0,0-.46.1,2.08,2.08,0,0,0-.47.28,2.74,2.74,0,0,0-.43.41,3.14,3.14,0,0,0-.38.5,4.85,4.85,0,0,0-.3.54,3.2,3.2,0,0,0-.18.55l-.63,2.94h-1l.75-3.51c0-.07,0-.14,0-.23s0-.16,0-.24l0-.22a1,1,0,0,0,0-.16,1.16,1.16,0,0,0-.2-.72.78.78,0,0,0-.62-.24,1.17,1.17,0,0,0-.47.1,2.33,2.33,0,0,0-.47.28,3.39,3.39,0,0,0-.43.42,3.14,3.14,0,0,0-.38.5,3.64,3.64,0,0,0-.3.54,3.2,3.2,0,0,0-.18.55l-.62,2.93h-1L59,63.09l.09-.48c0-.16.06-.32.09-.48s.05-.3.07-.43,0-.24.05-.33h.94c0,.15,0,.31-.07.48s0,.32-.07.46,0,.32-.08.48h0a5.11,5.11,0,0,1,.46-.63,3.4,3.4,0,0,1,.52-.49,2.61,2.61,0,0,1,.58-.33,1.62,1.62,0,0,1,.62-.11,1.56,1.56,0,0,1,.64.11,1.21,1.21,0,0,1,.45.31,1.37,1.37,0,0,1,.27.49,2.44,2.44,0,0,1,.11.64,5.79,5.79,0,0,1,.47-.61,3.54,3.54,0,0,1,.53-.5,2.73,2.73,0,0,1,.61-.32,1.85,1.85,0,0,1,.67-.12,1.41,1.41,0,0,1,1.13.43A1.82,1.82,0,0,1,67.48,62.88Z"/><path d="M73.4,65.45c0,.15-.07.32-.1.5s0,.37-.07.55,0,.35,0,.51a3.18,3.18,0,0,0,0,.36h-1c0-.08,0-.17,0-.28a2,2,0,0,1,0-.34c0-.12,0-.23,0-.34s0-.22,0-.3h0c-.12.19-.24.37-.37.54a2.24,2.24,0,0,1-.42.45,2,2,0,0,1-.5.31,1.92,1.92,0,0,1-.67.11,1.8,1.8,0,0,1-.71-.14A1.56,1.56,0,0,1,69,67a1.86,1.86,0,0,1-.36-.7,3.16,3.16,0,0,1-.13-1,4.59,4.59,0,0,1,.07-.78,5,5,0,0,1,.24-.88,4.52,4.52,0,0,1,.44-.88A3.37,3.37,0,0,1,70,62a3.32,3.32,0,0,1,1-.55,3.7,3.7,0,0,1,1.3-.2,6.61,6.61,0,0,1,1,.07c.33,0,.66.1,1,.17Zm-.28-3.29-.48-.08-.52,0a2.29,2.29,0,0,0-.9.16,2.18,2.18,0,0,0-.67.42,2.39,2.39,0,0,0-.49.6,4.19,4.19,0,0,0-.31.69,4.74,4.74,0,0,0-.17.7,5,5,0,0,0,0,.63,2.77,2.77,0,0,0,.06.6,1.27,1.27,0,0,0,.19.46.89.89,0,0,0,.32.29,1.11,1.11,0,0,0,.46.1,1.26,1.26,0,0,0,.55-.12,1.87,1.87,0,0,0,.48-.33,2.31,2.31,0,0,0,.4-.47,3.25,3.25,0,0,0,.33-.57,4.73,4.73,0,0,0,.25-.62,5.54,5.54,0,0,0,.17-.6Z"/><path d="M83.86,63.59a5,5,0,0,1-.23,1.51A3.77,3.77,0,0,1,83,66.36a3.15,3.15,0,0,1-1,.85,3,3,0,0,1-1.37.31,2.43,2.43,0,0,1-.92-.17,1.8,1.8,0,0,1-.71-.47,2,2,0,0,1-.44-.74,2.78,2.78,0,0,1-.16-1,4.82,4.82,0,0,1,.24-1.54,3.84,3.84,0,0,1,.67-1.25,3.07,3.07,0,0,1,1-.83,2.92,2.92,0,0,1,1.33-.3,2.47,2.47,0,0,1,.92.16,2,2,0,0,1,.7.47,2.11,2.11,0,0,1,.46.75A2.76,2.76,0,0,1,83.86,63.59Zm-1,0a2.37,2.37,0,0,0-.1-.68,1.58,1.58,0,0,0-.26-.5,1.39,1.39,0,0,0-.41-.31,1.33,1.33,0,0,0-.54-.1,1.65,1.65,0,0,0-.93.26,2.59,2.59,0,0,0-.71.69,3.8,3.8,0,0,0-.44,1,4.26,4.26,0,0,0-.15,1.12,2.19,2.19,0,0,0,.09.66,1.37,1.37,0,0,0,.26.51,1.09,1.09,0,0,0,.41.32,1.33,1.33,0,0,0,.54.11,1.77,1.77,0,0,0,.94-.26,2.42,2.42,0,0,0,.7-.69,3.18,3.18,0,0,0,.44-1A4.21,4.21,0,0,0,82.88,63.64Z"/><path d="M90.36,63.47a4.73,4.73,0,0,1-.09.9,4.46,4.46,0,0,1-.29.92,4.75,4.75,0,0,1-.48.85,3.27,3.27,0,0,1-.68.71,3.08,3.08,0,0,1-.89.49,3.27,3.27,0,0,1-1.11.18,3.14,3.14,0,0,1-.68-.07,3.89,3.89,0,0,1-.59-.15L85,70.16H84l1.47-6.94a4.3,4.3,0,0,0,.07-.45c0-.18,0-.36.07-.53s0-.35,0-.5,0-.28,0-.37h1c0,.07,0,.16,0,.27s0,.23,0,.36,0,.24,0,.35,0,.21,0,.28h0a3.29,3.29,0,0,1,.94-1.06,2,2,0,0,1,1.14-.34,1.78,1.78,0,0,1,.74.14,1.43,1.43,0,0,1,.56.42,2,2,0,0,1,.35.7A3.6,3.6,0,0,1,90.36,63.47Zm-1,0a2.74,2.74,0,0,0-.06-.59,1.17,1.17,0,0,0-.18-.46.94.94,0,0,0-.33-.3,1,1,0,0,0-.5-.11,1.39,1.39,0,0,0-.57.12,2,2,0,0,0-.49.34,2.52,2.52,0,0,0-.42.49,4.13,4.13,0,0,0-.33.58,4,4,0,0,0-.25.6,5.48,5.48,0,0,0-.16.56l-.37,1.74.26.09.3.06.32.05.31,0a2,2,0,0,0,.74-.14,2.24,2.24,0,0,0,.62-.36,2.83,2.83,0,0,0,.48-.55A3.87,3.87,0,0,0,89.1,65a4.38,4.38,0,0,0,.21-.73A3.78,3.78,0,0,0,89.38,63.51Z"/><path d="M96.43,62.78a1.79,1.79,0,0,1-.21.86,1.72,1.72,0,0,1-.69.67,4.14,4.14,0,0,1-1.29.43,10.71,10.71,0,0,1-2,.16s0,.09,0,.13v.12a2,2,0,0,0,.09.6,1.37,1.37,0,0,0,.27.49,1.43,1.43,0,0,0,.48.34,1.78,1.78,0,0,0,.69.12,2.7,2.7,0,0,0,.88-.16,3.76,3.76,0,0,0,.93-.44l-.19,1a4.55,4.55,0,0,1-.76.33,3.45,3.45,0,0,1-1,.14,2.7,2.7,0,0,1-1.12-.21,2,2,0,0,1-.73-.54,2.23,2.23,0,0,1-.4-.8,3.56,3.56,0,0,1-.12-.94,4.17,4.17,0,0,1,.12-1,3.4,3.4,0,0,1,.33-.91,3.68,3.68,0,0,1,.51-.77,3.38,3.38,0,0,1,.66-.6,3.13,3.13,0,0,1,.78-.38,2.76,2.76,0,0,1,.86-.13,2.57,2.57,0,0,1,.82.12,1.55,1.55,0,0,1,.59.34,1.33,1.33,0,0,1,.36.49A1.53,1.53,0,0,1,96.43,62.78Zm-1,0a.7.7,0,0,0-.28-.58,1.14,1.14,0,0,0-.72-.2,1.65,1.65,0,0,0-.69.15,2.31,2.31,0,0,0-.62.43,2.67,2.67,0,0,0-.48.65,2.77,2.77,0,0,0-.3.82A9.49,9.49,0,0,0,93.79,64a3.5,3.5,0,0,0,1-.25,1.36,1.36,0,0,0,.54-.4A.93.93,0,0,0,95.46,62.83Z"/><path d="M101.15,62.39h0a1.86,1.86,0,0,0-.31-.14,1.26,1.26,0,0,0-.38-.06,1.11,1.11,0,0,0-.65.22,2.22,2.22,0,0,0-.56.58,4.25,4.25,0,0,0-.45.82,6.17,6.17,0,0,0-.3,1l-.56,2.61H97l.85-4c0-.17.07-.34.1-.52s.07-.36.1-.54,0-.35.08-.51,0-.32,0-.45h1c0,.12,0,.24,0,.37s0,.26,0,.39,0,.23,0,.33,0,.18,0,.23h0c.13-.22.25-.42.38-.6a2.67,2.67,0,0,1,.41-.46,1.61,1.61,0,0,1,.45-.3,1.32,1.32,0,0,1,.53-.1l.32,0,.29.07Z"/><path d="M106.14,65.45c0,.15-.06.32-.09.5s0,.37-.07.55,0,.35-.06.51,0,.28,0,.36h-1c0-.08,0-.17,0-.28s0-.22,0-.34,0-.23,0-.34,0-.22,0-.3h0c-.12.19-.25.37-.37.54a2.57,2.57,0,0,1-.42.45,1.88,1.88,0,0,1-.51.31,1.86,1.86,0,0,1-.66.11,1.89,1.89,0,0,1-.72-.14,1.76,1.76,0,0,1-.56-.42,2.2,2.2,0,0,1-.36-.7,3.52,3.52,0,0,1-.12-1,4.59,4.59,0,0,1,.07-.78,4.24,4.24,0,0,1,.23-.88,4.57,4.57,0,0,1,.45-.88,3.37,3.37,0,0,1,.69-.77,3.32,3.32,0,0,1,1-.55,3.7,3.7,0,0,1,1.3-.2,6.61,6.61,0,0,1,1,.07c.33,0,.66.1,1,.17Zm-.27-3.29-.48-.08-.52,0a2.29,2.29,0,0,0-.9.16,2.41,2.41,0,0,0-1.16,1,4.19,4.19,0,0,0-.31.69,3.75,3.75,0,0,0-.17.7,5,5,0,0,0,0,.63,2.77,2.77,0,0,0,.06.6,1.47,1.47,0,0,0,.18.46,1,1,0,0,0,.33.29,1.08,1.08,0,0,0,.46.1,1.26,1.26,0,0,0,.55-.12,1.87,1.87,0,0,0,.48-.33,2.31,2.31,0,0,0,.4-.47,5.3,5.3,0,0,0,.33-.57,4.73,4.73,0,0,0,.25-.62c.07-.21.12-.41.17-.6Z"/><path d="M111.39,62.19h-1.51l-.68,3.18c0,.12,0,.25-.07.39a2.47,2.47,0,0,0,0,.34.58.58,0,0,0,.13.43.57.57,0,0,0,.42.13.69.69,0,0,0,.18,0l.23-.06.23-.08.2-.08-.18.85a2.6,2.6,0,0,1-.47.15,2.18,2.18,0,0,1-.49.06,1.62,1.62,0,0,1-.57-.09.92.92,0,0,1-.38-.24.91.91,0,0,1-.22-.38,1.61,1.61,0,0,1-.07-.51,3.15,3.15,0,0,1,0-.4c0-.15,0-.28.08-.41l.7-3.26h-1l.18-.82h1l.32-1.46.17-.06.34-.1.34-.1.18,0-.37,1.77h1.51Z"/><path d="M113.66,67.35a1.6,1.6,0,0,1-.33.07,2.31,2.31,0,0,1-.37,0,1.17,1.17,0,0,1-.88-.29,1.07,1.07,0,0,1-.29-.8,2.35,2.35,0,0,1,0-.34,4.39,4.39,0,0,1,.09-.49l.87-4.16h1l-.87,4.18c0,.16-.06.29-.08.38s0,.17,0,.23a.54.54,0,0,0,.13.37.62.62,0,0,0,.42.12,1.14,1.14,0,0,0,.27,0l.21,0Zm.69-8.12a.61.61,0,0,1-.18.45.58.58,0,0,1-.44.19.61.61,0,0,1-.45-.18.62.62,0,0,1-.19-.46.56.56,0,0,1,.19-.44.64.64,0,0,1,.45-.17.62.62,0,0,1,.44.18A.57.57,0,0,1,114.35,59.23Z"/><path d="M116.9,67.37h-.82l-1-6h1l.53,3.78,0,.25,0,.29a2.83,2.83,0,0,1,0,.29,2.26,2.26,0,0,1,0,.25h0l.11-.24.14-.28.15-.29.15-.27,2.15-3.78h1.09Z"/><path d="M126,63.59a5,5,0,0,1-.23,1.51,3.77,3.77,0,0,1-.65,1.26,3.15,3.15,0,0,1-1,.85,3,3,0,0,1-1.37.31,2.52,2.52,0,0,1-.93-.17,1.77,1.77,0,0,1-.7-.47,2,2,0,0,1-.44-.74,2.78,2.78,0,0,1-.16-1,4.82,4.82,0,0,1,.24-1.54,3.84,3.84,0,0,1,.67-1.25,3.07,3.07,0,0,1,1-.83,2.91,2.91,0,0,1,1.32-.3,2.52,2.52,0,0,1,.93.16,2,2,0,0,1,.7.47,2.11,2.11,0,0,1,.46.75A3,3,0,0,1,126,63.59Zm-1,0a2.38,2.38,0,0,0-.09-.68,1.58,1.58,0,0,0-.26-.5,1.39,1.39,0,0,0-.41-.31,1.33,1.33,0,0,0-.54-.1,1.63,1.63,0,0,0-.93.26A2.46,2.46,0,0,0,122,63a3.49,3.49,0,0,0-.44,1,4.27,4.27,0,0,0-.16,1.12,2.18,2.18,0,0,0,.1.66,1.52,1.52,0,0,0,.25.51,1.17,1.17,0,0,0,.41.32,1.42,1.42,0,0,0,.55.11,1.77,1.77,0,0,0,.94-.26,2.42,2.42,0,0,0,.7-.69,3.43,3.43,0,0,0,.44-1A4.2,4.2,0,0,0,125,63.64Z"/><path d="M135,65.53c0,.12,0,.27-.08.45l-.06.53c0,.18,0,.34-.05.5a2.71,2.71,0,0,0,0,.36h-1c0-.06,0-.15,0-.26s0-.23,0-.35,0-.24,0-.35,0-.2,0-.27h0q-.21.33-.42.6a2.59,2.59,0,0,1-.45.43,1.66,1.66,0,0,1-.49.26,1.81,1.81,0,0,1-.58.09,1.75,1.75,0,0,1-.74-.15,1.48,1.48,0,0,1-.56-.43,2,2,0,0,1-.36-.7,3.52,3.52,0,0,1-.12-1,4.81,4.81,0,0,1,.09-.9,5.12,5.12,0,0,1,.28-.92,4.26,4.26,0,0,1,.49-.85,3.1,3.1,0,0,1,.69-.71,3.17,3.17,0,0,1,.93-.49,3.89,3.89,0,0,1,1.17-.17,4,4,0,0,1,.61,0l.48.09.61-2.87h1Zm-.25-3.34a3.43,3.43,0,0,0-.46-.11,4.41,4.41,0,0,0-.52,0,2.5,2.5,0,0,0-.9.15,2.25,2.25,0,0,0-.68.43,2.19,2.19,0,0,0-.49.6,4,4,0,0,0-.48,1.39,3.41,3.41,0,0,0,0,.61,2.8,2.8,0,0,0,0,.6,1.38,1.38,0,0,0,.18.46.94.94,0,0,0,.33.3,1,1,0,0,0,.48.11,1.3,1.3,0,0,0,.55-.12,1.94,1.94,0,0,0,.47-.34,2.48,2.48,0,0,0,.41-.49,4.61,4.61,0,0,0,.33-.58c.09-.21.18-.42.25-.63s.12-.42.16-.61Z"/><path d="M141.82,62.78a1.79,1.79,0,0,1-.21.86,1.68,1.68,0,0,1-.7.67,4,4,0,0,1-1.28.43,10.79,10.79,0,0,1-2,.16.57.57,0,0,0,0,.13v.12a2,2,0,0,0,.09.6,1.37,1.37,0,0,0,.27.49,1.39,1.39,0,0,0,.47.34,1.85,1.85,0,0,0,.69.12,2.75,2.75,0,0,0,.89-.16,3.7,3.7,0,0,0,.92-.44l-.18,1a4.34,4.34,0,0,1-.77.33,3.33,3.33,0,0,1-1,.14,2.67,2.67,0,0,1-1.12-.21,2,2,0,0,1-.73-.54,2.08,2.08,0,0,1-.4-.8,3.56,3.56,0,0,1-.12-.94,4.17,4.17,0,0,1,.11-1,4.26,4.26,0,0,1,.33-.91,4.16,4.16,0,0,1,.52-.77,3.38,3.38,0,0,1,.66-.6,3.13,3.13,0,0,1,.78-.38,2.71,2.71,0,0,1,.86-.13,2.57,2.57,0,0,1,.82.12,1.63,1.63,0,0,1,.59.34,1.33,1.33,0,0,1,.36.49A1.53,1.53,0,0,1,141.82,62.78Zm-1,0a.69.69,0,0,0-.27-.58,1.14,1.14,0,0,0-.72-.2,1.65,1.65,0,0,0-.69.15,2.16,2.16,0,0,0-.62.43,2.71,2.71,0,0,0-.49.65,3.47,3.47,0,0,0-.3.82,9.64,9.64,0,0,0,1.43-.09,3.33,3.33,0,0,0,.95-.25,1.23,1.23,0,0,0,.54-.4A.86.86,0,0,0,140.84,62.83Z"/><path d="M51.36,77a2.08,2.08,0,0,0-.6-.36,1.92,1.92,0,0,0-.77-.15,1.73,1.73,0,0,0-.73.14,2,2,0,0,0-.57.37,2.54,2.54,0,0,0-.44.54,3.64,3.64,0,0,0-.3.63,5.33,5.33,0,0,0-.17.66,3.23,3.23,0,0,0-.05.6,1.92,1.92,0,0,0,.36,1.27,1.27,1.27,0,0,0,1,.44,2.33,2.33,0,0,0,.8-.16,4,4,0,0,0,.79-.42l-.21,1a3.45,3.45,0,0,1-.75.32,2.67,2.67,0,0,1-.8.12,2.19,2.19,0,0,1-1-.19,1.93,1.93,0,0,1-.68-.51,2.22,2.22,0,0,1-.4-.78,3.34,3.34,0,0,1-.14-1,5.23,5.23,0,0,1,.1-1,4.32,4.32,0,0,1,.3-.9,3.7,3.7,0,0,1,.48-.79,3,3,0,0,1,.66-.62,3,3,0,0,1,.83-.42,3.43,3.43,0,0,1,1-.14,3.64,3.64,0,0,1,.48,0c.15,0,.29.06.42.09l.33.13a1.44,1.44,0,0,1,.23.13Z"/><path d="M57.39,78a5,5,0,0,1-.23,1.51,4,4,0,0,1-.65,1.26,3.1,3.1,0,0,1-1,.84,2.91,2.91,0,0,1-1.37.32,2.52,2.52,0,0,1-.93-.17,1.77,1.77,0,0,1-.7-.47,2.19,2.19,0,0,1-.45-.74,3,3,0,0,1-.15-1A4.82,4.82,0,0,1,52.12,78a3.82,3.82,0,0,1,.66-1.25,3.21,3.21,0,0,1,1-.83,2.91,2.91,0,0,1,1.32-.3,2.52,2.52,0,0,1,.93.16,2,2,0,0,1,.7.47,2.11,2.11,0,0,1,.46.75A3,3,0,0,1,57.39,78Zm-1,.05a2.38,2.38,0,0,0-.09-.68,1.58,1.58,0,0,0-.26-.5,1.39,1.39,0,0,0-.41-.31,1.33,1.33,0,0,0-.54-.1,1.69,1.69,0,0,0-.94.26,2.55,2.55,0,0,0-.7.69,3.49,3.49,0,0,0-.44,1,4.27,4.27,0,0,0-.16,1.12,2.19,2.19,0,0,0,.09.66,1.75,1.75,0,0,0,.26.51,1.17,1.17,0,0,0,.41.32,1.38,1.38,0,0,0,.55.11,1.77,1.77,0,0,0,.94-.26,2.42,2.42,0,0,0,.7-.69,3.43,3.43,0,0,0,.44-1A4.2,4.2,0,0,0,56.4,78Z"/><path d="M64,77.27a1.15,1.15,0,0,1,0,.24c0,.1,0,.21-.05.33l-.06.35c0,.11-.05.21-.07.29l-.69,3.29h-1l.74-3.51c0-.07,0-.14,0-.22a1.87,1.87,0,0,0,0-.25.89.89,0,0,0,0-.22,1.37,1.37,0,0,0,0-.16,1.11,1.11,0,0,0-.22-.71.77.77,0,0,0-.63-.25,1.48,1.48,0,0,0-.77.22,3.23,3.23,0,0,0-.7.58,4.28,4.28,0,0,0-.56.78,2.92,2.92,0,0,0-.31.81l-.63,2.93h-1l.92-4.28c0-.15.07-.31.1-.48l.09-.48c0-.15.05-.3.07-.43s0-.24,0-.33h.94c0,.15,0,.31-.07.48s-.05.32-.07.46-.05.32-.08.48h0a5.32,5.32,0,0,1,.45-.61,3.52,3.52,0,0,1,.54-.49,2.21,2.21,0,0,1,.62-.34,1.91,1.91,0,0,1,.68-.12,1.76,1.76,0,0,1,.68.12,1.25,1.25,0,0,1,.76.85A2.41,2.41,0,0,1,64,77.27Z"/><path d="M68.63,76.59H67.12l-.67,3.18a3.91,3.91,0,0,0-.07.39,1.61,1.61,0,0,0,0,.34.58.58,0,0,0,.13.43.57.57,0,0,0,.42.13.62.62,0,0,0,.18,0L67.3,81l.23-.08a1.38,1.38,0,0,0,.2-.08l-.18.85a3.56,3.56,0,0,1-.46.15,2.27,2.27,0,0,1-.5.06,1.62,1.62,0,0,1-.57-.09,1,1,0,0,1-.38-.24,1,1,0,0,1-.22-.38,2,2,0,0,1-.06-.51,3.15,3.15,0,0,1,0-.4c0-.15,0-.28.08-.41l.69-3.26h-1l.18-.82h1l.31-1.46.18-.06.34-.1.34-.1.17,0-.37,1.77h1.51Z"/><path d="M74.09,77.18a1.79,1.79,0,0,1-.21.86,1.75,1.75,0,0,1-.7.67,4,4,0,0,1-1.28.43,10.79,10.79,0,0,1-2,.16.57.57,0,0,0,0,.13v.12a2,2,0,0,0,.09.6,1.37,1.37,0,0,0,.27.49,1.34,1.34,0,0,0,.48.34,1.76,1.76,0,0,0,.68.12,2.75,2.75,0,0,0,.89-.16,3.7,3.7,0,0,0,.92-.44l-.18,1a4.55,4.55,0,0,1-.76.33,3.45,3.45,0,0,1-1,.14,2.7,2.7,0,0,1-1.12-.21,2,2,0,0,1-.73-.54,2.08,2.08,0,0,1-.4-.8,3.56,3.56,0,0,1-.12-.94,4.74,4.74,0,0,1,.11-1,4.26,4.26,0,0,1,.33-.91,4.16,4.16,0,0,1,.52-.77,3.38,3.38,0,0,1,.66-.6,3.13,3.13,0,0,1,.78-.38,2.76,2.76,0,0,1,.86-.13,2.57,2.57,0,0,1,.82.12,1.63,1.63,0,0,1,.59.34,1.33,1.33,0,0,1,.36.49A1.53,1.53,0,0,1,74.09,77.18Zm-1,0a.69.69,0,0,0-.27-.58,1.14,1.14,0,0,0-.72-.2,1.65,1.65,0,0,0-.69.15,2.16,2.16,0,0,0-.62.43,2.71,2.71,0,0,0-.49.65,3.06,3.06,0,0,0-.29.82,9.59,9.59,0,0,0,1.42-.09,3.7,3.7,0,0,0,1-.25,1.23,1.23,0,0,0,.54-.4A.86.86,0,0,0,73.11,77.23Z"/><path d="M80.45,77.27c0,.06,0,.14,0,.24s0,.21-.05.33,0,.23-.07.35,0,.21-.06.29l-.7,3.29h-1l.73-3.51c0-.07,0-.14,0-.22a1.87,1.87,0,0,0,0-.25l0-.22a1,1,0,0,0,0-.16,1.11,1.11,0,0,0-.21-.71.79.79,0,0,0-.64-.25,1.51,1.51,0,0,0-.77.22,3.78,3.78,0,0,0-.7.58,4.23,4.23,0,0,0-.55.78,3,3,0,0,0-.32.81l-.62,2.93h-1l.93-4.28q0-.22.09-.48c0-.16.06-.32.09-.48s0-.3.07-.43,0-.24,0-.33h.94c0,.15,0,.31-.07.48s0,.32-.07.46-.05.32-.08.48h0a5.41,5.41,0,0,1,.46-.61,2.79,2.79,0,0,1,.54-.49,2.31,2.31,0,0,1,.61-.34,2,2,0,0,1,.68-.12,1.78,1.78,0,0,1,.69.12,1.37,1.37,0,0,1,.48.33,1.53,1.53,0,0,1,.28.52A2.41,2.41,0,0,1,80.45,77.27Z"/><path d="M86.68,77.18a1.79,1.79,0,0,1-.21.86,1.81,1.81,0,0,1-.7.67,4,4,0,0,1-1.28.43,10.79,10.79,0,0,1-2,.16.57.57,0,0,0,0,.13v.12a2.35,2.35,0,0,0,.08.6,1.26,1.26,0,0,0,.28.49,1.39,1.39,0,0,0,.47.34,1.78,1.78,0,0,0,.69.12,2.75,2.75,0,0,0,.89-.16,3.7,3.7,0,0,0,.92-.44l-.18,1a4.68,4.68,0,0,1-.77.33,3.43,3.43,0,0,1-1,.14,2.63,2.63,0,0,1-1.12-.21,1.94,1.94,0,0,1-.73-.54,2.08,2.08,0,0,1-.4-.8,3.19,3.19,0,0,1-.13-.94,4.17,4.17,0,0,1,.12-1,4.26,4.26,0,0,1,.33-.91,3.68,3.68,0,0,1,.51-.77,3.17,3.17,0,0,1,.67-.6,3.25,3.25,0,0,1,.77-.38,2.82,2.82,0,0,1,.87-.13,2.51,2.51,0,0,1,.81.12,1.62,1.62,0,0,1,1,.83A1.53,1.53,0,0,1,86.68,77.18Zm-1,0a.69.69,0,0,0-.27-.58,1.17,1.17,0,0,0-.73-.2,1.68,1.68,0,0,0-.69.15,2.12,2.12,0,0,0-.61.43,2.71,2.71,0,0,0-.49.65,2.77,2.77,0,0,0-.3.82A9.64,9.64,0,0,0,84,78.41a3.81,3.81,0,0,0,.95-.25,1.23,1.23,0,0,0,.54-.4A.93.93,0,0,0,85.7,77.23Z"/><path d="M92.19,79.93a3.4,3.4,0,0,0-.08.45c0,.17,0,.35-.07.53s0,.34-.05.5,0,.28,0,.36H91c0-.06,0-.15,0-.26l0-.35c0-.12,0-.24,0-.35s0-.2,0-.27h0q-.21.33-.42.6a3,3,0,0,1-.44.43,1.71,1.71,0,0,1-.5.26,1.81,1.81,0,0,1-.58.09,1.78,1.78,0,0,1-.74-.15,1.56,1.56,0,0,1-.56-.43,2,2,0,0,1-.35-.7,3.16,3.16,0,0,1-.13-1,4.81,4.81,0,0,1,.09-.9,5.16,5.16,0,0,1,.29-.92,3.78,3.78,0,0,1,.48-.85,3.38,3.38,0,0,1,1.62-1.2,4.29,4.29,0,0,1,1.78-.13l.48.09.61-2.87h1Zm-.26-3.34a3.1,3.1,0,0,0-.46-.11,4.28,4.28,0,0,0-.52,0,2.5,2.5,0,0,0-.9.15,2.25,2.25,0,0,0-.68.43,2.62,2.62,0,0,0-.49.6A4,4,0,0,0,88.4,79a3.41,3.41,0,0,0-.05.61,3.64,3.64,0,0,0,.05.6,1.27,1.27,0,0,0,.19.46.84.84,0,0,0,.32.3,1,1,0,0,0,.48.11,1.26,1.26,0,0,0,.55-.12,2.21,2.21,0,0,0,.48-.34,2.84,2.84,0,0,0,.4-.49,4.61,4.61,0,0,0,.33-.58,5.4,5.4,0,0,0,.41-1.24Z"/><path d="M99.38,78a5,5,0,0,1-.23,1.51,4,4,0,0,1-.65,1.26,3.1,3.1,0,0,1-1,.84,2.94,2.94,0,0,1-1.37.32,2.52,2.52,0,0,1-.93-.17,1.77,1.77,0,0,1-.7-.47,2,2,0,0,1-.45-.74,3,3,0,0,1-.15-1A5.12,5.12,0,0,1,94.1,78a4,4,0,0,1,.67-1.25,3.17,3.17,0,0,1,1-.83,3,3,0,0,1,1.33-.3,2.43,2.43,0,0,1,.92.16,2,2,0,0,1,.71.47,2,2,0,0,1,.45.75A2.76,2.76,0,0,1,99.38,78Zm-1,.05a2.38,2.38,0,0,0-.09-.68,1.6,1.6,0,0,0-.27-.5,1.27,1.27,0,0,0-.41-.31,1.33,1.33,0,0,0-.54-.1,1.68,1.68,0,0,0-.93.26,2.55,2.55,0,0,0-.7.69,3.49,3.49,0,0,0-.44,1,3.89,3.89,0,0,0-.16,1.12,2.19,2.19,0,0,0,.09.66,1.53,1.53,0,0,0,.26.51,1.17,1.17,0,0,0,.41.32,1.38,1.38,0,0,0,.55.11,1.77,1.77,0,0,0,.94-.26,2.55,2.55,0,0,0,.7-.69,3.43,3.43,0,0,0,.44-1A4.2,4.2,0,0,0,98.39,78Z"/><path d="M104.32,76.79h0a1.86,1.86,0,0,0-.31-.14,1.26,1.26,0,0,0-.38-.06,1.11,1.11,0,0,0-.65.22,2.22,2.22,0,0,0-.56.58,4.25,4.25,0,0,0-.45.82,6.17,6.17,0,0,0-.3,1l-.56,2.61h-1l.85-4c0-.17.07-.34.1-.52s.07-.36.1-.54,0-.35.08-.51,0-.32,0-.45h1c0,.12,0,.24,0,.37s0,.26,0,.38,0,.24,0,.34,0,.18,0,.23h0c.13-.22.25-.42.38-.6a2.67,2.67,0,0,1,.41-.46,1.61,1.61,0,0,1,.45-.3,1.32,1.32,0,0,1,.53-.1l.32,0,.29.07Z"/><path d="M113.44,77.87a5.18,5.18,0,0,1-.08.85,4.89,4.89,0,0,1-.27.9,4.54,4.54,0,0,1-.46.87,3.14,3.14,0,0,1-.68.73,3.35,3.35,0,0,1-.91.51,3.6,3.6,0,0,1-1.18.19,3.48,3.48,0,0,1-.55,0,5,5,0,0,1-.56-.11,3,3,0,0,1-.53-.17,2.2,2.2,0,0,1-.46-.23l1.81-8.48h1l-.61,2.87c0,.19-.08.39-.13.6s-.09.4-.13.57h0a4.73,4.73,0,0,1,.4-.54,2.22,2.22,0,0,1,.46-.41,1.69,1.69,0,0,1,.52-.26,1.89,1.89,0,0,1,.6-.09,1.59,1.59,0,0,1,1.32.58A2.6,2.6,0,0,1,113.44,77.87Zm-1,0a2.77,2.77,0,0,0-.06-.6,1.27,1.27,0,0,0-.19-.46.84.84,0,0,0-.34-.28,1.06,1.06,0,0,0-.5-.1,1.3,1.3,0,0,0-.7.21,2.64,2.64,0,0,0-.63.58,3.77,3.77,0,0,0-.48.81,3.81,3.81,0,0,0-.3.92l-.39,1.86a1.8,1.8,0,0,0,.5.19,2.57,2.57,0,0,0,.62.08,2.05,2.05,0,0,0,1.38-.52,2.29,2.29,0,0,0,.48-.55,3.6,3.6,0,0,0,.34-.68,4.38,4.38,0,0,0,.21-.73A4.59,4.59,0,0,0,112.45,77.89Z"/><path d="M119.21,79.85c0,.15-.06.32-.09.5s-.06.37-.08.55,0,.35-.05.51,0,.28,0,.36h-1c0-.08,0-.17,0-.28l0-.34c0-.12,0-.23,0-.34s0-.22,0-.3h0q-.18.28-.36.54a3,3,0,0,1-.42.45,1.88,1.88,0,0,1-.51.31,2,2,0,0,1-1.38,0,1.65,1.65,0,0,1-.56-.42,1.86,1.86,0,0,1-.36-.7,3.5,3.5,0,0,1-.13-1,5.91,5.91,0,0,1,.07-.78,5,5,0,0,1,.24-.88,4.07,4.07,0,0,1,.45-.88,3,3,0,0,1,.69-.77,3.27,3.27,0,0,1,1-.55,3.74,3.74,0,0,1,1.3-.2,6.42,6.42,0,0,1,1,.07c.33,0,.66.1,1,.17Zm-.28-3.29a4,4,0,0,0-.48-.08l-.51,0a2.29,2.29,0,0,0-.9.16,2,2,0,0,0-.68.42,2.35,2.35,0,0,0-.48.6,3.49,3.49,0,0,0-.31.69,3.75,3.75,0,0,0-.17.7,5,5,0,0,0-.05.63,2.77,2.77,0,0,0,.06.6,1.47,1.47,0,0,0,.18.46,1,1,0,0,0,.32.29,1.12,1.12,0,0,0,.47.1,1.26,1.26,0,0,0,.55-.12,1.87,1.87,0,0,0,.48-.33,2.67,2.67,0,0,0,.4-.47,5.3,5.3,0,0,0,.33-.57,4.73,4.73,0,0,0,.25-.62,5.39,5.39,0,0,0,.16-.6Z"/><path d="M124.66,76.83a2.29,2.29,0,0,0-.59-.28,2.16,2.16,0,0,0-.66-.1,1.27,1.27,0,0,0-.85.25.83.83,0,0,0-.3.67,1.06,1.06,0,0,0,0,.31.83.83,0,0,0,.17.26,1.31,1.31,0,0,0,.27.25l.39.25a3,3,0,0,1,.94.78,1.48,1.48,0,0,1,.29.91,1.92,1.92,0,0,1-.12.66,1.44,1.44,0,0,1-.41.57,2.11,2.11,0,0,1-.71.41,3.26,3.26,0,0,1-1.06.15l-.39,0a3.1,3.1,0,0,1-.42-.08,2.75,2.75,0,0,1-.41-.11,2.3,2.3,0,0,1-.35-.15l.2-.92a1.85,1.85,0,0,0,.29.17l.37.14.43.11a3.13,3.13,0,0,0,.43,0,1.38,1.38,0,0,0,.88-.24.79.79,0,0,0,.29-.65.87.87,0,0,0,0-.28,1,1,0,0,0-.15-.26,2.62,2.62,0,0,0-.29-.26l-.46-.29a3,3,0,0,1-.88-.76,1.48,1.48,0,0,1-.29-.89,1.82,1.82,0,0,1,.14-.7,1.55,1.55,0,0,1,.4-.58,2,2,0,0,1,.67-.41,2.69,2.69,0,0,1,.94-.15,3.45,3.45,0,0,1,.8.08,2.4,2.4,0,0,1,.64.21Z"/><path d="M130.65,77.18a1.79,1.79,0,0,1-.21.86,1.81,1.81,0,0,1-.7.67,4,4,0,0,1-1.28.43,10.87,10.87,0,0,1-2,.16.57.57,0,0,0,0,.13v.12a2,2,0,0,0,.08.6,1.26,1.26,0,0,0,.28.49,1.39,1.39,0,0,0,.47.34,1.78,1.78,0,0,0,.69.12,2.8,2.8,0,0,0,.89-.16,3.7,3.7,0,0,0,.92-.44l-.18,1a4.68,4.68,0,0,1-.77.33,3.45,3.45,0,0,1-1,.14,2.62,2.62,0,0,1-1.11-.21,1.94,1.94,0,0,1-.73-.54,2.25,2.25,0,0,1-.41-.8,3.56,3.56,0,0,1-.12-.94,4.17,4.17,0,0,1,.12-1,4.26,4.26,0,0,1,.33-.91,3.68,3.68,0,0,1,.51-.77,3.38,3.38,0,0,1,.66-.6,3.51,3.51,0,0,1,.78-.38,2.8,2.8,0,0,1,.86-.13,2.53,2.53,0,0,1,.82.12,1.48,1.48,0,0,1,.59.34,1.33,1.33,0,0,1,.36.49A1.38,1.38,0,0,1,130.65,77.18Zm-1,0a.69.69,0,0,0-.27-.58,1.19,1.19,0,0,0-.73-.2,1.65,1.65,0,0,0-.69.15,2.12,2.12,0,0,0-.61.43,2.71,2.71,0,0,0-.49.65,2.77,2.77,0,0,0-.3.82,9.49,9.49,0,0,0,1.42-.09,3.78,3.78,0,0,0,1-.25,1.23,1.23,0,0,0,.54-.4A.93.93,0,0,0,129.67,77.23Z"/></g></svg>