<svg xmlns="http://www.w3.org/2000/svg" viewBox="0 0 407 155"><defs><style>.cls-1{fill:#fff;}.cls-2,.cls-5,.cls-9{fill:#3c3c41;}.cls-2{opacity:0.1;}.cls-14,.cls-2,.cls-3,.cls-5,.cls-6,.cls-7{isolation:isolate;}.cls-10,.cls-3{fill:#50e6ff;}.cls-3{opacity:0.05;}.cls-15,.cls-4,.cls-8{fill:none;}.cls-4{stroke:#0072c6;}.cls-15,.cls-4{stroke-width:0.5px;}.cls-5{opacity:0.15;}.cls-6,.cls-7{fill:#0072c6;}.cls-6{opacity:0.35;}.cls-7{opacity:0.45;}.cls-8{stroke:#3c3c41;}.cls-11{fill:#0072c5;}.cls-12{fill:#3bcaf4;}.cls-13{fill:#0078d4;}.cls-14{fill:#75757a;opacity:0.5;}.cls-15{stroke:#231f20;}</style></defs><title>OJ104601304</title><g id="Layer_1" data-name="Layer 1"><g id="Shapes"><g id="Group"><rect id="Rectangle-path" class="cls-1" width="406.25" height="155"/><rect class="cls-2" width="406.25" height="155"/></g><rect class="cls-1" x="5.63" y="25" width="395" height="125"/><rect class="cls-3" x="5.63" y="25" width="395" height="125"/><rect class="cls-4" x="5.63" y="25" width="395" height="125"/><rect class="cls-1" x="16.25" y="55" width="145" height="80"/><rect class="cls-5" x="16.25" y="55" width="145" height="80"/><rect class="cls-1" x="26.25" y="90" width="125" height="35"/><rect class="cls-6" x="26.25" y="90" width="125" height="35"/><rect class="cls-1" x="231.25" y="55" width="125" height="35"/><rect class="cls-7" x="231.25" y="55" width="125" height="35"/><path id="Shape" class="cls-8" d="M151.25,110h35a5,5,0,0,0,5-5V77.5a5,5,0,0,1,5-5h29.62"/><polygon class="cls-9" points="224.77 76.24 231.25 72.5 224.77 68.76 224.77 76.24"/><path class="cls-8" d="M259.28,95.38v14.24"/><polygon class="cls-9" points="255.54 96.48 259.28 90 263.02 96.48 255.54 96.48"/><polygon class="cls-9" points="255.54 108.52 259.28 115 263.02 108.52 255.54 108.52"/><path class="cls-10" d="M248.32,120v21c0,2.16,4.87,4,10.9,4V120Z"/><path class="cls-11" d="M259.1,145h.18c6,0,10.9-1.76,10.9-4V120H259.1Z"/><path class="cls-12" d="M259,145h.17c6.09,0,11.07-1.76,11.07-4V119.93H259Z"/><path class="cls-1" d="M270.17,120c0,2.17-4.86,4-10.89,4s-10.9-1.76-10.9-4,4.86-4,10.9-4S270.17,117.82,270.17,120Z"/><path class="cls-13" d="M268,119.75c0,1.46-3.87,2.63-8.67,2.63s-8.67-1.17-8.67-2.63,3.86-2.64,8.67-2.64S268,118.28,268,119.75Z"/><path class="cls-12" d="M266.13,121.33c1.12-.47,1.82-1,1.82-1.58,0-1.47-3.87-2.64-8.67-2.64s-8.67,1.17-8.67,2.64c0,.58.7,1.17,1.81,1.58a20,20,0,0,1,6.86-1A21,21,0,0,1,266.13,121.33Z"/><path class="cls-8" d="M329.6,95.38v14.24"/><polygon class="cls-9" points="325.86 96.48 329.6 90 333.34 96.48 325.86 96.48"/><polygon class="cls-9" points="325.86 108.52 329.6 115 333.34 108.52 325.86 108.52"/><rect class="cls-1" x="313.31" y="124.52" width="32.59" height="5.93"/><rect class="cls-14" x="313.31" y="124.52" width="32.59" height="5.93"/><rect class="cls-15" x="313.31" y="124.52" width="32.59" height="5.93"/><rect class="cls-1" x="313.31" y="118.5" width="32.59" height="5.93"/><rect class="cls-14" x="313.31" y="118.5" width="32.59" height="5.93"/><rect class="cls-15" x="313.31" y="118.5" width="32.59" height="5.93"/><rect class="cls-1" x="313.31" y="136.57" width="32.59" height="5.93"/><rect class="cls-14" x="313.31" y="136.57" width="32.59" height="5.93"/><rect class="cls-15" x="313.31" y="136.57" width="32.59" height="5.93"/><rect class="cls-1" x="313.31" y="130.55" width="32.59" height="5.93"/><rect class="cls-14" x="313.31" y="130.55" width="32.59" height="5.93"/><rect class="cls-15" x="313.31" y="130.55" width="32.59" height="5.93"/></g></g><g id="text"><path d="M129,15.77V13.9a3.72,3.72,0,0,0,1.1.64,3.63,3.63,0,0,0,1.21.21,2.93,2.93,0,0,0,.63-.06,1.35,1.35,0,0,0,.44-.18.7.7,0,0,0,.27-.27.63.63,0,0,0,.08-.34.65.65,0,0,0-.14-.43,1.47,1.47,0,0,0-.38-.36,3.43,3.43,0,0,0-.58-.32l-.72-.31a3.8,3.8,0,0,1-1.47-1,2.21,2.21,0,0,1-.48-1.43,2.25,2.25,0,0,1,.27-1.13,2.18,2.18,0,0,1,.71-.77,3.09,3.09,0,0,1,1-.45,5.2,5.2,0,0,1,1.27-.15,7.82,7.82,0,0,1,1.16.08,5.16,5.16,0,0,1,.94.25V9.63a2.59,2.59,0,0,0-.46-.26,3.45,3.45,0,0,0-.51-.18,3.58,3.58,0,0,0-.53-.11,2.85,2.85,0,0,0-.49,0,2.68,2.68,0,0,0-.59.06,1.41,1.41,0,0,0-.45.18.88.88,0,0,0-.28.26.69.69,0,0,0,0,.73,1.38,1.38,0,0,0,.32.32,3.69,3.69,0,0,0,.5.29l.66.29a7,7,0,0,1,.91.45,3.75,3.75,0,0,1,.69.54,2.12,2.12,0,0,1,.43.68,2.28,2.28,0,0,1,.16.89,2.41,2.41,0,0,1-.27,1.19,2.31,2.31,0,0,1-.72.77,3,3,0,0,1-1.07.42,5.85,5.85,0,0,1-1.28.13,7.8,7.8,0,0,1-1.31-.11A3.8,3.8,0,0,1,129,15.77Z"/><path d="M136.89,9.15a1.1,1.1,0,0,1-.77-.28.9.9,0,0,1-.3-.68.85.85,0,0,1,.3-.68,1.1,1.1,0,0,1,.77-.27,1.11,1.11,0,0,1,.77.27.88.88,0,0,1,.29.68.91.91,0,0,1-.29.69A1.11,1.11,0,0,1,136.89,9.15Zm.91,7H136v-6h1.85Z"/><path d="M139,15.94v-1.5a3.5,3.5,0,0,0,.91.41,3,3,0,0,0,.86.13,1.78,1.78,0,0,0,.77-.13.43.43,0,0,0,.29-.41.38.38,0,0,0-.13-.29,1.33,1.33,0,0,0-.33-.21,4.72,4.72,0,0,0-.45-.16l-.46-.16a6.24,6.24,0,0,1-.63-.28,2,2,0,0,1-.46-.34,1.48,1.48,0,0,1-.28-.45,1.91,1.91,0,0,1-.09-.63,1.54,1.54,0,0,1,.22-.85,1.64,1.64,0,0,1,.58-.56,2.72,2.72,0,0,1,.84-.32,5.18,5.18,0,0,1,1-.09h2.65V8.8l1.84-.53V10.1h1.35v1.36h-1.35v2.43q0,.93.75.93a1.17,1.17,0,0,0,.6-.17V16a2.78,2.78,0,0,1-1.23.21,1.76,1.76,0,0,1-2-2V11.46h-2.92a1.2,1.2,0,0,0-.28,0,.35.35,0,0,0-.19.1.24.24,0,0,0-.07.19.33.33,0,0,0,.1.24.85.85,0,0,0,.28.18,2.77,2.77,0,0,0,.38.14l.41.14a5.19,5.19,0,0,1,.67.28,1.94,1.94,0,0,1,.51.36,1.37,1.37,0,0,1,.33.48,1.8,1.8,0,0,1,.11.65,1.77,1.77,0,0,1-.23.92,1.81,1.81,0,0,1-.62.61,2.65,2.65,0,0,1-.88.34,4.42,4.42,0,0,1-1,.11A5.36,5.36,0,0,1,139,15.94Z"/><path d="M153.87,13.62H150c.06.87.61,1.31,1.65,1.31a3.24,3.24,0,0,0,1.74-.47V15.8a4.68,4.68,0,0,1-2.16.44,3.09,3.09,0,0,1-2.26-.8,3.08,3.08,0,0,1-.8-2.25,3.2,3.2,0,0,1,.87-2.37,2.87,2.87,0,0,1,2.13-.87,2.63,2.63,0,0,1,2,.78,3,3,0,0,1,.72,2.11Zm-1.72-1.13c0-.86-.35-1.29-1-1.29a1,1,0,0,0-.77.37,1.65,1.65,0,0,0-.4.92Z"/><path d="M164.5,16.1h-1.85V12.67c0-.87-.32-1.3-1-1.3a.9.9,0,0,0-.75.39,1.62,1.62,0,0,0-.28,1V16.1h-1.85V12.64c0-.85-.32-1.27-.95-1.27a.91.91,0,0,0-.76.37,1.65,1.65,0,0,0-.28,1V16.1H155v-6h1.85V11h0a2.17,2.17,0,0,1,.81-.78,2.2,2.2,0,0,1,1.13-.3,1.72,1.72,0,0,1,1.74,1.12,2.22,2.22,0,0,1,2-1.12c1.3,0,2,.8,2,2.41Z"/><path d="M171,16.1H169.2v-.87h0a2,2,0,0,1-1.79,1,1.85,1.85,0,0,1-1.37-.49,1.76,1.76,0,0,1-.51-1.32c0-1.17.69-1.84,2.07-2l1.63-.22c0-.65-.35-1-1.06-1a3.59,3.59,0,0,0-2,.64v-1.4a4.57,4.57,0,0,1,1-.35,5.71,5.71,0,0,1,1.23-.15A2.26,2.26,0,0,1,171,12.51Zm-1.74-2.44v-.41l-1.09.15q-.9.11-.9.81a.67.67,0,0,0,.22.52.86.86,0,0,0,.59.2,1.08,1.08,0,0,0,.85-.36A1.29,1.29,0,0,0,169.21,13.66Z"/><path d="M178.59,16.24a3.23,3.23,0,0,1-2.36-.84,3.05,3.05,0,0,1-.86-2.28,3.07,3.07,0,0,1,.89-2.33,3.37,3.37,0,0,1,2.41-.84,3.16,3.16,0,0,1,2.34.84,3,3,0,0,1,.85,2.22,3.2,3.2,0,0,1-.87,2.37A3.31,3.31,0,0,1,178.59,16.24Zm0-4.87a1.26,1.26,0,0,0-1,.45,2,2,0,0,0-.36,1.28c0,1.15.47,1.72,1.4,1.72s1.33-.59,1.33-1.77S179.53,11.37,178.63,11.37Z"/><path d="M184.94,15.4h0v3.46h-1.86V10.1h1.86V11h0a2.36,2.36,0,0,1,3.73-.25,3.43,3.43,0,0,1,.63,2.18,3.63,3.63,0,0,1-.74,2.4,2.4,2.4,0,0,1-2,.91A1.87,1.87,0,0,1,184.94,15.4Zm-.05-2.46v.48a1.57,1.57,0,0,0,.32,1,1.08,1.08,0,0,0,.87.39,1.15,1.15,0,0,0,1-.48,2.4,2.4,0,0,0,.35-1.39c0-1-.41-1.58-1.24-1.58a1.14,1.14,0,0,0-.92.43A1.73,1.73,0,0,0,184.89,12.94Z"/><path d="M195.9,13.62H192c.06.87.61,1.31,1.65,1.31a3.24,3.24,0,0,0,1.74-.47V15.8a4.68,4.68,0,0,1-2.16.44,3.09,3.09,0,0,1-2.26-.8,3.08,3.08,0,0,1-.8-2.25,3.24,3.24,0,0,1,.86-2.37,2.9,2.9,0,0,1,2.14-.87,2.63,2.63,0,0,1,2,.78,3,3,0,0,1,.72,2.11Zm-1.72-1.13c0-.86-.35-1.29-1-1.29a1,1,0,0,0-.77.37,1.65,1.65,0,0,0-.4.92Z"/><path d="M200.91,11.77a1.61,1.61,0,0,0-.78-.19,1.12,1.12,0,0,0-.94.45,1.88,1.88,0,0,0-.34,1.2V16.1H197v-6h1.85v1.11h0A1.61,1.61,0,0,1,200.45,10a1.14,1.14,0,0,1,.46.07Z"/><path d="M206.76,16.1H205v-.87h0a1.94,1.94,0,0,1-1.79,1,1.85,1.85,0,0,1-1.37-.49,1.75,1.75,0,0,1-.5-1.32c0-1.17.69-1.84,2.07-2l1.62-.22c0-.65-.35-1-1.06-1a3.59,3.59,0,0,0-2,.64v-1.4A4.67,4.67,0,0,1,203,10.1,5.56,5.56,0,0,1,204.2,10a2.26,2.26,0,0,1,2.56,2.56ZM205,13.66v-.41l-1.09.15q-.9.11-.9.81a.71.71,0,0,0,.22.52.89.89,0,0,0,.6.2,1.11,1.11,0,0,0,.85-.36A1.28,1.28,0,0,0,205,13.66Z"/><path d="M211.86,16a2.85,2.85,0,0,1-1.24.21,1.77,1.77,0,0,1-2-2V11.46h-1V10.1h1V8.8l1.85-.53V10.1h1.35v1.36h-1.35v2.43c0,.62.25.93.74.93a1.2,1.2,0,0,0,.61-.17Z"/><path d="M213.84,9.15a1.1,1.1,0,0,1-.77-.28.9.9,0,0,1-.3-.68.85.85,0,0,1,.3-.68,1.1,1.1,0,0,1,.77-.27,1.11,1.11,0,0,1,.77.27.88.88,0,0,1,.29.68.91.91,0,0,1-.29.69A1.11,1.11,0,0,1,213.84,9.15Zm.91,7H212.9v-6h1.85Z"/><path d="M222,10.1l-2.23,6h-2.11l-2.13-6h2l1.05,3.69a6.07,6.07,0,0,1,.2,1.07h0a5.87,5.87,0,0,1,.21-1l1.07-3.73Z"/><path d="M225.56,16.24a3.23,3.23,0,0,1-2.36-.84,3.05,3.05,0,0,1-.86-2.28,3.07,3.07,0,0,1,.89-2.33,3.37,3.37,0,0,1,2.41-.84,3.18,3.18,0,0,1,2.34.84,3,3,0,0,1,.85,2.22,3.2,3.2,0,0,1-.87,2.37A3.31,3.31,0,0,1,225.56,16.24Zm0-4.87a1.26,1.26,0,0,0-1,.45,2,2,0,0,0-.36,1.28c0,1.15.46,1.72,1.39,1.72s1.33-.59,1.33-1.77S226.5,11.37,225.6,11.37Z"/><path d="M239.21,16.1h-1.85v-.83h0a2.07,2.07,0,0,1-1.86,1,2.27,2.27,0,0,1-1.81-.79,3.28,3.28,0,0,1-.68-2.22,3.57,3.57,0,0,1,.75-2.38,2.48,2.48,0,0,1,2-.9,1.69,1.69,0,0,1,1.62.83h0V7.21h1.85Zm-1.81-2.92v-.45a1.48,1.48,0,0,0-.34-1,1.15,1.15,0,0,0-.89-.38,1.12,1.12,0,0,0-1,.48,2.26,2.26,0,0,0-.34,1.33,2,2,0,0,0,.33,1.22,1.11,1.11,0,0,0,.93.42,1.1,1.1,0,0,0,.91-.45A1.86,1.86,0,0,0,237.4,13.18Z"/><path d="M246.16,13.62h-3.91c.06.87.61,1.31,1.65,1.31a3.24,3.24,0,0,0,1.74-.47V15.8a4.7,4.7,0,0,1-2.17.44,3,3,0,0,1-2.25-.8,3,3,0,0,1-.8-2.25,3.2,3.2,0,0,1,.86-2.37,2.9,2.9,0,0,1,2.14-.87,2.63,2.63,0,0,1,2,.78,3,3,0,0,1,.71,2.11Zm-1.71-1.13q0-1.29-1-1.29a1,1,0,0,0-.77.37,1.64,1.64,0,0,0-.39.92Z"/><path d="M249.12,16.1h-1.86V7.21h1.86Z"/><path d="M259.75,16.1H257.9V12.69q0-1.32-1-1.32a1,1,0,0,0-.8.37,1.42,1.42,0,0,0-.3.93V16.1H254V7.21h1.85V11h0a2.11,2.11,0,0,1,1.85-1q2,0,2,2.46Z"/><path d="M264.07,16.24a3.23,3.23,0,0,1-2.36-.84,3.05,3.05,0,0,1-.86-2.28,3.07,3.07,0,0,1,.89-2.33,3.38,3.38,0,0,1,2.41-.84,3.2,3.2,0,0,1,2.35.84,3,3,0,0,1,.84,2.22,3.2,3.2,0,0,1-.87,2.37A3.31,3.31,0,0,1,264.07,16.24Zm.05-4.87a1.23,1.23,0,0,0-1,.45,2,2,0,0,0-.37,1.28c0,1.15.47,1.72,1.4,1.72s1.33-.59,1.33-1.77S265,11.37,264.12,11.37Z"/><path d="M268.15,15.94v-1.5a3.82,3.82,0,0,0,.91.41,3,3,0,0,0,.86.13,1.86,1.86,0,0,0,.78-.13.42.42,0,0,0,.28-.41.35.35,0,0,0-.13-.29,1,1,0,0,0-.33-.21,3.72,3.72,0,0,0-.44-.16l-.46-.16a4.72,4.72,0,0,1-.63-.28,1.83,1.83,0,0,1-.46-.34,1.31,1.31,0,0,1-.28-.45,1.89,1.89,0,0,1-.1-.63,1.63,1.63,0,0,1,.22-.85,1.67,1.67,0,0,1,.59-.56,2.62,2.62,0,0,1,.84-.32,5.18,5.18,0,0,1,1-.09h2.65V8.8l1.84-.53V10.1h1.35v1.36h-1.35v2.43q0,.93.75.93a1.19,1.19,0,0,0,.6-.17V16a2.82,2.82,0,0,1-1.24.21c-1.3,0-1.95-.68-1.95-2V11.46h-2.92a1.14,1.14,0,0,0-.28,0,.42.42,0,0,0-.2.1.27.27,0,0,0-.07.19.34.34,0,0,0,.11.24.91.91,0,0,0,.27.18,3.35,3.35,0,0,0,.38.14l.42.14a5,5,0,0,1,.66.28,2.18,2.18,0,0,1,.52.36,1.23,1.23,0,0,1,.32.48,1.6,1.6,0,0,1,.12.65,1.77,1.77,0,0,1-.23.92,1.9,1.9,0,0,1-.62.61,2.65,2.65,0,0,1-.88.34,4.48,4.48,0,0,1-1,.11A5.42,5.42,0,0,1,268.15,15.94Z"/><path d="M158,43V41.11a3.45,3.45,0,0,0,1.11.64,3.4,3.4,0,0,0,1.21.22,2.72,2.72,0,0,0,.62-.07,1.32,1.32,0,0,0,.45-.18.7.7,0,0,0,.27-.27.73.73,0,0,0,.08-.33.68.68,0,0,0-.14-.44,1.47,1.47,0,0,0-.38-.36,3.87,3.87,0,0,0-.58-.32l-.72-.31a3.63,3.63,0,0,1-1.47-1,2.19,2.19,0,0,1-.48-1.43,2.36,2.36,0,0,1,.26-1.13,2.31,2.31,0,0,1,.72-.77,2.93,2.93,0,0,1,1.05-.45,5.21,5.21,0,0,1,1.27-.14,8,8,0,0,1,1.16.07,5.16,5.16,0,0,1,.94.25v1.75a3.42,3.42,0,0,0-.46-.26,4.56,4.56,0,0,0-.52-.18,3.21,3.21,0,0,0-.52-.11,4.38,4.38,0,0,0-.5,0,2.58,2.58,0,0,0-.58.06,1.56,1.56,0,0,0-.45.18.88.88,0,0,0-.28.26.62.62,0,0,0-.1.35.7.7,0,0,0,.11.38,1.38,1.38,0,0,0,.32.32,3.69,3.69,0,0,0,.5.29c.19.1.41.19.66.3a7.57,7.57,0,0,1,.9.44,3.18,3.18,0,0,1,.69.54,2.15,2.15,0,0,1,.44.68,2.49,2.49,0,0,1,.16.9,2.37,2.37,0,0,1-.27,1.18,2.15,2.15,0,0,1-.73.77,3.07,3.07,0,0,1-1.06.43,6.55,6.55,0,0,1-1.28.12,6.88,6.88,0,0,1-1.31-.11A4.36,4.36,0,0,1,158,43Z"/><path d="M170.36,40.84h-3.92c.07.87.61,1.3,1.65,1.3a3.15,3.15,0,0,0,1.74-.47V43a4.56,4.56,0,0,1-2.16.44,3,3,0,0,1-2.26-.8,3.08,3.08,0,0,1-.8-2.25,3.23,3.23,0,0,1,.87-2.37,2.88,2.88,0,0,1,2.13-.87,2.63,2.63,0,0,1,2,.78,3,3,0,0,1,.72,2.12Zm-1.72-1.14c0-.86-.35-1.29-1-1.29a1,1,0,0,0-.77.37,1.65,1.65,0,0,0-.4.92Z"/><path d="M175.37,39a1.61,1.61,0,0,0-.78-.18,1.11,1.11,0,0,0-.94.44,1.9,1.9,0,0,0-.34,1.2v2.87h-1.85v-6h1.85v1.11h0a1.61,1.61,0,0,1,1.59-1.22,1.32,1.32,0,0,1,.45.07Z"/><path d="M182.43,37.31l-2.24,6h-2.1l-2.13-6h2l1,3.7a5.17,5.17,0,0,1,.21,1.06h0a6,6,0,0,1,.22-1l1.06-3.73Z"/><path d="M184.16,36.36a1.06,1.06,0,0,1-.77-.28.88.88,0,0,1-.3-.68.85.85,0,0,1,.3-.68,1.1,1.1,0,0,1,.77-.27,1.11,1.11,0,0,1,.77.27.88.88,0,0,1,.29.68.91.91,0,0,1-.29.69A1.11,1.11,0,0,1,184.16,36.36Zm.91,7h-1.85v-6h1.85Z"/><path d="M192.5,43.31h-1.85v-.83h0a2.06,2.06,0,0,1-1.85,1,2.26,2.26,0,0,1-1.81-.79,3.28,3.28,0,0,1-.69-2.22,3.54,3.54,0,0,1,.76-2.38,2.45,2.45,0,0,1,2-.9,1.68,1.68,0,0,1,1.61.83h0V34.43h1.85Zm-1.82-2.92v-.45a1.38,1.38,0,0,0-.34-1,1.1,1.1,0,0,0-.88-.39,1.12,1.12,0,0,0-1,.48,2.28,2.28,0,0,0-.35,1.33,1.91,1.91,0,0,0,.34,1.22,1.18,1.18,0,0,0,1.84,0A1.94,1.94,0,0,0,190.68,40.39Z"/><path d="M196.92,43.45a3.23,3.23,0,0,1-2.36-.84,3.47,3.47,0,0,1,0-4.61,3.38,3.38,0,0,1,2.41-.84,3.16,3.16,0,0,1,2.34.84,3,3,0,0,1,.85,2.23,3.19,3.19,0,0,1-.87,2.36A3.27,3.27,0,0,1,196.92,43.45Zm0-4.87a1.26,1.26,0,0,0-1,.45,2,2,0,0,0-.36,1.28c0,1.15.47,1.73,1.4,1.73s1.33-.6,1.33-1.78S197.86,38.58,197,38.58Z"/><path d="M205.31,39a1.63,1.63,0,0,0-.78-.18,1.1,1.1,0,0,0-.94.44,1.9,1.9,0,0,0-.34,1.2v2.87h-1.86v-6h1.86v1.11h0a1.6,1.6,0,0,1,1.58-1.22,1.35,1.35,0,0,1,.46.07Z"/><path d="M209.66,43.31v-8.4h3q4.47,0,4.47,4.09a4.14,4.14,0,0,1-1.22,3.14,4.5,4.5,0,0,1-3.25,1.17Zm1.89-6.86v5.32h.94a2.5,2.5,0,0,0,1.93-.74,2.78,2.78,0,0,0,.7-2,2.51,2.51,0,0,0-.69-1.88,2.65,2.65,0,0,0-2-.69Z"/><path d="M221.19,43.45a3.23,3.23,0,0,1-2.36-.84,3.47,3.47,0,0,1,0-4.61,3.37,3.37,0,0,1,2.41-.84,3.18,3.18,0,0,1,2.34.84,3,3,0,0,1,.85,2.23,3.19,3.19,0,0,1-.87,2.36A3.27,3.27,0,0,1,221.19,43.45Zm0-4.87a1.26,1.26,0,0,0-1,.45,2,2,0,0,0-.36,1.28c0,1.15.47,1.73,1.4,1.73s1.33-.6,1.33-1.78S222.13,38.58,221.23,38.58Z"/><path d="M230.21,43.09a3.69,3.69,0,0,1-1.81.36,3.06,3.06,0,0,1-2.24-.83,2.9,2.9,0,0,1-.85-2.17,3.2,3.2,0,0,1,.91-2.41,3.42,3.42,0,0,1,2.45-.88,3.26,3.26,0,0,1,1.54.28V39a2.11,2.11,0,0,0-1.29-.43,1.68,1.68,0,0,0-1.27.47,1.72,1.72,0,0,0-.46,1.28,1.69,1.69,0,0,0,.44,1.25,1.63,1.63,0,0,0,1.23.46,2.43,2.43,0,0,0,1.35-.44Z"/><path d="M237.43,43.31h-2.22l-1.91-3h0v3h-1.85V34.43h1.85v5.65h0l1.78-2.77h2.2l-2.15,2.82Z"/><path d="M243.35,40.84h-3.91c.06.87.61,1.3,1.64,1.3a3.16,3.16,0,0,0,1.75-.47V43a4.58,4.58,0,0,1-2.17.44,3,3,0,0,1-2.25-.8,3,3,0,0,1-.81-2.25,3.23,3.23,0,0,1,.87-2.37,2.9,2.9,0,0,1,2.13-.87,2.6,2.6,0,0,1,2,.78,3,3,0,0,1,.72,2.12Zm-1.71-1.14q0-1.29-1-1.29a1,1,0,0,0-.77.37,1.64,1.64,0,0,0-.39.92Z"/><path d="M248.37,39a1.61,1.61,0,0,0-.78-.18,1.1,1.1,0,0,0-.94.44,1.9,1.9,0,0,0-.34,1.2v2.87h-1.86v-6h1.86v1.11h0a1.6,1.6,0,0,1,1.58-1.22,1.35,1.35,0,0,1,.46.07Z"/><path d="M42.1,111.59H40.73l-3.25-3.85a2.38,2.38,0,0,1-.22-.29h0v4.14h-1v-8.41h1v3.95h0a2.2,2.2,0,0,1,.22-.28l3.14-3.67h1.23l-3.61,4Z"/><path d="M47.75,108.83H43.51a2.27,2.27,0,0,0,.54,1.54,1.84,1.84,0,0,0,1.42.55,2.93,2.93,0,0,0,1.86-.67v.9a3.43,3.43,0,0,1-2.09.58,2.56,2.56,0,0,1-2-.82,3.37,3.37,0,0,1-.73-2.3,3.29,3.29,0,0,1,.8-2.28,2.54,2.54,0,0,1,2-.88,2.24,2.24,0,0,1,1.82.76,3.15,3.15,0,0,1,.65,2.11Zm-1-.82a1.9,1.9,0,0,0-.4-1.29,1.36,1.36,0,0,0-1.1-.47,1.56,1.56,0,0,0-1.15.49,2.22,2.22,0,0,0-.59,1.27Z"/><path d="M52.33,106.56a1.18,1.18,0,0,0-.73-.19,1.23,1.23,0,0,0-1,.58,2.7,2.7,0,0,0-.41,1.58v3.06h-1v-6h1v1.23h0a2.17,2.17,0,0,1,.63-1,1.46,1.46,0,0,1,.94-.35,1.71,1.71,0,0,1,.58.08Z"/><path d="M58.35,111.59h-1v-3.43c0-1.27-.46-1.91-1.39-1.91a1.52,1.52,0,0,0-1.2.55,2,2,0,0,0-.47,1.36v3.43h-1v-6h1v1h0a2.15,2.15,0,0,1,2-1.13,1.84,1.84,0,0,1,1.5.63,2.82,2.82,0,0,1,.52,1.84Z"/><path d="M65,108.83H60.75a2.18,2.18,0,0,0,.54,1.54,1.82,1.82,0,0,0,1.42.55,2.93,2.93,0,0,0,1.86-.67v.9a3.45,3.45,0,0,1-2.09.58,2.55,2.55,0,0,1-2-.82,3.37,3.37,0,0,1-.73-2.3,3.29,3.29,0,0,1,.8-2.28,2.53,2.53,0,0,1,2-.88,2.25,2.25,0,0,1,1.82.76,3.15,3.15,0,0,1,.65,2.11ZM64,108a2,2,0,0,0-.4-1.29,1.36,1.36,0,0,0-1.1-.47,1.56,1.56,0,0,0-1.15.49,2.16,2.16,0,0,0-.59,1.27Z"/><path d="M67.4,111.59h-1V102.7h1Z"/><path d="M77.75,111.59h-1v-1h0a2.42,2.42,0,0,1-3.87.35,3.32,3.32,0,0,1-.68-2.19,3.6,3.6,0,0,1,.75-2.39,2.47,2.47,0,0,1,2-.89,1.93,1.93,0,0,1,1.8,1h0V102.7h1Zm-1-2.72V108a1.7,1.7,0,0,0-.48-1.23,1.61,1.61,0,0,0-1.22-.51,1.67,1.67,0,0,0-1.38.65,2.79,2.79,0,0,0-.5,1.78,2.56,2.56,0,0,0,.48,1.64,1.57,1.57,0,0,0,1.3.6,1.66,1.66,0,0,0,1.3-.58A2.15,2.15,0,0,0,76.79,108.87Z"/><path d="M84.52,108.83H80.28a2.27,2.27,0,0,0,.54,1.54,1.85,1.85,0,0,0,1.42.55,2.89,2.89,0,0,0,1.86-.67v.9a3.41,3.41,0,0,1-2.09.58,2.58,2.58,0,0,1-2-.82,3.37,3.37,0,0,1-.72-2.3,3.28,3.28,0,0,1,.79-2.28,2.54,2.54,0,0,1,2-.88,2.26,2.26,0,0,1,1.83.76,3.15,3.15,0,0,1,.64,2.11Zm-1-.82a2,2,0,0,0-.41-1.29,1.36,1.36,0,0,0-1.09-.47,1.58,1.58,0,0,0-1.16.49A2.21,2.21,0,0,0,80.3,108Z"/><path d="M85.61,111.37v-1a2.88,2.88,0,0,0,1.73.58c.84,0,1.26-.28,1.26-.85a.72.72,0,0,0-.1-.4,1.22,1.22,0,0,0-.3-.3,2.44,2.44,0,0,0-.43-.23l-.54-.21-.7-.32a2,2,0,0,1-.5-.37,1.21,1.21,0,0,1-.31-.46,1.79,1.79,0,0,1-.1-.6,1.45,1.45,0,0,1,.2-.75,1.64,1.64,0,0,1,.51-.54,2.26,2.26,0,0,1,.74-.33,3,3,0,0,1,.85-.11,3.59,3.59,0,0,1,1.39.26v1a2.71,2.71,0,0,0-1.52-.44,1.53,1.53,0,0,0-.49.07,1.14,1.14,0,0,0-.37.17.85.85,0,0,0-.24.26.69.69,0,0,0-.08.35.8.8,0,0,0,.08.39.83.83,0,0,0,.25.28,1.67,1.67,0,0,0,.4.22l.53.22c.27.1.51.21.72.31a2.44,2.44,0,0,1,.54.37,1.36,1.36,0,0,1,.46,1.09,1.45,1.45,0,0,1-.2.77,1.7,1.7,0,0,1-.52.55,2.49,2.49,0,0,1-.76.32,3.68,3.68,0,0,1-.89.11A3.39,3.39,0,0,1,85.61,111.37Z"/><path d="M96.19,111.59h-1v-1h0a2.21,2.21,0,0,1-2.06,1.16,2.24,2.24,0,0,1-1.81-.81,3.31,3.31,0,0,1-.67-2.19,3.6,3.6,0,0,1,.75-2.39,2.45,2.45,0,0,1,2-.89,1.91,1.91,0,0,1,1.8,1h0V102.7h1Zm-1-2.72V108a1.7,1.7,0,0,0-.48-1.23,1.62,1.62,0,0,0-1.22-.51,1.68,1.68,0,0,0-1.39.65,2.85,2.85,0,0,0-.5,1.78,2.56,2.56,0,0,0,.48,1.64,1.6,1.6,0,0,0,1.3.6,1.64,1.64,0,0,0,1.3-.58A2.16,2.16,0,0,0,95.23,108.87Z"/><path d="M103,108.83H98.72a2.18,2.18,0,0,0,.54,1.54,1.82,1.82,0,0,0,1.41.55,2.94,2.94,0,0,0,1.87-.67v.9a3.45,3.45,0,0,1-2.09.58,2.55,2.55,0,0,1-2-.82,3.33,3.33,0,0,1-.73-2.3,3.29,3.29,0,0,1,.8-2.28,2.51,2.51,0,0,1,2-.88,2.25,2.25,0,0,1,1.82.76,3.15,3.15,0,0,1,.64,2.11Zm-1-.82a2,2,0,0,0-.4-1.29,1.38,1.38,0,0,0-1.1-.47,1.56,1.56,0,0,0-1.15.49,2.16,2.16,0,0,0-.59,1.27Z"/><path d="M112.52,108.83h-4.24a2.27,2.27,0,0,0,.54,1.54,1.84,1.84,0,0,0,1.42.55,2.93,2.93,0,0,0,1.86-.67v.9a3.43,3.43,0,0,1-2.09.58,2.56,2.56,0,0,1-2-.82,3.37,3.37,0,0,1-.73-2.3,3.29,3.29,0,0,1,.8-2.28,2.53,2.53,0,0,1,2-.88,2.25,2.25,0,0,1,1.82.76,3.15,3.15,0,0,1,.65,2.11Zm-1-.82a2,2,0,0,0-.4-1.29,1.36,1.36,0,0,0-1.1-.47,1.56,1.56,0,0,0-1.15.49,2.22,2.22,0,0,0-.59,1.27Z"/><path d="M114.93,111.59h-1V102.7h1Z"/><path d="M125.14,111.59h-1v-3.46c0-1.25-.46-1.88-1.39-1.88a1.51,1.51,0,0,0-1.19.55,2,2,0,0,0-.48,1.39v3.4h-1V102.7h1v3.88h0a2.16,2.16,0,0,1,2-1.13c1.35,0,2,.81,2,2.44Z"/><path d="M129.46,111.73a2.79,2.79,0,0,1-2.12-.84,3.12,3.12,0,0,1-.8-2.23,3.27,3.27,0,0,1,.83-2.37,3,3,0,0,1,2.23-.84,2.69,2.69,0,0,1,2.1.82,3.29,3.29,0,0,1,.75,2.29,3.21,3.21,0,0,1-.81,2.3A2.84,2.84,0,0,1,129.46,111.73Zm.07-5.48a1.83,1.83,0,0,0-1.46.63,2.59,2.59,0,0,0-.54,1.74,2.46,2.46,0,0,0,.54,1.68,1.87,1.87,0,0,0,1.46.62,1.73,1.73,0,0,0,1.43-.61,2.57,2.57,0,0,0,.51-1.71,2.65,2.65,0,0,0-.51-1.74A1.76,1.76,0,0,0,129.53,106.25Z"/><path d="M140.93,111.53a2,2,0,0,1-.9.18c-1.05,0-1.57-.58-1.57-1.75v-3.55H135.8a3.43,3.43,0,0,0-.48,0,1.7,1.7,0,0,0-.38.12.73.73,0,0,0-.24.22.63.63,0,0,0-.08.32.93.93,0,0,0,.08.39.83.83,0,0,0,.25.28,1.67,1.67,0,0,0,.4.22l.53.22c.27.1.51.21.72.31a2.44,2.44,0,0,1,.54.37,1.32,1.32,0,0,1,.34.47,1.46,1.46,0,0,1,.12.62,1.36,1.36,0,0,1-.2.77,1.7,1.7,0,0,1-.52.55,2.49,2.49,0,0,1-.76.32,3.74,3.74,0,0,1-.89.11,3.39,3.39,0,0,1-1.61-.36v-1a2.88,2.88,0,0,0,1.73.58c.84,0,1.27-.28,1.27-.85a.71.71,0,0,0-.11-.39.93.93,0,0,0-.3-.29,1.94,1.94,0,0,0-.43-.24,5.29,5.29,0,0,0-.53-.22c-.27-.11-.5-.22-.71-.32a2.16,2.16,0,0,1-.5-.37,1.19,1.19,0,0,1-.3-.46,1.57,1.57,0,0,1-.11-.6,1.37,1.37,0,0,1,.18-.72,1.5,1.5,0,0,1,.47-.5,2,2,0,0,1,.66-.28,3.12,3.12,0,0,1,.74-.09h2.78v-1.47l1-.31v1.78h1.51v.82h-1.51v3.38a1.45,1.45,0,0,0,.2.86.84.84,0,0,0,.68.26,1,1,0,0,0,.63-.2Z"/><path d="M284.38,75.35H283l-3.24-3.84a2.68,2.68,0,0,1-.23-.3h0v4.14h-1V67h1v4h0a2.4,2.4,0,0,1,.23-.29L282.91,67h1.22l-3.6,4Z"/><path d="M290,72.59H285.8a2.21,2.21,0,0,0,.54,1.55,1.85,1.85,0,0,0,1.41.54,3,3,0,0,0,1.87-.66v.9a3.52,3.52,0,0,1-2.09.57,2.52,2.52,0,0,1-2-.82,3.83,3.83,0,0,1,.06-4.58,2.55,2.55,0,0,1,2-.88,2.25,2.25,0,0,1,1.82.76,3.19,3.19,0,0,1,.64,2.12Zm-1-.81a2,2,0,0,0-.4-1.3,1.37,1.37,0,0,0-1.1-.46,1.56,1.56,0,0,0-1.16.49,2.18,2.18,0,0,0-.58,1.27Z"/><path d="M294.62,70.32a1.18,1.18,0,0,0-.73-.19,1.23,1.23,0,0,0-1,.58,2.64,2.64,0,0,0-.41,1.58v3.06h-1v-6h1v1.24h0a2.17,2.17,0,0,1,.63-1,1.39,1.39,0,0,1,.94-.35,1.52,1.52,0,0,1,.58.08Z"/><path d="M300.64,75.35h-1V71.93c0-1.27-.47-1.91-1.4-1.91a1.52,1.52,0,0,0-1.19.54,2,2,0,0,0-.47,1.37v3.42h-1v-6h1v1h0a2.17,2.17,0,0,1,2-1.14,1.83,1.83,0,0,1,1.51.64,2.85,2.85,0,0,1,.52,1.83Z"/><path d="M307.27,72.59H303a2.25,2.25,0,0,0,.53,1.55,1.88,1.88,0,0,0,1.42.54,3,3,0,0,0,1.87-.66v.9a3.53,3.53,0,0,1-2.1.57,2.51,2.51,0,0,1-2-.82,3.83,3.83,0,0,1,.06-4.58,2.54,2.54,0,0,1,2-.88,2.26,2.26,0,0,1,1.83.76,3.19,3.19,0,0,1,.64,2.12Zm-1-.81a2,2,0,0,0-.4-1.3,1.37,1.37,0,0,0-1.1-.46,1.54,1.54,0,0,0-1.16.49,2.18,2.18,0,0,0-.58,1.27Z"/><path d="M309.69,75.35h-1V66.47h1Z"/><path d="M39.78,59.25a2.72,2.72,0,0,0-.35-.2,4.29,4.29,0,0,0-.43-.16,3.72,3.72,0,0,0-.48-.11,2.89,2.89,0,0,0-.5,0,2,2,0,0,0-.79.13,1.61,1.61,0,0,0-.51.33,1.35,1.35,0,0,0-.28.45,1.29,1.29,0,0,0-.09.45,1.45,1.45,0,0,0,.31.92,2.12,2.12,0,0,0,.39.41c.16.14.35.29.56.44a7.77,7.77,0,0,1,.65.52,3.83,3.83,0,0,1,.48.53,2.18,2.18,0,0,1,.31.58,2.27,2.27,0,0,1,.1.65,2.8,2.8,0,0,1,0,.48,2,2,0,0,1-.15.52,2.21,2.21,0,0,1-.32.52,2,2,0,0,1-.5.45,3.36,3.36,0,0,1-.74.31,4.36,4.36,0,0,1-1,.11,4.63,4.63,0,0,1-.65,0l-.6-.13a5.3,5.3,0,0,1-.52-.17,4,4,0,0,1-.41-.19l.17-1a3.5,3.5,0,0,0,.43.26,3.89,3.89,0,0,0,.51.21,4.58,4.58,0,0,0,.56.14,3.64,3.64,0,0,0,.56.05,2.48,2.48,0,0,0,.77-.1,1.58,1.58,0,0,0,.53-.29,1.19,1.19,0,0,0,.3-.44,1.4,1.4,0,0,0,.1-.54,1.22,1.22,0,0,0-.34-.89,2.44,2.44,0,0,0-.43-.41c-.17-.14-.38-.29-.62-.46s-.37-.29-.54-.44a3.18,3.18,0,0,1-.46-.52,2.57,2.57,0,0,1-.31-.62,2.07,2.07,0,0,1-.11-.71,2.3,2.3,0,0,1,.17-.91,2.22,2.22,0,0,1,.53-.76,2.69,2.69,0,0,1,.87-.52,3.7,3.7,0,0,1,1.21-.19,3,3,0,0,1,.52,0l.51.08.47.13.39.13Z"/><path d="M42.38,66.37l-.33.08-.37,0a1.17,1.17,0,0,1-.88-.3,1,1,0,0,1-.3-.79,2.47,2.47,0,0,1,0-.35c0-.13,0-.29.1-.49l.87-4.15h1l-.88,4.17c0,.17-.06.3-.07.39a2,2,0,0,0,0,.22.48.48,0,0,0,.13.37.62.62,0,0,0,.42.13l.27,0,.21,0Zm.68-8.11a.64.64,0,0,1-.18.45.58.58,0,0,1-.44.19.65.65,0,0,1-.45-.19.62.62,0,0,1-.19-.45.58.58,0,0,1,.19-.44.68.68,0,0,1,.45-.17.64.64,0,0,1,.44.17A.59.59,0,0,1,43.06,58.26Z"/><path d="M49.17,61.9a1.15,1.15,0,0,1,0,.24c0,.1,0,.21,0,.32l-.06.35c0,.12,0,.22-.06.3l-.7,3.29h-1L48,62.88c0-.06,0-.13,0-.22s0-.16.05-.24a2,2,0,0,0,0-.23,1.37,1.37,0,0,0,0-.16,1,1,0,0,0-.22-.7.77.77,0,0,0-.63-.26,1.49,1.49,0,0,0-.77.23,2.92,2.92,0,0,0-.7.58,3.89,3.89,0,0,0-.56.77,3,3,0,0,0-.31.82l-.63,2.93h-1l.93-4.29.09-.47.09-.48c0-.16,0-.3.07-.44s0-.24,0-.32h.94c0,.15,0,.31-.07.47s0,.32-.07.46,0,.33-.08.48h0a5.22,5.22,0,0,1,.45-.6,3.6,3.6,0,0,1,.54-.5,2.87,2.87,0,0,1,.62-.34,1.91,1.91,0,0,1,.68-.12,1.76,1.76,0,0,1,.68.12,1.13,1.13,0,0,1,.48.34,1.31,1.31,0,0,1,.28.52A2.31,2.31,0,0,1,49.17,61.9Z"/><path d="M57.34,61.45a2.74,2.74,0,0,0-.6-.27,2.06,2.06,0,0,0-.65-.11,1.27,1.27,0,0,0-.85.25.81.81,0,0,0-.31.67.78.78,0,0,0,.06.31,1.28,1.28,0,0,0,.16.27,2.32,2.32,0,0,0,.28.24l.38.25a3.16,3.16,0,0,1,.95.78,1.54,1.54,0,0,1,.29.91,1.74,1.74,0,0,1-.13.67,1.45,1.45,0,0,1-.4.57,1.94,1.94,0,0,1-.71.4,3.3,3.3,0,0,1-1.06.15,2.68,2.68,0,0,1-.39,0l-.42-.07a2.9,2.9,0,0,1-.42-.12,1.52,1.52,0,0,1-.34-.15l.2-.91a1.5,1.5,0,0,0,.29.16l.37.15.42.1a2.18,2.18,0,0,0,.44,0,1.39,1.39,0,0,0,.87-.23.77.77,0,0,0,.29-.65.82.82,0,0,0,0-.28.76.76,0,0,0-.15-.26,2,2,0,0,0-.3-.26q-.18-.14-.45-.3a2.88,2.88,0,0,1-.89-.76,1.47,1.47,0,0,1-.28-.89,1.8,1.8,0,0,1,.13-.69,1.61,1.61,0,0,1,.41-.59,1.85,1.85,0,0,1,.67-.41,2.69,2.69,0,0,1,.94-.15,4.09,4.09,0,0,1,.8.08,3.43,3.43,0,0,1,.64.21Z"/><path d="M60.27,66.37l-.33.08-.37,0a1.2,1.2,0,0,1-.89-.3,1.08,1.08,0,0,1-.29-.79,2.47,2.47,0,0,1,0-.35c0-.13,0-.29.09-.49l.88-4.15h1l-.88,4.17c0,.17-.06.3-.07.39a.9.9,0,0,0,0,.22.48.48,0,0,0,.13.37.62.62,0,0,0,.42.13l.26,0,.22,0ZM61,58.26a.64.64,0,0,1-.18.45.6.6,0,0,1-.44.19.65.65,0,0,1-.45-.19.62.62,0,0,1-.19-.45.58.58,0,0,1,.19-.44.68.68,0,0,1,.45-.17.64.64,0,0,1,.44.17A.59.59,0,0,1,61,58.26Z"/><path d="M68.86,61.21H67.35l-.67,3.18a3.53,3.53,0,0,0-.08.4,2.47,2.47,0,0,0,0,.34.6.6,0,0,0,.13.43.62.62,0,0,0,.42.13l.19,0,.22-.06.23-.08.21-.07-.19.84a2.48,2.48,0,0,1-.46.15,2.27,2.27,0,0,1-.5.06,1.91,1.91,0,0,1-.57-.08,1,1,0,0,1-.38-.25,1,1,0,0,1-.22-.38,2,2,0,0,1-.06-.51,3,3,0,0,1,0-.39c0-.15,0-.29.08-.42l.69-3.26h-2.3a4.07,4.07,0,0,0-.52,0,1.65,1.65,0,0,0-.41.14,1,1,0,0,0-.28.24.61.61,0,0,0-.1.36.83.83,0,0,0,.06.32.8.8,0,0,0,.16.26,1.64,1.64,0,0,0,.27.24,3.31,3.31,0,0,0,.39.25,5.43,5.43,0,0,1,.56.39,2.36,2.36,0,0,1,.38.4,1.26,1.26,0,0,1,.22.43,1.4,1.4,0,0,1,.08.47,2,2,0,0,1-.13.67,1.56,1.56,0,0,1-.4.57,2,2,0,0,1-.72.4,3.26,3.26,0,0,1-1.06.15,2.62,2.62,0,0,1-.38,0l-.43-.07a2.77,2.77,0,0,1-.41-.12,1.52,1.52,0,0,1-.34-.15l.19-.91a2.52,2.52,0,0,0,.29.16l.38.15.42.1a2.09,2.09,0,0,0,.43,0,1.34,1.34,0,0,0,.88-.23.79.79,0,0,0,.29-.65.64.64,0,0,0,0-.28.87.87,0,0,0-.15-.26,1.94,1.94,0,0,0-.29-.26l-.46-.3a2.71,2.71,0,0,1-.88-.76,1.47,1.47,0,0,1-.28-.89,1.52,1.52,0,0,1,.14-.67,1.58,1.58,0,0,1,.43-.54,2,2,0,0,1,.7-.35A3,3,0,0,1,64,60.4h2.54l.31-1.47.09,0,.19,0,.24-.07.24-.07.18-.06.09,0-.37,1.78H69Z"/><path d="M74.31,61.8a1.81,1.81,0,0,1-.21.87,1.67,1.67,0,0,1-.7.66,4.23,4.23,0,0,1-1.28.44,10.89,10.89,0,0,1-2,.15.66.66,0,0,0,0,.14v.12a1.87,1.87,0,0,0,.09.59,1.42,1.42,0,0,0,.27.5,1.25,1.25,0,0,0,.47.33,1.85,1.85,0,0,0,.69.12,3,3,0,0,0,.89-.15,4.09,4.09,0,0,0,.92-.44l-.18.94a3.24,3.24,0,0,1-.77.33,3,3,0,0,1-1,.14,2.84,2.84,0,0,1-1.12-.2,2,2,0,0,1-.73-.55,2,2,0,0,1-.4-.79,3.62,3.62,0,0,1-.13-.94,4.31,4.31,0,0,1,.12-1,4.47,4.47,0,0,1,.33-.91,4.16,4.16,0,0,1,.52-.77,3.07,3.07,0,0,1,.66-.59,2.85,2.85,0,0,1,.78-.39,2.71,2.71,0,0,1,.86-.13,2.57,2.57,0,0,1,.82.12,2,2,0,0,1,.59.34,1.36,1.36,0,0,1,.36.5A1.45,1.45,0,0,1,74.31,61.8Zm-1,.05a.66.66,0,0,0-.27-.57,1.14,1.14,0,0,0-.72-.21,1.52,1.52,0,0,0-.69.16,2.12,2.12,0,0,0-.62.42,2.71,2.71,0,0,0-.49.65,3.83,3.83,0,0,0-.3.82A11.43,11.43,0,0,0,71.67,63a3.7,3.7,0,0,0,1-.25,1.31,1.31,0,0,0,.54-.4A.87.87,0,0,0,73.33,61.85Z"/><path d="M84.23,61.91a1.31,1.31,0,0,1,0,.23c0,.1,0,.21,0,.33l-.06.35c0,.11,0,.21-.06.29l-.71,3.29h-1l.73-3.52a1.42,1.42,0,0,0,0-.22c0-.08,0-.16,0-.24s0-.16,0-.23a1,1,0,0,0,0-.16,1.13,1.13,0,0,0-.2-.71.73.73,0,0,0-.62-.25,1.13,1.13,0,0,0-.46.1,2,2,0,0,0-.46.28,4.2,4.2,0,0,0-.44.41,4.7,4.7,0,0,0-.38.5,4.14,4.14,0,0,0-.29.55,2.4,2.4,0,0,0-.19.55l-.62,2.94h-1l.75-3.52a2.25,2.25,0,0,1,0-.22c0-.08,0-.16,0-.24s0-.16,0-.23a1,1,0,0,0,0-.16,1.13,1.13,0,0,0-.2-.71.75.75,0,0,0-.62-.25,1.17,1.17,0,0,0-.47.1,2,2,0,0,0-.46.28,2.89,2.89,0,0,0-.44.42,4.4,4.4,0,0,0-.38.5,4.21,4.21,0,0,0-.3.55,2.9,2.9,0,0,0-.17.55L75.8,66.4h-1l.92-4.29c0-.15.06-.31.1-.47s.06-.33.08-.48,0-.3.07-.44,0-.24,0-.32H77c0,.15,0,.31-.07.47s0,.32-.07.46,0,.33-.08.48h0a5.79,5.79,0,0,1,.45-.62,4,4,0,0,1,.52-.5,2.56,2.56,0,0,1,.58-.32,1.63,1.63,0,0,1,.62-.12,1.75,1.75,0,0,1,.64.11,1.34,1.34,0,0,1,.45.31,1.37,1.37,0,0,1,.27.49,2.59,2.59,0,0,1,.12.64,5.72,5.72,0,0,1,.46-.61,4,4,0,0,1,.53-.49,2.59,2.59,0,0,1,.61-.33,1.91,1.91,0,0,1,.68-.12,1.4,1.4,0,0,1,1.12.44A1.8,1.8,0,0,1,84.23,61.91Z"/><path d="M90.14,64.47q0,.23-.09.51c0,.18-.06.36-.08.55s0,.35,0,.5a2.77,2.77,0,0,0,0,.37h-1c0-.08,0-.18,0-.28l0-.34c0-.12,0-.24,0-.35s0-.21.05-.29h0c-.12.19-.24.37-.37.54a2.52,2.52,0,0,1-.41.45,1.9,1.9,0,0,1-.51.3,1.69,1.69,0,0,1-.66.11,1.65,1.65,0,0,1-.72-.14,1.36,1.36,0,0,1-.56-.42,1.74,1.74,0,0,1-.36-.69,3.23,3.23,0,0,1-.13-1,4.48,4.48,0,0,1,.07-.77,5.13,5.13,0,0,1,.24-.89,4.82,4.82,0,0,1,.44-.88,3.39,3.39,0,0,1,.7-.77,3,3,0,0,1,1-.54,3.73,3.73,0,0,1,1.3-.21,6.52,6.52,0,0,1,1,.07c.33,0,.66.1,1,.17Zm-.28-3.28-.48-.08a3.08,3.08,0,0,0-.51,0,2.29,2.29,0,0,0-.9.16,2.44,2.44,0,0,0-.68.42,2.75,2.75,0,0,0-.48.6,4,4,0,0,0-.32.7,3.53,3.53,0,0,0-.16.7,3.81,3.81,0,0,0,0,1.23,1.42,1.42,0,0,0,.19.45.81.81,0,0,0,.32.29,1,1,0,0,0,.47.1,1.22,1.22,0,0,0,.54-.12,2.11,2.11,0,0,0,.48-.32,2.73,2.73,0,0,0,.41-.48,4,4,0,0,0,.32-.57,3.56,3.56,0,0,0,.25-.61,5.1,5.1,0,0,0,.17-.61Z"/><path d="M100.6,62.62a5,5,0,0,1-.22,1.51,3.91,3.91,0,0,1-.65,1.25,3.17,3.17,0,0,1-1,.85,2.9,2.9,0,0,1-1.36.31,2.45,2.45,0,0,1-.93-.16,2,2,0,0,1-.71-.47,2.16,2.16,0,0,1-.44-.75,3,3,0,0,1-.16-1,4.89,4.89,0,0,1,.24-1.55A3.94,3.94,0,0,1,96,61.38a3.17,3.17,0,0,1,1-.83,2.92,2.92,0,0,1,1.33-.3,2.43,2.43,0,0,1,.92.16,1.94,1.94,0,0,1,.71.48,2.19,2.19,0,0,1,.45.74A2.78,2.78,0,0,1,100.6,62.62Zm-1,0a2,2,0,0,0-.1-.67,1.39,1.39,0,0,0-.26-.5,1,1,0,0,0-.41-.31,1.33,1.33,0,0,0-.54-.11,1.76,1.76,0,0,0-.93.26,2.34,2.34,0,0,0-.7.7,3.39,3.39,0,0,0-.45,1,4.2,4.2,0,0,0-.15,1.12,2.29,2.29,0,0,0,.09.66,1.48,1.48,0,0,0,.26.5,1.07,1.07,0,0,0,.41.32,1.2,1.2,0,0,0,.55.11,1.65,1.65,0,0,0,.93-.26,2.33,2.33,0,0,0,.71-.69,3.65,3.65,0,0,0,.44-1A4.28,4.28,0,0,0,99.62,62.66Z"/><path d="M107.11,62.49a4.77,4.77,0,0,1-.1.9,5.12,5.12,0,0,1-.28.92,4.33,4.33,0,0,1-.49.86,3.52,3.52,0,0,1-.68.71,3.05,3.05,0,0,1-.89.48,3.21,3.21,0,0,1-1.1.18,4,4,0,0,1-.69-.06,4.82,4.82,0,0,1-.58-.15l-.6,2.85h-1l1.46-6.94c0-.12,0-.27.08-.45l.06-.53c0-.18,0-.34,0-.5s0-.28,0-.36h1c0,.06,0,.15,0,.27s0,.23,0,.35,0,.24,0,.36,0,.21,0,.28h0a3.07,3.07,0,0,1,.93-1.06,2,2,0,0,1,1.14-.35,2,2,0,0,1,.74.14,1.53,1.53,0,0,1,.56.42,2,2,0,0,1,.35.71A3.5,3.5,0,0,1,107.11,62.49Zm-1,0a3.51,3.51,0,0,0-.05-.59,1.27,1.27,0,0,0-.19-.46.9.9,0,0,0-.33-.31,1,1,0,0,0-.49-.11,1.27,1.27,0,0,0-.58.13,1.92,1.92,0,0,0-.49.33,3.37,3.37,0,0,0-.42.49,6.65,6.65,0,0,0-.33.58,5.09,5.09,0,0,0-.25.6,5,5,0,0,0-.16.57l-.36,1.74a1.23,1.23,0,0,0,.25.08l.3.07.32,0h.31a2,2,0,0,0,.75-.13,2.12,2.12,0,0,0,.61-.37,2.51,2.51,0,0,0,.48-.54,3.28,3.28,0,0,0,.35-.67,4.68,4.68,0,0,0,.21-.73A3.85,3.85,0,0,0,106.12,62.54Z"/><path d="M113.18,61.8a1.63,1.63,0,0,1-.91,1.53,4.3,4.3,0,0,1-1.29.44,10.77,10.77,0,0,1-2,.15.68.68,0,0,0,0,.14v.12a1.87,1.87,0,0,0,.09.59,1.42,1.42,0,0,0,.27.5,1.37,1.37,0,0,0,.48.33,1.78,1.78,0,0,0,.69.12,3.07,3.07,0,0,0,.89-.15,4.09,4.09,0,0,0,.92-.44l-.18.94a3.43,3.43,0,0,1-.77.33,3.14,3.14,0,0,1-1,.14,2.79,2.79,0,0,1-1.11-.2,2,2,0,0,1-.74-.55,2.36,2.36,0,0,1-.4-.79,3.61,3.61,0,0,1-.12-.94,4.31,4.31,0,0,1,.12-1,4.47,4.47,0,0,1,.33-.91,3.68,3.68,0,0,1,.51-.77,3.33,3.33,0,0,1,.66-.59,3.16,3.16,0,0,1,.78-.39,2.8,2.8,0,0,1,.86-.13,2.57,2.57,0,0,1,.82.12,1.87,1.87,0,0,1,.59.34,1.36,1.36,0,0,1,.36.5A1.31,1.31,0,0,1,113.18,61.8Zm-1,.05a.66.66,0,0,0-.27-.57,1.19,1.19,0,0,0-.73-.21,1.52,1.52,0,0,0-.69.16,2.08,2.08,0,0,0-.61.42,2.71,2.71,0,0,0-.49.65,3,3,0,0,0-.3.82,11.26,11.26,0,0,0,1.42-.08,3.9,3.9,0,0,0,1-.25,1.46,1.46,0,0,0,.54-.4A.94.94,0,0,0,112.2,61.85Z"/><path d="M117.89,61.42h0a1.29,1.29,0,0,0-.31-.14,1,1,0,0,0-.38-.07,1.11,1.11,0,0,0-.65.22A2.59,2.59,0,0,0,116,62a4.57,4.57,0,0,0-.45.82,6.49,6.49,0,0,0-.29,1l-.57,2.62h-1l.85-4c0-.16.07-.33.1-.51s.07-.36.1-.54.06-.35.08-.52,0-.31,0-.44h1c0,.11,0,.24,0,.37s0,.26-.05.38,0,.23,0,.33,0,.18,0,.23h0c.13-.22.26-.42.38-.6a3.11,3.11,0,0,1,.41-.46,1.62,1.62,0,0,1,.46-.29,1.27,1.27,0,0,1,.52-.11,1.66,1.66,0,0,1,.32,0l.29.07Z"/><path d="M122.89,64.47a5.13,5.13,0,0,0-.1.51c0,.18-.05.36-.07.55s0,.35,0,.5a2.77,2.77,0,0,0,0,.37h-1c0-.08,0-.18,0-.28s0-.23,0-.34,0-.24,0-.35,0-.21,0-.29h0c-.12.19-.24.37-.37.54a2.52,2.52,0,0,1-.41.45,1.9,1.9,0,0,1-.51.3,1.71,1.71,0,0,1-.67.11,1.64,1.64,0,0,1-.71-.14,1.36,1.36,0,0,1-.56-.42,1.74,1.74,0,0,1-.36-.69,3.23,3.23,0,0,1-.13-1,4.48,4.48,0,0,1,.07-.77,5.13,5.13,0,0,1,.24-.89,4.82,4.82,0,0,1,.44-.88,3.6,3.6,0,0,1,.69-.77,3.1,3.1,0,0,1,1-.54,3.69,3.69,0,0,1,1.3-.21,6.52,6.52,0,0,1,1,.07c.33,0,.66.1,1,.17Zm-.28-3.28-.48-.08a3.2,3.2,0,0,0-.52,0,2.29,2.29,0,0,0-.9.16,2.38,2.38,0,0,0-.67.42,3.14,3.14,0,0,0-.49.6,3.93,3.93,0,0,0-.31.7,4.46,4.46,0,0,0-.17.7,5,5,0,0,0,0,.63,2.77,2.77,0,0,0,.06.6,1.22,1.22,0,0,0,.19.45.81.81,0,0,0,.32.29,1,1,0,0,0,.47.1,1.25,1.25,0,0,0,.54-.12,2.11,2.11,0,0,0,.48-.32,2.68,2.68,0,0,0,.4-.48,3.25,3.25,0,0,0,.33-.57,4.6,4.6,0,0,0,.25-.61,5.1,5.1,0,0,0,.17-.61Z"/><path d="M128.13,61.21h-1.51l-.68,3.18c0,.12,0,.25-.07.4a2.47,2.47,0,0,0,0,.34.6.6,0,0,0,.13.43.62.62,0,0,0,.42.13l.18,0,.23,0,.23-.08.2-.08-.18.84a2.76,2.76,0,0,1-.46.15,2.27,2.27,0,0,1-.5.06,1.91,1.91,0,0,1-.57-.08,1,1,0,0,1-.38-.25,1,1,0,0,1-.22-.38,1.91,1.91,0,0,1,0-.9,2.61,2.61,0,0,1,.08-.42l.69-3.26h-1l.18-.81h1l.31-1.47.18,0,.34-.1.34-.11.17-.05-.37,1.78h1.51Z"/><path d="M130.4,66.37l-.33.08a2.19,2.19,0,0,1-.36,0,1.2,1.2,0,0,1-.89-.3,1.08,1.08,0,0,1-.29-.79,2.47,2.47,0,0,1,0-.35c0-.13.05-.29.09-.49l.87-4.15h1l-.88,4.17c0,.17-.06.3-.08.39a2,2,0,0,0,0,.22.48.48,0,0,0,.14.37.57.57,0,0,0,.41.13l.27,0,.22,0Zm.69-8.11a.64.64,0,0,1-.18.45.61.61,0,0,1-.44.19.65.65,0,0,1-.45-.19.58.58,0,0,1-.19-.45.55.55,0,0,1,.19-.44.68.68,0,0,1,.45-.17.64.64,0,0,1,.44.17A.59.59,0,0,1,131.09,58.26Z"/><path d="M133.64,66.4h-.82l-.95-6h1l.52,3.78a1.45,1.45,0,0,1,0,.25l0,.28a2.64,2.64,0,0,0,0,.29v.25h0c0-.07.07-.15.11-.24s.09-.18.14-.27a2.69,2.69,0,0,1,.16-.29l.15-.27,2.14-3.78h1.1Z"/><path d="M142.69,62.62a5,5,0,0,1-.23,1.51,3.72,3.72,0,0,1-.65,1.25,3,3,0,0,1-1,.85,2.91,2.91,0,0,1-1.37.31,2.43,2.43,0,0,1-.92-.16,2,2,0,0,1-.71-.47,2.16,2.16,0,0,1-.44-.75,2.76,2.76,0,0,1-.16-1,4.89,4.89,0,0,1,.24-1.55,3.94,3.94,0,0,1,.67-1.25,3.07,3.07,0,0,1,1-.83,2.92,2.92,0,0,1,1.33-.3,2.47,2.47,0,0,1,.92.16,1.9,1.9,0,0,1,.7.48,2.06,2.06,0,0,1,.46.74A2.78,2.78,0,0,1,142.69,62.62Zm-1,0a2.25,2.25,0,0,0-.1-.67,1.39,1.39,0,0,0-.26-.5,1.12,1.12,0,0,0-.41-.31,1.33,1.33,0,0,0-.54-.11,1.74,1.74,0,0,0-.93.26,2.49,2.49,0,0,0-.71.7,3.65,3.65,0,0,0-.44,1,4.2,4.2,0,0,0-.15,1.12,2.29,2.29,0,0,0,.09.66,1.32,1.32,0,0,0,.26.5,1,1,0,0,0,.41.32,1.19,1.19,0,0,0,.54.11,1.69,1.69,0,0,0,.94-.26,2.19,2.19,0,0,0,.7-.69,3.12,3.12,0,0,0,.44-1A4.28,4.28,0,0,0,141.71,62.66Z"/><path d="M57.12,79c0,.13,0,.28-.08.45s0,.35-.07.53,0,.35,0,.5,0,.28,0,.37h-1c0-.07,0-.16,0-.27s0-.23,0-.35,0-.24,0-.35,0-.2,0-.27h0a5.19,5.19,0,0,1-.42.6,2.27,2.27,0,0,1-.45.43,1.5,1.5,0,0,1-.5.26,1.76,1.76,0,0,1-.58.09,2,2,0,0,1-.74-.14,1.79,1.79,0,0,1-.56-.43,2.05,2.05,0,0,1-.35-.71,3.5,3.5,0,0,1-.12-1,4.73,4.73,0,0,1,.09-.9,4.25,4.25,0,0,1,.28-.92,4.84,4.84,0,0,1,.48-.86,3.62,3.62,0,0,1,.7-.71,3.41,3.41,0,0,1,.93-.48,3.49,3.49,0,0,1,1.16-.18,3.91,3.91,0,0,1,.61,0l.49.09.61-2.87h1Zm-.25-3.34a3.56,3.56,0,0,0-.47-.1,2.82,2.82,0,0,0-.52,0,2.29,2.29,0,0,0-.9.16,2.16,2.16,0,0,0-.68.42,2.75,2.75,0,0,0-.48.6,4.26,4.26,0,0,0-.32.69,3.75,3.75,0,0,0-.17.7,4.82,4.82,0,0,0,0,.62,2.61,2.61,0,0,0,.06.59,1.32,1.32,0,0,0,.18.47.84.84,0,0,0,.32.3,1.06,1.06,0,0,0,.48.1,1.26,1.26,0,0,0,.55-.12,1.87,1.87,0,0,0,.48-.33,3.17,3.17,0,0,0,.4-.49,3.74,3.74,0,0,0,.33-.59,4.35,4.35,0,0,0,.25-.63,5.1,5.1,0,0,0,.17-.61Z"/><path d="M64,76.2a1.81,1.81,0,0,1-.21.87,1.73,1.73,0,0,1-.7.66,4.23,4.23,0,0,1-1.28.44,11,11,0,0,1-2,.15.66.66,0,0,0,0,.14v.12a1.87,1.87,0,0,0,.08.59,1.37,1.37,0,0,0,.28.5,1.25,1.25,0,0,0,.47.33,1.78,1.78,0,0,0,.69.12A3.07,3.07,0,0,0,62.2,80a3.74,3.74,0,0,0,.92-.45l-.18,1a3.43,3.43,0,0,1-.77.33,3.14,3.14,0,0,1-1,.14,2.79,2.79,0,0,1-1.11-.2,2,2,0,0,1-.73-.55,2.2,2.2,0,0,1-.41-.79,3.61,3.61,0,0,1-.12-.94,4.31,4.31,0,0,1,.12-1,4.47,4.47,0,0,1,.33-.91,3.68,3.68,0,0,1,.51-.77,3.33,3.33,0,0,1,.66-.59,3.16,3.16,0,0,1,.78-.39,2.8,2.8,0,0,1,.86-.13,2.53,2.53,0,0,1,.82.12,1.61,1.61,0,0,1,.59.34,1.41,1.41,0,0,1,.36.49A1.38,1.38,0,0,1,64,76.2Zm-1,0a.66.66,0,0,0-.27-.57,1.19,1.19,0,0,0-.73-.21,1.52,1.52,0,0,0-.69.16,2.08,2.08,0,0,0-.61.42,2.71,2.71,0,0,0-.49.65,3,3,0,0,0-.3.82,11.26,11.26,0,0,0,1.42-.08,3.78,3.78,0,0,0,1-.25,1.31,1.31,0,0,0,.54-.4A.94.94,0,0,0,63,76.25Z"/><path d="M72.55,76a2.1,2.1,0,0,0-.6-.37,1.92,1.92,0,0,0-.77-.15,1.9,1.9,0,0,0-.73.14,1.84,1.84,0,0,0-.57.38,2.26,2.26,0,0,0-.44.53,4.12,4.12,0,0,0-.3.64,3.89,3.89,0,0,0-.17.65,3.4,3.4,0,0,0-.06.61,1.94,1.94,0,0,0,.37,1.27,1.27,1.27,0,0,0,1,.43,2.11,2.11,0,0,0,.8-.16,4,4,0,0,0,.79-.41l-.21,1a4,4,0,0,1-.75.32,3,3,0,0,1-.8.11,2.19,2.19,0,0,1-1-.19,1.82,1.82,0,0,1-.68-.51,2.22,2.22,0,0,1-.4-.78,3.34,3.34,0,0,1-.14-1,5.32,5.32,0,0,1,.1-1,4.53,4.53,0,0,1,.3-.9,4.27,4.27,0,0,1,.48-.79,3,3,0,0,1,.66-.62,3.21,3.21,0,0,1,.83-.41,3.12,3.12,0,0,1,1-.15,2.45,2.45,0,0,1,.48,0,2.59,2.59,0,0,1,.42.09l.33.12a.92.92,0,0,1,.23.14Z"/><path d="M78.58,77a5,5,0,0,1-.23,1.51,4,4,0,0,1-.65,1.25,3.13,3.13,0,0,1-1,.85,2.91,2.91,0,0,1-1.37.31,2.52,2.52,0,0,1-.93-.16,2,2,0,0,1-.7-.47,2.34,2.34,0,0,1-.45-.75,3,3,0,0,1-.15-1A4.84,4.84,0,0,1,73.31,77,3.93,3.93,0,0,1,74,75.78,3.11,3.11,0,0,1,75,75a2.91,2.91,0,0,1,1.32-.3,2.52,2.52,0,0,1,.93.16,1.9,1.9,0,0,1,.7.48,2.06,2.06,0,0,1,.46.74A3,3,0,0,1,78.58,77Zm-1,0a2.26,2.26,0,0,0-.09-.67,1.26,1.26,0,0,0-.27-.5,1,1,0,0,0-.41-.31,1.32,1.32,0,0,0-.53-.11,1.77,1.77,0,0,0-.94.26,2.46,2.46,0,0,0-.7.7,3.37,3.37,0,0,0-.44,1,3.84,3.84,0,0,0-.16,1.12,2.29,2.29,0,0,0,.09.66,1.58,1.58,0,0,0,.26.5,1.07,1.07,0,0,0,.41.32,1.38,1.38,0,0,0,.55.11,1.69,1.69,0,0,0,.94-.26,2.3,2.3,0,0,0,.7-.69,3.37,3.37,0,0,0,.44-1A4.28,4.28,0,0,0,77.59,77.06Z"/><path d="M85.16,76.3a1.2,1.2,0,0,1,0,.24c0,.1,0,.21,0,.32s0,.24-.07.35,0,.22-.06.3l-.69,3.29h-1L84,77.28c0-.06,0-.13,0-.22a2,2,0,0,0,0-.24,1,1,0,0,0,0-.23,1,1,0,0,0,0-.16,1.06,1.06,0,0,0-.21-.7.77.77,0,0,0-.63-.26,1.49,1.49,0,0,0-.77.23,3,3,0,0,0-.71.58,4.29,4.29,0,0,0-.55.77,2.86,2.86,0,0,0-.31.82l-.63,2.93h-1l.92-4.29c0-.15.07-.31.1-.47s.06-.33.09-.48,0-.3.07-.44,0-.24,0-.32h.94c0,.15,0,.31-.07.47s0,.32-.07.46,0,.33-.08.48h0a4.27,4.27,0,0,1,.45-.6,3.6,3.6,0,0,1,.54-.5,2.63,2.63,0,0,1,.61-.34,2,2,0,0,1,.69-.12,1.76,1.76,0,0,1,.68.12,1.27,1.27,0,0,1,.48.34,1.31,1.31,0,0,1,.28.52A2.31,2.31,0,0,1,85.16,76.3Z"/><path d="M89.82,75.61H88.31l-.67,3.18c0,.12,0,.25-.08.39a2.75,2.75,0,0,0,0,.34.61.61,0,0,0,.13.44.62.62,0,0,0,.42.13l.18,0a1,1,0,0,0,.23-.06l.23-.07.2-.08-.18.84a2.48,2.48,0,0,1-.46.15,2.27,2.27,0,0,1-.5.06,1.91,1.91,0,0,1-.57-.08,1,1,0,0,1-.38-.25,1,1,0,0,1-.22-.38,2,2,0,0,1-.06-.51,3,3,0,0,1,0-.39c0-.15,0-.29.08-.42l.69-3.26h-1l.18-.81h1l.31-1.47.18,0,.34-.1.34-.11.17,0-.37,1.78H90Z"/><path d="M95.28,76.2a1.81,1.81,0,0,1-.21.87,1.67,1.67,0,0,1-.7.66,4.23,4.23,0,0,1-1.28.44,10.89,10.89,0,0,1-2,.15.66.66,0,0,0,0,.14v.12a1.87,1.87,0,0,0,.09.59,1.51,1.51,0,0,0,.27.5,1.25,1.25,0,0,0,.47.33,1.85,1.85,0,0,0,.69.12,3,3,0,0,0,.89-.15,3.74,3.74,0,0,0,.92-.45l-.18,1a3.24,3.24,0,0,1-.77.33,3,3,0,0,1-1,.14,2.88,2.88,0,0,1-1.12-.2,2,2,0,0,1-1.13-1.34,3.61,3.61,0,0,1-.12-.94,4.31,4.31,0,0,1,.11-1,4.47,4.47,0,0,1,.33-.91,4.16,4.16,0,0,1,.52-.77,3.33,3.33,0,0,1,.66-.59,2.85,2.85,0,0,1,.78-.39,2.76,2.76,0,0,1,.86-.13,2.57,2.57,0,0,1,.82.12,1.79,1.79,0,0,1,.59.34,1.41,1.41,0,0,1,.36.49A1.53,1.53,0,0,1,95.28,76.2Zm-1,0a.66.66,0,0,0-.27-.57,1.14,1.14,0,0,0-.72-.21,1.52,1.52,0,0,0-.69.16,2.12,2.12,0,0,0-.62.42,2.71,2.71,0,0,0-.49.65,3.33,3.33,0,0,0-.29.82,11.38,11.38,0,0,0,1.42-.08,3.7,3.7,0,0,0,1-.25,1.31,1.31,0,0,0,.54-.4A.87.87,0,0,0,94.3,76.25Z"/><path d="M101.64,76.3s0,.14,0,.24,0,.21-.05.32,0,.24-.07.35,0,.22-.06.3l-.7,3.29h-1l.73-3.52c0-.06,0-.13,0-.22s0-.16,0-.24l0-.23a1,1,0,0,0,0-.16,1.06,1.06,0,0,0-.21-.7.81.81,0,0,0-.64-.26,1.52,1.52,0,0,0-.77.23,3.13,3.13,0,0,0-.7.58,3.85,3.85,0,0,0-.55.77,2.9,2.9,0,0,0-.32.82l-.62,2.93h-1l.93-4.29.09-.47c0-.17.06-.33.09-.48s0-.3.07-.44,0-.24,0-.32H98c0,.15-.05.31-.07.47s0,.32-.07.46-.05.33-.08.48h0a5.3,5.3,0,0,1,.46-.6,2.84,2.84,0,0,1,.54-.5,2.44,2.44,0,0,1,.61-.34,2,2,0,0,1,.68-.12,1.78,1.78,0,0,1,.69.12,1.27,1.27,0,0,1,.48.34,1.44,1.44,0,0,1,.28.52A2.31,2.31,0,0,1,101.64,76.3Z"/><path d="M107.87,76.2a1.81,1.81,0,0,1-.21.87,1.73,1.73,0,0,1-.7.66,4.23,4.23,0,0,1-1.28.44,10.89,10.89,0,0,1-2,.15.66.66,0,0,0,0,.14v.12a2.21,2.21,0,0,0,.08.59,1.37,1.37,0,0,0,.28.5,1.25,1.25,0,0,0,.47.33,1.78,1.78,0,0,0,.69.12,3.07,3.07,0,0,0,.89-.15,3.74,3.74,0,0,0,.92-.45l-.18,1a3.43,3.43,0,0,1-.77.33,3.14,3.14,0,0,1-1,.14,2.79,2.79,0,0,1-1.11-.2,2,2,0,0,1-.73-.55,2.2,2.2,0,0,1-.41-.79,3.61,3.61,0,0,1-.12-.94,4.31,4.31,0,0,1,.12-1,4.47,4.47,0,0,1,.33-.91,3.68,3.68,0,0,1,.51-.77,3.33,3.33,0,0,1,.66-.59,3.16,3.16,0,0,1,.78-.39,2.82,2.82,0,0,1,.87-.13,2.51,2.51,0,0,1,.81.12,1.61,1.61,0,0,1,.59.34,1.41,1.41,0,0,1,.36.49A1.38,1.38,0,0,1,107.87,76.2Zm-1,0a.66.66,0,0,0-.27-.57,1.17,1.17,0,0,0-.73-.21,1.52,1.52,0,0,0-.69.16,2.08,2.08,0,0,0-.61.42,2.71,2.71,0,0,0-.49.65,3,3,0,0,0-.3.82,11.55,11.55,0,0,0,1.43-.08,3.81,3.81,0,0,0,1-.25,1.31,1.31,0,0,0,.54-.4A.94.94,0,0,0,106.89,76.25Z"/><path d="M113.38,79a4.12,4.12,0,0,0-.08.45c0,.18,0,.35-.07.53s0,.35,0,.5,0,.28,0,.37h-1c0-.07,0-.16,0-.27l0-.35c0-.12,0-.24.05-.35s0-.2,0-.27h0a5.19,5.19,0,0,1-.42.6,2.53,2.53,0,0,1-.44.43,1.6,1.6,0,0,1-.5.26,1.81,1.81,0,0,1-.58.09,2,2,0,0,1-.74-.14,1.68,1.68,0,0,1-.56-.43,2.05,2.05,0,0,1-.35-.71,3.14,3.14,0,0,1-.13-1,4.73,4.73,0,0,1,.09-.9,4.28,4.28,0,0,1,.29-.92,3.84,3.84,0,0,1,.48-.86A3.28,3.28,0,0,1,111,74.83a3.59,3.59,0,0,1,1.17-.18,3.91,3.91,0,0,1,.61,0l.48.09.61-2.87h.95Zm-.26-3.34a3.11,3.11,0,0,0-.46-.1,2.89,2.89,0,0,0-.52,0,2.29,2.29,0,0,0-.9.16,2,2,0,0,0-.68.42,2.8,2.8,0,0,0-.49.6,4.19,4.19,0,0,0-.31.69,3.75,3.75,0,0,0-.17.7,3.52,3.52,0,0,0,0,.62,3.42,3.42,0,0,0,0,.59,1.54,1.54,0,0,0,.18.47.94.94,0,0,0,.33.3,1,1,0,0,0,.48.1,1.26,1.26,0,0,0,.55-.12,1.87,1.87,0,0,0,.48-.33,3.88,3.88,0,0,0,.4-.49,4.75,4.75,0,0,0,.33-.59,4.35,4.35,0,0,0,.25-.63,5,5,0,0,0,.16-.61Z"/><path d="M120.56,77a5,5,0,0,1-.22,1.51,4,4,0,0,1-.65,1.25,3.13,3.13,0,0,1-1,.85,2.94,2.94,0,0,1-1.37.31,2.52,2.52,0,0,1-.93-.16,2,2,0,0,1-.7-.47,2.18,2.18,0,0,1-.45-.75,3,3,0,0,1-.15-1,5.14,5.14,0,0,1,.23-1.55,4.15,4.15,0,0,1,.67-1.25,3.17,3.17,0,0,1,1-.83,3,3,0,0,1,1.33-.3,2.43,2.43,0,0,1,.92.16,1.94,1.94,0,0,1,.71.48,1.92,1.92,0,0,1,.45.74A2.78,2.78,0,0,1,120.56,77Zm-1,0a2.26,2.26,0,0,0-.09-.67,1.4,1.4,0,0,0-.27-.5,1,1,0,0,0-.41-.31,1.33,1.33,0,0,0-.54-.11,1.76,1.76,0,0,0-.93.26,2.34,2.34,0,0,0-.7.7,3.37,3.37,0,0,0-.44,1,3.84,3.84,0,0,0-.16,1.12,2.29,2.29,0,0,0,.09.66,1.58,1.58,0,0,0,.26.5,1.07,1.07,0,0,0,.41.32,1.38,1.38,0,0,0,.55.11,1.69,1.69,0,0,0,.94-.26,2.3,2.3,0,0,0,.7-.69,3.37,3.37,0,0,0,.44-1A4.28,4.28,0,0,0,119.58,77.06Z"/><path d="M125.51,75.82h0a1.29,1.29,0,0,0-.31-.14,1,1,0,0,0-.38-.07,1.08,1.08,0,0,0-.65.22,2.39,2.39,0,0,0-.56.58,4.57,4.57,0,0,0-.45.82,5.5,5.5,0,0,0-.3,1l-.56,2.62h-1l.84-4c0-.16.07-.33.11-.51s.07-.36.1-.54,0-.35.08-.52,0-.31,0-.44h1c0,.11,0,.24,0,.37s0,.26,0,.38,0,.23,0,.33,0,.18,0,.23h0c.13-.22.25-.42.38-.6a3.11,3.11,0,0,1,.41-.46,1.57,1.57,0,0,1,.45-.29,1.31,1.31,0,0,1,.52-.11,1.84,1.84,0,0,1,.33,0l.29.07Z"/></g></svg>