<svg xmlns="http://www.w3.org/2000/svg" viewBox="0 0 251 280"><defs><style>.cls-1{fill:#fff;}.cls-2{fill:#75b9d1;}.cls-3{fill:#0072c6;opacity:0.5;}.cls-10,.cls-3,.cls-8{isolation:isolate;}.cls-4{fill:#198ab3;}.cls-5{fill:#5bcbe4;}.cls-6{fill:#32bedd;}.cls-7{fill:#e3e3e4;}.cls-8{fill:#3c3c41;}.cls-10,.cls-8{opacity:0.25;}.cls-9{fill:#c8c8ca;}.cls-10,.cls-11{fill:#ebebeb;}.cls-12{fill:none;stroke:#cec9c9;stroke-width:0.5px;}.cls-13{fill:#f9f9f9;}.cls-14{fill:#fcfcfc;}</style></defs><title>OJ104601291</title><g id="source"><g id="text_shapes" data-name="text+shapes"><g id="Shapes"><rect id="Rectangle-path" class="cls-1" x="0.13" width="250.12" height="279.74"/><g id="Group"><polygon id="Shape" class="cls-2" points="250.13 218.02 140.62 279.74 140.62 252.36 250.13 190.64 250.13 218.02"/><polygon class="cls-3" points="250.13 218.02 140.62 279.74 140.62 252.36 250.13 190.64 250.13 218.02"/></g><polygon class="cls-4" points="140.62 279.74 0.13 198.62 0.13 171.24 140.62 252.36 140.62 279.74"/><polygon class="cls-3" points="140.62 279.74 0.13 198.62 0.13 171.24 140.62 252.36 140.62 279.74"/><polygon class="cls-2" points="250.13 190.64 140.62 252.36 140.62 224.98 250.13 163.26 250.13 190.64"/><polygon class="cls-5" points="250.13 190.64 140.62 252.36 140.62 224.98 250.13 163.26 250.13 190.64"/><polygon class="cls-4" points="140.62 252.36 0.13 171.24 0.13 143.87 140.62 224.98 140.62 252.36"/><polygon class="cls-6" points="140.62 252.36 0.13 171.24 0.13 143.87 140.62 224.98 140.62 252.36"/><polygon class="cls-7" points="250.13 163.26 140.62 224.98 140.62 197.6 250.13 135.88 250.13 163.26"/><polygon class="cls-8" points="250.13 163.26 140.62 224.98 140.62 197.6 250.13 135.88 250.13 163.26"/><polygon class="cls-9" points="140.62 224.98 0.13 143.87 0.13 116.49 140.62 197.61 140.62 224.98"/><polygon class="cls-8" points="140.62 224.98 0.13 143.87 0.13 116.49 140.62 197.61 140.62 224.98"/><polygon class="cls-7" points="250.13 135.88 140.62 197.6 140.62 170.22 250.13 108.5 250.13 135.88"/><polygon class="cls-8" points="250.13 135.88 140.62 197.6 140.62 170.22 250.13 108.5 250.13 135.88"/><polygon class="cls-9" points="140.62 197.6 0.13 116.48 0.13 89.11 140.62 170.22 140.62 197.6"/><polygon class="cls-8" points="140.62 197.6 0.13 116.48 0.13 89.11 140.62 170.22 140.62 197.6"/><polygon class="cls-7" points="250.13 108.49 140.62 170.22 140.62 142.84 250.13 81.12 250.13 108.49"/><polygon class="cls-10" points="250.13 108.49 140.62 170.22 140.62 142.84 250.13 81.12 250.13 108.49"/><polygon class="cls-9" points="140.62 170.22 0.13 89.1 0.13 61.72 140.62 142.84 140.62 170.22"/><polygon class="cls-10" points="140.62 170.22 0.13 89.1 0.13 61.72 140.62 142.84 140.62 170.22"/><polygon class="cls-11" points="140.62 142.84 0.13 61.73 109.63 0 250.13 81.12 140.62 142.84"/><polyline class="cls-12" points="0.13 115.95 140.62 197.1 250.13 135.38"/></g></g></g><g id="text"><path d="M3.71,82.24l.1-1.49a4.66,4.66,0,0,0,.72.94,3.63,3.63,0,0,0,.83.64,1.79,1.79,0,0,0,.43.2.9.9,0,0,0,.31,0,.27.27,0,0,0,.2-.11.4.4,0,0,0,.08-.23.84.84,0,0,0-.08-.4,2.09,2.09,0,0,0-.24-.43c-.11-.15-.23-.31-.38-.48l-.48-.53a5.17,5.17,0,0,1-1-1.36A2.6,2.6,0,0,1,4,77.7a1.48,1.48,0,0,1,.23-.79.86.86,0,0,1,.54-.33,1.61,1.61,0,0,1,.74.06,3.66,3.66,0,0,1,.88.38,8,8,0,0,1,.8.51,5.71,5.71,0,0,1,.63.56l-.09,1.38a3.57,3.57,0,0,0-.3-.38c-.11-.12-.23-.24-.34-.34s-.24-.21-.36-.3-.23-.16-.34-.22A2.34,2.34,0,0,0,6,78.05a.69.69,0,0,0-.31,0,.3.3,0,0,0-.21.1.32.32,0,0,0-.08.23.87.87,0,0,0,0,.35,2.42,2.42,0,0,0,.21.37,3.35,3.35,0,0,0,.32.42c.13.16.28.32.44.5a7.25,7.25,0,0,1,.6.7,4.58,4.58,0,0,1,.45.7,3.24,3.24,0,0,1,.27.71,2.37,2.37,0,0,1,.06.76,1.57,1.57,0,0,1-.24.83A.82.82,0,0,1,7,84a1.56,1.56,0,0,1-.75-.08,4.3,4.3,0,0,1-.89-.4,7,7,0,0,1-.9-.6A5.45,5.45,0,0,1,3.71,82.24Z"/><path d="M9.74,85.92,8.47,85.2l.3-4.74,1.28.72Zm-.28-5.85A1.39,1.39,0,0,1,9,79.56a1.13,1.13,0,0,1-.17-.66A.42.42,0,0,1,9,78.48a.63.63,0,0,1,.54.09,1.34,1.34,0,0,1,.52.51,1.2,1.2,0,0,1,.17.65.47.47,0,0,1-.24.43A.58.58,0,0,1,9.46,80.07Z"/><path d="M10.55,86.25l.08-1.18a5.92,5.92,0,0,0,.6.68,3.46,3.46,0,0,0,.59.44,1.24,1.24,0,0,0,.54.2c.14,0,.21-.07.22-.22a.52.52,0,0,0-.08-.28,1.61,1.61,0,0,0-.21-.29l-.3-.3-.31-.3c-.16-.17-.3-.32-.42-.47a2.93,2.93,0,0,1-.3-.45,2,2,0,0,1-.17-.47,1.81,1.81,0,0,1,0-.53,1,1,0,0,1,.19-.59.63.63,0,0,1,.43-.21,1.45,1.45,0,0,1,.6.07,5.63,5.63,0,0,1,.68.31l1.82,1,.06-1,1.3.31-.09,1.44.93.52L16.61,86l-.93-.52-.12,1.91a1,1,0,0,0,.46,1,.74.74,0,0,0,.43.1l-.07,1.09a1.86,1.86,0,0,1-.86-.31A2.35,2.35,0,0,1,14.27,87l.14-2.18-1.77-1-.24-.13a1.32,1.32,0,0,0-.19-.08.17.17,0,0,0-.14,0,.12.12,0,0,0-.06.12.35.35,0,0,0,.06.23,1,1,0,0,0,.18.25l.25.26.28.27c.17.16.31.33.45.48a3,3,0,0,1,.33.49,1.87,1.87,0,0,1,.2.51,1.7,1.7,0,0,1,.05.56,1.07,1.07,0,0,1-.21.63.67.67,0,0,1-.45.24,1.44,1.44,0,0,1-.63-.07,3.71,3.71,0,0,1-.72-.32A5.78,5.78,0,0,1,10.55,86.25Z"/><path d="M20.93,90.24l-2.69-1.53a1.83,1.83,0,0,0,1.06,1.68,2,2,0,0,0,1.23.31l-.07,1A2.92,2.92,0,0,1,19,91.26a3.87,3.87,0,0,1-1.52-1.51A3.81,3.81,0,0,1,17,87.66a1.74,1.74,0,0,1,.71-1.54,1.5,1.5,0,0,1,1.51.15,3.24,3.24,0,0,1,1.36,1.41A3.57,3.57,0,0,1,21,89.63Zm-1.12-1.57a1.39,1.39,0,0,0-.66-1.42.48.48,0,0,0-.55,0,.84.84,0,0,0-.31.57Z"/><path d="M28.12,96.35l-1.27-.72L27,92.92a1.37,1.37,0,0,0-.6-1.4.4.4,0,0,0-.53,0,.92.92,0,0,0-.25.66l-.17,2.65-1.27-.72.17-2.74A1.34,1.34,0,0,0,23.8,90a.46.46,0,0,0-.55,0,1,1,0,0,0-.24.7l-.17,2.63-1.28-.72.31-4.74,1.27.72-.05.74h0a.83.83,0,0,1,.6-.3,1.29,1.29,0,0,1,.79.2,2.34,2.34,0,0,1,1.14,1.57c.36-.42.84-.45,1.45-.1a2.6,2.6,0,0,1,1.22,2.67Z"/><path d="M32.57,98.87l-1.2-.68,0-.69h0c-.31.37-.74.4-1.28.09a2.31,2.31,0,0,1-1.2-2.16c.06-.92.57-1.18,1.53-.79l1.13.47a1.22,1.22,0,0,0-.68-1.2,2.13,2.13,0,0,0-1.44-.29l.07-1.1a2.62,2.62,0,0,1,.75.14,4,4,0,0,1,.84.35,3,3,0,0,1,1.64,3ZM31.5,96.26l0-.31-.76-.32c-.42-.17-.64-.08-.66.29a.92.92,0,0,0,.12.5,1.15,1.15,0,0,0,.4.39.56.56,0,0,0,.6,0A.71.71,0,0,0,31.5,96.26Z"/><path d="M39.9,103l-1.27-.72,0-.66h0c-.32.35-.76.36-1.32,0a3,3,0,0,1-1.21-1.34,4,4,0,0,1-.36-2,2,2,0,0,1,.64-1.59,1.24,1.24,0,0,1,1.41.07,2.23,2.23,0,0,1,1.07,1.29h0l.18-2.82,1.27.72Zm-1.1-3,0-.35a1.78,1.78,0,0,0-.18-.9,1.45,1.45,0,0,0-.59-.65.55.55,0,0,0-.69,0,1.42,1.42,0,0,0-.3.92,2.24,2.24,0,0,0,.17,1.09,1.45,1.45,0,0,0,.61.7.55.55,0,0,0,.66,0A1.15,1.15,0,0,0,38.8,100Z"/><path d="M44.81,103.79l-2.69-1.53a1.86,1.86,0,0,0,1.07,1.68,2,2,0,0,0,1.22.31l-.07,1a3,3,0,0,1-1.51-.49,3.8,3.8,0,0,1-1.51-1.52,3.71,3.71,0,0,1-.44-2.09,1.74,1.74,0,0,1,.71-1.53,1.52,1.52,0,0,1,1.52.14,3.48,3.48,0,0,1,1.36,1.41,3.7,3.7,0,0,1,.38,2Zm-1.12-1.57a1.41,1.41,0,0,0-.66-1.43.48.48,0,0,0-.54,0,.81.81,0,0,0-.32.57Z"/><path d="M51.17,109.42,50,108.73l0-.68h0c-.32.38-.74.41-1.29.1a2.42,2.42,0,0,1-.92-.93A2.33,2.33,0,0,1,47.5,106q.09-1.38,1.53-.78l1.13.46a1.19,1.19,0,0,0-.68-1.19,2.07,2.07,0,0,0-1.44-.29l.07-1.1a2.45,2.45,0,0,1,.75.13,3.62,3.62,0,0,1,.85.36,3,3,0,0,1,1.64,3Zm-1.08-2.61,0-.32-.76-.31c-.42-.18-.64-.08-.66.29a.89.89,0,0,0,.12.49,1,1,0,0,0,.4.39.55.55,0,0,0,.61.05A.71.71,0,0,0,50.09,106.81Z"/><path d="M55.09,108.1a1.74,1.74,0,0,0-.53-.45c-.28-.16-.5-.17-.67,0a1.16,1.16,0,0,0-.3.82l-.14,2.26L52.17,110l.31-4.74,1.27.72-.06.88h0a.72.72,0,0,1,1.15-.35,1.19,1.19,0,0,1,.31.24Z"/><path d="M58.57,113.44a2.35,2.35,0,0,1-1.26-.42,3.77,3.77,0,0,1-1.5-1.54,3.58,3.58,0,0,1-.48-2,1.7,1.7,0,0,1,.75-1.55,1.83,1.83,0,0,1,1.73.27,3.41,3.41,0,0,1,1,.82l-.08,1.24a2.69,2.69,0,0,0-.87-.85.94.94,0,0,0-.9-.13,1,1,0,0,0-.38.84,2.1,2.1,0,0,0,.24,1.16,2.13,2.13,0,0,0,.82.84,1.39,1.39,0,0,0,1,.18Z"/><path d="M63.36,116.33l-1.27-.72.17-2.69a1.37,1.37,0,0,0-.59-1.42.5.5,0,0,0-.57,0,.82.82,0,0,0-.26.62l-.17,2.71-1.27-.73.44-7,1.28.72-.19,3h0a1,1,0,0,1,1.33-.1,2.69,2.69,0,0,1,1.28,2.74Z"/><path d="M65.65,117.63l-1.28-.72.3-4.74,1.28.72Zm-.28-5.85a1.3,1.3,0,0,1-.52-.52,1.15,1.15,0,0,1-.17-.65.42.42,0,0,1,.24-.42.62.62,0,0,1,.54.09,1.34,1.34,0,0,1,.52.51,1.12,1.12,0,0,1,.17.65.44.44,0,0,1-.24.43A.59.59,0,0,1,65.37,111.78Z"/><path d="M71,115.73l-1.84,3.87-1.46-.83L66.5,113.2l1.36.78.54,3.32a6,6,0,0,1,.08.93h0a3.69,3.69,0,0,1,.2-.73l.92-2.54Z"/><path d="M73.08,122a3.94,3.94,0,0,1-1.58-1.58,3.81,3.81,0,0,1-.48-2.14c0-.78.29-1.28.73-1.49a1.86,1.86,0,0,1,1.7.27A4,4,0,0,1,75,118.6a3.9,3.9,0,0,1,.48,2.09,1.69,1.69,0,0,1-.73,1.53A1.75,1.75,0,0,1,73.08,122Zm.28-3.83a.64.64,0,0,0-.73,0,1.14,1.14,0,0,0-.31.87,1.86,1.86,0,0,0,.87,1.91c.61.34,1,0,1-.89A1.82,1.82,0,0,0,73.36,118.13Z"/><path d="M75.91,123.32l.07-1.19a4.12,4.12,0,0,0,.61.68,3.52,3.52,0,0,0,.58.45,1.34,1.34,0,0,0,.54.19c.14,0,.21-.06.22-.21a.49.49,0,0,0-.07-.28,1.85,1.85,0,0,0-.22-.29q-.14-.15-.3-.3c-.11-.1-.21-.2-.31-.31a5.71,5.71,0,0,1-.42-.47,2.39,2.39,0,0,1-.29-.47,1.62,1.62,0,0,1-.17-.48,1.91,1.91,0,0,1,0-.54,1,1,0,0,1,.2-.6.61.61,0,0,1,.43-.24,1.24,1.24,0,0,1,.59.06,3.29,3.29,0,0,1,.69.29c.18.11.36.23.55.37s.37.29.55.45L79,121.56a3.6,3.6,0,0,0-.5-.53,3,3,0,0,0-.54-.39,1,1,0,0,0-.23-.11.54.54,0,0,0-.2,0,.25.25,0,0,0-.15.05.23.23,0,0,0,0,.15.48.48,0,0,0,0,.26,2.11,2.11,0,0,0,.18.27,3.25,3.25,0,0,0,.26.27l.27.27a5,5,0,0,1,.45.48,3.43,3.43,0,0,1,.33.48,2.2,2.2,0,0,1,.21.51,2.06,2.06,0,0,1,0,.56,1.12,1.12,0,0,1-.2.63.73.73,0,0,1-.46.25,1.62,1.62,0,0,1-.63-.07,4.43,4.43,0,0,1-.72-.32A5.72,5.72,0,0,1,75.91,123.32Z"/><path d="M86.13,129.25l-1.28-.73,0-.65h0c-.33.35-.77.36-1.33,0a2.91,2.91,0,0,1-1.21-1.33,4,4,0,0,1-.36-2,2.07,2.07,0,0,1,.64-1.59A1.24,1.24,0,0,1,84,123a2.24,2.24,0,0,1,1.07,1.28h0l.18-2.82,1.28.73Zm-1.11-3,0-.35a2,2,0,0,0-.19-.91,1.44,1.44,0,0,0-.59-.65.55.55,0,0,0-.69,0,1.39,1.39,0,0,0-.3.91,2.28,2.28,0,0,0,.17,1.1,1.5,1.5,0,0,0,.61.7.57.57,0,0,0,.66,0A1.09,1.09,0,0,0,85,126.23Z"/><path d="M91,130l-2.7-1.53a1.85,1.85,0,0,0,1.07,1.67,1.93,1.93,0,0,0,1.22.31l-.07,1.06a3,3,0,0,1-1.51-.49,3.77,3.77,0,0,1-2-3.61,1.71,1.71,0,0,1,.72-1.53,1.48,1.48,0,0,1,1.51.14,3.3,3.3,0,0,1,1.36,1.41,3.8,3.8,0,0,1,.39,1.95Zm-1.13-1.57a1.39,1.39,0,0,0-.65-1.43.5.5,0,0,0-.55,0,.84.84,0,0,0-.32.58Z"/><path d="M97.09,135.29a2.35,2.35,0,0,1-1.26-.42,3.77,3.77,0,0,1-1.5-1.54,3.58,3.58,0,0,1-.48-2,1.7,1.7,0,0,1,.75-1.55,1.85,1.85,0,0,1,1.73.26,3.42,3.42,0,0,1,1,.83l-.08,1.24a2.51,2.51,0,0,0-.87-.85.92.92,0,0,0-.89-.13,1,1,0,0,0-.39.84,2.1,2.1,0,0,0,.24,1.16,2.2,2.2,0,0,0,.82.84,1.39,1.39,0,0,0,1,.18Z"/><path d="M99.88,137.17a4,4,0,0,1-1.58-1.59,3.81,3.81,0,0,1-.48-2.14c.05-.78.29-1.28.73-1.49a1.84,1.84,0,0,1,1.7.28,4,4,0,0,1,2,3.66,1.72,1.72,0,0,1-.73,1.53A1.77,1.77,0,0,1,99.88,137.17Zm.28-3.84c-.31-.17-.55-.18-.73,0a1.14,1.14,0,0,0-.31.87,1.85,1.85,0,0,0,.87,1.91c.61.35,1,.05,1-.88A1.83,1.83,0,0,0,100.16,133.33Z"/><path d="M107,141.06l-1.27-.72.16-2.63a1.43,1.43,0,0,0-.61-1.49.47.47,0,0,0-.56,0,.74.74,0,0,0-.26.62l-.18,2.7L103,138.8l.3-4.74,1.28.72,0,.75h0a1,1,0,0,1,1.39-.11,2.65,2.65,0,0,1,1.24,2.73Z"/><path d="M110.47,143a1.78,1.78,0,0,1-.87-.31,2.36,2.36,0,0,1-1.24-2.37l.14-2.17-.67-.38.07-1.08.67.38.06-1,1.3.3-.09,1.44.93.53-.07,1.08-.93-.53-.12,1.92a1,1,0,0,0,.46,1,.74.74,0,0,0,.43.1Z"/><path d="M115,143.59l-2.7-1.53a1.88,1.88,0,0,0,1.07,1.68,1.93,1.93,0,0,0,1.22.31l-.07,1a2.94,2.94,0,0,1-1.51-.49,3.77,3.77,0,0,1-2-3.61,1.74,1.74,0,0,1,.72-1.53,1.5,1.5,0,0,1,1.51.15,3.33,3.33,0,0,1,1.36,1.4,3.82,3.82,0,0,1,.39,2ZM113.86,142a1.36,1.36,0,0,0-.65-1.42.48.48,0,0,0-.55,0,.84.84,0,0,0-.32.57Z"/><path d="M119.61,148.24l-1.27-.72.17-2.64a1.44,1.44,0,0,0-.62-1.49.48.48,0,0,0-.56,0,.77.77,0,0,0-.26.62l-.17,2.7-1.28-.72.3-4.74,1.28.72,0,.75h0q.51-.61,1.38-.12a2.68,2.68,0,0,1,1.25,2.74Z"/><path d="M124.46,149l-2.7-1.53a1.87,1.87,0,0,0,1.07,1.68,1.93,1.93,0,0,0,1.22.31l-.07,1.05a2.94,2.94,0,0,1-1.51-.49,3.77,3.77,0,0,1-2-3.6,1.74,1.74,0,0,1,.72-1.54,1.5,1.5,0,0,1,1.51.15,3.3,3.3,0,0,1,1.36,1.41,3.76,3.76,0,0,1,.39,1.95Zm-1.13-1.57a1.36,1.36,0,0,0-.65-1.42.48.48,0,0,0-.55,0,.84.84,0,0,0-.32.57Z"/><path d="M129.13,153.64l-1.27-.72,0-.66h0c-.32.35-.76.37-1.32.05a3,3,0,0,1-1.21-1.34,3.93,3.93,0,0,1-.36-2,2,2,0,0,1,.64-1.59,1.24,1.24,0,0,1,1.41.07,2.23,2.23,0,0,1,1.07,1.29h0l.18-2.82,1.27.72Zm-1.1-3,0-.35a1.78,1.78,0,0,0-.18-.9,1.5,1.5,0,0,0-.59-.65.55.55,0,0,0-.69,0,1.42,1.42,0,0,0-.3.92,2.24,2.24,0,0,0,.17,1.09,1.45,1.45,0,0,0,.61.7.52.52,0,0,0,.65,0A1.09,1.09,0,0,0,128,150.62Z"/><path d="M132.17,155.48a4,4,0,0,1-1.58-1.59,3.76,3.76,0,0,1-.48-2.13c0-.79.29-1.28.73-1.5a1.86,1.86,0,0,1,1.7.28,4,4,0,0,1,1.57,1.58,3.86,3.86,0,0,1,.48,2.09,1.7,1.7,0,0,1-.73,1.52A1.74,1.74,0,0,1,132.17,155.48Zm.28-3.83c-.3-.17-.55-.19-.73,0a1.17,1.17,0,0,0-.31.86,1.85,1.85,0,0,0,.87,1.91c.61.35.95.06,1-.88A1.82,1.82,0,0,0,132.45,151.65Z"/><path d="M138.17,155.22a1.92,1.92,0,0,0-.53-.45.57.57,0,0,0-.67,0,1.14,1.14,0,0,0-.29.82l-.15,2.27-1.27-.73.3-4.74,1.28.73-.06.88h0a.71.71,0,0,1,1.15-.35,1.38,1.38,0,0,1,.31.23Z"/><path d="M183.4,137.4a8.94,8.94,0,0,1-2.6,2.26,3,3,0,0,1-2.82.49c-.71-.35-1.1-1.19-1.17-2.5a7.15,7.15,0,0,1,.93-3.87,7.63,7.63,0,0,1,2.87-3,6.2,6.2,0,0,1,2-.82l.09,1.77a3.78,3.78,0,0,0-2.08.64,4.33,4.33,0,0,0-1.62,1.74,4.68,4.68,0,0,0-.53,2.41c0,.86.27,1.42.68,1.66a1.52,1.52,0,0,0,1.59-.19,3.58,3.58,0,0,0,.92-.74l-.09-1.64-1.45.85-.08-1.51,3.09-1.8Z"/><path d="M187.94,130.87a1.24,1.24,0,0,0-.68.21,2,2,0,0,0-.8.92,3.09,3.09,0,0,0-.22,1.38l.15,2.86-1.6.93-.32-6,1.6-.94.06,1.12h0a2.89,2.89,0,0,1,1.3-2,1.05,1.05,0,0,1,.4-.16Z"/><path d="M193.32,132.18l-1.51.88-.05-.86v0a3.49,3.49,0,0,1-1.5,1.91,1.26,1.26,0,0,1-1.21.19,1.17,1.17,0,0,1-.5-1.06,3.53,3.53,0,0,1,1.68-3.06l1.4-1c0-.65-.36-.8-1-.44a5.7,5.7,0,0,0-1.72,1.66l-.08-1.39a7.61,7.61,0,0,1,.9-.88,7,7,0,0,1,1-.77q2.22-1.31,2.35,1.26Zm-1.63-1.56,0-.4-.93.69a1.5,1.5,0,0,0-.74,1.27.42.42,0,0,0,.22.41.6.6,0,0,0,.52-.1,1.91,1.91,0,0,0,.72-.79A2.17,2.17,0,0,0,191.69,130.62Z"/><path d="M196.27,129.74h0l0,.69-1.6.94-.47-8.87,1.6-.94.2,3.78h0a3.86,3.86,0,0,1,1.63-2c.67-.39,1.2-.43,1.58-.11a2.52,2.52,0,0,1,.66,1.86,5.88,5.88,0,0,1-.51,2.78,4,4,0,0,1-1.64,1.89C197.13,130.11,196.63,130.11,196.27,129.74Zm-.18-2.51,0,.62a1,1,0,0,0,.33.79.67.67,0,0,0,.76,0,1.89,1.89,0,0,0,.82-1,3.47,3.47,0,0,0,.23-1.56,1.44,1.44,0,0,0-.33-1c-.2-.17-.47-.15-.81,0a2,2,0,0,0-.78.88A2.62,2.62,0,0,0,196.09,127.23Z"/><path d="M205.43,125.1l-1.52.89,0-.86h0a3.47,3.47,0,0,1-1.49,1.91,1.23,1.23,0,0,1-1.21.19,1.15,1.15,0,0,1-.51-1.06,3.54,3.54,0,0,1,1.68-3.06l1.4-1c0-.65-.36-.8-1-.44a5.54,5.54,0,0,0-1.73,1.67l-.07-1.4a6.74,6.74,0,0,1,.89-.88,6.59,6.59,0,0,1,1-.77q2.22-1.31,2.35,1.26Zm-1.63-1.56,0-.4-.93.69a1.53,1.53,0,0,0-.74,1.27.46.46,0,0,0,.22.41.58.58,0,0,0,.53-.1,1.89,1.89,0,0,0,.71-.79A2.08,2.08,0,0,0,203.8,123.54Z"/><path d="M208.38,122.66h0l0,.7-1.6.93-.46-8.87,1.6-.93.19,3.78,0,0a3.86,3.86,0,0,1,1.63-2c.67-.39,1.2-.42,1.59-.11A2.52,2.52,0,0,1,212,118a5.75,5.75,0,0,1-.5,2.78,4.16,4.16,0,0,1-1.64,1.9C209.23,123,208.73,123,208.38,122.66Zm-.18-2.5,0,.61a.94.94,0,0,0,.34.79.67.67,0,0,0,.76,0,2,2,0,0,0,.82-1,3.67,3.67,0,0,0,.23-1.56,1.4,1.4,0,0,0-.34-1c-.2-.18-.47-.16-.81,0a2,2,0,0,0-.77.88A2.42,2.42,0,0,0,208.2,120.16Z"/><path d="M214.92,119.55l-1.6.93-.47-8.87,1.6-.93Z"/><path d="M220.89,113.51l-3.38,2c.1.84.6,1,1.49.47a4.86,4.86,0,0,0,1.48-1.35l.07,1.34a6.58,6.58,0,0,1-1.84,1.53,2.07,2.07,0,0,1-2,.34c-.49-.27-.76-.88-.81-1.84a5.13,5.13,0,0,1,.62-2.8,4.75,4.75,0,0,1,1.8-2,1.73,1.73,0,0,1,1.79-.25,2.08,2.08,0,0,1,.73,1.75Zm-1.54-.27c0-.86-.37-1.11-1-.76a1.7,1.7,0,0,0-.64.76,2.75,2.75,0,0,0-.3,1.12Z"/><path d="M50.56,134.89,48.92,134l.58-8.38,1.64.94Z"/><path d="M60.33,140.5l-1.61-.92.24-3.42a1.73,1.73,0,0,0-.74-1.78.53.53,0,0,0-.67,0,1.21,1.21,0,0,0-.32.84L57,138.59l-1.61-.93.24-3.45a1.66,1.66,0,0,0-.73-1.73.55.55,0,0,0-.68,0,1.22,1.22,0,0,0-.32.88l-.23,3.33-1.61-.93.42-6,1.6.92-.06.94h0a1.06,1.06,0,0,1,.75-.38,1.75,1.75,0,0,1,1,.26,3,3,0,0,1,1.43,2c.45-.51,1.05-.55,1.82-.11a3.29,3.29,0,0,1,1.53,3.38Z"/><path d="M65.92,143.71l-1.51-.87.06-.86h0c-.39.47-.93.51-1.61.11a3,3,0,0,1-1.16-1.17,2.8,2.8,0,0,1-.34-1.57c.08-1.16.72-1.49,1.93-1l1.43.59a1.54,1.54,0,0,0-.86-1.51,2.66,2.66,0,0,0-1.81-.38l.09-1.39a3,3,0,0,1,.94.18,5,5,0,0,1,1.07.45,3.8,3.8,0,0,1,2,3.83Zm-1.34-3.3,0-.4-1-.4q-.79-.33-.84.36a1.13,1.13,0,0,0,.15.63,1.36,1.36,0,0,0,.51.5.71.71,0,0,0,.76.06A.9.9,0,0,0,64.58,140.41Z"/><path d="M72.34,146.69c-.07,1.11-.41,1.81-1,2.1a2.76,2.76,0,0,1-2.49-.48A6.18,6.18,0,0,1,67.19,147l.11-1.55a5.49,5.49,0,0,0,1.58,1.47,1.42,1.42,0,0,0,1.3.23,1.2,1.2,0,0,0,.54-1.09l0-.47h0c-.41.46-1,.48-1.69.07a3.69,3.69,0,0,1-1.52-1.71,5,5,0,0,1-.44-2.5,2.63,2.63,0,0,1,.82-2,1.53,1.53,0,0,1,1.77.09A3.07,3.07,0,0,1,71,141.15h0l0-.7,1.6.93Zm-1.43-3.11,0-.47a2.29,2.29,0,0,0-.22-1.13,1.84,1.84,0,0,0-.73-.84c-.36-.2-.65-.21-.88,0a1.74,1.74,0,0,0-.39,1.17,2.83,2.83,0,0,0,.2,1.35,1.83,1.83,0,0,0,.77.89.69.69,0,0,0,.83,0A1.27,1.27,0,0,0,70.91,143.58Z"/><path d="M78.48,148.36l-3.39-2a2.32,2.32,0,0,0,1.34,2.12,2.39,2.39,0,0,0,1.54.4l-.09,1.33a3.71,3.71,0,0,1-1.91-.63,4.73,4.73,0,0,1-2.44-4.57,2.2,2.2,0,0,1,.91-1.93,1.9,1.9,0,0,1,1.91.2,4.19,4.19,0,0,1,1.71,1.78,4.71,4.71,0,0,1,.48,2.47Zm-1.41-2a1.76,1.76,0,0,0-.81-1.81.64.64,0,0,0-.7,0,1.06,1.06,0,0,0-.4.72Z"/><path d="M84.29,154.26l-1.6-.92.23-3.33a1.82,1.82,0,0,0-.76-1.88.64.64,0,0,0-.72,0,1,1,0,0,0-.33.78l-.24,3.42-1.6-.93.41-6,1.61.92-.07.95h0c.44-.51,1-.55,1.75-.13a3.36,3.36,0,0,1,1.56,3.45Z"/><path d="M52.05,163.11l-1.65-1,.58-8.38,1.65.94Z"/><path d="M61.81,168.71l-1.6-.92.23-3.41a1.73,1.73,0,0,0-.74-1.78.52.52,0,0,0-.67,0,1.16,1.16,0,0,0-.32.83l-.23,3.35-1.61-.92.24-3.45a1.67,1.67,0,0,0-.73-1.74.54.54,0,0,0-.68,0,1.22,1.22,0,0,0-.32.87l-.23,3.33L53.54,164l.42-6,1.6.92-.06.94h0a1.09,1.09,0,0,1,.75-.38,1.68,1.68,0,0,1,1,.27,3,3,0,0,1,1.43,2c.45-.52,1.06-.56,1.82-.11A3.24,3.24,0,0,1,62.06,165Z"/><path d="M67.41,171.93l-1.52-.88.06-.86h0q-.6.7-1.62.12a2.93,2.93,0,0,1-1.16-1.18,2.78,2.78,0,0,1-.34-1.57c.08-1.16.72-1.49,1.93-1l1.43.6a1.54,1.54,0,0,0-.86-1.52,2.64,2.64,0,0,0-1.81-.37l.09-1.4a3.49,3.49,0,0,1,1,.18,4.93,4.93,0,0,1,1.07.46,3.8,3.8,0,0,1,2,3.83Zm-1.34-3.3,0-.41-1-.4c-.53-.22-.81-.1-.84.37a1.18,1.18,0,0,0,.15.62,1.29,1.29,0,0,0,.51.5.71.71,0,0,0,.76.06A.92.92,0,0,0,66.07,168.63Z"/><path d="M73.83,174.9q-.12,1.66-1,2.1a2.76,2.76,0,0,1-2.49-.48,6.33,6.33,0,0,1-1.65-1.3l.11-1.56a5.39,5.39,0,0,0,1.59,1.47,1.39,1.39,0,0,0,1.29.23,1.19,1.19,0,0,0,.54-1.08l0-.48h0c-.41.46-1,.49-1.69.08A3.72,3.72,0,0,1,69,172.15a5,5,0,0,1-.44-2.5,2.63,2.63,0,0,1,.82-2,1.56,1.56,0,0,1,1.77.09,3.1,3.1,0,0,1,1.37,1.66h0l0-.69,1.6.92Zm-1.44-3.1,0-.47a2.22,2.22,0,0,0-.22-1.14,1.84,1.84,0,0,0-.73-.84.7.7,0,0,0-.87,0,1.72,1.72,0,0,0-.4,1.18,2.71,2.71,0,0,0,.21,1.35,1.77,1.77,0,0,0,.76.89.7.7,0,0,0,.83,0A1.31,1.31,0,0,0,72.39,171.8Z"/><path d="M80,176.57l-3.4-1.95a2.37,2.37,0,0,0,1.34,2.13,2.47,2.47,0,0,0,1.54.4l-.09,1.33a3.81,3.81,0,0,1-1.91-.63,4.89,4.89,0,0,1-1.9-1.93,4.82,4.82,0,0,1-.54-2.64,2.16,2.16,0,0,1,.92-1.93,1.9,1.9,0,0,1,1.91.19,4.13,4.13,0,0,1,1.7,1.79,4.67,4.67,0,0,1,.48,2.46Zm-1.41-2a1.77,1.77,0,0,0-.82-1.8.62.62,0,0,0-.69,0,1.07,1.07,0,0,0-.41.72Z"/><path d="M85.78,182.47l-1.61-.92.24-3.32a1.85,1.85,0,0,0-.77-1.89.6.6,0,0,0-.71,0,1,1,0,0,0-.34.78l-.23,3.41-1.61-.92.41-6,1.61.92-.06.95h0c.43-.51,1-.55,1.74-.13A3.36,3.36,0,0,1,86,178.81Z"/><path d="M39.14,184.13l-1.64-.95.58-8.38,1.64.94Z"/><path d="M48.9,189.73l-1.6-.92.24-3.41a1.73,1.73,0,0,0-.75-1.79.52.52,0,0,0-.67,0,1.16,1.16,0,0,0-.31.83l-.24,3.35L44,186.9l.24-3.45a1.69,1.69,0,0,0-.73-1.74.55.55,0,0,0-.69,0,1.22,1.22,0,0,0-.31.87l-.23,3.33L40.64,185l.41-6,1.61.92-.07.94h0a1,1,0,0,1,.75-.38,1.71,1.71,0,0,1,1,.26,3,3,0,0,1,1.43,2q.68-.78,1.83-.12A3.3,3.3,0,0,1,49.16,186Z"/><path d="M54.5,192.94,53,192.07l.06-.86h0q-.59.7-1.62.12a3.06,3.06,0,0,1-1.16-1.18,2.89,2.89,0,0,1-.34-1.57c.08-1.16.73-1.49,1.93-1l1.43.59a1.52,1.52,0,0,0-.86-1.51,2.7,2.7,0,0,0-1.81-.38l.1-1.39a3.43,3.43,0,0,1,.94.18,4.93,4.93,0,0,1,1.07.46,3.8,3.8,0,0,1,2,3.83Zm-1.34-3.29,0-.41-1-.4c-.52-.22-.8-.1-.83.36a1.05,1.05,0,0,0,.15.63,1.33,1.33,0,0,0,.5.5.71.71,0,0,0,.76.06A.87.87,0,0,0,53.16,189.65Z"/><path d="M60.92,195.92q-.12,1.67-1,2.1a2.76,2.76,0,0,1-2.49-.48,6.11,6.11,0,0,1-1.64-1.3l.11-1.56a5.49,5.49,0,0,0,1.58,1.47,1.39,1.39,0,0,0,1.29.23,1.16,1.16,0,0,0,.54-1.09l0-.47h0c-.42.46-1,.48-1.69.07a3.66,3.66,0,0,1-1.53-1.71,5,5,0,0,1-.43-2.5,2.63,2.63,0,0,1,.82-2,1.54,1.54,0,0,1,1.77.09,3.05,3.05,0,0,1,1.36,1.66h0l0-.69,1.61.92Zm-1.43-3.1,0-.48a2.21,2.21,0,0,0-.23-1.13,1.78,1.78,0,0,0-.73-.84.7.7,0,0,0-.87,0,1.74,1.74,0,0,0-.4,1.17,3,3,0,0,0,.21,1.35,1.84,1.84,0,0,0,.76.9.72.72,0,0,0,.84,0A1.38,1.38,0,0,0,59.49,192.82Z"/><path d="M67.06,197.59l-3.39-2A2.36,2.36,0,0,0,65,197.77a2.48,2.48,0,0,0,1.55.39l-.1,1.34a3.71,3.71,0,0,1-1.9-.64,4.73,4.73,0,0,1-2.44-4.56,2.16,2.16,0,0,1,.91-1.93,1.88,1.88,0,0,1,1.91.19,4.16,4.16,0,0,1,1.71,1.79,4.55,4.55,0,0,1,.47,2.46Zm-1.41-2a1.73,1.73,0,0,0-.82-1.8.6.6,0,0,0-.69,0,1.11,1.11,0,0,0-.41.72Z"/><path d="M72.87,203.49l-1.6-.92.23-3.32a1.83,1.83,0,0,0-.77-1.89.62.62,0,0,0-.71,0,1,1,0,0,0-.33.78l-.24,3.42-1.6-.92.41-6,1.61.92-.07,1h0c.43-.51,1-.55,1.75-.13a3.34,3.34,0,0,1,1.55,3.46Z"/><path d="M78.69,206.11h0l0,.69L77,205.87l.62-8.86,1.6.92L79,201.71h0a1.31,1.31,0,0,1,1.76-.08,3.54,3.54,0,0,1,1.5,1.69,5,5,0,0,1,.39,2.48,2.7,2.7,0,0,1-.8,2,1.49,1.49,0,0,1-1.76-.07A3.13,3.13,0,0,1,78.69,206.11Zm.13-2.55,0,.61a2.22,2.22,0,0,0,.23,1.12,1.72,1.72,0,0,0,.71.81c.37.21.66.21.89,0a1.85,1.85,0,0,0,.39-1.21,2.83,2.83,0,0,0-.19-1.32,1.85,1.85,0,0,0-.76-.87.74.74,0,0,0-.83,0A1.09,1.09,0,0,0,78.82,203.56Z"/><path d="M87.69,212l-1.52-.87.06-.86h0c-.39.47-.93.51-1.62.11a2.94,2.94,0,0,1-1.15-1.17,2.9,2.9,0,0,1-.35-1.57c.08-1.16.73-1.49,1.94-1l1.42.59a1.52,1.52,0,0,0-.85-1.51,2.67,2.67,0,0,0-1.82-.38l.1-1.39a3.08,3.08,0,0,1,.94.18,5.21,5.21,0,0,1,1.07.45,3.8,3.8,0,0,1,2,3.83Zm-1.34-3.3,0-.4-1-.4c-.52-.22-.8-.1-.83.36a1.05,1.05,0,0,0,.15.63,1.41,1.41,0,0,0,.5.5.71.71,0,0,0,.76.06A.87.87,0,0,0,86.35,208.7Z"/><path d="M88.63,212.38l.11-1.5a6,6,0,0,0,.76.86,4.73,4.73,0,0,0,.73.57,1.76,1.76,0,0,0,.69.25q.26,0,.27-.27a.62.62,0,0,0-.09-.36,2.65,2.65,0,0,0-.27-.37c-.12-.12-.24-.25-.38-.37l-.39-.39c-.2-.21-.37-.41-.52-.6a3.19,3.19,0,0,1-.37-.59A2.32,2.32,0,0,1,89,209a2.25,2.25,0,0,1,0-.69,1.23,1.23,0,0,1,.25-.76.91.91,0,0,1,.54-.3,1.82,1.82,0,0,1,.75.08,4.27,4.27,0,0,1,.86.38,5.71,5.71,0,0,1,.7.47,8.85,8.85,0,0,1,.69.58l-.1,1.42a4.53,4.53,0,0,0-.63-.68,3.61,3.61,0,0,0-.68-.49,1.35,1.35,0,0,0-.3-.14.85.85,0,0,0-.25-.05.28.28,0,0,0-.18.06.26.26,0,0,0-.07.19.58.58,0,0,0,.07.33,1.94,1.94,0,0,0,.22.34l.32.34.35.34c.21.21.39.41.56.61a4.83,4.83,0,0,1,.42.62,2.5,2.5,0,0,1,.25.64,2.36,2.36,0,0,1,0,.71,1.3,1.3,0,0,1-.26.79.86.86,0,0,1-.58.31,1.77,1.77,0,0,1-.79-.1,5.39,5.39,0,0,1-.91-.4A7.62,7.62,0,0,1,88.63,212.38Z"/><path d="M98.39,215.58l-3.4-2a2.34,2.34,0,0,0,1.34,2.12,2.47,2.47,0,0,0,1.54.4l-.09,1.33a3.81,3.81,0,0,1-1.91-.63,4.77,4.77,0,0,1-1.9-1.93,4.91,4.91,0,0,1-.54-2.64,2.21,2.21,0,0,1,.92-1.93,1.9,1.9,0,0,1,1.91.19,4.19,4.19,0,0,1,1.7,1.79,4.71,4.71,0,0,1,.48,2.47Zm-1.41-2a1.77,1.77,0,0,0-.82-1.81.6.6,0,0,0-.69,0,1.07,1.07,0,0,0-.41.72Z"/><path d="M158.9,178.32l-1.78,1-.61-1.56-2.58,1.51-.42,2.16-1.77,1,2.2-9.94,1.94-1.13Zm-2.84-1.76-.93-2.36a3.25,3.25,0,0,1-.16-.68l0,0a5.94,5.94,0,0,1-.09.8l-.64,3.31Z"/><path d="M164.8,174.17a5.68,5.68,0,0,1-.7,3.07,6.39,6.39,0,0,1-2.37,2.33,3.79,3.79,0,0,1-1.68.62l-.08-1.55a2.77,2.77,0,0,0,1.64-.41,3.16,3.16,0,0,0,1.23-1.23,2.89,2.89,0,0,0,.37-1.6l0-.47h0a3.66,3.66,0,0,1-1.56,1.95A1.4,1.4,0,0,1,160,177a2.32,2.32,0,0,1-.69-1.82,5.68,5.68,0,0,1,.52-2.8,4.16,4.16,0,0,1,1.65-1.89c.64-.37,1.12-.36,1.46,0h0l0-.7,1.6-.93Zm-1.7-1.27,0-.48a1,1,0,0,0-.34-.8.67.67,0,0,0-.78,0,1.85,1.85,0,0,0-.81,1,3.38,3.38,0,0,0-.23,1.53,1.38,1.38,0,0,0,.35,1c.2.18.48.17.81,0a1.91,1.91,0,0,0,.78-.91A2.74,2.74,0,0,0,163.1,172.9Z"/><path d="M169.42,167.71a1.26,1.26,0,0,0-.68.21,1.94,1.94,0,0,0-.79.92,2.94,2.94,0,0,0-.23,1.37l.15,2.87-1.6.93-.31-6,1.59-.94.06,1.12,0,0a2.9,2.9,0,0,1,1.3-2,1.12,1.12,0,0,1,.4-.16Z"/><path d="M175,166.37l-3.38,2c.1.84.6,1,1.49.47a4.86,4.86,0,0,0,1.48-1.35l.07,1.34a6.61,6.61,0,0,1-1.84,1.54c-.84.48-1.5.6-2,.33s-.76-.88-.81-1.84a5.15,5.15,0,0,1,.62-2.8,4.88,4.88,0,0,1,1.8-1.95,1.73,1.73,0,0,1,1.79-.25,2.08,2.08,0,0,1,.73,1.75Zm-1.54-.27c-.05-.85-.37-1.11-1-.76a1.72,1.72,0,0,0-.65.76,3,3,0,0,0-.29,1.12Z"/><path d="M181.21,164.57a5.66,5.66,0,0,1-.7,3.07,6.32,6.32,0,0,1-2.37,2.33,3.83,3.83,0,0,1-1.68.63l-.08-1.56a2.7,2.7,0,0,0,1.64-.41,3.2,3.2,0,0,0,1.23-1.22,2.94,2.94,0,0,0,.37-1.61l0-.47h0a3.63,3.63,0,0,1-1.56,1.95,1.4,1.4,0,0,1-1.62.11,2.32,2.32,0,0,1-.69-1.82,5.68,5.68,0,0,1,.52-2.8,4.16,4.16,0,0,1,1.65-1.89c.64-.37,1.12-.36,1.46,0l0,0,0-.69,1.6-.94Zm-1.7-1.27,0-.48a1,1,0,0,0-.34-.79.66.66,0,0,0-.78,0,1.92,1.92,0,0,0-.81,1,3.32,3.32,0,0,0-.23,1.52,1.38,1.38,0,0,0,.35,1c.2.18.48.17.81,0a2,2,0,0,0,.78-.92A2.74,2.74,0,0,0,179.51,163.3Z"/><path d="M187,161.89l-1.51.89,0-.86h0a3.47,3.47,0,0,1-1.49,1.91,1.26,1.26,0,0,1-1.21.2c-.31-.16-.47-.52-.5-1.07a3.54,3.54,0,0,1,1.68-3.06l1.39-1c0-.65-.36-.8-1-.44a5.77,5.77,0,0,0-1.73,1.67l-.07-1.4a7.61,7.61,0,0,1,.9-.88,7.24,7.24,0,0,1,1-.77q2.22-1.29,2.35,1.26Zm-1.63-1.55,0-.41-.93.69a1.48,1.48,0,0,0-.74,1.27.42.42,0,0,0,.22.41.57.57,0,0,0,.52-.1,1.77,1.77,0,0,0,.71-.79A2.07,2.07,0,0,0,185.36,160.34Z"/><path d="M191.51,154.79a1.24,1.24,0,0,0-.68.21,1.94,1.94,0,0,0-.79.92,3,3,0,0,0-.23,1.38l.15,2.86-1.6.93-.32-6,1.6-.93.06,1.11h0a2.89,2.89,0,0,1,1.3-2,1.05,1.05,0,0,1,.4-.16Z"/><path d="M199.85,154.37l-1.51.88,0-.86,0,0a3.45,3.45,0,0,1-1.49,1.9,1.24,1.24,0,0,1-1.21.2,1.15,1.15,0,0,1-.51-1.06,3.51,3.51,0,0,1,1.68-3.06l1.4-1c0-.65-.36-.8-1-.44a5.7,5.7,0,0,0-1.72,1.66l-.07-1.39a7.41,7.41,0,0,1,.89-.89,7.13,7.13,0,0,1,1-.76c1.47-.87,2.26-.45,2.35,1.26Zm-1.63-1.56,0-.4-.93.69a1.49,1.49,0,0,0-.74,1.27.44.44,0,0,0,.22.41.6.6,0,0,0,.52-.1,1.91,1.91,0,0,0,.72-.79A2.07,2.07,0,0,0,198.22,152.81Z"/><path d="M202.8,151.93h0l.19,3.45-1.6.94-.46-8.75,1.6-.94,0,.9h0a3.86,3.86,0,0,1,1.61-2c.67-.39,1.21-.43,1.6-.11a2.51,2.51,0,0,1,.66,1.85,5.76,5.76,0,0,1-.51,2.78,4.14,4.14,0,0,1-1.65,1.9C203.65,152.3,203.16,152.3,202.8,151.93Zm-.17-2.44,0,.48a1.11,1.11,0,0,0,.34.85.67.67,0,0,0,.77,0,2,2,0,0,0,.82-1,3.48,3.48,0,0,0,.22-1.56c-.05-1-.43-1.37-1.14-.95a2,2,0,0,0-.78.89A2.69,2.69,0,0,0,202.63,149.49Z"/><path d="M209.35,148.82l-1.6.93-.47-8.87,1.6-.93Z"/><path d="M211.24,140.56a.77.77,0,0,1-.68.11.59.59,0,0,1-.29-.54,1.49,1.49,0,0,1,.22-.82,1.87,1.87,0,0,1,.65-.66.75.75,0,0,1,.68-.12.53.53,0,0,1,.29.53,1.47,1.47,0,0,1-.22.84A1.79,1.79,0,0,1,211.24,140.56ZM212.4,147l-1.6.94-.32-6,1.6-.94Z"/><path d="M217.76,143.67a5.14,5.14,0,0,1-1.55,1.28,2,2,0,0,1-2,.3,1.87,1.87,0,0,1-.85-1.73,5.14,5.14,0,0,1,.66-2.87,5.48,5.48,0,0,1,2.07-2.12,2.73,2.73,0,0,1,1.34-.5l.08,1.57a1.49,1.49,0,0,0-1.14.22,2.76,2.76,0,0,0-1.06,1.11,2.82,2.82,0,0,0-.34,1.52q0,.8.45,1a1.09,1.09,0,0,0,1.08-.16,4,4,0,0,0,1.15-1.12Z"/><path d="M223.23,140.7l-1.51.88-.05-.86h0a3.4,3.4,0,0,1-1.49,1.91,1.24,1.24,0,0,1-1.21.2c-.31-.16-.47-.51-.5-1.06a3.51,3.51,0,0,1,1.68-3.06l1.39-1c0-.66-.36-.8-1-.44a5.73,5.73,0,0,0-1.73,1.66l-.07-1.39a7.41,7.41,0,0,1,.89-.89,7.13,7.13,0,0,1,1.05-.76q2.22-1.31,2.35,1.26Zm-1.63-1.56,0-.4-.94.69a1.48,1.48,0,0,0-.73,1.27.44.44,0,0,0,.21.41.62.62,0,0,0,.53-.1,1.83,1.83,0,0,0,.71-.79A2.08,2.08,0,0,0,221.6,139.14Z"/><path d="M228.51,137.39a5.2,5.2,0,0,1-1.54,1.27,2,2,0,0,1-2,.3,1.87,1.87,0,0,1-.85-1.73,5.22,5.22,0,0,1,.66-2.87,5.55,5.55,0,0,1,2.07-2.12,2.59,2.59,0,0,1,1.34-.49l.09,1.56a1.49,1.49,0,0,0-1.14.22,2.79,2.79,0,0,0-1.07,1.11,2.91,2.91,0,0,0-.34,1.52c0,.53.18.87.46,1a1.09,1.09,0,0,0,1.08-.16,4,4,0,0,0,1.14-1.12Z"/><path d="M230.12,129.52a.77.77,0,0,1-.68.11.57.57,0,0,1-.29-.53,1.42,1.42,0,0,1,.22-.83,1.79,1.79,0,0,1,.65-.66.78.78,0,0,1,.68-.12.55.55,0,0,1,.29.53,1.56,1.56,0,0,1-.22.84A1.79,1.79,0,0,1,230.12,129.52Zm1.15,6.48-1.6.93-.31-6L231,130Z"/><path d="M235.2,133.85a2.17,2.17,0,0,1-2.08.35c-.53-.27-.81-.88-.87-1.84a5.06,5.06,0,0,1,.65-2.78,5.38,5.38,0,0,1,2-2.06,2.15,2.15,0,0,1,2.06-.34,2,2,0,0,1,.85,1.79,5,5,0,0,1-.63,2.8A5.25,5.25,0,0,1,235.2,133.85Zm1.28-10L235,126.66l-1.16.68,1.22-2.66ZM235,129a2.12,2.12,0,0,0-.86,1,3.12,3.12,0,0,0-.24,1.46q.09,1.73,1.29,1a2.41,2.41,0,0,0,1.06-2.44C236.17,128.84,235.75,128.51,235,129Z"/><path d="M244.15,128.46l-1.59.93-.18-3.33c0-.93-.36-1.22-.93-.89a1.63,1.63,0,0,0-.66.77,2.2,2.2,0,0,0-.22,1.09l.18,3.42-1.6.94-.31-6,1.59-.93,0,1h0a3.74,3.74,0,0,1,1.61-2.07c1.15-.67,1.76-.18,1.85,1.46Z"/><path d="M169.11,200.25l-1.78,1-.61-1.57-2.58,1.51-.41,2.17-1.77,1,2.2-9.93,1.93-1.14Zm-2.84-1.76-.93-2.37a3,3,0,0,1-.16-.68l0,0a3.86,3.86,0,0,1-.09.81l-.64,3.3Z"/><path d="M175,196.09a5.57,5.57,0,0,1-.7,3.07,6.17,6.17,0,0,1-2.37,2.33,3.83,3.83,0,0,1-1.68.63l-.08-1.56a2.76,2.76,0,0,0,1.64-.4,3.3,3.3,0,0,0,1.23-1.23,3,3,0,0,0,.38-1.61l0-.47h0a3.59,3.59,0,0,1-1.56,1.95,1.38,1.38,0,0,1-1.62.11,2.36,2.36,0,0,1-.69-1.82,5.82,5.82,0,0,1,.52-2.8,4.23,4.23,0,0,1,1.66-1.89c.63-.37,1.11-.36,1.46,0h0l0-.7,1.6-.94Zm-1.7-1.27,0-.47a1,1,0,0,0-.34-.8.66.66,0,0,0-.78,0,2,2,0,0,0-.81,1,3.5,3.5,0,0,0-.23,1.53,1.42,1.42,0,0,0,.35,1,.66.66,0,0,0,.81,0,2,2,0,0,0,.78-.91A2.8,2.8,0,0,0,173.31,194.82Z"/><path d="M179.63,189.63a1.41,1.41,0,0,0-.68.22,1.91,1.91,0,0,0-.79.91,3,3,0,0,0-.23,1.38l.15,2.86-1.6.93-.31-6,1.6-.93,0,1.11h0a3,3,0,0,1,1.31-2,1.09,1.09,0,0,1,.39-.16Z"/><path d="M185.19,188.3l-3.38,2c.1.84.6,1,1.49.48a5,5,0,0,0,1.48-1.35l.07,1.33a6.61,6.61,0,0,1-1.84,1.54,2,2,0,0,1-2,.33c-.49-.26-.76-.88-.81-1.84a5.26,5.26,0,0,1,.62-2.8,4.88,4.88,0,0,1,1.8-2c.75-.44,1.35-.52,1.79-.24a2.08,2.08,0,0,1,.73,1.75Zm-1.54-.27c-.05-.86-.37-1.11-1-.76a1.73,1.73,0,0,0-.64.75,2.79,2.79,0,0,0-.3,1.12Z"/><path d="M191.42,186.49a5.61,5.61,0,0,1-.7,3.08,6.24,6.24,0,0,1-2.37,2.33,3.92,3.92,0,0,1-1.68.62l-.08-1.56a2.69,2.69,0,0,0,1.64-.4,3.3,3.3,0,0,0,1.23-1.23,2.92,2.92,0,0,0,.38-1.6l0-.48h0a3.65,3.65,0,0,1-1.56,2,1.41,1.41,0,0,1-1.62.11,2.37,2.37,0,0,1-.69-1.83,5.78,5.78,0,0,1,.52-2.79,4.12,4.12,0,0,1,1.66-1.89c.63-.37,1.11-.37,1.46,0h0l0-.7,1.6-.93Zm-1.7-1.27,0-.47a1,1,0,0,0-.34-.8.68.68,0,0,0-.78,0,2,2,0,0,0-.81,1,3.53,3.53,0,0,0-.23,1.53,1.38,1.38,0,0,0,.35,1,.64.64,0,0,0,.81,0,2,2,0,0,0,.78-.91A2.76,2.76,0,0,0,189.72,185.22Z"/><path d="M197.2,183.82l-1.51.88-.05-.86h0a3.39,3.39,0,0,1-1.49,1.91,1.24,1.24,0,0,1-1.21.2,1.19,1.19,0,0,1-.5-1.07,3.51,3.51,0,0,1,1.68-3l1.39-1c0-.66-.35-.8-1-.45A5.87,5.87,0,0,0,192.8,182l-.08-1.39a8.45,8.45,0,0,1,.9-.89,8.84,8.84,0,0,1,1-.77q2.22-1.29,2.35,1.27Zm-1.63-1.56,0-.4-.93.69a1.49,1.49,0,0,0-.74,1.27.4.4,0,0,0,.22.4.59.59,0,0,0,.52-.09,1.91,1.91,0,0,0,.72-.79A2.17,2.17,0,0,0,195.57,182.26Z"/><path d="M201.72,176.72a1.24,1.24,0,0,0-.68.21,1.89,1.89,0,0,0-.79.92,2.91,2.91,0,0,0-.23,1.37l.15,2.86-1.6.94-.32-6,1.6-.94.06,1.11h0a3,3,0,0,1,1.3-2,1.26,1.26,0,0,1,.4-.16Z"/><path d="M212.44,174.91l-1.65,1-3.27-3.52a4.59,4.59,0,0,1-.4-.49l0,0c0,.28.08.72.11,1.33l.25,4.61-1.55.9-.44-8.39,1.76-1,3.15,3.43a5.85,5.85,0,0,1,.4.47h0a9,9,0,0,1-.1-1.13l-.24-4.64,1.54-.9Z"/><path d="M219.09,170.31a5.66,5.66,0,0,1-.7,3.07,6.24,6.24,0,0,1-2.37,2.33,3.83,3.83,0,0,1-1.68.63l-.08-1.56a2.76,2.76,0,0,0,1.64-.4,3.3,3.3,0,0,0,1.23-1.23,2.92,2.92,0,0,0,.37-1.61l0-.47h0A3.59,3.59,0,0,1,215.9,173a1.4,1.4,0,0,1-1.62.12,2.35,2.35,0,0,1-.69-1.83,5.66,5.66,0,0,1,.52-2.79,4.15,4.15,0,0,1,1.66-1.9c.63-.37,1.11-.36,1.46,0h0l0-.7,1.6-.94Zm-1.7-1.27,0-.47a1,1,0,0,0-.34-.8.66.66,0,0,0-.78,0,2,2,0,0,0-.81,1,3.38,3.38,0,0,0-.23,1.53,1.34,1.34,0,0,0,.35,1,.66.66,0,0,0,.81,0,2,2,0,0,0,.78-.91A2.8,2.8,0,0,0,217.39,169Z"/><path d="M221,162.74a.71.71,0,0,1-.68.11.55.55,0,0,1-.29-.53,1.37,1.37,0,0,1,.22-.83,1.76,1.76,0,0,1,.65-.65.77.77,0,0,1,.67-.13.57.57,0,0,1,.3.53,1.54,1.54,0,0,1-.22.84A1.79,1.79,0,0,1,221,162.74Zm1.15,6.48-1.6.94-.31-6,1.59-.93Z"/><path d="M228.61,165.45l-1.59.93-.18-3.33c-.05-.93-.36-1.23-.93-.89a1.63,1.63,0,0,0-.66.77A2.18,2.18,0,0,0,225,164l.18,3.42-1.6.93-.32-6,1.6-.93.05.94h0a3.76,3.76,0,0,1,1.61-2.07c1.14-.67,1.76-.18,1.85,1.47Z"/><path d="M234.67,155.73l-1.56,3.9,1.86,2.1-1.84,1.07-.83-1.17c-.07-.1-.15-.24-.25-.42h0a5.43,5.43,0,0,1-.18.65l-.67,2.07L229.35,165l1.59-4-1.8-2,1.85-1.08.83,1.25a2.09,2.09,0,0,1,.23.44h0c.05-.22.11-.45.19-.7l.67-2.11Z"/><path d="M152.69,235.91a7.62,7.62,0,0,1-2.05,1.66c-1.11.65-2,.79-2.68.4a2.77,2.77,0,0,1-1.12-2.46,7.64,7.64,0,0,1,3.63-6.78,5.6,5.6,0,0,1,1.81-.74l.09,1.82a2.84,2.84,0,0,0-1.68.47,4.22,4.22,0,0,0-1.61,1.71,4.36,4.36,0,0,0-.52,2.38,1.82,1.82,0,0,0,.69,1.59,1.58,1.58,0,0,0,1.63-.21,5.86,5.86,0,0,0,1.72-1.56Z"/><path d="M157.07,229.21a1.26,1.26,0,0,0-.68.21,1.91,1.91,0,0,0-.79.91,3,3,0,0,0-.23,1.38l.15,2.86-1.6.93-.32-6,1.6-.93.06,1.11h0a3,3,0,0,1,1.3-2,1.05,1.05,0,0,1,.4-.16Z"/><path d="M162.63,227.87l-3.38,2c.1.84.6,1,1.49.48a5.12,5.12,0,0,0,1.48-1.35l.07,1.33a6.66,6.66,0,0,1-1.85,1.54,2,2,0,0,1-2,.33c-.5-.26-.77-.88-.82-1.83a5.28,5.28,0,0,1,.63-2.81,4.93,4.93,0,0,1,1.79-1.95q1.14-.66,1.8-.24a2.08,2.08,0,0,1,.73,1.75Zm-1.54-.27c-.05-.86-.37-1.11-1-.76a1.74,1.74,0,0,0-.65.75,3,3,0,0,0-.29,1.12Z"/><path d="M168.12,227.2l-1.51.88,0-.86h0a3.36,3.36,0,0,1-1.49,1.91,1.24,1.24,0,0,1-1.21.2,1.17,1.17,0,0,1-.5-1.06,3.51,3.51,0,0,1,1.68-3.06l1.4-1c0-.66-.36-.8-1-.44a5.7,5.7,0,0,0-1.72,1.66l-.08-1.39a7.61,7.61,0,0,1,.9-.88,7,7,0,0,1,1-.77q2.22-1.31,2.35,1.26Zm-1.63-1.56,0-.4-.93.69a1.49,1.49,0,0,0-.74,1.27.43.43,0,0,0,.22.41.6.6,0,0,0,.52-.1,1.91,1.91,0,0,0,.72-.79A2.17,2.17,0,0,0,166.49,225.64Z"/><path d="M172.64,220.1a1.26,1.26,0,0,0-.68.21,1.89,1.89,0,0,0-.79.92,2.94,2.94,0,0,0-.23,1.37l.15,2.86-1.6.94-.31-6,1.59-.94.06,1.11h0a2.9,2.9,0,0,1,1.3-2,1,1,0,0,1,.4-.16Z"/><path d="M181.75,219.23l-1.6.94-.05-.83h0a3.59,3.59,0,0,1-1.55,1.91,1.4,1.4,0,0,1-1.6.12,2.32,2.32,0,0,1-.71-1.87,5.59,5.59,0,0,1,.53-2.76,4.12,4.12,0,0,1,1.66-1.89c.67-.39,1.14-.39,1.44,0h0l-.19-3.56,1.6-.94Zm-1.73-2,0-.45a1,1,0,0,0-.34-.8.72.72,0,0,0-.79.06,2,2,0,0,0-.8,1,3.44,3.44,0,0,0-.23,1.5,1.44,1.44,0,0,0,.35,1.05c.21.17.48.16.82,0a1.9,1.9,0,0,0,.77-.91A2.88,2.88,0,0,0,180,217.23Z"/><path d="M187.72,213.19l-3.38,2c.1.84.6,1,1.49.47a5,5,0,0,0,1.48-1.34l.07,1.33a6.66,6.66,0,0,1-1.85,1.54,2,2,0,0,1-2,.33c-.49-.27-.76-.88-.81-1.84a5.24,5.24,0,0,1,.63-2.8,4.86,4.86,0,0,1,1.79-2c.76-.44,1.35-.52,1.8-.24a2.06,2.06,0,0,1,.73,1.75Zm-1.54-.27c-.05-.85-.37-1.11-1-.76a1.77,1.77,0,0,0-.65.76,3,3,0,0,0-.29,1.12Z"/><path d="M188.55,215.09l-.07-1.5a2.38,2.38,0,0,0,.8-.05,2.74,2.74,0,0,0,.75-.3,2.53,2.53,0,0,0,.67-.53.81.81,0,0,0,.22-.55.25.25,0,0,0-.13-.23.64.64,0,0,0-.29,0,3.24,3.24,0,0,0-.39.07l-.41.08a2.17,2.17,0,0,1-.56,0,.77.77,0,0,1-.41-.13.64.64,0,0,1-.27-.33,1.49,1.49,0,0,1-.12-.59,2.46,2.46,0,0,1,.14-1,3.64,3.64,0,0,1,.48-.89,4.67,4.67,0,0,1,.71-.77,4.94,4.94,0,0,1,.84-.6,5.09,5.09,0,0,1,1.41-.58l.07,1.43a1.78,1.78,0,0,0-.67.08,2.68,2.68,0,0,0-.68.29,2,2,0,0,0-.3.21,1.75,1.75,0,0,0-.24.23,1.4,1.4,0,0,0-.16.26.57.57,0,0,0,0,.25.27.27,0,0,0,.1.23.49.49,0,0,0,.25.06l.33,0,.37-.08a4.4,4.4,0,0,1,.59,0,1,1,0,0,1,.46.1.71.71,0,0,1,.31.31,1.49,1.49,0,0,1,.13.6,2.53,2.53,0,0,1-.15,1,3.8,3.8,0,0,1-.5.93,4.6,4.6,0,0,1-.74.79,6.65,6.65,0,0,1-.9.63A4.78,4.78,0,0,1,188.55,215.09Z"/><path d="M198.63,209.36l-1.6.93,0-.82h0a3.67,3.67,0,0,1-1.55,1.91,1.42,1.42,0,0,1-1.61.12,2.35,2.35,0,0,1-.71-1.87,5.71,5.71,0,0,1,.53-2.76,4.21,4.21,0,0,1,1.66-1.9c.67-.39,1.15-.38,1.44,0l0,0-.18-3.56,1.6-.93Zm-1.72-2,0-.45a1,1,0,0,0-.35-.8.71.71,0,0,0-.78.06,1.92,1.92,0,0,0-.81,1,3.59,3.59,0,0,0-.23,1.5,1.47,1.47,0,0,0,.36,1.05c.2.17.48.15.82,0a2,2,0,0,0,.77-.92A3,3,0,0,0,196.91,207.36Z"/><path d="M204.6,203.32l-3.38,2c.1.84.6,1,1.49.48a4.87,4.87,0,0,0,1.48-1.35l.07,1.33a6.61,6.61,0,0,1-1.84,1.54,2.07,2.07,0,0,1-2,.34c-.49-.27-.76-.88-.81-1.84a5.27,5.27,0,0,1,.62-2.81A4.79,4.79,0,0,1,202,201c.75-.45,1.35-.53,1.79-.25a2.05,2.05,0,0,1,.73,1.75Zm-1.54-.27c0-.86-.37-1.11-1-.76a1.7,1.7,0,0,0-.64.76,2.87,2.87,0,0,0-.3,1.12Z"/><path d="M214.63,196.25a5.63,5.63,0,0,1-2.85,5.57q-3,1.73-3.15-2l-.25-4.84,1.64-1,.25,4.87c.07,1.35.57,1.76,1.49,1.23a2.75,2.75,0,0,0,1.24-2.76l-.26-4.94,1.64-.95Z"/><path d="M217.92,197.35l0,0,0,.69-1.6.94-.46-8.87,1.59-.94.2,3.78h0a3.82,3.82,0,0,1,1.63-2c.67-.39,1.2-.43,1.59-.11a2.52,2.52,0,0,1,.65,1.86,5.75,5.75,0,0,1-.5,2.78,4.09,4.09,0,0,1-1.64,1.89Q218.46,197.91,217.92,197.35Zm-.17-2.5,0,.62a1,1,0,0,0,.34.79.69.69,0,0,0,.76,0,2,2,0,0,0,.82-1,3.48,3.48,0,0,0,.22-1.56,1.37,1.37,0,0,0-.33-1c-.2-.17-.47-.16-.81,0a2.08,2.08,0,0,0-.78.89A2.5,2.5,0,0,0,217.75,194.85Z"/><path d="M227.79,192.3l-1.59.93,0-.91h0a3.69,3.69,0,0,1-1.52,2c-1.2.7-1.85.21-1.94-1.47l-.19-3.61,1.6-.94.18,3.46c0,.84.35,1.1.93.76a1.64,1.64,0,0,0,.67-.75,2.26,2.26,0,0,0,.21-1.1l-.18-3.43,1.6-.93Z"/><path d="M234.24,188.53l-1.59.93-.18-3.33c-.05-.93-.36-1.22-.93-.89a1.63,1.63,0,0,0-.66.77,2.18,2.18,0,0,0-.22,1.09l.18,3.42-1.6.93-.32-6,1.6-.93,0,.95,0,0a3.75,3.75,0,0,1,1.61-2.06c1.15-.67,1.76-.19,1.85,1.46Z"/><path d="M238.74,185.83a3.91,3.91,0,0,1-1.06.84c-1.12.66-1.72.31-1.79-1l-.15-2.75-.84.49-.07-1.36.84-.49-.07-1.3,1.57-1.45.09,1.82,1.17-.68.07,1.36-1.17.68.13,2.42c0,.63.27.81.69.56a2,2,0,0,0,.52-.47Z"/><path d="M244.67,182.43l-1.6.93,0-.91,0,0a3.77,3.77,0,0,1-1.53,2c-1.2.7-1.84.21-1.93-1.47l-.19-3.61,1.59-.94.18,3.46c0,.84.36,1.1.94.76a1.69,1.69,0,0,0,.67-.75,2.26,2.26,0,0,0,.21-1.1l-.18-3.43,1.59-.93Z"/><path class="cls-13" d="M189.68,243.09l-2.07,1.2-2.3-2.41a1.41,1.41,0,0,1-.22-.35l0,0,.21,4.11-1.63,1-.44-8.39,1.63-.95.21,4h0l.18-.59,1.82-4.67,2-1.14-2.32,5.48Z"/><path class="cls-13" d="M194.74,237.58l-3.38,2c.1.83.6,1,1.49.47a4.86,4.86,0,0,0,1.48-1.35l.07,1.34a6.63,6.63,0,0,1-1.85,1.53,1.64,1.64,0,0,1-2.8-1.5,5.22,5.22,0,0,1,.63-2.8,4.8,4.8,0,0,1,1.79-1.95c.76-.44,1.36-.53,1.8-.25a2.08,2.08,0,0,1,.73,1.75Zm-1.54-.27c0-.86-.37-1.11-1-.76a1.72,1.72,0,0,0-.65.76,2.9,2.9,0,0,0-.29,1.12Z"/><path class="cls-13" d="M199.07,233.13a1.28,1.28,0,0,0-.68.21,1.94,1.94,0,0,0-.79.92,3,3,0,0,0-.23,1.38l.15,2.86-1.6.93-.31-6,1.6-.94,0,1.12h0a2.89,2.89,0,0,1,1.3-2,1.05,1.05,0,0,1,.4-.16Z"/><path class="cls-13" d="M205.18,234l-1.59.93-.18-3.33c0-.93-.36-1.23-.93-.89a1.63,1.63,0,0,0-.66.77,2.18,2.18,0,0,0-.22,1.09l.18,3.42-1.6.93-.32-6,1.6-.93,0,.94h0a3.81,3.81,0,0,1,1.61-2.07c1.15-.67,1.76-.18,1.85,1.47Z"/><path class="cls-13" d="M211.07,228l-3.38,2c.1.84.6,1,1.49.48a5,5,0,0,0,1.48-1.35l.07,1.33a6.61,6.61,0,0,1-1.84,1.54,2,2,0,0,1-2,.33c-.49-.26-.76-.88-.81-1.83a5.27,5.27,0,0,1,.62-2.81,4.88,4.88,0,0,1,1.8-1.95c.75-.44,1.35-.52,1.79-.24a2.05,2.05,0,0,1,.73,1.75Zm-1.54-.27c0-.86-.37-1.11-1-.76a1.73,1.73,0,0,0-.64.75,2.78,2.78,0,0,0-.29,1.12Z"/><path class="cls-13" d="M213.85,228.94l-1.59.94-.47-8.87,1.6-.94Z"/><path class="cls-14" d="M2.51,191.21l.1-1.56a5.21,5.21,0,0,0,.77,1,3.94,3.94,0,0,0,.86.67,2.23,2.23,0,0,0,.46.21.79.79,0,0,0,.33,0,.31.31,0,0,0,.21-.11.57.57,0,0,0,.08-.25,1,1,0,0,0-.08-.42,2.35,2.35,0,0,0-.26-.45,5.18,5.18,0,0,0-.4-.51l-.5-.55a5.43,5.43,0,0,1-1-1.44,2.76,2.76,0,0,1-.28-1.39,1.54,1.54,0,0,1,.26-.83,1,1,0,0,1,.56-.35,1.79,1.79,0,0,1,.78.06,4.13,4.13,0,0,1,.93.41q.46.27.84.54a5.34,5.34,0,0,1,.66.59l-.09,1.46c-.1-.14-.21-.28-.32-.41a4.17,4.17,0,0,0-.37-.36,2.64,2.64,0,0,0-.37-.31,2.41,2.41,0,0,0-.36-.23,1.9,1.9,0,0,0-.42-.19.85.85,0,0,0-.34,0,.35.35,0,0,0-.21.1.4.4,0,0,0-.1.25.92.92,0,0,0,.07.36,1.41,1.41,0,0,0,.21.4c.09.13.21.29.34.45s.29.33.47.51.44.51.63.75a5.3,5.3,0,0,1,.47.73,3.39,3.39,0,0,1,.28.75,2.63,2.63,0,0,1,.06.8,1.58,1.58,0,0,1-.26.88.85.85,0,0,1-.56.34,1.77,1.77,0,0,1-.8-.08,5.07,5.07,0,0,1-.93-.43,7.45,7.45,0,0,1-.95-.63A6,6,0,0,1,2.51,191.21Z"/><path class="cls-14" d="M8.85,195.09l-1.34-.76.33-5,1.34.76Zm-.28-6.15a1.36,1.36,0,0,1-.54-.55,1.14,1.14,0,0,1-.18-.69.45.45,0,0,1,.25-.44.63.63,0,0,1,.57.1,1.45,1.45,0,0,1,.54.53,1.12,1.12,0,0,1,.18.69.47.47,0,0,1-.25.45A.62.62,0,0,1,8.57,188.94Z"/><path class="cls-14" d="M9.71,195.44l.08-1.24a5.11,5.11,0,0,0,.64.72,3.75,3.75,0,0,0,.61.46,1.55,1.55,0,0,0,.57.21c.14,0,.22-.07.23-.23a.5.5,0,0,0-.08-.3,1.5,1.5,0,0,0-.23-.3c-.09-.11-.2-.21-.31-.32l-.33-.32a6,6,0,0,1-.43-.49,2.61,2.61,0,0,1-.32-.47,2.22,2.22,0,0,1-.18-.49,2,2,0,0,1,0-.56,1,1,0,0,1,.21-.62.66.66,0,0,1,.46-.23,1.58,1.58,0,0,1,.62.08,4.53,4.53,0,0,1,.72.33l1.91,1.09.07-1.08,1.37.32-.1,1.52,1,.55-.08,1.14-1-.56-.13,2a1.05,1.05,0,0,0,.48,1.09.8.8,0,0,0,.45.1L15.84,199a1.9,1.9,0,0,1-.91-.33,2.45,2.45,0,0,1-1.31-2.49l.15-2.29-1.86-1.06-.25-.13-.21-.09a.19.19,0,0,0-.15,0,.18.18,0,0,0-.06.13.44.44,0,0,0,.07.24,1.07,1.07,0,0,0,.19.26,3.32,3.32,0,0,0,.26.28l.29.28a5.45,5.45,0,0,1,.47.51,4,4,0,0,1,.36.51,2.52,2.52,0,0,1,.21.54,1.89,1.89,0,0,1,0,.59,1.12,1.12,0,0,1-.21.66.77.77,0,0,1-.48.26,1.59,1.59,0,0,1-.66-.08,3.87,3.87,0,0,1-.76-.34A5.81,5.81,0,0,1,9.71,195.44Z"/><path class="cls-14" d="M20.63,199.66,17.79,198a2,2,0,0,0,1.12,1.77,2.11,2.11,0,0,0,1.29.33l-.07,1.11a3.28,3.28,0,0,1-1.59-.52,4,4,0,0,1-1.59-1.6,3.93,3.93,0,0,1-.46-2.2,1.8,1.8,0,0,1,.75-1.61,1.56,1.56,0,0,1,1.59.15A3.46,3.46,0,0,1,20.26,197a3.9,3.9,0,0,1,.41,2.06ZM19.44,198a1.46,1.46,0,0,0-.68-1.5.53.53,0,0,0-.58,0,.93.93,0,0,0-.34.6Z"/><path class="cls-14" d="M28.19,206.09l-1.33-.76.18-2.84a1.45,1.45,0,0,0-.62-1.49.46.46,0,0,0-.57,0,1.06,1.06,0,0,0-.26.7l-.18,2.79-1.34-.76.19-2.88a1.4,1.4,0,0,0-.62-1.44.46.46,0,0,0-.57,0,1.06,1.06,0,0,0-.26.73l-.18,2.77-1.34-.76.33-5,1.34.76-.05.78h0a.92.92,0,0,1,.63-.32,1.47,1.47,0,0,1,.84.22,2.5,2.5,0,0,1,1.2,1.64c.37-.43.87-.46,1.52-.1A2.75,2.75,0,0,1,28.39,203Z"/><path class="cls-14" d="M32.87,208.75,31.6,208l0-.72h0c-.33.4-.78.43-1.35.11a2.54,2.54,0,0,1-1-1,2.42,2.42,0,0,1-.29-1.31c.06-1,.6-1.24,1.61-.82l1.19.49a1.26,1.26,0,0,0-.72-1.26,2.23,2.23,0,0,0-1.51-.31l.08-1.16a2.88,2.88,0,0,1,.78.15,3.78,3.78,0,0,1,.89.37,3.17,3.17,0,0,1,1.72,3.19ZM31.74,206l0-.34-.79-.33c-.44-.18-.68-.08-.7.3a1,1,0,0,0,.13.53,1.1,1.1,0,0,0,.42.41.59.59,0,0,0,.63,0A.73.73,0,0,0,31.74,206Z"/><path class="cls-14" d="M40.58,213.14l-1.34-.77,0-.68h0c-.34.36-.81.38-1.4,0a3.13,3.13,0,0,1-1.27-1.41,4.09,4.09,0,0,1-.37-2.12,2.09,2.09,0,0,1,.67-1.67,1.3,1.3,0,0,1,1.49.07,2.36,2.36,0,0,1,1.12,1.35h0l.19-3,1.34.76ZM39.42,210l0-.37a1.85,1.85,0,0,0-.19-1,1.55,1.55,0,0,0-.62-.69.57.57,0,0,0-.73,0,1.44,1.44,0,0,0-.32,1,2.35,2.35,0,0,0,.18,1.15,1.55,1.55,0,0,0,.64.74.58.58,0,0,0,.69,0A1.12,1.12,0,0,0,39.42,210Z"/><path class="cls-14" d="M45.75,213.94l-2.83-1.61A1.92,1.92,0,0,0,44,214.09a2,2,0,0,0,1.28.33l-.07,1.11a3.08,3.08,0,0,1-1.59-.52,4,4,0,0,1-2-3.8,1.83,1.83,0,0,1,.76-1.61,1.6,1.6,0,0,1,1.59.15,3.6,3.6,0,0,1,1.43,1.49,3.86,3.86,0,0,1,.4,2Zm-1.18-1.65a1.46,1.46,0,0,0-.69-1.5.51.51,0,0,0-.58,0,.84.84,0,0,0-.33.6Z"/><path class="cls-14" d="M52.43,219.87l-1.27-.72.05-.72h0c-.33.4-.78.43-1.35.11a2.54,2.54,0,0,1-1-1,2.4,2.4,0,0,1-.29-1.31c.06-1,.6-1.24,1.61-.82l1.19.49a1.26,1.26,0,0,0-.72-1.26,2.23,2.23,0,0,0-1.51-.31l.07-1.16a2.87,2.87,0,0,1,.79.15,4.25,4.25,0,0,1,.89.37,3.17,3.17,0,0,1,1.72,3.19Zm-1.13-2.74,0-.34-.8-.33c-.43-.18-.67-.08-.69.31a.94.94,0,0,0,.13.52,1.1,1.1,0,0,0,.42.41.59.59,0,0,0,.63.05A.73.73,0,0,0,51.3,217.13Z"/><path class="cls-14" d="M56.56,218.49A1.94,1.94,0,0,0,56,218c-.3-.16-.53-.17-.71,0a1.19,1.19,0,0,0-.31.87l-.16,2.38-1.34-.76.32-5,1.35.76-.06.92h0a.76.76,0,0,1,1.21-.36,1.18,1.18,0,0,1,.33.25Z"/><path class="cls-14" d="M60.22,224.12a2.48,2.48,0,0,1-1.33-.45,4.11,4.11,0,0,1-1.58-1.62,3.87,3.87,0,0,1-.5-2.15c.06-.85.32-1.39.8-1.62a1.92,1.92,0,0,1,1.82.27,3.63,3.63,0,0,1,1.1.87l-.09,1.3a2.85,2.85,0,0,0-.91-.89,1,1,0,0,0-.94-.13,1,1,0,0,0-.41.88,2.21,2.21,0,0,0,.26,1.22,2.08,2.08,0,0,0,.86.88,1.46,1.46,0,0,0,1,.2Z"/><path class="cls-14" d="M65.26,227.17l-1.34-.76.19-2.84a1.43,1.43,0,0,0-.63-1.49.5.5,0,0,0-.59,0,.85.85,0,0,0-.28.65l-.18,2.85-1.34-.76.48-7.39,1.34.76-.2,3.14h0a1,1,0,0,1,1.4-.1,2.81,2.81,0,0,1,1.34,2.88Z"/><path class="cls-14" d="M67.66,228.53l-1.34-.76.33-5,1.34.76Zm-.28-6.15a1.36,1.36,0,0,1-.54-.55,1.16,1.16,0,0,1-.18-.69.45.45,0,0,1,.25-.44.63.63,0,0,1,.57.1,1.38,1.38,0,0,1,.54.53,1.12,1.12,0,0,1,.18.69.47.47,0,0,1-.25.45A.62.62,0,0,1,67.38,222.38Z"/><path class="cls-14" d="M73.26,226.54l-2,4.07-1.52-.87-1.22-5.86,1.43.81.56,3.51a6.68,6.68,0,0,1,.09,1h0a3.6,3.6,0,0,1,.21-.77l1-2.67Z"/><path class="cls-14" d="M75.48,233.11a4.3,4.3,0,0,1-1.66-1.67,4.06,4.06,0,0,1-.5-2.26,1.71,1.71,0,0,1,.77-1.57,1.94,1.94,0,0,1,1.79.3,4.18,4.18,0,0,1,1.65,1.66,4,4,0,0,1,.5,2.2,1.78,1.78,0,0,1-.76,1.6A1.86,1.86,0,0,1,75.48,233.11Zm.3-4c-.32-.18-.57-.19-.76,0a1.19,1.19,0,0,0-.34.91,2,2,0,0,0,.92,2c.64.37,1,.06,1.06-.93A1.89,1.89,0,0,0,75.78,229.07Z"/><path class="cls-14" d="M78.46,234.54l.08-1.25a4.5,4.5,0,0,0,.64.71,3.34,3.34,0,0,0,.61.47,1.38,1.38,0,0,0,.57.21c.14,0,.22-.07.23-.23a.55.55,0,0,0-.08-.29,1.55,1.55,0,0,0-.23-.31l-.31-.31-.33-.33a6.57,6.57,0,0,1-.44-.5,3.24,3.24,0,0,1-.31-.48,2.47,2.47,0,0,1-.18-.52,2.09,2.09,0,0,1,0-.57,1.1,1.1,0,0,1,.2-.63.73.73,0,0,1,.46-.25,1.42,1.42,0,0,1,.63.06,3.39,3.39,0,0,1,.71.32,5.25,5.25,0,0,1,.58.38c.2.15.39.31.58.48l-.08,1.19a4,4,0,0,0-.52-.56,3.22,3.22,0,0,0-.57-.41l-.25-.12a1,1,0,0,0-.21,0,.25.25,0,0,0-.15.05.21.21,0,0,0-.06.16.49.49,0,0,0,.06.28,1.39,1.39,0,0,0,.19.28l.26.28.29.28c.18.18.33.35.47.51a3.1,3.1,0,0,1,.35.51,2.11,2.11,0,0,1,.22.54,1.89,1.89,0,0,1,0,.59,1.15,1.15,0,0,1-.21.66.77.77,0,0,1-.48.26,1.43,1.43,0,0,1-.66-.08,3.36,3.36,0,0,1-.76-.34A5.76,5.76,0,0,1,78.46,234.54Z"/><path class="cls-14" d="M89.21,240.79,87.87,240l0-.68h0c-.35.36-.81.38-1.4,0A3.07,3.07,0,0,1,85.23,238a4.19,4.19,0,0,1-.38-2.12,2.14,2.14,0,0,1,.68-1.67,1.28,1.28,0,0,1,1.48.07,2.35,2.35,0,0,1,1.13,1.35h0l.2-3,1.34.76Zm-1.16-3.18,0-.37a1.85,1.85,0,0,0-.2-1,1.55,1.55,0,0,0-.62-.69c-.3-.17-.54-.17-.72,0a1.39,1.39,0,0,0-.32,1,2.47,2.47,0,0,0,.17,1.15,1.57,1.57,0,0,0,.65.74.58.58,0,0,0,.69,0A1.16,1.16,0,0,0,88.05,237.61Z"/><path class="cls-14" d="M94.38,241.59,91.54,240a2,2,0,0,0,1.12,1.77,2,2,0,0,0,1.29.32l-.07,1.11a3.08,3.08,0,0,1-1.59-.52,4,4,0,0,1-2.05-3.8,1.82,1.82,0,0,1,.75-1.61,1.58,1.58,0,0,1,1.59.16A3.46,3.46,0,0,1,94,238.89a3.86,3.86,0,0,1,.41,2.05Zm-1.19-1.65a1.45,1.45,0,0,0-.68-1.5.51.51,0,0,0-.58,0,.88.88,0,0,0-.34.6Z"/><path class="cls-14" d="M101.06,247.52l-1.27-.72,0-.72h0c-.33.4-.78.43-1.35.11a2.41,2.41,0,0,1-1-1,2.32,2.32,0,0,1-.29-1.31c.06-1,.6-1.24,1.6-.82l1.2.49a1.29,1.29,0,0,0-.72-1.26,2.31,2.31,0,0,0-1.52-.31l.08-1.16a2.82,2.82,0,0,1,.78.15,4.58,4.58,0,0,1,.9.37,3.19,3.19,0,0,1,1.72,3.19Zm-1.13-2.74,0-.34-.8-.33c-.44-.18-.67-.08-.7.31a1,1,0,0,0,.14.52,1,1,0,0,0,.41.41.6.6,0,0,0,.64.05A.75.75,0,0,0,99.93,244.78Z"/><path class="cls-14" d="M105.19,246.14a1.8,1.8,0,0,0-.56-.47.59.59,0,0,0-.71,0,1.23,1.23,0,0,0-.31.86l-.15,2.39-1.34-.76.32-5,1.34.76-.06.92h0a.76.76,0,0,1,1.21-.36,1.29,1.29,0,0,1,.33.25Z"/><path class="cls-14" d="M108.65,248.1a2,2,0,0,0-.56-.47.6.6,0,0,0-.71,0,1.21,1.21,0,0,0-.31.86l-.15,2.39-1.34-.77.32-5,1.34.77-.06.92h0a.75.75,0,0,1,1.21-.36,1.29,1.29,0,0,1,.33.25Z"/><path class="cls-14" d="M112.65,254.12l-1.27-.73.05-.71h0c-.33.39-.78.42-1.35.1a2.54,2.54,0,0,1-1-1,2.37,2.37,0,0,1-.29-1.3c.07-1,.6-1.24,1.61-.83l1.19.49a1.25,1.25,0,0,0-.72-1.25,2.17,2.17,0,0,0-1.51-.31l.08-1.16a2.47,2.47,0,0,1,.78.14,4.59,4.59,0,0,1,.9.38,3.16,3.16,0,0,1,1.71,3.18Zm-1.13-2.75,0-.33-.79-.34c-.44-.18-.68-.08-.7.31a.92.92,0,0,0,.13.52,1.1,1.1,0,0,0,.42.41.61.61,0,0,0,.64.06A.76.76,0,0,0,111.52,251.37Z"/><path class="cls-14" d="M117.91,257.11l-1.34-.76.18-2.78a1.53,1.53,0,0,0-.64-1.57.55.55,0,0,0-.6,0,.85.85,0,0,0-.27.66l-.19,2.84-1.34-.76.33-5,1.34.76,0,.79h0a1.06,1.06,0,0,1,1.46-.12,2.81,2.81,0,0,1,1.31,2.88Z"/><path class="cls-14" d="M123.07,262.42l-1.34-.76.2-3h0c-.34.37-.8.38-1.39.05a3.13,3.13,0,0,1-1.27-1.41,4.09,4.09,0,0,1-.38-2.12,2.16,2.16,0,0,1,.67-1.68,1.3,1.3,0,0,1,1.48.06,2.51,2.51,0,0,1,1.13,1.38h0l0-.58,1.34.76Zm-1-5.42,0-.4a1.9,1.9,0,0,0-.19-1,1.54,1.54,0,0,0-.61-.69.58.58,0,0,0-.73,0,1.42,1.42,0,0,0-.33,1,2.33,2.33,0,0,0,.19,1.14,1.51,1.51,0,0,0,.62.73.58.58,0,0,0,.7,0A1,1,0,0,0,122.06,257Z"/><path class="cls-14" d="M128.48,263.12l-1.33-.76,0-.76h0a1,1,0,0,1-1.38.12,2.88,2.88,0,0,1-1.38-3l.2-3,1.34.76-.19,2.88a1.44,1.44,0,0,0,.66,1.47.53.53,0,0,0,.6,0,.89.89,0,0,0,.27-.67l.18-2.85,1.34.76Z"/><path class="cls-14" d="M133.65,263.92l-2.83-1.61a2,2,0,0,0,1.12,1.77,2,2,0,0,0,1.28.32l-.07,1.11a3.17,3.17,0,0,1-1.59-.51,4.07,4.07,0,0,1-1.59-1.6,4,4,0,0,1-.46-2.2,1.86,1.86,0,0,1,.76-1.62,1.58,1.58,0,0,1,1.59.16,3.52,3.52,0,0,1,1.43,1.48,3.89,3.89,0,0,1,.4,2.06Zm-1.18-1.65a1.45,1.45,0,0,0-.69-1.5.51.51,0,0,0-.57,0,.89.89,0,0,0-.34.6Z"/></g></svg>