<svg xmlns="http://www.w3.org/2000/svg" viewBox="0 0 600 346"><defs><style>.cls-1{fill:#fff;}.cls-2,.cls-6{fill:#3c3c41;}.cls-2{opacity:0.1;}.cls-2,.cls-9{isolation:isolate;}.cls-3{fill:#3e3e3e;}.cls-4{fill:#1e1e1e;}.cls-5{fill:#b8d432;}.cls-6,.cls-7{fill-opacity:0.2;}.cls-10,.cls-6,.cls-7,.cls-8{stroke:#fff;stroke-width:0.5px;}.cls-7{fill:#008575;}.cls-8{fill:#0072c6;fill-opacity:0.25;}.cls-9{fill:#50e6ff;opacity:0.15;}.cls-10{fill:none;}</style></defs><title>OJ104601279</title><g id="source"><g id="source-2" data-name="source"><g id="Shapes"><rect id="Rectangle-path" class="cls-1" width="599.98" height="345.93"/><g id="Group"><rect class="cls-1" x="16.1" y="33.22" width="251.63" height="312.7"/><rect class="cls-2" x="16.1" y="33.22" width="251.63" height="312.7"/></g><path id="Shape" class="cls-3" d="M29.79,48.27a2.59,2.59,0,0,1-.74,1.81,2.54,2.54,0,0,1-1.81.73H2.54A2.49,2.49,0,0,1,0,48.27V2.54A2.49,2.49,0,0,1,2.54,0h24.7a2.51,2.51,0,0,1,1.81.74,2.59,2.59,0,0,1,.74,1.8Z"/><path class="cls-4" d="M4.26,27.36a3.21,3.21,0,0,1,3.26-3.24H22.36a3.25,3.25,0,1,1,0,6.49H7.52A3.26,3.26,0,0,1,4.26,27.36Z"/><circle id="Oval" class="cls-5" cx="7.72" cy="27.44" r="2.13"/><path class="cls-4" d="M4.26,17.79a3.21,3.21,0,0,1,3.26-3.25H22.36a3.25,3.25,0,1,1,0,6.49H7.52A3.26,3.26,0,0,1,4.26,17.79Z"/><circle class="cls-5" cx="7.72" cy="17.79" r="2.13"/><path class="cls-4" d="M4.26,8.23A3.23,3.23,0,0,1,7.52,5H22.36A3.21,3.21,0,0,1,25.6,8.23a3.19,3.19,0,0,1-3.24,3.26H7.52A3.34,3.34,0,0,1,4.26,8.23Z"/><circle class="cls-5" cx="7.72" cy="8.23" r="2.13"/><rect class="cls-6" x="35.65" y="62.54" width="212.54" height="48.86"/><rect class="cls-6" x="35.65" y="111.4" width="212.54" height="48.86"/><rect class="cls-6" x="35.65" y="160.26" width="212.54" height="48.86"/><rect class="cls-7" x="35.65" y="228.66" width="212.54" height="48.86"/><rect class="cls-8" x="35.65" y="277.52" width="212.54" height="48.86"/><rect class="cls-1" x="348.35" y="33.22" width="251.63" height="312.7"/><rect class="cls-2" x="348.35" y="33.22" width="251.63" height="312.7"/><path class="cls-3" d="M362,48.27a2.51,2.51,0,0,1-2.54,2.54h-24.7a2.49,2.49,0,0,1-2.54-2.54V2.54A2.49,2.49,0,0,1,334.79,0h24.7a2.47,2.47,0,0,1,1.8.74,2.5,2.5,0,0,1,.74,1.8Z"/><path class="cls-4" d="M336.51,27.36a3.19,3.19,0,0,1,3.26-3.24h14.84a3.25,3.25,0,1,1,0,6.49H339.77A3.26,3.26,0,0,1,336.51,27.36Z"/><circle class="cls-5" cx="339.97" cy="27.44" r="2.13"/><path class="cls-4" d="M336.51,17.79a3.23,3.23,0,0,1,.94-2.32,3.2,3.2,0,0,1,2.32-.93h14.84a3.25,3.25,0,1,1,0,6.49H339.77A3.26,3.26,0,0,1,336.51,17.79Z"/><circle class="cls-5" cx="339.97" cy="17.79" r="2.13"/><path class="cls-4" d="M336.51,8.23A3.23,3.23,0,0,1,339.77,5h14.84a3.21,3.21,0,0,1,3.24,3.25,3.19,3.19,0,0,1-3.24,3.26H339.77A3.34,3.34,0,0,1,336.51,8.23Z"/><circle class="cls-5" cx="339.97" cy="8.23" r="2.13"/><rect class="cls-6" x="367.9" y="62.54" width="212.54" height="48.86"/><rect class="cls-6" x="367.9" y="111.4" width="212.54" height="48.86"/><rect class="cls-8" x="367.9" y="277.52" width="212.54" height="48.86"/><rect class="cls-1" x="367.9" y="228.66" width="212.54" height="48.86"/><rect class="cls-9" x="367.9" y="228.66" width="212.54" height="48.86"/><rect class="cls-10" x="367.9" y="228.66" width="212.54" height="48.86"/></g><g id="Source_Text" data-name="Source Text"><path class="cls-4" d="M39.22,22.83V19.15a6.64,6.64,0,0,0,2.17,1.25,6.31,6.31,0,0,0,2.35.43A4.64,4.64,0,0,0,45,20.7a3,3,0,0,0,.86-.34,1.75,1.75,0,0,0,.53-.52,1.42,1.42,0,0,0,.17-.67,1.4,1.4,0,0,0-.27-.86,3.25,3.25,0,0,0-.76-.72A6.93,6.93,0,0,0,44.36,17c-.43-.21-.89-.41-1.4-.62a7.05,7.05,0,0,1-2.86-2,4.16,4.16,0,0,1-1-2.67,4.28,4.28,0,0,1,.53-2.19A4,4,0,0,1,41,7.92,6.63,6.63,0,0,1,43.11,7a9.81,9.81,0,0,1,2.47-.28,13.15,13.15,0,0,1,2.26.16,8.29,8.29,0,0,1,1.84.47v3.42a6.25,6.25,0,0,0-.82-.51l-1-.35a6.7,6.7,0,0,0-1.09-.18h-1a5.54,5.54,0,0,0-1.15.12,3.33,3.33,0,0,0-.86.33,1.7,1.7,0,0,0-.57.53,1.19,1.19,0,0,0-.17.66,1.17,1.17,0,0,0,.21.75,2.57,2.57,0,0,0,.61.62,5.87,5.87,0,0,0,1,.57l1.29.58a14,14,0,0,1,1.78.88,5.72,5.72,0,0,1,1.35,1,4.26,4.26,0,0,1,.86,1.35,4.46,4.46,0,0,1,.29,1.74,4.6,4.6,0,0,1-.52,2.3,4.17,4.17,0,0,1-1.41,1.51,6.33,6.33,0,0,1-2.09.84,12.4,12.4,0,0,1-2.5.25,12.87,12.87,0,0,1-2.56-.39A8.32,8.32,0,0,1,39.22,22.83Z"/><path class="cls-4" d="M63.3,18.63H55.66c.12,1.7,1.19,2.54,3.21,2.54a6.47,6.47,0,0,0,3.4-.9v2.6a8.84,8.84,0,0,1-4.22.88,5.85,5.85,0,0,1-4.4-1.59,5.8,5.8,0,0,1-1.58-4.39,6.22,6.22,0,0,1,1.7-4.62,5.6,5.6,0,0,1,4.16-1.72A5.12,5.12,0,0,1,61.84,13a5.85,5.85,0,0,1,1.4,4.14ZM59.94,16.4c0-1.68-.66-2.52-1.95-2.52a2,2,0,0,0-1.51.72,3.26,3.26,0,0,0-.78,1.8Z"/><path class="cls-4" d="M73.11,15a3.2,3.2,0,0,0-1.52-.35,2.2,2.2,0,0,0-2,.86A3.9,3.9,0,0,0,69,17.84v5.61H65.45V11.73h3.62V13.9a3.13,3.13,0,0,1,3.24-2.39,2.73,2.73,0,0,1,.9.14Z"/><path class="cls-4" d="M86.89,11.73,82.53,23.45H78.41L74.27,11.73h3.91L80.13,19A12.18,12.18,0,0,1,80.52,21a12,12,0,0,1,.43-2l2.17-7.34Z"/><path class="cls-4" d="M98.76,18.63H91.09c.12,1.7,1.2,2.54,3.23,2.54a6.44,6.44,0,0,0,3.4-.9v2.6a9,9,0,0,1-4.22.88,5.88,5.88,0,0,1-4.42-1.59,5.84,5.84,0,0,1-1.56-4.39,6.3,6.3,0,0,1,1.68-4.62,5.62,5.62,0,0,1,4.18-1.72A5.16,5.16,0,0,1,97.29,13,5.86,5.86,0,0,1,98.7,17.1ZM95.39,16.4c0-1.68-.68-2.52-2-2.52a1.91,1.91,0,0,0-1.52.72,3.43,3.43,0,0,0-.77,1.8Z"/><path class="cls-4" d="M108.55,15a3.24,3.24,0,0,0-1.53-.35,2.18,2.18,0,0,0-1.83.86,3.75,3.75,0,0,0-.67,2.34v5.61h-3.61V11.73h3.61V13.9a3.14,3.14,0,0,1,3.09-2.39,2.53,2.53,0,0,1,.9.14Z"/><path class="cls-4" d="M98.05,94.79H95.92l-1.74-4.61h-7l-1.64,4.61H83.45l6.3-16.42h2Zm-4.49-6.33-2.58-7a6.77,6.77,0,0,1-.26-1.1,6.8,6.8,0,0,1-.27,1.1l-2.5,7Z"/><path class="cls-4" d="M102.14,93.09v7.09h-2V83.06h2v2a4.48,4.48,0,0,1,4.06-2.33,4.3,4.3,0,0,1,3.54,1.58A6.48,6.48,0,0,1,111,88.48a7.38,7.38,0,0,1-1.43,4.73A4.81,4.81,0,0,1,105.67,95,3.87,3.87,0,0,1,102.14,93.09Zm0-4.73V90a3.44,3.44,0,0,0,.93,2.46,3.39,3.39,0,0,0,5.09-.29,5.87,5.87,0,0,0,1-3.62,4.66,4.66,0,0,0-.9-3.06,3,3,0,0,0-2.44-1.12,3.37,3.37,0,0,0-2.64,1.13,4.22,4.22,0,0,0-1,2.86Z"/><path class="cls-4" d="M115.93,93.09v7.09h-2V83.06h2v2a4.45,4.45,0,0,1,4-2.33,4.27,4.27,0,0,1,3.54,1.58,6.48,6.48,0,0,1,1.27,4.21,7.32,7.32,0,0,1-1.43,4.73A4.78,4.78,0,0,1,119.45,95,3.92,3.92,0,0,1,115.93,93.09Zm0-4.73V90a3.51,3.51,0,0,0,1,2.46,3.35,3.35,0,0,0,5.06-.29,5.82,5.82,0,0,0,1-3.62,4.79,4.79,0,0,0-.9-3.06,3,3,0,0,0-2.46-1.12,3.34,3.34,0,0,0-2.64,1.13,4.23,4.23,0,0,0-1.05,2.86Z"/><polygon class="cls-4" points="129.67 94.79 127.72 94.79 127.72 77.43 129.67 77.43 129.67 94.79"/><path class="cls-4" d="M134.44,80.13a1.2,1.2,0,0,1-1.21-1.21,1.2,1.2,0,0,1,.35-.88,1.17,1.17,0,0,1,.86-.35,1.2,1.2,0,0,1,.88.35,1.16,1.16,0,0,1,.35.88,1.11,1.11,0,0,1-.35.84A1.2,1.2,0,0,1,134.44,80.13Zm.92,14.7h-2V83.1h2Z"/><path class="cls-4" d="M147.15,94.24a6,6,0,0,1-3.21.82,5.32,5.32,0,0,1-4-1.62,5.88,5.88,0,0,1-1.55-4.24A6.47,6.47,0,0,1,140,84.55a5.88,5.88,0,0,1,4.44-1.76,6.24,6.24,0,0,1,2.72.57v2a4.7,4.7,0,0,0-2.8-.92,3.94,3.94,0,0,0-3,1.29,4.88,4.88,0,0,0-1.13,3.38,4.63,4.63,0,0,0,1.07,3.25,3.71,3.71,0,0,0,2.89,1.19,4.7,4.7,0,0,0,2.9-1Z"/><path class="cls-4" d="M158.31,94.79h-2V93A4.27,4.27,0,0,1,150,94.14a3.24,3.24,0,0,1-1-2.46c0-2.19,1.29-3.48,3.91-3.91l3.52-.49c0-2-.8-3-2.42-3a5.78,5.78,0,0,0-3.91,1.45V83.79a7.29,7.29,0,0,1,3.91-1.1c2.75,0,4.14,1.47,4.14,4.38Zm-2-5.86-2.83.39a4.75,4.75,0,0,0-2,.66,2,2,0,0,0-.66,1.64,1.78,1.78,0,0,0,.62,1.39,2.36,2.36,0,0,0,1.63.55,3,3,0,0,0,2.3-1,3.51,3.51,0,0,0,.92-2.48Z"/><path class="cls-4" d="M167.36,94.67a3.4,3.4,0,0,1-1.74.37c-2,0-3.09-1.15-3.09-3.44V84.66h-2v-1.6h2V80.13l1.95-.63v3.56h3v1.6h-3v6.61a2.76,2.76,0,0,0,.41,1.68,1.59,1.59,0,0,0,1.33.51,2,2,0,0,0,1.22-.39Z"/><path class="cls-4" d="M170.83,80.13a1.2,1.2,0,0,1-.8-.39,1.17,1.17,0,0,1-.35-.86A1.2,1.2,0,0,1,170,78a1.17,1.17,0,0,1,.86-.35,1.24,1.24,0,0,1,.88.35,1.16,1.16,0,0,1,.35.88,1.11,1.11,0,0,1-.35.84A1.19,1.19,0,0,1,170.83,80.13Zm.92,14.7H169.8V83.1h1.95Z"/><path class="cls-4" d="M180.45,95.06a5.41,5.41,0,0,1-4.14-1.64,6.09,6.09,0,0,1-1.57-4.36,6.4,6.4,0,0,1,1.62-4.61,5.9,5.9,0,0,1,4.36-1.66,5.26,5.26,0,0,1,4.11,1.62,7.38,7.38,0,0,1-.12,9A5.63,5.63,0,0,1,180.45,95.06Zm.14-10.69a3.55,3.55,0,0,0-2.86,1.23,5.08,5.08,0,0,0-1,3.4,4.83,4.83,0,0,0,1,3.29,3.64,3.64,0,0,0,2.86,1.19,3.45,3.45,0,0,0,2.79-1.17,6.33,6.33,0,0,0,0-6.75A3.39,3.39,0,0,0,180.59,84.37Z"/><path class="cls-4" d="M199,94.79h-2V88.1c0-2.5-.9-3.73-2.71-3.73A2.94,2.94,0,0,0,192,85.43a3.9,3.9,0,0,0-.94,2.67v6.69h-2V83.06h2v2A4.22,4.22,0,0,1,195,82.79,3.53,3.53,0,0,1,197.92,84a5.45,5.45,0,0,1,1,3.58Z"/><polygon class="cls-4" points="109.27 143.65 100.75 143.65 100.75 127.23 102.7 127.23 102.7 141.91 109.29 141.91 109.27 143.65"/><path class="cls-4" d="M112.51,129a1.17,1.17,0,0,1-.86-.35,1.26,1.26,0,0,1,0-1.74,1.17,1.17,0,0,1,.86-.35,1.14,1.14,0,0,1,.86.35,1.12,1.12,0,0,1,.38.88,1.09,1.09,0,0,1-.38.84A1.12,1.12,0,0,1,112.51,129Zm.85,14.66h-2V131.92h2Z"/><path class="cls-4" d="M119.22,142v1.7h-2V126.29h2V134a4.49,4.49,0,0,1,3.91-2.32,4.27,4.27,0,0,1,3.53,1.58,6.47,6.47,0,0,1,1.27,4.2,7.28,7.28,0,0,1-1.42,4.73,4.8,4.8,0,0,1-3.91,1.76A3.9,3.9,0,0,1,119.22,142Zm0-4.73v1.64a3.41,3.41,0,0,0,.94,2.46,3.34,3.34,0,0,0,2.6,1,3.4,3.4,0,0,0,2.48-1.3,5.88,5.88,0,0,0,1-3.62,4.65,4.65,0,0,0-.91-3.06,3,3,0,0,0-2.45-1.12,3.37,3.37,0,0,0-2.64,1.13,4.25,4.25,0,0,0-1.11,2.86Z"/><path class="cls-4" d="M137.12,133.82a2.19,2.19,0,0,0-1.41-.37,2.37,2.37,0,0,0-2,1.13,5.12,5.12,0,0,0-.86,3.09v6h-2V131.92h2v2.43a4.13,4.13,0,0,1,1.23-2,3,3,0,0,1,3-.53Z"/><path class="cls-4" d="M147.56,143.65h-2v-1.84a4.29,4.29,0,0,1-6.35,1.19,3.24,3.24,0,0,1-1-2.46c0-2.19,1.29-3.48,3.91-3.91l3.52-.49c0-1.95-.8-3-2.42-3a5.68,5.68,0,0,0-3.91,1.45v-2a7.37,7.37,0,0,1,3.91-1.09c2.75,0,4.12,1.47,4.12,4.38Zm-2-5.86-2.83.39a4.61,4.61,0,0,0-2,.66,1.82,1.82,0,0,0-.66,1.64,1.74,1.74,0,0,0,.61,1.39,2.33,2.33,0,0,0,1.62.55,3,3,0,0,0,2.32-1,3.45,3.45,0,0,0,.9-2.48Z"/><path class="cls-4" d="M157.21,133.82a2.24,2.24,0,0,0-1.42-.37,2.32,2.32,0,0,0-2,1.13,5.2,5.2,0,0,0-.82,3.09v6h-1.95V131.92H153v2.43a4,4,0,0,1,1.21-2,2.77,2.77,0,0,1,2-.7,2.81,2.81,0,0,1,1.11.17Z"/><path class="cls-4" d="M160.26,129a1.2,1.2,0,0,1-1.21-1.21,1.2,1.2,0,0,1,.35-.88,1.23,1.23,0,0,1,1.72,0,1.12,1.12,0,0,1,.37.88,1.08,1.08,0,0,1-.37.84A1.12,1.12,0,0,1,160.26,129Zm.92,14.7h-2V132h2Z"/><path class="cls-4" d="M174.35,138.25h-8.23a4.3,4.3,0,0,0,1.06,3,3.64,3.64,0,0,0,2.75,1.06,5.74,5.74,0,0,0,3.66-1.31v1.78a6.92,6.92,0,0,1-4.1,1.11,4.9,4.9,0,0,1-3.91-1.6,7.49,7.49,0,0,1,.11-8.95,5,5,0,0,1,3.91-1.72,4.41,4.41,0,0,1,3.56,1.48,6.25,6.25,0,0,1,1.25,4.15Zm-1.95-1.58a3.93,3.93,0,0,0-.78-2.54,2.72,2.72,0,0,0-2.15-.9,3.1,3.1,0,0,0-2.27.94,4.39,4.39,0,0,0-1.08,2.5Z"/><path class="cls-4" d="M176.48,143.22v-2a5.58,5.58,0,0,0,3.38,1.14c1.64,0,2.49-.55,2.49-1.64a1.54,1.54,0,0,0-.22-.81,2,2,0,0,0-.57-.56,4,4,0,0,0-.86-.47l-1-.41a11.32,11.32,0,0,1-1.37-.63,4.61,4.61,0,0,1-1-.7,3,3,0,0,1-.58-.9,3.22,3.22,0,0,1-.22-1.19,2.75,2.75,0,0,1,.39-1.45,3.49,3.49,0,0,1,1-1.13,5,5,0,0,1,1.45-.65,6.63,6.63,0,0,1,1.66-.21,6.55,6.55,0,0,1,2.73.53v1.95a5.35,5.35,0,0,0-3-.84,3.25,3.25,0,0,0-.93.12,2.52,2.52,0,0,0-.75.33,2.18,2.18,0,0,0-.47.53,1.49,1.49,0,0,0-.15.66,1.64,1.64,0,0,0,.15.76,2.06,2.06,0,0,0,.49.57,4.26,4.26,0,0,0,.78.43l1,.43a10.91,10.91,0,0,1,1.41.61,5.65,5.65,0,0,1,1,.7,2.76,2.76,0,0,1,.67.92,2.93,2.93,0,0,1,.23,1.21,2.7,2.7,0,0,1-.39,1.52,3.13,3.13,0,0,1-1,1.06,4.91,4.91,0,0,1-1.48.65,7.25,7.25,0,0,1-1.74.19A6.74,6.74,0,0,1,176.48,143.22Z"/><path class="cls-4" d="M87.22,176.09l-6.09,16.42H79l-5.87-16.42H75.3l4.56,13a8.84,8.84,0,0,1,.33,1.44,6.65,6.65,0,0,1,.37-1.46l4.65-13Z"/><path class="cls-4" d="M106.32,192.51h-2v-11a23.91,23.91,0,0,1,.16-3.19,9.63,9.63,0,0,1-.49,1.58l-5.61,12.63h-.93L91.86,180a9,9,0,0,1-.49-1.68v14.21h-2V176.09H92l5.2,11.53a15.62,15.62,0,0,1,.77,2,20,20,0,0,1,.8-2l5.14-11.39h2.46Z"/><path class="cls-4" d="M129.34,191.39a11.14,11.14,0,0,1-5.51,1.39,7.55,7.55,0,0,1-5.69-2.27,8.33,8.33,0,0,1-2.17-6,8.58,8.58,0,0,1,2.43-6.25,8.15,8.15,0,0,1,6.1-2.36,10.47,10.47,0,0,1,4.49.78v2.13a8.65,8.65,0,0,0-4.73-1.25,5.85,5.85,0,0,0-4.51,1.95,8,8,0,0,0-.14,9.77,5.84,5.84,0,0,0,4.46,1.8,6.74,6.74,0,0,0,3.32-.78v-4.63h-3.58v-1.74h5.53Z"/><path class="cls-4" d="M142.38,192.51h-2v-2a3.89,3.89,0,0,1-3.61,2.23c-2.8,0-4.18-1.66-4.18-5v-7h2v6.71c0,2.48.94,3.71,2.83,3.71a2.87,2.87,0,0,0,2.27-1,3.87,3.87,0,0,0,.82-2.56v-6.84h2Z"/><path class="cls-4" d="M155.59,187.11h-8.27a4.35,4.35,0,0,0,1,3,3.67,3.67,0,0,0,2.77,1.06,5.74,5.74,0,0,0,3.66-1.31v1.78a6.93,6.93,0,0,1-4.11,1.11,4.89,4.89,0,0,1-3.9-1.6,7.49,7.49,0,0,1,.11-9,5,5,0,0,1,3.91-1.72,4.42,4.42,0,0,1,3.56,1.48,6.25,6.25,0,0,1,1.25,4.15Zm-2-1.58a3.94,3.94,0,0,0-.79-2.54,2.69,2.69,0,0,0-2.15-.9,3.06,3.06,0,0,0-2.26.94,4.37,4.37,0,0,0-1.14,2.5Z"/><path class="cls-4" d="M157.72,192.08v-2a5.58,5.58,0,0,0,3.38,1.14c1.64,0,2.48-.55,2.48-1.64a1.53,1.53,0,0,0-.21-.81,1.76,1.76,0,0,0-.59-.56,3.85,3.85,0,0,0-.84-.47l-1-.41c-.53-.22-1-.41-1.39-.63a4.85,4.85,0,0,1-1-.7,2.87,2.87,0,0,1-.59-.9,3.21,3.21,0,0,1-.21-1.19,2.75,2.75,0,0,1,.39-1.45,3.4,3.4,0,0,1,1-1.07,4.8,4.8,0,0,1,1.44-.65,6.69,6.69,0,0,1,1.66-.21,6.78,6.78,0,0,1,2.74.52v2a5.35,5.35,0,0,0-3-.84,3,3,0,0,0-.94.12,2.58,2.58,0,0,0-.74.33,1.71,1.71,0,0,0-.47.53,1.49,1.49,0,0,0-.16.66,1.82,1.82,0,0,0,.16.76,2.06,2.06,0,0,0,.49.57,4.55,4.55,0,0,0,.78.43l1,.43a11.56,11.56,0,0,1,1.4.6,5.45,5.45,0,0,1,1.06.71,2.73,2.73,0,0,1,.66.92,3.16,3.16,0,0,1-.15,2.73,3.13,3.13,0,0,1-1,1.06,5,5,0,0,1-1.48.64,7.32,7.32,0,0,1-1.74.2A6.66,6.66,0,0,1,157.72,192.08Z"/><path class="cls-4" d="M173.82,192.39a3.54,3.54,0,0,1-1.75.37c-2.06,0-3.07-1.15-3.07-3.44v-6.94h-2v-1.6h2v-2.93l1.95-.63v3.56h3v1.6h-3V189a2.89,2.89,0,0,0,.39,1.68,1.68,1.68,0,0,0,1.33.51,2,2,0,0,0,1.23-.39Z"/><path class="cls-4" d="M189.58,192.78a7.2,7.2,0,0,1-5.61-2.3,8.53,8.53,0,0,1-2.09-6,9.1,9.1,0,0,1,2.13-6.34,7.51,7.51,0,0,1,5.86-2.34,7,7,0,0,1,5.47,2.28,8.5,8.5,0,0,1,2,6,9.1,9.1,0,0,1-2.13,6.38A7.37,7.37,0,0,1,189.58,192.78Zm.13-15.22a5.3,5.3,0,0,0-4.2,1.95,8.3,8.3,0,0,0,0,9.77,5.11,5.11,0,0,0,4.11,2,5.39,5.39,0,0,0,4.26-1.78,7.23,7.23,0,0,0,1.54-4.93,7.59,7.59,0,0,0-1.5-5,5.19,5.19,0,0,0-4.15-1.95Z"/><path class="cls-4" d="M199.92,191.84v-2.26a5.19,5.19,0,0,0,.93.62,7.74,7.74,0,0,0,1.16.45,5.62,5.62,0,0,0,1.21.29,5.17,5.17,0,0,0,1.11.12,4.5,4.5,0,0,0,2.66-.66,2.31,2.31,0,0,0,.86-2,2.21,2.21,0,0,0-.29-1.15,3,3,0,0,0-.8-.9,7.43,7.43,0,0,0-1.22-.78l-1.52-.78-1.6-.88a7.41,7.41,0,0,1-1.29-1,3.69,3.69,0,0,1-1.18-2.81,3.93,3.93,0,0,1,.49-2,4.68,4.68,0,0,1,1.29-1.37,6,6,0,0,1,1.82-.8,8.66,8.66,0,0,1,2.09-.25,7.81,7.81,0,0,1,3.54.59v2.15a6.4,6.4,0,0,0-3.73-1,5.27,5.27,0,0,0-1.25.14,3,3,0,0,0-1.12.41,2.77,2.77,0,0,0-.82.78A2,2,0,0,0,202,180a2.47,2.47,0,0,0,.23,1.1,2.77,2.77,0,0,0,.69.84,7.54,7.54,0,0,0,1.11.72l1.52.78c.59.29,1.14.61,1.67.92a7.85,7.85,0,0,1,1.38,1.05,4.57,4.57,0,0,1,1,1.31,3.68,3.68,0,0,1,.35,1.63,4.09,4.09,0,0,1-.49,2.05,3.88,3.88,0,0,1-1.27,1.37,5.74,5.74,0,0,1-2,.76,9.71,9.71,0,0,1-2.21.23h-1a7.92,7.92,0,0,1-1.17-.19,7.54,7.54,0,0,1-1.13-.3A3.56,3.56,0,0,1,199.92,191.84Z"/><polygon class="cls-4" points="100.94 260.91 98.99 260.91 98.99 253.43 90.53 253.43 90.53 260.91 88.57 260.91 88.57 244.5 90.53 244.5 90.53 251.69 99.01 251.69 99.01 244.5 100.96 244.5 100.94 260.91"/><path class="cls-4" d="M114.33,249.19l-5.39,13.68c-1,2.42-2.33,3.63-4.07,3.63a4.13,4.13,0,0,1-1.21-.14v-1.68a3.31,3.31,0,0,0,1.12.2,2.34,2.34,0,0,0,2.13-1.68l.93-2.23-4.59-11.73h2.09l3.17,9a4.41,4.41,0,0,0,.23.88,4.52,4.52,0,0,1,.24-.86l3.32-9.05Z"/><path class="cls-4" d="M118.26,259.21v7.1h-2V249.19h2v2.05a4.48,4.48,0,0,1,4.07-2.33,4.3,4.3,0,0,1,3.53,1.59,6.45,6.45,0,0,1,1.27,4.2,7.43,7.43,0,0,1-1.42,4.73,4.87,4.87,0,0,1-3.91,1.76A3.91,3.91,0,0,1,118.26,259.21Zm0-4.73v1.64a3.47,3.47,0,0,0,.94,2.47,3.39,3.39,0,0,0,5.08-.3,5.86,5.86,0,0,0,1-3.61,4.69,4.69,0,0,0-.9-3.07,3,3,0,0,0-2.44-1.11,3.28,3.28,0,0,0-2.64,1.13,4.22,4.22,0,0,0-1,2.85Z"/><path class="cls-4" d="M139.56,255.52h-8.28a4.48,4.48,0,0,0,1.05,3,3.64,3.64,0,0,0,2.78,1.05,5.68,5.68,0,0,0,3.63-1.31v1.78a6.8,6.8,0,0,1-4.08,1.12,4.92,4.92,0,0,1-3.91-1.61,6.58,6.58,0,0,1-1.43-4.49,6.46,6.46,0,0,1,1.57-4.46,4.94,4.94,0,0,1,3.9-1.72,4.37,4.37,0,0,1,3.56,1.49,6.17,6.17,0,0,1,1.27,4.14Zm-1.95-1.59a3.93,3.93,0,0,0-.78-2.54,2.66,2.66,0,0,0-2.15-.89,3,3,0,0,0-2.25.93,4.38,4.38,0,0,0-1.15,2.5Z"/><path class="cls-4" d="M148.53,251.08a2.24,2.24,0,0,0-1.42-.37,2.42,2.42,0,0,0-2,1.13,5.42,5.42,0,0,0-.8,3.09v6H142.4V249.19h1.95v2.42a4.26,4.26,0,0,1,1.23-2,2.78,2.78,0,0,1,1.84-.7,2.71,2.71,0,0,1,1.13.18Z"/><path class="cls-4" d="M159.77,249.19l-4.67,11.72h-1.95l-4.44-11.72h2.17l3,8.52a8.38,8.38,0,0,1,.41,1.64,7.91,7.91,0,0,1,.37-1.6l3.11-8.56Z"/><path class="cls-4" d="M162.74,246.25a1.17,1.17,0,0,1-.86-.35,1.14,1.14,0,0,1-.35-.86,1.2,1.2,0,0,1,.35-.88,1.17,1.17,0,0,1,.86-.35,1.21,1.21,0,0,1,.88.36,1.18,1.18,0,0,1,.35.87A1.22,1.22,0,0,1,162.74,246.25Zm.92,14.7h-1.95V249.22h1.95Z"/><path class="cls-4" d="M166.75,260.48v-2a5.5,5.5,0,0,0,3.38,1.13c1.64,0,2.48-.55,2.48-1.64a1.5,1.5,0,0,0-.21-.8,1.79,1.79,0,0,0-.59-.57,3.85,3.85,0,0,0-.84-.47l-1-.41c-.52-.21-1-.41-1.38-.62a4.9,4.9,0,0,1-1-.71,2.76,2.76,0,0,1-.59-.9,3.21,3.21,0,0,1-.21-1.19,2.69,2.69,0,0,1,.39-1.44,3.33,3.33,0,0,1,1-1.08,4.77,4.77,0,0,1,1.44-.64,6.26,6.26,0,0,1,1.66-.22,6.63,6.63,0,0,1,2.74.53v1.95a5.35,5.35,0,0,0-3-.84,3.73,3.73,0,0,0-.94.12,2.58,2.58,0,0,0-.74.33,2,2,0,0,0-.47.53,1.53,1.53,0,0,0-.16.66,1.83,1.83,0,0,0,.16.77,1.87,1.87,0,0,0,.49.56,3.69,3.69,0,0,0,.78.43l1,.43a13.45,13.45,0,0,1,1.4.61,5.41,5.41,0,0,1,1.06.7,2.73,2.73,0,0,1,.66.92,3.18,3.18,0,0,1-.15,2.74,3,3,0,0,1-1,1,4.88,4.88,0,0,1-1.48.65,7.31,7.31,0,0,1-1.74.19A6.66,6.66,0,0,1,166.75,260.48Z"/><path class="cls-4" d="M182.33,261.19a5.48,5.48,0,0,1-4.17-1.65,6,6,0,0,1-1.54-4.35,6.32,6.32,0,0,1,1.6-4.62,5.89,5.89,0,0,1,4.38-1.66,5.21,5.21,0,0,1,4.08,1.62,7.37,7.37,0,0,1-.11,9A5.59,5.59,0,0,1,182.33,261.19Zm.13-10.69a3.58,3.58,0,0,0-2.87,1.23,5.06,5.06,0,0,0-1.06,3.4,4.72,4.72,0,0,0,1.08,3.28,3.59,3.59,0,0,0,2.85,1.19,3.47,3.47,0,0,0,2.8-1.17,6.31,6.31,0,0,0,0-6.74A3.38,3.38,0,0,0,182.46,250.5Z"/><path class="cls-4" d="M197.28,251.08a2.28,2.28,0,0,0-1.43-.37,2.39,2.39,0,0,0-1.95,1.13,5.35,5.35,0,0,0-.81,3.09v6h-2V249.19h2v2.42a4.2,4.2,0,0,1,1.24-2,2.75,2.75,0,0,1,1.83-.7,2.79,2.79,0,0,1,1.14.18Z"/><polygon class="cls-4" points="114 309.77 112.05 309.77 112.05 302.29 103.58 302.29 103.58 309.77 101.63 309.77 101.63 293.36 103.58 293.36 103.58 300.55 112.06 300.55 112.06 293.36 114.02 293.36 114 309.77"/><path class="cls-4" d="M123,310.05a5.41,5.41,0,0,1-4.14-1.65,6.07,6.07,0,0,1-1.57-4.35,6.37,6.37,0,0,1,1.63-4.62,5.86,5.86,0,0,1,4.35-1.66,5.28,5.28,0,0,1,4.11,1.62,7.37,7.37,0,0,1-.12,9A5.57,5.57,0,0,1,123,310.05Zm.14-10.69a3.52,3.52,0,0,0-2.86,1.23,5.05,5.05,0,0,0-1,3.4,4.82,4.82,0,0,0,1,3.28,3.65,3.65,0,0,0,2.86,1.19,3.42,3.42,0,0,0,2.79-1.17,6.31,6.31,0,0,0,0-6.74,3.34,3.34,0,0,0-2.75-1.19Z"/><path class="cls-4" d="M131.08,309.34v-1.95a5.5,5.5,0,0,0,3.38,1.13c1.64,0,2.47-.55,2.47-1.64a1.49,1.49,0,0,0-.2-.8,1.89,1.89,0,0,0-.59-.57,3.85,3.85,0,0,0-.84-.47l-1.05-.41c-.51-.21-1-.41-1.37-.62a4.31,4.31,0,0,1-1-.71,2.63,2.63,0,0,1-.6-.9,3.42,3.42,0,0,1-.2-1.19,2.69,2.69,0,0,1,.39-1.44,3.33,3.33,0,0,1,1-1.08,4.77,4.77,0,0,1,1.44-.64,6.85,6.85,0,0,1,4.38.31v1.95a5.29,5.29,0,0,0-3-.84,4,4,0,0,0-1,.12,2.47,2.47,0,0,0-.72.33,2.16,2.16,0,0,0-.47.53,1.26,1.26,0,0,0-.15.66,1.46,1.46,0,0,0,.15.77,2,2,0,0,0,.49.56,4.26,4.26,0,0,0,.78.43l1,.43a14.63,14.63,0,0,1,1.41.61,5.65,5.65,0,0,1,1.05.7,3.2,3.2,0,0,1,.67.92,3,3,0,0,1,.23,1.21,3,3,0,0,1-1.41,2.58A4.77,4.77,0,0,1,136,310a7.31,7.31,0,0,1-1.74.19A6.69,6.69,0,0,1,131.08,309.34Z"/><path class="cls-4" d="M147.19,309.65a3.59,3.59,0,0,1-1.76.38c-2,0-3.07-1.16-3.07-3.44v-6.94h-2v-1.6h2v-2.94l1.95-.62V298h2.95v1.6h-3v6.61a2.85,2.85,0,0,0,.4,1.68,1.6,1.6,0,0,0,1.32.5,2,2,0,0,0,1.24-.39Z"/><path class="cls-4" d="M163,310.05a7.2,7.2,0,0,1-5.59-2.31,8.5,8.5,0,0,1-2.09-6,9.06,9.06,0,0,1,2.13-6.33,7.52,7.52,0,0,1,5.86-2.35,7,7,0,0,1,5.47,2.29,8.53,8.53,0,0,1,2.07,6,9.06,9.06,0,0,1-2.13,6.37A7.36,7.36,0,0,1,163,310.05Zm.13-15.23a5.34,5.34,0,0,0-4.2,2,8.36,8.36,0,0,0,0,9.77A5.16,5.16,0,0,0,163,308.4a5.32,5.32,0,0,0,4.26-1.77,7.1,7.1,0,0,0,1.56-4.93,7.59,7.59,0,0,0-1.5-5A5.22,5.22,0,0,0,163.11,294.82Z"/><path class="cls-4" d="M173.28,309.11v-2.27a4.48,4.48,0,0,0,.93.63,8.18,8.18,0,0,0,1.16.45,6.89,6.89,0,0,0,1.19.29,7.1,7.1,0,0,0,1.13.12,4.37,4.37,0,0,0,2.64-.67,2.55,2.55,0,0,0,.59-3.11,3.28,3.28,0,0,0-.8-.9,9.59,9.59,0,0,0-1.21-.78l-1.53-.78c-.57-.29-1.11-.59-1.6-.88a6.56,6.56,0,0,1-1.29-1,3.92,3.92,0,0,1-.88-1.21,4,4,0,0,1-.31-1.6,3.81,3.81,0,0,1,.5-1.95,4.12,4.12,0,0,1,1.29-1.37,5.91,5.91,0,0,1,1.82-.8A8.25,8.25,0,0,1,179,293a8.09,8.09,0,0,1,3.54.59v2.15a6.4,6.4,0,0,0-3.73-1,5.84,5.84,0,0,0-1.25.14,3.54,3.54,0,0,0-1.14.41,3.12,3.12,0,0,0-.8.78,2,2,0,0,0-.31,1.13,2.2,2.2,0,0,0,.25,1.1,2.55,2.55,0,0,0,.69.84,7.26,7.26,0,0,0,1.11.72c.45.24.94.51,1.53.78s1.13.61,1.66.92a7.91,7.91,0,0,1,1.38,1.06,4.57,4.57,0,0,1,1,1.31,3.76,3.76,0,0,1,.33,1.62,4.17,4.17,0,0,1-.46,2.05,3.85,3.85,0,0,1-1.29,1.37,5.5,5.5,0,0,1-1.86.76,10.32,10.32,0,0,1-2.21.24h-1a14.77,14.77,0,0,1-2.28-.49A4.45,4.45,0,0,1,173.28,309.11Z"/><path class="cls-4" d="M371.47,22.83V19.15a6.64,6.64,0,0,0,2.17,1.25,6.31,6.31,0,0,0,2.35.43,4.64,4.64,0,0,0,1.23-.13,3,3,0,0,0,.86-.34,1.75,1.75,0,0,0,.53-.52,1.42,1.42,0,0,0,.17-.67,1.46,1.46,0,0,0-.27-.86,3.37,3.37,0,0,0-.76-.7,6.93,6.93,0,0,0-1.14-.61c-.43-.21-.9-.41-1.4-.62a7,7,0,0,1-2.86-2,4.1,4.1,0,0,1-1-2.69A4.33,4.33,0,0,1,373.25,8a7.14,7.14,0,0,1,2.07-.88,10.28,10.28,0,0,1,2.47-.27,13.22,13.22,0,0,1,2.26.16,8.29,8.29,0,0,1,1.84.47v3.32a5.34,5.34,0,0,0-.9-.51c-.33-.13-.66-.25-1-.35a7.26,7.26,0,0,0-1-.22h-1a5.54,5.54,0,0,0-1.15.12,3.33,3.33,0,0,0-.86.33,1.61,1.61,0,0,0-.57.53,1.28,1.28,0,0,0-.18.66,1.25,1.25,0,0,0,.22.75,2.4,2.4,0,0,0,.61.62,5.87,5.87,0,0,0,1,.57l1.29.59a12.8,12.8,0,0,1,1.78.88,5.43,5.43,0,0,1,1.35,1,4.26,4.26,0,0,1,.86,1.35,4.52,4.52,0,0,1,.29,1.74,4.54,4.54,0,0,1-.53,2.31,4.11,4.11,0,0,1-1.4,1.5,6.33,6.33,0,0,1-2.09.84,12.5,12.5,0,0,1-2.51.25,13,13,0,0,1-2.56-.23A8,8,0,0,1,371.47,22.83Z"/><path class="cls-4" d="M395.55,18.63h-7.64c.12,1.7,1.19,2.54,3.2,2.54a6.42,6.42,0,0,0,3.4-.9v2.6a8.79,8.79,0,0,1-4.22.88,5.85,5.85,0,0,1-4.39-1.59,5.85,5.85,0,0,1-1.59-4.39,6.26,6.26,0,0,1,1.7-4.62,5.64,5.64,0,0,1,4.17-1.72,5.09,5.09,0,0,1,3.9,1.53,5.81,5.81,0,0,1,1.41,4.14Zm-3.36-2.23c0-1.68-.67-2.52-2-2.52a2,2,0,0,0-1.5.72,3.26,3.26,0,0,0-.78,1.8Z"/><path class="cls-4" d="M405.36,15a3.2,3.2,0,0,0-1.52-.35,2.24,2.24,0,0,0-1.86.86,3.82,3.82,0,0,0-.66,2.34v5.61H397.7V11.73h3.62V13.9a3.12,3.12,0,0,1,3.24-2.39,2.73,2.73,0,0,1,.9.14Z"/><path class="cls-4" d="M419.14,11.73l-4.36,11.72h-4.12l-4.15-11.72h3.91l2,7.23a12.18,12.18,0,0,1,.39,2.07,12,12,0,0,1,.43-2l2.17-7.34Z"/><path class="cls-4" d="M431,18.63h-7.66c.12,1.7,1.19,2.54,3.23,2.54a6.47,6.47,0,0,0,3.4-.9v2.6a9.08,9.08,0,0,1-4.22.88,5.88,5.88,0,0,1-4.42-1.59,5.84,5.84,0,0,1-1.56-4.39,6.3,6.3,0,0,1,1.68-4.62,5.61,5.61,0,0,1,4.18-1.72A5.16,5.16,0,0,1,429.54,13a5.85,5.85,0,0,1,1.4,4.14Zm-3.36-2.23c0-1.68-.68-2.52-1.95-2.52a2,2,0,0,0-1.53.72,3.41,3.41,0,0,0-.76,1.8Z"/><path class="cls-4" d="M440.79,15a3.2,3.2,0,0,0-1.52-.35,2.2,2.2,0,0,0-1.84.86,3.74,3.74,0,0,0-.66,2.34v5.61h-3.62V11.73h3.62V13.9a3.14,3.14,0,0,1,3.09-2.39,2.53,2.53,0,0,1,.9.14Z"/><path class="cls-4" d="M430.3,94.79h-2.13l-1.74-4.61h-7l-1.64,4.61H415.7L422,78.37h2Zm-4.5-6.33-2.58-7a6.75,6.75,0,0,1-.25-1.1,6.8,6.8,0,0,1-.27,1.1l-2.5,7Z"/><path class="cls-4" d="M434.38,93.09v7.09h-1.95V83.06h1.95v2a4.51,4.51,0,0,1,4.07-2.33A4.31,4.31,0,0,1,442,84.27a6.54,6.54,0,0,1,1.27,4.21,7.44,7.44,0,0,1-1.43,4.73A4.81,4.81,0,0,1,437.92,95,3.9,3.9,0,0,1,434.38,93.09Zm0-4.73V90a3.49,3.49,0,0,0,.94,2.46,3.38,3.38,0,0,0,5.08-.29,5.81,5.81,0,0,0,1-3.62,4.66,4.66,0,0,0-.9-3.06A3,3,0,0,0,438,84.37a3.34,3.34,0,0,0-2.64,1.13,4.17,4.17,0,0,0-1,2.86Z"/><path class="cls-4" d="M448.18,93.09v7.09h-1.95V83.06h1.95v2a4.45,4.45,0,0,1,4.05-2.33,4.29,4.29,0,0,1,3.54,1.58A6.48,6.48,0,0,1,457,88.48a7.32,7.32,0,0,1-1.43,4.73A4.78,4.78,0,0,1,451.7,95,3.89,3.89,0,0,1,448.18,93.09Zm0-4.73V90a3.51,3.51,0,0,0,1,2.46,3.35,3.35,0,0,0,5.06-.29,5.89,5.89,0,0,0,1-3.62,4.79,4.79,0,0,0-.9-3.06,3,3,0,0,0-2.46-1.12,3.34,3.34,0,0,0-2.64,1.13,4.24,4.24,0,0,0-1.06,2.86Z"/><polygon class="cls-4" points="461.92 94.79 459.97 94.79 459.97 77.43 461.92 77.43 461.92 94.79"/><path class="cls-4" d="M466.69,80.13a1.2,1.2,0,0,1-1.21-1.21,1.2,1.2,0,0,1,.35-.88,1.17,1.17,0,0,1,.86-.35,1.21,1.21,0,0,1,.88.35,1.2,1.2,0,0,1,.35.88,1.11,1.11,0,0,1-.35.84A1.22,1.22,0,0,1,466.69,80.13Zm.92,14.7h-2V83.1h2Z"/><path class="cls-4" d="M479.39,94.24a6,6,0,0,1-3.2.82,5.35,5.35,0,0,1-4.05-1.62,5.87,5.87,0,0,1-1.54-4.24,6.42,6.42,0,0,1,1.66-4.65,5.86,5.86,0,0,1,4.44-1.76,6.2,6.2,0,0,1,2.71.57v2a4.65,4.65,0,0,0-2.79-.92,3.94,3.94,0,0,0-2.95,1.29,4.89,4.89,0,0,0-1.14,3.38,4.64,4.64,0,0,0,1.08,3.25,3.71,3.71,0,0,0,2.89,1.19,4.67,4.67,0,0,0,2.89-1Z"/><path class="cls-4" d="M490.55,94.79H488.6V93a3.9,3.9,0,0,1-3.6,2.11,3.85,3.85,0,0,1-2.73-.92,3.21,3.21,0,0,1-1-2.46c0-2.19,1.29-3.48,3.91-3.91l3.52-.49c0-2-.8-3-2.43-3a5.81,5.81,0,0,0-3.91,1.45V83.79a7.32,7.32,0,0,1,3.91-1.1c2.76,0,4.15,1.47,4.15,4.38Zm-1.95-5.86-2.83.39a4.71,4.71,0,0,0-2,.66,1.93,1.93,0,0,0-.66,1.64,1.72,1.72,0,0,0,.62,1.39,2.33,2.33,0,0,0,1.62.55,3,3,0,0,0,2.31-1,3.51,3.51,0,0,0,.92-2.48Z"/><path class="cls-4" d="M499.6,94.67a3.36,3.36,0,0,1-1.74.37q-3.08,0-3.08-3.44V84.66h-2v-1.6h2V80.13l2-.63v3.56h2.95v1.6h-2.95v6.61a2.69,2.69,0,0,0,.41,1.68,1.59,1.59,0,0,0,1.33.51,2,2,0,0,0,1.21-.39Z"/><path class="cls-4" d="M503.08,80.13a1.2,1.2,0,0,1-1.21-1.21,1.2,1.2,0,0,1,.35-.88,1.17,1.17,0,0,1,.86-.35,1.2,1.2,0,0,1,1.23,1.23,1.11,1.11,0,0,1-.35.84A1.22,1.22,0,0,1,503.08,80.13Zm.92,14.7h-1.95V83.1H504Z"/><path class="cls-4" d="M512.7,95.06a5.43,5.43,0,0,1-4.15-1.64A6.13,6.13,0,0,1,507,89.06a6.35,6.35,0,0,1,1.62-4.61A5.89,5.89,0,0,1,513,82.79a5.22,5.22,0,0,1,4.1,1.62,7.37,7.37,0,0,1-.11,9A5.63,5.63,0,0,1,512.7,95.06Zm.13-10.69A3.53,3.53,0,0,0,510,85.6a5,5,0,0,0-1.05,3.4A4.78,4.78,0,0,0,510,92.29a3.63,3.63,0,0,0,2.85,1.19,3.45,3.45,0,0,0,2.8-1.17,6.33,6.33,0,0,0,0-6.75A3.4,3.4,0,0,0,512.83,84.37Z"/><path class="cls-4" d="M531.26,94.79h-2V88.1c0-2.5-.9-3.73-2.72-3.73a2.93,2.93,0,0,0-2.32,1.06,3.9,3.9,0,0,0-.94,2.67v6.69h-2V83.06h2v2a4.2,4.2,0,0,1,3.91-2.23A3.54,3.54,0,0,1,530.17,84a5.45,5.45,0,0,1,1,3.58Z"/><polygon class="cls-4" points="441.52 143.65 433 143.65 433 127.23 434.95 127.23 434.95 141.91 441.54 141.91 441.52 143.65"/><path class="cls-4" d="M444.76,129a1.17,1.17,0,0,1-.86-.35,1.26,1.26,0,0,1,0-1.74,1.17,1.17,0,0,1,.86-.35,1.14,1.14,0,0,1,.86.35,1.18,1.18,0,0,1,0,1.72A1.12,1.12,0,0,1,444.76,129Zm.84,14.66h-2V131.92h2Z"/><path class="cls-4" d="M451.47,142v1.7h-2V126.29h2V134a4.49,4.49,0,0,1,3.9-2.32,4.27,4.27,0,0,1,3.54,1.58,6.47,6.47,0,0,1,1.27,4.2,7.28,7.28,0,0,1-1.42,4.73,4.81,4.81,0,0,1-3.91,1.76A3.9,3.9,0,0,1,451.47,142Zm0-4.73v1.64a3.44,3.44,0,0,0,.93,2.46,3.38,3.38,0,0,0,2.61,1,3.41,3.41,0,0,0,2.48-1.3,5.88,5.88,0,0,0,1-3.62,4.66,4.66,0,0,0-.92-3.06,3,3,0,0,0-2.44-1.12,3.36,3.36,0,0,0-2.64,1.13,4.25,4.25,0,0,0-1.11,2.86Z"/><path class="cls-4" d="M469.37,133.82a2.21,2.21,0,0,0-1.41-.37,2.35,2.35,0,0,0-1.95,1.13,5.11,5.11,0,0,0-.8,3.09v6h-2V131.92h2v2.43a4.06,4.06,0,0,1,1.23-2,3,3,0,0,1,2.95-.53Z"/><path class="cls-4" d="M479.8,143.65h-1.95v-1.84A4.29,4.29,0,0,1,471.5,143a3.21,3.21,0,0,1-1-2.46c0-2.19,1.29-3.48,3.91-3.91l3.52-.49c0-1.95-.8-3-2.43-3a5.68,5.68,0,0,0-3.9,1.45v-2a7.36,7.36,0,0,1,3.9-1.09c2.76,0,4.13,1.47,4.13,4.38Zm-1.95-5.86-2.83.39a4.57,4.57,0,0,0-2,.66,1.82,1.82,0,0,0-.66,1.64,1.76,1.76,0,0,0,.6,1.39,2.34,2.34,0,0,0,1.63.55,3,3,0,0,0,2.32-1,3.49,3.49,0,0,0,.9-2.48Z"/><path class="cls-4" d="M489.46,133.82a2.25,2.25,0,0,0-1.43-.37,2.31,2.31,0,0,0-1.95,1.13,5.13,5.13,0,0,0-.82,3.09v6h-2V131.92h2v2.43a4,4,0,0,1,1.21-2,2.76,2.76,0,0,1,1.95-.7,2.86,2.86,0,0,1,1.12.17Z"/><path class="cls-4" d="M492.51,129a1.15,1.15,0,0,1-.86-.35,1.26,1.26,0,0,1,0-1.74,1.14,1.14,0,0,1,.86-.35,1.17,1.17,0,0,1,.86.35,1.18,1.18,0,0,1,0,1.72A1.14,1.14,0,0,1,492.51,129Zm.92,14.7h-2V132h2Z"/><path class="cls-4" d="M506.6,138.25h-8.23a4.3,4.3,0,0,0,1.06,3,3.62,3.62,0,0,0,2.75,1.06,5.74,5.74,0,0,0,3.66-1.31v1.78a7,7,0,0,1-4.11,1.11,4.91,4.91,0,0,1-3.91-1.6,7.5,7.5,0,0,1,.12-8.95,5,5,0,0,1,3.91-1.72,4.42,4.42,0,0,1,3.56,1.48,6.25,6.25,0,0,1,1.25,4.15Zm-2-1.58a3.87,3.87,0,0,0-.78-2.54,2.69,2.69,0,0,0-2.15-.9,3.1,3.1,0,0,0-2.26.94,4.37,4.37,0,0,0-1.14,2.5Z"/><path class="cls-4" d="M508.73,143.22v-2a5.58,5.58,0,0,0,3.38,1.14c1.64,0,2.48-.55,2.48-1.64a1.53,1.53,0,0,0-.21-.81,2,2,0,0,0-.57-.56,4.24,4.24,0,0,0-.86-.47l-1-.41a11.32,11.32,0,0,1-1.37-.63,4.38,4.38,0,0,1-1-.7,3,3,0,0,1-.59-.9,3.21,3.21,0,0,1-.21-1.19,2.75,2.75,0,0,1,.39-1.45,3.4,3.4,0,0,1,1-1.07,4.8,4.8,0,0,1,1.44-.65,6.69,6.69,0,0,1,1.66-.21,6.78,6.78,0,0,1,2.74.52v2a5.35,5.35,0,0,0-3-.84,3,3,0,0,0-.94.12,2.58,2.58,0,0,0-.74.33,1.71,1.71,0,0,0-.47.53,1.49,1.49,0,0,0-.16.66,1.82,1.82,0,0,0,.16.76,2.06,2.06,0,0,0,.49.57,4.55,4.55,0,0,0,.78.43l1,.43a10.22,10.22,0,0,1,1.4.61,5,5,0,0,1,1.06.7,2.73,2.73,0,0,1,.66.92,3.16,3.16,0,0,1-.15,2.73,3.13,3.13,0,0,1-1,1.06,5,5,0,0,1-1.48.64,7.32,7.32,0,0,1-1.74.2A6.66,6.66,0,0,1,508.73,143.22Z"/><path class="cls-4" d="M439.74,260.91V244.5h4.53q8.69,0,8.68,8a8.1,8.1,0,0,1-2.4,6.12,8.91,8.91,0,0,1-6.45,2.3Zm1.95-14.68v12.94h2.47a6.91,6.91,0,0,0,5-1.74,6.44,6.44,0,0,0,1.8-4.88q0-6.33-6.71-6.32Z"/><path class="cls-4" d="M460.87,261.19a5.47,5.47,0,0,1-4.15-1.65,6,6,0,0,1-1.54-4.35,6.36,6.36,0,0,1,1.6-4.62,5.89,5.89,0,0,1,4.36-1.66,5.21,5.21,0,0,1,4.1,1.62,7.37,7.37,0,0,1-.11,9A5.6,5.6,0,0,1,460.87,261.19ZM461,250.5a3.53,3.53,0,0,0-2.85,1.23,5.06,5.06,0,0,0-1.06,3.4,4.83,4.83,0,0,0,1.06,3.28A3.63,3.63,0,0,0,461,259.6a3.51,3.51,0,0,0,2.82-1.17,6.31,6.31,0,0,0,0-6.74A3.41,3.41,0,0,0,461,250.5Z"/><path class="cls-4" d="M477.71,260.36a6.1,6.1,0,0,1-3.2.83,5.44,5.44,0,0,1-4.07-1.63,6,6,0,0,1-1.52-4.24,6.42,6.42,0,0,1,1.66-4.65,5.89,5.89,0,0,1,4.42-1.76,6.29,6.29,0,0,1,2.73.57v2a4.76,4.76,0,0,0-2.79-.92A3.8,3.8,0,0,0,472,251.8a4.93,4.93,0,0,0-1.16,3.39,4.73,4.73,0,0,0,1.08,3.24,3.72,3.72,0,0,0,2.91,1.19,4.66,4.66,0,0,0,2.89-1Z"/><polygon class="cls-4" points="490.28 260.91 487.64 260.91 482.46 255.28 482.46 255.28 482.46 260.91 480.51 260.91 480.51 243.56 482.46 243.56 482.46 254.56 482.46 254.56 487.39 249.19 489.85 249.19 484.42 254.83 490.28 260.91"/><path class="cls-4" d="M501.64,255.52h-8.29a4.54,4.54,0,0,0,1,3,3.66,3.66,0,0,0,2.78,1.05,5.66,5.66,0,0,0,3.63-1.31v1.78a6.8,6.8,0,0,1-4.08,1.12,5,5,0,0,1-3.91-1.61,6.63,6.63,0,0,1-1.43-4.49,6.46,6.46,0,0,1,1.57-4.46,4.94,4.94,0,0,1,3.91-1.72,4.37,4.37,0,0,1,3.55,1.49,6.17,6.17,0,0,1,1.27,4.14Zm-2-1.59a3.87,3.87,0,0,0-.78-2.54,2.65,2.65,0,0,0-2.15-.89,3,3,0,0,0-2.25.93,4.45,4.45,0,0,0-1.15,2.5Z"/><path class="cls-4" d="M510.59,251.08a2.28,2.28,0,0,0-1.43-.37,2.39,2.39,0,0,0-2,1.13,5.35,5.35,0,0,0-.81,3.09v6h-1.95V249.19h1.95v2.42a4.2,4.2,0,0,1,1.24-2,2.73,2.73,0,0,1,1.83-.7,2.79,2.79,0,0,1,1.14.18Z"/><polygon class="cls-4" points="446.25 309.77 444.29 309.77 444.29 302.29 435.83 302.29 435.83 309.77 433.88 309.77 433.88 293.36 435.83 293.36 435.83 300.55 444.31 300.55 444.31 293.36 446.27 293.36 446.25 309.77"/><path class="cls-4" d="M455.2,310.05a5.41,5.41,0,0,1-4.14-1.65,6.07,6.07,0,0,1-1.57-4.35,6.4,6.4,0,0,1,1.62-4.62,5.89,5.89,0,0,1,4.36-1.66,5.29,5.29,0,0,1,4.11,1.62,7.38,7.38,0,0,1-.12,9A5.6,5.6,0,0,1,455.2,310.05Zm.14-10.69a3.51,3.51,0,0,0-2.86,1.23,5.05,5.05,0,0,0-1.05,3.4,4.82,4.82,0,0,0,1.05,3.28,3.64,3.64,0,0,0,2.86,1.19,3.42,3.42,0,0,0,2.79-1.17,6.31,6.31,0,0,0,0-6.74,3.35,3.35,0,0,0-2.76-1.19Z"/><path class="cls-4" d="M463.33,309.34v-1.95a5.5,5.5,0,0,0,3.38,1.13c1.64,0,2.46-.55,2.46-1.64a1.48,1.48,0,0,0-.19-.8,2.13,2.13,0,0,0-.59-.57,3.85,3.85,0,0,0-.84-.47l-1.05-.41c-.51-.21-1-.41-1.37-.62a4.31,4.31,0,0,1-1-.71,2.66,2.66,0,0,1-.61-.9,3.66,3.66,0,0,1-.19-1.19,2.69,2.69,0,0,1,.39-1.44,3.33,3.33,0,0,1,1-1.08,4.77,4.77,0,0,1,1.44-.64,6.86,6.86,0,0,1,4.38.31v1.95a5.29,5.29,0,0,0-3-.84,3.89,3.89,0,0,0-1,.12,2.36,2.36,0,0,0-.72.33,2,2,0,0,0-.47.53,1.27,1.27,0,0,0-.16.66,1.57,1.57,0,0,0,.16.77,1.87,1.87,0,0,0,.49.56,3.69,3.69,0,0,0,.78.43l1,.43a13.45,13.45,0,0,1,1.4.61,5.72,5.72,0,0,1,1.06.7,3,3,0,0,1,.66.92,2.82,2.82,0,0,1,.24,1.21,3,3,0,0,1-1.41,2.58,4.83,4.83,0,0,1-1.49.65,7.17,7.17,0,0,1-1.73.19A6.63,6.63,0,0,1,463.33,309.34Z"/><path class="cls-4" d="M479.43,309.65a3.57,3.57,0,0,1-1.76.38c-1.95,0-3.06-1.16-3.06-3.44v-6.94h-2v-1.6h2v-2.94l1.95-.62V298h2.95v1.6h-3v6.61a2.85,2.85,0,0,0,.39,1.68,1.62,1.62,0,0,0,1.33.5,2,2,0,0,0,1.23-.39Z"/><path class="cls-4" d="M495.22,310.05a7.18,7.18,0,0,1-5.58-2.31,8.56,8.56,0,0,1-2.1-6,9.11,9.11,0,0,1,2.13-6.33,7.54,7.54,0,0,1,5.87-2.35,7,7,0,0,1,5.47,2.29,8.53,8.53,0,0,1,2.07,6,9.06,9.06,0,0,1-2.13,6.37A7.36,7.36,0,0,1,495.22,310.05Zm.14-15.23a5.34,5.34,0,0,0-4.2,2,8.36,8.36,0,0,0,0,9.77,5.14,5.14,0,0,0,4.1,1.85,5.29,5.29,0,0,0,4.26-1.77,7.11,7.11,0,0,0,1.57-4.93,7.55,7.55,0,0,0-1.51-5A5.19,5.19,0,0,0,495.36,294.82Z"/><path class="cls-4" d="M505.52,309.11v-2.27a4.54,4.54,0,0,0,.94.63,7.74,7.74,0,0,0,1.16.45,6.67,6.67,0,0,0,1.19.29,7.1,7.1,0,0,0,1.13.12,4.39,4.39,0,0,0,2.64-.67,2.55,2.55,0,0,0,.59-3.11,3.16,3.16,0,0,0-.81-.9,8.93,8.93,0,0,0-1.21-.78l-1.52-.78c-.57-.29-1.12-.59-1.6-.88a6.28,6.28,0,0,1-1.29-1,3.77,3.77,0,0,1-.88-1.21,4,4,0,0,1-.32-1.6,3.82,3.82,0,0,1,.51-1.95,4.12,4.12,0,0,1,1.29-1.37,5.81,5.81,0,0,1,1.82-.8,8.2,8.2,0,0,1,2.09-.26,8.09,8.09,0,0,1,3.54.59v2.15a6.4,6.4,0,0,0-3.73-1,5.86,5.86,0,0,0-1.26.14,3.57,3.57,0,0,0-1.13.41,3.12,3.12,0,0,0-.8.78,2,2,0,0,0-.31,1.13,2.1,2.1,0,0,0,.25,1.1,2.43,2.43,0,0,0,.69.84,6.81,6.81,0,0,0,1.11.72c.45.24.94.51,1.52.78s1.14.61,1.66.92a7.62,7.62,0,0,1,1.39,1.06,4.76,4.76,0,0,1,1,1.31,3.76,3.76,0,0,1,.33,1.62,4.17,4.17,0,0,1-.47,2.05,3.69,3.69,0,0,1-1.29,1.37,5.29,5.29,0,0,1-2,.76,10.32,10.32,0,0,1-2.21.24h-1a14.77,14.77,0,0,1-2.28-.49A3.71,3.71,0,0,1,505.52,309.11Z"/><path class="cls-4" d="M303.89,99.67l-4.38,11.73h-4.12l-4.18-11.73h3.9l2,7.24a10.26,10.26,0,0,1,.41,2.07,12,12,0,0,1,.43-2l2.19-7.35Z"/><path class="cls-4" d="M304.65,111.09v-2.93a7.85,7.85,0,0,0,1.8.8,5.88,5.88,0,0,0,1.66.27,3.67,3.67,0,0,0,1.53-.27.83.83,0,0,0,.54-.8.75.75,0,0,0-.23-.57,2.41,2.41,0,0,0-.67-.41,6.21,6.21,0,0,0-.86-.29l-.9-.32a8.47,8.47,0,0,1-1.23-.56,5.11,5.11,0,0,1-.9-.71,3,3,0,0,1-.54-.94,3.76,3.76,0,0,1-.2-1.25,3.34,3.34,0,0,1,.43-1.68,3.78,3.78,0,0,1,1.15-1.17,5.15,5.15,0,0,1,1.65-.66,8.51,8.51,0,0,1,1.95-.22,8.36,8.36,0,0,1,1.58.14,14,14,0,0,1,1.59.33v2.79a5.76,5.76,0,0,0-1.49-.58,6.07,6.07,0,0,0-1.52-.22,2.66,2.66,0,0,0-.69,0,2.45,2.45,0,0,0-.54.18.77.77,0,0,0-.38.31.68.68,0,0,0-.13.43.79.79,0,0,0,.19.55,1.78,1.78,0,0,0,.55.39,3.74,3.74,0,0,0,.72.29l.82.28a13.83,13.83,0,0,1,1.31.54,4.42,4.42,0,0,1,1,.71,3.23,3.23,0,0,1,.65.94,3.53,3.53,0,0,1,.21,1.29,3.43,3.43,0,0,1-.45,1.77,3.75,3.75,0,0,1-1.21,1.2,5.12,5.12,0,0,1-1.72.68,9.89,9.89,0,0,1-2,.22A10.9,10.9,0,0,1,304.65,111.09Z"/><path class="cls-4" d="M317.36,111.69a2.19,2.19,0,0,1-1.49-.54,1.82,1.82,0,0,1-.59-1.37,1.7,1.7,0,0,1,.61-1.35,2.29,2.29,0,0,1,1.52-.53,2.12,2.12,0,0,1,1.53.55,1.84,1.84,0,0,1,0,2.7A2.18,2.18,0,0,1,317.36,111.69Z"/></g></g></g><g id="clean"><g id="source-3" data-name="source"><g id="Shapes-2" data-name="Shapes"><rect id="Rectangle-path-2" data-name="Rectangle-path" class="cls-1" width="599.98" height="345.93"/><g id="Group-2" data-name="Group"><rect class="cls-1" x="16.1" y="33.22" width="251.63" height="312.7"/><rect class="cls-2" x="16.1" y="33.22" width="251.63" height="312.7"/></g><path id="Shape-2" data-name="Shape" class="cls-3" d="M29.79,48.27a2.59,2.59,0,0,1-.74,1.81,2.54,2.54,0,0,1-1.81.73H2.54A2.49,2.49,0,0,1,0,48.27V2.54A2.49,2.49,0,0,1,2.54,0h24.7a2.51,2.51,0,0,1,1.81.74,2.59,2.59,0,0,1,.74,1.8Z"/><path class="cls-4" d="M4.26,27.36a3.21,3.21,0,0,1,3.26-3.24H22.36a3.25,3.25,0,1,1,0,6.49H7.52A3.26,3.26,0,0,1,4.26,27.36Z"/><circle id="Oval-2" data-name="Oval" class="cls-5" cx="7.72" cy="27.44" r="2.13"/><path class="cls-4" d="M4.26,17.79a3.21,3.21,0,0,1,3.26-3.25H22.36a3.25,3.25,0,1,1,0,6.49H7.52A3.26,3.26,0,0,1,4.26,17.79Z"/><circle class="cls-5" cx="7.72" cy="17.79" r="2.13"/><path class="cls-4" d="M4.26,8.23A3.23,3.23,0,0,1,7.52,5H22.36A3.21,3.21,0,0,1,25.6,8.23a3.19,3.19,0,0,1-3.24,3.26H7.52A3.34,3.34,0,0,1,4.26,8.23Z"/><circle class="cls-5" cx="7.72" cy="8.23" r="2.13"/><rect class="cls-6" x="35.65" y="62.54" width="212.54" height="48.86"/><rect class="cls-6" x="35.65" y="111.4" width="212.54" height="48.86"/><rect class="cls-6" x="35.65" y="160.26" width="212.54" height="48.86"/><rect class="cls-7" x="35.65" y="228.66" width="212.54" height="48.86"/><rect class="cls-8" x="35.65" y="277.52" width="212.54" height="48.86"/><rect class="cls-1" x="348.35" y="33.22" width="251.63" height="312.7"/><rect class="cls-2" x="348.35" y="33.22" width="251.63" height="312.7"/><path class="cls-3" d="M362,48.27a2.51,2.51,0,0,1-2.54,2.54h-24.7a2.49,2.49,0,0,1-2.54-2.54V2.54A2.49,2.49,0,0,1,334.79,0h24.7a2.47,2.47,0,0,1,1.8.74,2.5,2.5,0,0,1,.74,1.8Z"/><path class="cls-4" d="M336.51,27.36a3.19,3.19,0,0,1,3.26-3.24h14.84a3.25,3.25,0,1,1,0,6.49H339.77A3.26,3.26,0,0,1,336.51,27.36Z"/><circle class="cls-5" cx="339.97" cy="27.44" r="2.13"/><path class="cls-4" d="M336.51,17.79a3.23,3.23,0,0,1,.94-2.32,3.2,3.2,0,0,1,2.32-.93h14.84a3.25,3.25,0,1,1,0,6.49H339.77A3.26,3.26,0,0,1,336.51,17.79Z"/><circle class="cls-5" cx="339.97" cy="17.79" r="2.13"/><path class="cls-4" d="M336.51,8.23A3.23,3.23,0,0,1,339.77,5h14.84a3.21,3.21,0,0,1,3.24,3.25,3.19,3.19,0,0,1-3.24,3.26H339.77A3.34,3.34,0,0,1,336.51,8.23Z"/><circle class="cls-5" cx="339.97" cy="8.23" r="2.13"/><rect class="cls-6" x="367.9" y="62.54" width="212.54" height="48.86"/><rect class="cls-6" x="367.9" y="111.4" width="212.54" height="48.86"/><rect class="cls-8" x="367.9" y="277.52" width="212.54" height="48.86"/><rect class="cls-1" x="367.9" y="228.66" width="212.54" height="48.86"/><rect class="cls-9" x="367.9" y="228.66" width="212.54" height="48.86"/><rect class="cls-10" x="367.9" y="228.66" width="212.54" height="48.86"/></g></g></g><g id="text"><path d="M40.19,22.83V19.24a6.79,6.79,0,0,0,2.12,1.23,6.86,6.86,0,0,0,2.31.41,5.29,5.29,0,0,0,1.2-.12,2.9,2.9,0,0,0,.85-.35,1.38,1.38,0,0,0,.51-.51,1.24,1.24,0,0,0,.17-.65,1.4,1.4,0,0,0-.27-.84,2.67,2.67,0,0,0-.73-.68,7.09,7.09,0,0,0-1.11-.61c-.43-.2-.89-.39-1.38-.6a6.89,6.89,0,0,1-2.81-1.92,4.17,4.17,0,0,1-.93-2.74,4.31,4.31,0,0,1,.51-2.16A4.25,4.25,0,0,1,42,8.21a6.26,6.26,0,0,1,2-.86,10.5,10.5,0,0,1,2.42-.27,14.76,14.76,0,0,1,2.23.15,8.52,8.52,0,0,1,1.79.47v3.35a5.71,5.71,0,0,0-.88-.49,6.72,6.72,0,0,0-1-.35,6,6,0,0,0-1-.21,6.35,6.35,0,0,0-1-.07,4.87,4.87,0,0,0-1.12.12,2.9,2.9,0,0,0-.85.33,1.66,1.66,0,0,0-.54.51,1.19,1.19,0,0,0-.19.67,1.27,1.27,0,0,0,.21.72,2.35,2.35,0,0,0,.61.61,6.28,6.28,0,0,0,1,.56c.38.19.8.37,1.27.57a13.43,13.43,0,0,1,1.74.86,6,6,0,0,1,1.32,1,4.15,4.15,0,0,1,.84,1.3,4.77,4.77,0,0,1,.29,1.72,4.58,4.58,0,0,1-.51,2.26,4.11,4.11,0,0,1-1.39,1.48,6,6,0,0,1-2,.82,12,12,0,0,1-2.45.24,13.66,13.66,0,0,1-2.52-.22A7.51,7.51,0,0,1,40.19,22.83Z"/><path d="M63.8,18.71H56.3c.12,1.67,1.17,2.51,3.16,2.51a6.13,6.13,0,0,0,3.33-.9v2.56a8.73,8.73,0,0,1-4.14.85,5.81,5.81,0,0,1-4.32-1.54,5.83,5.83,0,0,1-1.54-4.31,6.12,6.12,0,0,1,1.66-4.53,5.53,5.53,0,0,1,4.09-1.68,5,5,0,0,1,3.89,1.5,5.71,5.71,0,0,1,1.37,4Zm-3.29-2.18c0-1.64-.66-2.47-2-2.47a1.91,1.91,0,0,0-1.48.71,3.18,3.18,0,0,0-.76,1.76Z"/><path d="M73.42,15.15a3.13,3.13,0,0,0-1.5-.34,2.14,2.14,0,0,0-1.8.84A3.69,3.69,0,0,0,69.46,18v5.49H65.92V12h3.54v2.14h.05a3.07,3.07,0,0,1,3-2.34,2.27,2.27,0,0,1,.88.14Z"/><path d="M86.94,12l-4.28,11.5h-4L74.54,12h3.8l2,7.09a10.84,10.84,0,0,1,.39,2h0a11.74,11.74,0,0,1,.42-2l2-7.16Z"/><path d="M90.25,10.13a2,2,0,0,1-1.47-.53,1.73,1.73,0,0,1-.57-1.31A1.66,1.66,0,0,1,88.78,7a2.39,2.39,0,0,1,3,0,1.66,1.66,0,0,1,.57,1.3,1.72,1.72,0,0,1-.57,1.33A2.13,2.13,0,0,1,90.25,10.13ZM92,23.45H88.46V12H92Z"/><path d="M106.24,23.45H102.7V21.87h0a4,4,0,0,1-3.56,1.86,4.34,4.34,0,0,1-3.47-1.52A6.27,6.27,0,0,1,94.31,18a6.84,6.84,0,0,1,1.45-4.57,4.7,4.7,0,0,1,3.79-1.72,3.22,3.22,0,0,1,3.1,1.6h0V6.43h3.54Zm-3.48-5.59V17a2.72,2.72,0,0,0-.65-1.87,2.3,2.3,0,0,0-3.54.19,4.28,4.28,0,0,0-.66,2.54,3.79,3.79,0,0,0,.64,2.34,2.15,2.15,0,0,0,1.78.82,2.12,2.12,0,0,0,1.75-.87A3.57,3.57,0,0,0,102.76,17.86Z"/><path d="M114.71,23.73a6.17,6.17,0,0,1-4.52-1.61,5.85,5.85,0,0,1-1.64-4.37,5.89,5.89,0,0,1,1.7-4.47,6.48,6.48,0,0,1,4.62-1.61,6.11,6.11,0,0,1,4.49,1.61A5.74,5.74,0,0,1,121,17.55a6.08,6.08,0,0,1-1.68,4.52A6.24,6.24,0,0,1,114.71,23.73Zm.09-9.34a2.37,2.37,0,0,0-2,.86,3.8,3.8,0,0,0-.7,2.45c0,2.21.89,3.32,2.67,3.32s2.55-1.14,2.55-3.41S116.52,14.39,114.8,14.39Z"/><path d="M130.79,15.15a3.06,3.06,0,0,0-1.49-.34,2.17,2.17,0,0,0-1.81.84,3.75,3.75,0,0,0-.65,2.31v5.49h-3.55V12h3.55v2.14h0a3.07,3.07,0,0,1,3-2.34,2.25,2.25,0,0,1,.87.14Z"/><path d="M372,23.69v-3.6a6.83,6.83,0,0,0,2.13,1.23,6.62,6.62,0,0,0,2.31.41,5.35,5.35,0,0,0,1.2-.12,2.9,2.9,0,0,0,.85-.34,1.48,1.48,0,0,0,.51-.52,1.31,1.31,0,0,0,.17-.65,1.4,1.4,0,0,0-.27-.84,2.88,2.88,0,0,0-.74-.68,8.48,8.48,0,0,0-1.1-.61l-1.38-.59a7.11,7.11,0,0,1-2.82-1.93,4.15,4.15,0,0,1-.92-2.74,4.13,4.13,0,0,1,1.88-3.65,6.28,6.28,0,0,1,2-.85,10.11,10.11,0,0,1,2.43-.28,14.76,14.76,0,0,1,2.23.15,8.68,8.68,0,0,1,1.79.47v3.36a5,5,0,0,0-.88-.5,6.84,6.84,0,0,0-1-.35,7.12,7.12,0,0,0-1-.21,8,8,0,0,0-.95-.07,4.81,4.81,0,0,0-1.12.12,2.9,2.9,0,0,0-.85.33,1.48,1.48,0,0,0-.54.51,1.2,1.2,0,0,0-.2.67,1.33,1.33,0,0,0,.22.73,2.43,2.43,0,0,0,.6.6,7,7,0,0,0,1,.56c.37.19.8.38,1.27.57a14.68,14.68,0,0,1,1.73.86,5.81,5.81,0,0,1,1.32,1,4.05,4.05,0,0,1,.85,1.31,4.71,4.71,0,0,1,.29,1.71,4.58,4.58,0,0,1-.51,2.26,4.11,4.11,0,0,1-1.39,1.48,6.11,6.11,0,0,1-2,.82,12,12,0,0,1-2.45.24,13.51,13.51,0,0,1-2.52-.22A7.7,7.7,0,0,1,372,23.69Z"/><path d="M395.63,19.56h-7.5c.12,1.67,1.17,2.51,3.16,2.51a6.15,6.15,0,0,0,3.33-.9v2.56a8.73,8.73,0,0,1-4.14.85A5.85,5.85,0,0,1,386.15,23a5.85,5.85,0,0,1-1.54-4.31,6.12,6.12,0,0,1,1.67-4.53,5.51,5.51,0,0,1,4.08-1.68,5,5,0,0,1,3.9,1.5,5.76,5.76,0,0,1,1.37,4.05Zm-3.29-2.17c0-1.65-.67-2.47-2-2.47a1.88,1.88,0,0,0-1.47.7,3.18,3.18,0,0,0-.76,1.77Z"/><path d="M405.25,16a3.13,3.13,0,0,0-1.5-.34,2.17,2.17,0,0,0-1.81.84,3.75,3.75,0,0,0-.65,2.31V24.3h-3.55V12.8h3.55v2.14h0a3.07,3.07,0,0,1,3-2.34,2.31,2.31,0,0,1,.88.14Z"/><path d="M418.77,12.8l-4.28,11.5h-4.05l-4.07-11.5h3.79l2,7.09a9.44,9.44,0,0,1,.39,2h.05a10.82,10.82,0,0,1,.42-2l2-7.16Z"/><path d="M422.08,11a2,2,0,0,1-1.47-.53A1.71,1.71,0,0,1,420,9.14a1.66,1.66,0,0,1,.57-1.3,2.39,2.39,0,0,1,2.95,0,1.69,1.69,0,0,1,.56,1.3,1.75,1.75,0,0,1-.56,1.33A2.13,2.13,0,0,1,422.08,11Zm1.75,13.32h-3.55V12.8h3.55Z"/><path d="M438.07,24.3h-3.55V22.72h0a4,4,0,0,1-3.56,1.86,4.33,4.33,0,0,1-3.47-1.52,6.27,6.27,0,0,1-1.32-4.25,6.9,6.9,0,0,1,1.45-4.57,4.75,4.75,0,0,1,3.8-1.72,3.25,3.25,0,0,1,3.1,1.6h0V7.28h3.55Zm-3.48-5.59v-.86a2.76,2.76,0,0,0-.65-1.87,2.18,2.18,0,0,0-1.7-.74,2.14,2.14,0,0,0-1.84.93,4.3,4.3,0,0,0-.66,2.54,3.72,3.72,0,0,0,.64,2.34,2.27,2.27,0,0,0,3.53-.05A3.61,3.61,0,0,0,434.59,18.71Z"/><path d="M446.54,24.58A6.16,6.16,0,0,1,442,23a5.82,5.82,0,0,1-1.65-4.37,5.82,5.82,0,0,1,1.71-4.46,6.44,6.44,0,0,1,4.62-1.62,6.09,6.09,0,0,1,4.49,1.62,5.74,5.74,0,0,1,1.63,4.26,6.07,6.07,0,0,1-1.68,4.52A6.24,6.24,0,0,1,446.54,24.58Zm.09-9.34a2.38,2.38,0,0,0-2,.87,3.81,3.81,0,0,0-.69,2.44c0,2.21.89,3.32,2.67,3.32s2.55-1.14,2.55-3.41S448.34,15.24,446.63,15.24Z"/><path d="M462.62,16a3.09,3.09,0,0,0-1.49-.34,2.16,2.16,0,0,0-1.81.84,3.69,3.69,0,0,0-.65,2.31V24.3h-3.55V12.8h3.55v2.14h0a3.08,3.08,0,0,1,3-2.34,2.27,2.27,0,0,1,.88.14Z"/><path d="M276.78,98.1a3.41,3.41,0,0,0-1.25-.26c-1.09,0-1.64.59-1.64,1.77v1.17h2.52v2.51h-2.52v8.49h-3.38v-8.49h-1.85v-2.51h1.85V99.42a4,4,0,0,1,1.22-3,4.67,4.67,0,0,1,3.33-1.15,5.93,5.93,0,0,1,1.72.21Z"/><path d="M285.22,103.84a3,3,0,0,0-1.43-.33,2.05,2.05,0,0,0-1.73.81,3.52,3.52,0,0,0-.62,2.21v5.25H278v-11h3.4v2h0a2.93,2.93,0,0,1,2.9-2.23,2.11,2.11,0,0,1,.84.13Z"/><path d="M296.59,107.25h-7.17c.11,1.6,1.12,2.4,3,2.4a5.93,5.93,0,0,0,3.19-.86v2.44a8.33,8.33,0,0,1-4,.82,5.13,5.13,0,0,1-5.61-5.6,5.9,5.9,0,0,1,1.59-4.34,5.33,5.33,0,0,1,3.91-1.6,4.83,4.83,0,0,1,3.73,1.43,5.56,5.56,0,0,1,1.31,3.88Zm-3.15-2.08c0-1.58-.63-2.37-1.91-2.37a1.84,1.84,0,0,0-1.41.68,3,3,0,0,0-.72,1.69Z"/><path d="M309.24,111.78h-3.39v-6.11c0-1.7-.61-2.56-1.82-2.56a1.81,1.81,0,0,0-1.45.68,2.57,2.57,0,0,0-.57,1.72v6.27h-3.4v-11H302v1.74h0a3.89,3.89,0,0,1,3.53-2c2.44,0,3.66,1.52,3.66,4.54Z"/><path d="M318.57,111.65a5,5,0,0,1-2.27.4q-3.58,0-3.58-3.73v-5h-1.79v-2.51h1.79V98.41l3.38-1v3.34h2.47v2.51H316.1v4.44c0,1.15.45,1.72,1.36,1.72a2.28,2.28,0,0,0,1.11-.31Z"/><path d="M330.28,107.25H323.1c.12,1.6,1.13,2.4,3,2.4a5.9,5.9,0,0,0,3.19-.86v2.44a8.26,8.26,0,0,1-4,.82,5.12,5.12,0,0,1-5.61-5.6,5.9,5.9,0,0,1,1.59-4.34,5.33,5.33,0,0,1,3.91-1.6,4.79,4.79,0,0,1,3.72,1.43,5.51,5.51,0,0,1,1.32,3.88Zm-3.15-2.08c0-1.58-.63-2.37-1.91-2.37a1.84,1.84,0,0,0-1.41.68,3.07,3.07,0,0,0-.73,1.69Z"/><path d="M347.52,111.78h-3.21V110.2h0a3.58,3.58,0,0,1-3.28,1.85,3.4,3.4,0,0,1-2.52-.91,3.25,3.25,0,0,1-.92-2.42c0-2.13,1.27-3.36,3.79-3.69l3-.4c0-1.2-.65-1.81-1.95-1.81a6.66,6.66,0,0,0-3.74,1.17v-2.55a8.22,8.22,0,0,1,1.94-.65,10.53,10.53,0,0,1,2.24-.28q4.69,0,4.7,4.7Zm-3.19-4.47v-.74l-2,.26c-1.1.14-1.65.64-1.65,1.49a1.21,1.21,0,0,0,.4,1,1.54,1.54,0,0,0,1.09.38,2,2,0,0,0,1.56-.67A2.38,2.38,0,0,0,344.33,107.31Z"/><path d="M103.81,94.78h-2.14l-1.74-4.61H93l-1.64,4.61H89.17l6.31-16.45h2ZM99.3,88.44l-2.58-7a6.58,6.58,0,0,1-.26-1.11h0a6.43,6.43,0,0,1-.27,1.11l-2.56,7Z"/><path d="M107.9,93.08h0v7.11H106V83h1.88V85.1h0A4.46,4.46,0,0,1,112,82.76a4.3,4.3,0,0,1,3.54,1.57,6.57,6.57,0,0,1,1.28,4.23,7.29,7.29,0,0,1-1.44,4.73,4.78,4.78,0,0,1-3.92,1.77A3.94,3.94,0,0,1,107.9,93.08Zm0-4.73V90a3.49,3.49,0,0,0,.94,2.47,3.4,3.4,0,0,0,5.09-.29,6.08,6.08,0,0,0,1-3.64,4.73,4.73,0,0,0-.91-3.08,3,3,0,0,0-2.45-1.11,3.32,3.32,0,0,0-2.64,1.14A4.18,4.18,0,0,0,107.86,88.35Z"/><path d="M121.67,94.78h-1.88V77.39h1.88Z"/><path d="M126.45,80.05a1.21,1.21,0,0,1-.86-.34,1.24,1.24,0,0,1,0-1.75,1.15,1.15,0,0,1,.86-.36,1.19,1.19,0,0,1,.87.36,1.2,1.2,0,0,1,0,1.73A1.19,1.19,0,0,1,126.45,80.05Zm.91,14.73h-1.88V83h1.88Z"/><path d="M139.18,94.24a6,6,0,0,1-3.21.82,5.34,5.34,0,0,1-4.06-1.64,6,6,0,0,1-1.54-4.24A6.51,6.51,0,0,1,132,84.52a5.77,5.77,0,0,1,4.44-1.76,6.23,6.23,0,0,1,2.73.57v1.93a4.83,4.83,0,0,0-2.8-.92,3.8,3.8,0,0,0-3,1.29A4.89,4.89,0,0,0,132.3,89a4.66,4.66,0,0,0,1.08,3.26,3.74,3.74,0,0,0,2.91,1.19,4.7,4.7,0,0,0,2.89-1Z"/><path d="M150.44,94.78h-1.88V93h-.05a4,4,0,0,1-3.61,2.11,3.86,3.86,0,0,1-2.75-.93,3.22,3.22,0,0,1-1-2.47q0-3.28,3.88-3.83l3.52-.49c0-2-.81-3-2.42-3a5.77,5.77,0,0,0-3.84,1.45V83.86a7.26,7.26,0,0,1,4-1.1q4.14,0,4.14,4.38Zm-1.88-5.94-2.84.39a4.54,4.54,0,0,0-2,.65,1.88,1.88,0,0,0-.67,1.64,1.79,1.79,0,0,0,.62,1.41,2.38,2.38,0,0,0,1.63.54,3,3,0,0,0,2.32-1,3.53,3.53,0,0,0,.91-2.48Z"/><path d="M162,94.24a6.1,6.1,0,0,1-3.22.82,5.3,5.3,0,0,1-4.05-1.64,5.92,5.92,0,0,1-1.55-4.24,6.51,6.51,0,0,1,1.67-4.66,5.8,5.8,0,0,1,4.44-1.76,6.23,6.23,0,0,1,2.73.57v1.93a4.81,4.81,0,0,0-2.8-.92,3.8,3.8,0,0,0-3,1.29A4.89,4.89,0,0,0,155.11,89a4.66,4.66,0,0,0,1.08,3.26,3.74,3.74,0,0,0,2.91,1.19,4.75,4.75,0,0,0,2.9-1Z"/><path d="M165.8,80.05a1.24,1.24,0,0,1-.86-.34A1.23,1.23,0,1,1,166.68,78a1.22,1.22,0,0,1,0,1.73A1.19,1.19,0,0,1,165.8,80.05Zm.92,14.73h-1.88V83h1.88Z"/><path d="M175.44,95.06a5.46,5.46,0,0,1-4.16-1.65,6.12,6.12,0,0,1-1.55-4.36,6.35,6.35,0,0,1,1.62-4.63,5.79,5.79,0,0,1,4.37-1.66,5.26,5.26,0,0,1,4.1,1.62,6.4,6.4,0,0,1,1.47,4.48,6.31,6.31,0,0,1-1.58,4.51A5.6,5.6,0,0,1,175.44,95.06Zm.14-10.72a3.59,3.59,0,0,0-2.87,1.23A5.11,5.11,0,0,0,171.66,89a4.79,4.79,0,0,0,1.06,3.29,3.64,3.64,0,0,0,2.86,1.2,3.45,3.45,0,0,0,2.81-1.18,5.16,5.16,0,0,0,1-3.36,5.26,5.26,0,0,0-1-3.4A3.45,3.45,0,0,0,175.58,84.34Zm2.75-7.3-3,3.77h-1.46L176.43,77Z"/><path d="M194.05,94.78h-1.88v-6.7q0-3.73-2.73-3.74a2.94,2.94,0,0,0-2.33,1.06,3.92,3.92,0,0,0-.93,2.68v6.7H184.3V83h1.88v2h0a4.24,4.24,0,0,1,3.85-2.22A3.59,3.59,0,0,1,193,84a5.56,5.56,0,0,1,1,3.6Z"/><path d="M88.66,143.39V126.94h4.68a5.11,5.11,0,0,1,3.39,1A3.39,3.39,0,0,1,98,130.7a4,4,0,0,1-.76,2.43,4,4,0,0,1-2.09,1.47v.05a4.2,4.2,0,0,1,2.66,1.25,3.85,3.85,0,0,1,1,2.76,4.29,4.29,0,0,1-1.51,3.42,5.59,5.59,0,0,1-3.82,1.31Zm1.93-14.71V134h2a3.72,3.72,0,0,0,2.49-.76,2.65,2.65,0,0,0,.91-2.15c0-1.6-1-2.4-3.16-2.4Zm0,7v5.92h2.62a3.9,3.9,0,0,0,2.63-.81,2.75,2.75,0,0,0,.93-2.2q0-2.91-4-2.91Z"/><path d="M102.84,128.66a1.21,1.21,0,0,1-.86-.35,1.18,1.18,0,0,1-.35-.87,1.22,1.22,0,0,1,.35-.88,1.21,1.21,0,0,1,.86-.35,1.22,1.22,0,0,1,.88.35,1.19,1.19,0,0,1,.36.88,1.16,1.16,0,0,1-.36.86A1.19,1.19,0,0,1,102.84,128.66Zm.92,14.73h-1.88V131.64h1.88Z"/><path d="M109.5,141.69h0v1.7h-1.88V126h1.88v7.71h0a4.44,4.44,0,0,1,4.06-2.34,4.3,4.3,0,0,1,3.54,1.57,6.55,6.55,0,0,1,1.28,4.23,7.3,7.3,0,0,1-1.43,4.72,4.77,4.77,0,0,1-3.93,1.78A3.86,3.86,0,0,1,109.5,141.69Zm0-4.74v1.64a3.51,3.51,0,0,0,1,2.48,3.38,3.38,0,0,0,5.08-.3,6,6,0,0,0,1-3.63,4.77,4.77,0,0,0-.9-3.08,3,3,0,0,0-2.46-1.11,3.35,3.35,0,0,0-2.64,1.14A4.22,4.22,0,0,0,109.45,137Z"/><path d="M123.27,143.39h-1.88V126h1.88Z"/><path d="M128,128.66a1.21,1.21,0,0,1-.86-.35,1.15,1.15,0,0,1-.35-.87,1.18,1.18,0,0,1,.35-.88,1.21,1.21,0,0,1,.86-.35,1.22,1.22,0,0,1,.88.35,1.19,1.19,0,0,1,.36.88,1.16,1.16,0,0,1-.36.86A1.19,1.19,0,0,1,128,128.66Zm.92,14.73h-1.88V131.64H129Z"/><path d="M137.68,143.67a5.45,5.45,0,0,1-4.16-1.65,6.08,6.08,0,0,1-1.55-4.37,6.38,6.38,0,0,1,1.61-4.62,5.83,5.83,0,0,1,4.38-1.66,5.25,5.25,0,0,1,4.1,1.61,6.44,6.44,0,0,1,1.47,4.49,6.29,6.29,0,0,1-1.59,4.5A5.57,5.57,0,0,1,137.68,143.67Zm.14-10.72a3.58,3.58,0,0,0-2.87,1.23,5.11,5.11,0,0,0-1.06,3.4,4.82,4.82,0,0,0,1.07,3.3,3.64,3.64,0,0,0,2.86,1.2,3.42,3.42,0,0,0,2.8-1.18,5.1,5.1,0,0,0,1-3.36,5.2,5.2,0,0,0-1-3.4A3.43,3.43,0,0,0,137.82,133Z"/><path d="M152,143.28a3.69,3.69,0,0,1-1.76.36c-2,0-3.08-1.14-3.08-3.44v-6.95h-2v-1.61h2v-2.87l1.88-.61v3.48h3v1.61h-3v6.62a2.74,2.74,0,0,0,.4,1.69,1.62,1.62,0,0,0,1.33.5,2,2,0,0,0,1.23-.39Z"/><path d="M164,138h-8.3a4.39,4.39,0,0,0,1.06,3,3.62,3.62,0,0,0,2.77,1.06,5.72,5.72,0,0,0,3.65-1.31v1.77a6.81,6.81,0,0,1-4.09,1.13,5,5,0,0,1-3.92-1.6,6.56,6.56,0,0,1-1.42-4.51,6.45,6.45,0,0,1,1.55-4.47,5,5,0,0,1,3.87-1.72,4.39,4.39,0,0,1,3.56,1.49A6.16,6.16,0,0,1,164,137Zm-1.93-1.6a3.81,3.81,0,0,0-.79-2.53,2.65,2.65,0,0,0-2.15-.91,3.05,3.05,0,0,0-2.26,1,4.38,4.38,0,0,0-1.15,2.49Z"/><path d="M174.8,142.85a6,6,0,0,1-3.21.82,5.33,5.33,0,0,1-4.06-1.64,5.91,5.91,0,0,1-1.54-4.24,6.5,6.5,0,0,1,1.66-4.66,5.8,5.8,0,0,1,4.44-1.76,6.16,6.16,0,0,1,2.73.57v1.93A4.78,4.78,0,0,0,172,133a3.78,3.78,0,0,0-3,1.29,4.89,4.89,0,0,0-1.15,3.39,4.68,4.68,0,0,0,1.08,3.26,3.71,3.71,0,0,0,2.91,1.19,4.72,4.72,0,0,0,2.89-1Z"/><path d="M186.06,143.39h-1.88v-1.83h-.05a4,4,0,0,1-3.61,2.11,3.86,3.86,0,0,1-2.75-.93,3.23,3.23,0,0,1-1-2.47c0-2.2,1.3-3.47,3.88-3.83l3.53-.5c0-2-.81-3-2.43-3a5.76,5.76,0,0,0-3.83,1.45v-1.93a7.26,7.26,0,0,1,4-1.1q4.14,0,4.14,4.38Zm-1.88-5.94-2.84.39a4.54,4.54,0,0,0-2,.65,1.84,1.84,0,0,0-.67,1.64,1.81,1.81,0,0,0,.62,1.41,2.38,2.38,0,0,0,1.63.54,3,3,0,0,0,2.31-1,3.49,3.49,0,0,0,.92-2.48Z"/><path d="M188.89,143v-2a5.62,5.62,0,0,0,3.39,1.13c1.65,0,2.47-.55,2.47-1.65a1.47,1.47,0,0,0-.21-.8,2.23,2.23,0,0,0-.57-.58,4.82,4.82,0,0,0-.85-.45l-1.05-.42a12,12,0,0,1-1.37-.62,4,4,0,0,1-1-.72,2.56,2.56,0,0,1-.59-.9,3,3,0,0,1-.21-1.18,2.81,2.81,0,0,1,.38-1.46,3.44,3.44,0,0,1,1-1.07,5,5,0,0,1,1.44-.65,6.65,6.65,0,0,1,1.67-.21,6.75,6.75,0,0,1,2.73.52v1.91a5.28,5.28,0,0,0-3-.85,3.48,3.48,0,0,0-.95.12,2.14,2.14,0,0,0-.73.34,1.55,1.55,0,0,0-.47.52,1.39,1.39,0,0,0-.17.67,1.62,1.62,0,0,0,.17.77,1.59,1.59,0,0,0,.49.55,3.55,3.55,0,0,0,.78.44l1,.42a14.53,14.53,0,0,1,1.4.62,4.67,4.67,0,0,1,1.06.71,2.83,2.83,0,0,1,.67.91,3,3,0,0,1,.23,1.23,2.94,2.94,0,0,1-.38,1.51,3.29,3.29,0,0,1-1,1.07,4.83,4.83,0,0,1-1.48.63,7.17,7.17,0,0,1-1.75.21A6.78,6.78,0,0,1,188.89,143Z"/><path d="M45.73,191.77V189.5a4.7,4.7,0,0,0,.93.62,7.26,7.26,0,0,0,1.15.46,7.34,7.34,0,0,0,1.21.29,6.62,6.62,0,0,0,1.12.11,4.42,4.42,0,0,0,2.66-.66,2.24,2.24,0,0,0,.88-1.9,2.18,2.18,0,0,0-.3-1.16,3.21,3.21,0,0,0-.8-.9,8.71,8.71,0,0,0-1.23-.78l-1.52-.79c-.57-.29-1.11-.58-1.6-.88a7.05,7.05,0,0,1-1.3-1,4,4,0,0,1-.87-1.22,4.22,4.22,0,0,1,.18-3.56,4.25,4.25,0,0,1,1.3-1.37,5.62,5.62,0,0,1,1.83-.8,8.15,8.15,0,0,1,2.09-.27,8,8,0,0,1,3.55.59v2.17a6.45,6.45,0,0,0-3.74-1,6,6,0,0,0-1.26.13,3.54,3.54,0,0,0-1.13.43,2.46,2.46,0,0,0-.8.77,2,2,0,0,0-.31,1.15A2.47,2.47,0,0,0,48,181a2.7,2.7,0,0,0,.7.83,6.39,6.39,0,0,0,1.12.74c.44.24.94.5,1.52.78s1.14.6,1.67.92a7.59,7.59,0,0,1,1.39,1.06,5.1,5.1,0,0,1,1,1.3,3.72,3.72,0,0,1,.35,1.63,4.1,4.1,0,0,1-.48,2.06,4,4,0,0,1-1.28,1.37,5.57,5.57,0,0,1-1.87.76,10,10,0,0,1-2.23.24,9.43,9.43,0,0,1-1-.06c-.38-.05-.77-.11-1.17-.19a11.63,11.63,0,0,1-1.13-.29A3.57,3.57,0,0,1,45.73,191.77Z"/><path d="M65.61,192.71A7.2,7.2,0,0,1,60,190.4a8.5,8.5,0,0,1-2.11-6,9.06,9.06,0,0,1,2.15-6.33,7.47,7.47,0,0,1,5.84-2.37,7.07,7.07,0,0,1,5.49,2.3,8.58,8.58,0,0,1,2.08,6,9.1,9.1,0,0,1-2.13,6.37A7.37,7.37,0,0,1,65.61,192.71Zm.14-15.26a5.29,5.29,0,0,0-4.21,1.87,8.3,8.3,0,0,0,0,9.8A5.13,5.13,0,0,0,65.61,191a5.39,5.39,0,0,0,4.27-1.77,7.24,7.24,0,0,0,1.56-5,7.52,7.52,0,0,0-1.51-5A5.2,5.2,0,0,0,65.75,177.45Z"/><path d="M83.84,177.7a1.2,1.2,0,0,1-.86-.34,1.27,1.27,0,0,1,0-1.75,1.17,1.17,0,0,1,.86-.35,1.18,1.18,0,0,1,.88.35,1.16,1.16,0,0,1,.36.88,1.18,1.18,0,0,1-.36.86A1.22,1.22,0,0,1,83.84,177.7Zm.92,14.73H82.88V180.68h1.88Z"/><path d="M98.33,192.43H96.44v-6.7q0-3.73-2.73-3.74a3,3,0,0,0-2.33,1.06,3.94,3.94,0,0,0-.93,2.68v6.7H88.57V180.68h1.88v2h0a4.23,4.23,0,0,1,3.85-2.23,3.59,3.59,0,0,1,3,1.24,5.56,5.56,0,0,1,1,3.6Z"/><path d="M111.11,180.68l-4.68,11.75h-1.85l-4.45-11.75h2.06l3,8.54a8.31,8.31,0,0,1,.41,1.64h0a7.74,7.74,0,0,1,.37-1.59l3.12-8.59Z"/><path d="M114.09,177.7a1.18,1.18,0,0,1-.86-.34,1.23,1.23,0,0,1,.86-2.1,1.18,1.18,0,0,1,.88.35,1.16,1.16,0,0,1,.36.88,1.18,1.18,0,0,1-.36.86A1.22,1.22,0,0,1,114.09,177.7Zm.92,14.73h-1.88V180.68H115Z"/><path d="M124.27,192.32a3.68,3.68,0,0,1-1.76.37q-3.08,0-3.08-3.44v-7h-2v-1.61h2v-2.86l1.88-.61v3.47h3v1.61h-3v6.62a2.74,2.74,0,0,0,.4,1.69,1.59,1.59,0,0,0,1.33.5,2,2,0,0,0,1.23-.39Z"/><path d="M135.19,192.43h-1.88V190.6h-.05a3.92,3.92,0,0,1-3.61,2.11,3.86,3.86,0,0,1-2.75-.93,3.22,3.22,0,0,1-1-2.47q0-3.28,3.88-3.83l3.52-.49c0-2-.81-3-2.42-3a5.74,5.74,0,0,0-3.83,1.45v-1.93a7.29,7.29,0,0,1,4-1.1q4.14,0,4.14,4.38Zm-1.88-5.94-2.83.39a4.59,4.59,0,0,0-2,.65,1.88,1.88,0,0,0-.66,1.65,1.78,1.78,0,0,0,.61,1.4,2.36,2.36,0,0,0,1.64.55,3,3,0,0,0,2.31-1,3.52,3.52,0,0,0,.91-2.49Z"/><path d="M148.77,192.43h-1.88v-2h0a4.74,4.74,0,0,1-7.58.69,6.48,6.48,0,0,1-1.32-4.3,7,7,0,0,1,1.46-4.66,4.83,4.83,0,0,1,3.92-1.76,3.76,3.76,0,0,1,3.52,1.9h0V175h1.88Zm-1.88-5.31v-1.73a3.36,3.36,0,0,0-.95-2.41,3.13,3.13,0,0,0-2.38-1,3.25,3.25,0,0,0-2.71,1.26,5.55,5.55,0,0,0-1,3.49,5,5,0,0,0,.95,3.21,3.11,3.11,0,0,0,2.54,1.18A3.19,3.19,0,0,0,145.9,190,4.21,4.21,0,0,0,146.89,187.12Z"/><path d="M157.49,192.71a5.43,5.43,0,0,1-4.16-1.65,6.06,6.06,0,0,1-1.56-4.36,6.35,6.35,0,0,1,1.62-4.63,5.82,5.82,0,0,1,4.37-1.66,5.3,5.3,0,0,1,4.11,1.62,6.42,6.42,0,0,1,1.47,4.48,6.32,6.32,0,0,1-1.59,4.51A5.56,5.56,0,0,1,157.49,192.71Zm.14-10.72a3.56,3.56,0,0,0-2.87,1.24,5,5,0,0,0-1.06,3.4,4.79,4.79,0,0,0,1.07,3.29,3.64,3.64,0,0,0,2.86,1.21,3.43,3.43,0,0,0,2.8-1.19,5.12,5.12,0,0,0,1-3.36,5.21,5.21,0,0,0-1-3.39A3.41,3.41,0,0,0,157.63,182Z"/><path d="M182.81,192.43h-1.88v-2h-.05a4.34,4.34,0,0,1-4,2.27,4.39,4.39,0,0,1-3.54-1.58,6.43,6.43,0,0,1-1.33-4.3,7,7,0,0,1,1.47-4.66,4.81,4.81,0,0,1,3.91-1.76,3.75,3.75,0,0,1,3.52,1.9h.05V175h1.88Zm-1.88-5.31v-1.73A3.35,3.35,0,0,0,180,183a3.15,3.15,0,0,0-2.39-1,3.24,3.24,0,0,0-2.7,1.26,5.55,5.55,0,0,0-1,3.49,5,5,0,0,0,.94,3.21,3.13,3.13,0,0,0,2.55,1.18A3.21,3.21,0,0,0,180,190,4.25,4.25,0,0,0,180.93,187.12Z"/><path d="M196.07,187h-8.3a4.36,4.36,0,0,0,1.06,3,3.62,3.62,0,0,0,2.77,1.07,5.78,5.78,0,0,0,3.65-1.31v1.76a6.82,6.82,0,0,1-4.1,1.13,5,5,0,0,1-3.91-1.6,6.55,6.55,0,0,1-1.42-4.5,6.45,6.45,0,0,1,1.55-4.47,5,5,0,0,1,3.86-1.73,4.43,4.43,0,0,1,3.57,1.49,6.19,6.19,0,0,1,1.27,4.14Zm-1.93-1.6a3.81,3.81,0,0,0-.79-2.53,2.65,2.65,0,0,0-2.15-.91,3,3,0,0,0-2.26,1,4.32,4.32,0,0,0-1.15,2.48Z"/><path d="M217.83,176l-6.09,16.45h-2.12l-6-16.45h2.15L210.35,189a6.9,6.9,0,0,1,.33,1.45h0a7.18,7.18,0,0,1,.38-1.48l4.65-13Z"/><path d="M237,192.43h-1.91v-11c0-.88.05-1.94.16-3.21h-.05a10.28,10.28,0,0,1-.49,1.6l-5.62,12.64h-.95l-5.61-12.55a10.17,10.17,0,0,1-.49-1.69h0c.06.66.1,1.74.1,3.23v11H220.2V176h2.54l5,11.47a14,14,0,0,1,.76,2h.07c.33-.9.59-1.58.79-2L234.56,176H237Z"/><path d="M103.77,261.3h-1.93v-7.5H93.33v7.5H91.4V244.85h1.93v7.22h8.51v-7.22h1.93Z"/><path d="M108.8,246.57a1.17,1.17,0,0,1-.86-.34,1.24,1.24,0,0,1,0-1.75,1.14,1.14,0,0,1,.86-.35,1.2,1.2,0,0,1,.88.35,1.16,1.16,0,0,1,.36.88,1.18,1.18,0,0,1-.36.86A1.24,1.24,0,0,1,108.8,246.57Zm.92,14.73h-1.89V249.55h1.89Z"/><path d="M115.45,259.61h0v7.1h-1.88V249.55h1.88v2.07h0a4.46,4.46,0,0,1,4.07-2.34,4.31,4.31,0,0,1,3.54,1.58,6.52,6.52,0,0,1,1.27,4.23,7.26,7.26,0,0,1-1.43,4.72,4.78,4.78,0,0,1-3.92,1.77A4,4,0,0,1,115.45,259.61Zm0-4.74v1.64a3.49,3.49,0,0,0,.94,2.47,3.38,3.38,0,0,0,5.09-.29,6.06,6.06,0,0,0,1-3.64,4.74,4.74,0,0,0-.91-3.07,3,3,0,0,0-2.46-1.12,3.32,3.32,0,0,0-2.63,1.14A4.2,4.2,0,0,0,115.41,254.87Z"/><path d="M136.79,255.9h-8.3a4.4,4.4,0,0,0,1,3,3.66,3.66,0,0,0,2.78,1.07,5.8,5.8,0,0,0,3.65-1.31v1.77a6.82,6.82,0,0,1-4.1,1.12A5,5,0,0,1,128,260a6.55,6.55,0,0,1-1.42-4.5,6.45,6.45,0,0,1,1.55-4.47,5,5,0,0,1,3.86-1.73,4.43,4.43,0,0,1,3.57,1.49,6.25,6.25,0,0,1,1.27,4.14Zm-1.93-1.6a3.81,3.81,0,0,0-.79-2.53,2.69,2.69,0,0,0-2.15-.91,3,3,0,0,0-2.26,1,4.32,4.32,0,0,0-1.15,2.48Z"/><path d="M145.76,251.46a2.34,2.34,0,0,0-1.43-.38,2.4,2.4,0,0,0-2,1.14,5.22,5.22,0,0,0-.81,3.09v6h-1.88V249.55h1.88V252h.05a4.12,4.12,0,0,1,1.23-1.94,2.79,2.79,0,0,1,1.84-.69,3,3,0,0,1,1.13.16Z"/><path d="M157,249.55l-4.68,11.75h-1.85l-4.45-11.75h2.06l3,8.54a7.76,7.76,0,0,1,.42,1.64h0a7.74,7.74,0,0,1,.37-1.59l3.12-8.59Z"/><path d="M160,246.57a1.18,1.18,0,0,1-.86-.34,1.23,1.23,0,0,1,.86-2.1,1.18,1.18,0,0,1,.88.35,1.16,1.16,0,0,1,.36.88,1.18,1.18,0,0,1-.36.86A1.22,1.22,0,0,1,160,246.57Zm.92,14.73h-1.88V249.55h1.88Z"/><path d="M164,260.88v-2a5.53,5.53,0,0,0,3.38,1.14c1.65,0,2.48-.55,2.48-1.66a1.41,1.41,0,0,0-.21-.79,2,2,0,0,0-.58-.58,4.73,4.73,0,0,0-.84-.46l-1.05-.41q-.78-.32-1.38-.63a4.19,4.19,0,0,1-1-.71,2.63,2.63,0,0,1-.6-.9,3.28,3.28,0,0,1-.2-1.18,2.87,2.87,0,0,1,.38-1.47,3.29,3.29,0,0,1,1-1.06,4.5,4.5,0,0,1,1.44-.65,6.17,6.17,0,0,1,1.67-.22,6.75,6.75,0,0,1,2.73.53v1.9a5.38,5.38,0,0,0-3-.85,3.55,3.55,0,0,0-1,.12,2.59,2.59,0,0,0-.73.34,1.78,1.78,0,0,0-.47.52,1.42,1.42,0,0,0-.16.68,1.58,1.58,0,0,0,.16.76,1.82,1.82,0,0,0,.49.55,3.61,3.61,0,0,0,.78.44l1.05.43a13.33,13.33,0,0,1,1.4.61,4.94,4.94,0,0,1,1,.71,2.69,2.69,0,0,1,.67.91,2.93,2.93,0,0,1,.24,1.23,2.89,2.89,0,0,1-.39,1.52,3.22,3.22,0,0,1-1,1.06,4.39,4.39,0,0,1-1.48.63,7.25,7.25,0,0,1-1.76.21A6.59,6.59,0,0,1,164,260.88Z"/><path d="M179.63,261.58a5.45,5.45,0,0,1-4.16-1.65,6.1,6.1,0,0,1-1.55-4.36,6.35,6.35,0,0,1,1.62-4.63,5.79,5.79,0,0,1,4.37-1.66,5.26,5.26,0,0,1,4.1,1.62,6.42,6.42,0,0,1,1.47,4.48,6.32,6.32,0,0,1-1.59,4.51A5.56,5.56,0,0,1,179.63,261.58Zm.14-10.72a3.56,3.56,0,0,0-2.87,1.24,5.07,5.07,0,0,0-1.06,3.4,4.79,4.79,0,0,0,1.07,3.29,3.65,3.65,0,0,0,2.86,1.21,3.42,3.42,0,0,0,2.8-1.19,5.06,5.06,0,0,0,1-3.36,5.15,5.15,0,0,0-1-3.39A3.4,3.4,0,0,0,179.77,250.86Z"/><path d="M194.62,251.46a2.34,2.34,0,0,0-1.43-.38,2.4,2.4,0,0,0-2,1.14,5.22,5.22,0,0,0-.81,3.09v6h-1.88V249.55h1.88V252h0a4,4,0,0,1,1.23-1.94,2.79,2.79,0,0,1,1.84-.69,3,3,0,0,1,1.13.16Z"/><path d="M50.52,297.07V294.8a4.38,4.38,0,0,0,.94.62,8.39,8.39,0,0,0,1.15.47,10.14,10.14,0,0,0,1.21.29,6.55,6.55,0,0,0,1.12.1,4.42,4.42,0,0,0,2.66-.66,2.24,2.24,0,0,0,.88-1.9,2.2,2.2,0,0,0-.3-1.16,3.5,3.5,0,0,0-.8-.9,8.71,8.71,0,0,0-1.23-.78c-.47-.25-1-.51-1.52-.78s-1.11-.59-1.6-.89a6.61,6.61,0,0,1-1.3-1,4.05,4.05,0,0,1-.87-1.23,4.19,4.19,0,0,1,.18-3.55,4.15,4.15,0,0,1,1.3-1.37,5.86,5.86,0,0,1,1.83-.81,8.61,8.61,0,0,1,2.09-.26,8.06,8.06,0,0,1,3.55.58v2.17a6.45,6.45,0,0,0-3.74-1,6.17,6.17,0,0,0-1.27.14,3.35,3.35,0,0,0-1.12.43,2.33,2.33,0,0,0-.8.76,2,2,0,0,0-.31,1.15,2.44,2.44,0,0,0,.23,1.09,2.62,2.62,0,0,0,.7.84,6.39,6.39,0,0,0,1.12.73c.44.24.94.5,1.52.78s1.14.6,1.67.92a7.63,7.63,0,0,1,1.39,1.07,4.77,4.77,0,0,1,.95,1.3,3.64,3.64,0,0,1,.35,1.62,4.14,4.14,0,0,1-.48,2.07A3.94,3.94,0,0,1,58.73,297a5.64,5.64,0,0,1-1.86.76,10,10,0,0,1-2.23.23,9.43,9.43,0,0,1-1-.06q-.57-.06-1.17-.18a9.32,9.32,0,0,1-1.13-.3A3.46,3.46,0,0,1,50.52,297.07Z"/><path d="M64.49,283a1.19,1.19,0,0,1-.86-.35,1.15,1.15,0,0,1-.36-.87,1.21,1.21,0,0,1,1.22-1.23,1.24,1.24,0,0,1,.88.35,1.19,1.19,0,0,1,.36.88,1.16,1.16,0,0,1-.36.86A1.21,1.21,0,0,1,64.49,283Zm.92,14.73H63.53V286h1.88Z"/><path d="M68.51,297.31v-2a5.53,5.53,0,0,0,3.38,1.14c1.65,0,2.48-.55,2.48-1.65a1.44,1.44,0,0,0-.21-.8,2.13,2.13,0,0,0-.58-.58,4,4,0,0,0-.85-.45q-.48-.21-1-.42a12.77,12.77,0,0,1-1.37-.63,3.93,3.93,0,0,1-1-.71,2.45,2.45,0,0,1-.6-.9,3.24,3.24,0,0,1-.2-1.18,2.72,2.72,0,0,1,.38-1.46,3.33,3.33,0,0,1,1-1.07,4.73,4.73,0,0,1,1.44-.65,6.59,6.59,0,0,1,1.67-.22,6.82,6.82,0,0,1,2.73.53v1.91a5.31,5.31,0,0,0-3-.85,3.48,3.48,0,0,0-1,.12,2.34,2.34,0,0,0-.73.34,1.55,1.55,0,0,0-.47.52,1.38,1.38,0,0,0-.16.67,1.63,1.63,0,0,0,.16.77,1.8,1.8,0,0,0,.49.55,3.55,3.55,0,0,0,.78.44l1,.42a14.61,14.61,0,0,1,1.4.61,4.48,4.48,0,0,1,1.06.72,2.72,2.72,0,0,1,.67.91,3.18,3.18,0,0,1-.15,2.74,3.36,3.36,0,0,1-1,1.07,4.89,4.89,0,0,1-1.49.63,7.11,7.11,0,0,1-1.75.2A6.59,6.59,0,0,1,68.51,297.31Z"/><path d="M84.64,297.62a3.59,3.59,0,0,1-1.76.37c-2.06,0-3.08-1.15-3.08-3.44V287.6h-2V286h2v-2.87l1.88-.61V286h3v1.61h-3v6.62a2.71,2.71,0,0,0,.4,1.68,1.59,1.59,0,0,0,1.33.51,2,2,0,0,0,1.23-.39Z"/><path d="M96.6,292.33H88.3a4.4,4.4,0,0,0,1,3,3.62,3.62,0,0,0,2.78,1.07,5.74,5.74,0,0,0,3.65-1.31v1.77a6.82,6.82,0,0,1-4.1,1.12,5,5,0,0,1-3.91-1.6,7.52,7.52,0,0,1,.13-9,5,5,0,0,1,3.86-1.73,4.4,4.4,0,0,1,3.57,1.5,6.21,6.21,0,0,1,1.27,4.14Zm-1.93-1.59a3.84,3.84,0,0,0-.79-2.54,2.69,2.69,0,0,0-2.15-.9,3.05,3.05,0,0,0-2.26.95,4.32,4.32,0,0,0-1.15,2.49Z"/><path d="M116.13,297.74h-1.89V291a5.09,5.09,0,0,0-.6-2.82,2.28,2.28,0,0,0-2-.87,2.51,2.51,0,0,0-2.05,1.1,4.16,4.16,0,0,0-.85,2.64v6.7h-1.88v-7q0-3.47-2.67-3.46a2.44,2.44,0,0,0-2,1,4.25,4.25,0,0,0-.81,2.7v6.7H99.44V286h1.88v1.86h.05a4,4,0,0,1,3.65-2.14,3.39,3.39,0,0,1,3.33,2.44,4.18,4.18,0,0,1,3.9-2.44c2.58,0,3.88,1.6,3.88,4.79Z"/><path d="M128.09,297.74h-1.88V295.9h0a4,4,0,0,1-3.62,2.11,3.82,3.82,0,0,1-2.75-.93,3.2,3.2,0,0,1-1-2.46c0-2.2,1.29-3.47,3.88-3.83l3.52-.5c0-2-.81-3-2.42-3a5.78,5.78,0,0,0-3.83,1.44v-1.92a7.21,7.21,0,0,1,4-1.11q4.14,0,4.14,4.39Zm-1.88-5.94-2.83.39a4.6,4.6,0,0,0-2,.64,1.88,1.88,0,0,0-.66,1.65,1.81,1.81,0,0,0,.61,1.41,2.4,2.4,0,0,0,1.64.54,3,3,0,0,0,2.31-1,3.48,3.48,0,0,0,.91-2.48Z"/><path d="M143,298a5.42,5.42,0,0,1-4.16-1.64,6.09,6.09,0,0,1-1.56-4.37,6.35,6.35,0,0,1,1.62-4.62,5.82,5.82,0,0,1,4.37-1.67,5.26,5.26,0,0,1,4.1,1.62,6.4,6.4,0,0,1,1.48,4.49,6.31,6.31,0,0,1-1.59,4.5A5.56,5.56,0,0,1,143,298Zm.13-10.71a3.57,3.57,0,0,0-2.86,1.23,5,5,0,0,0-1.06,3.4,4.82,4.82,0,0,0,1.07,3.3,3.62,3.62,0,0,0,2.85,1.2,3.43,3.43,0,0,0,2.81-1.18,5.16,5.16,0,0,0,1-3.36,5.26,5.26,0,0,0-1-3.4A3.44,3.44,0,0,0,143.12,287.3Z"/><path d="M153.77,296h0v7.1h-1.88V286h1.88v2.06h0a4.45,4.45,0,0,1,4.06-2.34,4.31,4.31,0,0,1,3.55,1.58,6.52,6.52,0,0,1,1.27,4.23,7.24,7.24,0,0,1-1.43,4.72A4.78,4.78,0,0,1,157.3,298,3.93,3.93,0,0,1,153.77,296Zm0-4.74v1.64a3.52,3.52,0,0,0,.94,2.48,3.18,3.18,0,0,0,2.41,1,3.14,3.14,0,0,0,2.68-1.31,6,6,0,0,0,1-3.63,4.77,4.77,0,0,0-.91-3.08,3,3,0,0,0-2.46-1.11,3.32,3.32,0,0,0-2.63,1.14A4.16,4.16,0,0,0,153.73,291.3Z"/><path d="M175.1,292.33h-8.29a4.4,4.4,0,0,0,1.05,3,3.62,3.62,0,0,0,2.78,1.07,5.74,5.74,0,0,0,3.65-1.31v1.77a6.82,6.82,0,0,1-4.1,1.12,5,5,0,0,1-3.91-1.6,7.52,7.52,0,0,1,.13-9,5,5,0,0,1,3.86-1.73,4.4,4.4,0,0,1,3.57,1.5,6.21,6.21,0,0,1,1.26,4.14Zm-1.92-1.59a3.84,3.84,0,0,0-.79-2.54,2.69,2.69,0,0,0-2.15-.9,3.05,3.05,0,0,0-2.26.95,4.32,4.32,0,0,0-1.15,2.49Z"/><path d="M184.08,287.89a2.34,2.34,0,0,0-1.43-.37,2.39,2.39,0,0,0-2,1.13,5.25,5.25,0,0,0-.81,3.1v6H178V286h1.88v2.42h0a4,4,0,0,1,1.23-1.93,2.75,2.75,0,0,1,1.84-.7,3.27,3.27,0,0,1,1.13.16Z"/><path d="M194.53,297.74h-1.88V295.9h-.05A3.93,3.93,0,0,1,189,298a3.82,3.82,0,0,1-2.75-.93,3.2,3.2,0,0,1-1-2.46c0-2.2,1.29-3.47,3.88-3.83l3.52-.5c0-2-.81-3-2.42-3a5.76,5.76,0,0,0-3.83,1.44v-1.92a7.21,7.21,0,0,1,4-1.11q4.14,0,4.14,4.39Zm-1.88-5.94-2.84.39a4.55,4.55,0,0,0-2,.64,1.88,1.88,0,0,0-.66,1.65,1.81,1.81,0,0,0,.61,1.41,2.38,2.38,0,0,0,1.63.54,3,3,0,0,0,2.32-1,3.53,3.53,0,0,0,.91-2.48Z"/><path d="M203.53,297.62a3.59,3.59,0,0,1-1.76.37q-3.09,0-3.09-3.44V287.6h-2V286h2v-2.87l1.89-.61V286h3v1.61h-3v6.62a2.71,2.71,0,0,0,.4,1.68,1.59,1.59,0,0,0,1.33.51,2,2,0,0,0,1.23-.39Z"/><path d="M207,283a1.21,1.21,0,0,1-.86-.35,1.18,1.18,0,0,1-.35-.87,1.22,1.22,0,0,1,.35-.88,1.21,1.21,0,0,1,.86-.35,1.22,1.22,0,0,1,.88.35,1.19,1.19,0,0,1,.36.88,1.16,1.16,0,0,1-.36.86A1.19,1.19,0,0,1,207,283Zm.92,14.73H206V286h1.88Z"/><path d="M221,286l-4.68,11.75h-1.85L210,286h2.06l3,8.54a7.38,7.38,0,0,1,.41,1.64h0a8,8,0,0,1,.37-1.6L219,286Z"/><path d="M227.9,298a5.44,5.44,0,0,1-4.16-1.64,6.09,6.09,0,0,1-1.56-4.37,6.35,6.35,0,0,1,1.62-4.62,5.82,5.82,0,0,1,4.37-1.67,5.28,5.28,0,0,1,4.11,1.62,6.44,6.44,0,0,1,1.47,4.49,6.31,6.31,0,0,1-1.59,4.5A5.56,5.56,0,0,1,227.9,298ZM228,287.3a3.58,3.58,0,0,0-2.87,1.23,5,5,0,0,0-1.06,3.4,4.82,4.82,0,0,0,1.07,3.3,3.63,3.63,0,0,0,2.86,1.2,3.42,3.42,0,0,0,2.8-1.18,5.1,5.1,0,0,0,1-3.36,5.2,5.2,0,0,0-1-3.4A3.43,3.43,0,0,0,228,287.3Z"/><path d="M112.3,322.74h-1.88v-2h0a4.33,4.33,0,0,1-4,2.27,4.38,4.38,0,0,1-3.54-1.57,6.52,6.52,0,0,1-1.32-4.3,7.09,7.09,0,0,1,1.46-4.67,4.86,4.86,0,0,1,3.92-1.76,3.77,3.77,0,0,1,3.52,1.91h0v-7.28h1.88Zm-1.88-5.31v-1.74a3.41,3.41,0,0,0-.94-2.41,3.2,3.2,0,0,0-2.39-1,3.25,3.25,0,0,0-2.71,1.26,5.51,5.51,0,0,0-1,3.49,5,5,0,0,0,1,3.2,3.08,3.08,0,0,0,2.54,1.18,3.23,3.23,0,0,0,2.56-1.14A4.22,4.22,0,0,0,110.42,317.43Z"/><path d="M125.55,317.33h-8.3a4.45,4.45,0,0,0,1.06,3,3.61,3.61,0,0,0,2.78,1.07,5.74,5.74,0,0,0,3.65-1.31v1.77a6.84,6.84,0,0,1-4.1,1.12,5,5,0,0,1-3.91-1.6,6.52,6.52,0,0,1-1.43-4.5,6.41,6.41,0,0,1,1.56-4.47,5,5,0,0,1,3.86-1.73,4.4,4.4,0,0,1,3.57,1.5,6.21,6.21,0,0,1,1.26,4.14Zm-1.93-1.59a3.84,3.84,0,0,0-.78-2.54,2.7,2.7,0,0,0-2.15-.9,3,3,0,0,0-2.26.95,4.26,4.26,0,0,0-1.15,2.49Z"/><path d="M130.28,322.74H128.4v-17.4h1.88Z"/><path d="M150.28,322.74H148.4V316q0-3.68-2.73-3.67a3,3,0,0,0-2.32,1.06,3.93,3.93,0,0,0-.94,2.72v6.66h-1.88v-17.4h1.88v7.6h0a4.3,4.3,0,0,1,3.86-2.23q4,0,4,4.79Z"/><path d="M158.74,323a5.42,5.42,0,0,1-4.16-1.64A6.09,6.09,0,0,1,153,317a6.35,6.35,0,0,1,1.62-4.62,5.82,5.82,0,0,1,4.37-1.67,5.26,5.26,0,0,1,4.1,1.62,6.4,6.4,0,0,1,1.48,4.49,6.31,6.31,0,0,1-1.59,4.5A5.56,5.56,0,0,1,158.74,323Zm.13-10.71a3.59,3.59,0,0,0-2.87,1.23,5.08,5.08,0,0,0-1.05,3.4,4.77,4.77,0,0,0,1.07,3.3,3.62,3.62,0,0,0,2.85,1.2,3.45,3.45,0,0,0,2.81-1.18,5.16,5.16,0,0,0,1-3.36,5.26,5.26,0,0,0-1-3.4A3.45,3.45,0,0,0,158.87,312.3Z"/><path d="M166.88,322.31v-2a5.58,5.58,0,0,0,3.39,1.14c1.65,0,2.48-.55,2.48-1.65a1.37,1.37,0,0,0-.22-.8,2.09,2.09,0,0,0-.57-.58,4,4,0,0,0-.85-.45q-.48-.21-1.05-.42a11.93,11.93,0,0,1-1.37-.63,4.18,4.18,0,0,1-1-.71,2.56,2.56,0,0,1-.59-.9,3,3,0,0,1-.2-1.18,2.81,2.81,0,0,1,.37-1.46,3.44,3.44,0,0,1,1-1.07,4.73,4.73,0,0,1,1.44-.65,6.65,6.65,0,0,1,1.67-.22,6.75,6.75,0,0,1,2.73.53v1.91a5.26,5.26,0,0,0-3-.85,3.48,3.48,0,0,0-1,.12,2.24,2.24,0,0,0-.73.34,1.55,1.55,0,0,0-.47.52,1.39,1.39,0,0,0-.17.67,1.62,1.62,0,0,0,.17.77,1.68,1.68,0,0,0,.49.55,3.55,3.55,0,0,0,.78.44l1,.42a14.61,14.61,0,0,1,1.4.61,4.48,4.48,0,0,1,1.06.72,2.72,2.72,0,0,1,.67.91,3.28,3.28,0,0,1-.15,2.74,3.39,3.39,0,0,1-1,1.07,4.83,4.83,0,0,1-1.48.63,7.17,7.17,0,0,1-1.75.2A6.65,6.65,0,0,1,166.88,322.31Z"/><path d="M183,322.62a3.59,3.59,0,0,1-1.76.37q-3.09,0-3.09-3.44V312.6h-2V311h2v-2.87l1.89-.61V311h3v1.61h-3v6.62a2.71,2.71,0,0,0,.4,1.68,1.59,1.59,0,0,0,1.33.51A2,2,0,0,0,183,321Z"/><path d="M436.2,94.78h-2.14l-1.74-4.61h-7l-1.64,4.61h-2.14l6.31-16.45h2Zm-4.51-6.34-2.58-7a6.58,6.58,0,0,1-.26-1.11h0a6.43,6.43,0,0,1-.27,1.11l-2.55,7Z"/><path d="M440.29,93.08h0v7.11h-1.88V83h1.88V85.1h0a4.46,4.46,0,0,1,4.07-2.34,4.3,4.3,0,0,1,3.54,1.57,6.57,6.57,0,0,1,1.28,4.23,7.29,7.29,0,0,1-1.44,4.73,4.76,4.76,0,0,1-3.92,1.77A3.94,3.94,0,0,1,440.29,93.08Zm0-4.73V90a3.46,3.46,0,0,0,.95,2.47,3.12,3.12,0,0,0,2.4,1,3.15,3.15,0,0,0,2.68-1.3,6.08,6.08,0,0,0,1-3.64,4.73,4.73,0,0,0-.91-3.08,3,3,0,0,0-2.45-1.11,3.32,3.32,0,0,0-2.64,1.14A4.18,4.18,0,0,0,440.25,88.35Z"/><path d="M454.06,94.78h-1.88V77.39h1.88Z"/><path d="M458.84,80.05a1.21,1.21,0,0,1-.86-.34A1.24,1.24,0,0,1,458,78a1.15,1.15,0,0,1,.86-.36,1.19,1.19,0,0,1,.87.36,1.2,1.2,0,0,1,0,1.73A1.19,1.19,0,0,1,458.84,80.05Zm.92,14.73h-1.89V83h1.89Z"/><path d="M471.57,94.24a6,6,0,0,1-3.21.82,5.34,5.34,0,0,1-4.06-1.64,6,6,0,0,1-1.54-4.24,6.51,6.51,0,0,1,1.67-4.66,5.77,5.77,0,0,1,4.44-1.76,6.23,6.23,0,0,1,2.73.57v1.93a4.83,4.83,0,0,0-2.8-.92,3.8,3.8,0,0,0-3,1.29A4.89,4.89,0,0,0,464.69,89a4.66,4.66,0,0,0,1.08,3.26,3.74,3.74,0,0,0,2.91,1.19,4.7,4.7,0,0,0,2.89-1Z"/><path d="M482.83,94.78H481V93h-.05a4,4,0,0,1-3.61,2.11,3.86,3.86,0,0,1-2.75-.93,3.22,3.22,0,0,1-1-2.47q0-3.28,3.88-3.83l3.52-.49c0-2-.81-3-2.42-3a5.77,5.77,0,0,0-3.84,1.45V83.86a7.26,7.26,0,0,1,4-1.1q4.14,0,4.14,4.38ZM481,88.84l-2.84.39a4.54,4.54,0,0,0-2,.65,1.87,1.87,0,0,0-.66,1.64,1.78,1.78,0,0,0,.61,1.41,2.38,2.38,0,0,0,1.63.54,3,3,0,0,0,2.32-1A3.53,3.53,0,0,0,481,90Z"/><path d="M494.39,94.24a6.1,6.1,0,0,1-3.22.82,5.32,5.32,0,0,1-4.05-1.64,5.92,5.92,0,0,1-1.55-4.24,6.51,6.51,0,0,1,1.67-4.66,5.8,5.8,0,0,1,4.44-1.76,6.23,6.23,0,0,1,2.73.57v1.93a4.81,4.81,0,0,0-2.8-.92,3.8,3.8,0,0,0-3,1.29A4.94,4.94,0,0,0,487.5,89a4.66,4.66,0,0,0,1.08,3.26,3.74,3.74,0,0,0,2.91,1.19,4.75,4.75,0,0,0,2.9-1Z"/><path d="M498.2,80.05a1.25,1.25,0,0,1-.87-.34A1.23,1.23,0,1,1,499.07,78a1.22,1.22,0,0,1,0,1.73A1.19,1.19,0,0,1,498.2,80.05Zm.91,14.73h-1.88V83h1.88Z"/><path d="M507.83,95.06a5.46,5.46,0,0,1-4.16-1.65,6.12,6.12,0,0,1-1.55-4.36,6.35,6.35,0,0,1,1.62-4.63,5.8,5.8,0,0,1,4.37-1.66,5.26,5.26,0,0,1,4.1,1.62,6.4,6.4,0,0,1,1.48,4.48,6.32,6.32,0,0,1-1.59,4.51A5.6,5.6,0,0,1,507.83,95.06ZM508,84.34a3.59,3.59,0,0,0-2.87,1.23A5.11,5.11,0,0,0,504.05,89a4.79,4.79,0,0,0,1.06,3.29,3.66,3.66,0,0,0,2.86,1.2,3.45,3.45,0,0,0,2.81-1.18,5.16,5.16,0,0,0,1-3.36,5.26,5.26,0,0,0-1-3.4A3.45,3.45,0,0,0,508,84.34Zm2.75-7.3-3,3.77h-1.46L508.82,77Z"/><path d="M526.45,94.78h-1.89v-6.7q0-3.73-2.73-3.74a2.94,2.94,0,0,0-2.33,1.06,3.92,3.92,0,0,0-.93,2.68v6.7h-1.88V83h1.88v2h0a4.24,4.24,0,0,1,3.85-2.22A3.59,3.59,0,0,1,525.42,84a5.56,5.56,0,0,1,1,3.6Z"/><path d="M421.1,143.43V127h4.68a5.13,5.13,0,0,1,3.38,1,3.37,3.37,0,0,1,1.25,2.72,4,4,0,0,1-.75,2.44,4.21,4.21,0,0,1-2.09,1.47v0a4.18,4.18,0,0,1,2.66,1.26,3.85,3.85,0,0,1,1,2.76,4.33,4.33,0,0,1-1.52,3.42,5.64,5.64,0,0,1-3.82,1.3ZM423,128.72V134h2a3.76,3.76,0,0,0,2.49-.77,2.65,2.65,0,0,0,.9-2.15q0-2.4-3.15-2.4Zm0,7.05v5.92h2.62a3.94,3.94,0,0,0,2.63-.8,2.75,2.75,0,0,0,.94-2.21c0-1.94-1.33-2.91-4-2.91Z"/><path d="M435.28,128.7a1.18,1.18,0,0,1-.86-.34,1.23,1.23,0,0,1,.86-2.1,1.2,1.2,0,0,1,.88.35,1.15,1.15,0,0,1,.36.87,1.19,1.19,0,0,1-.36.87A1.24,1.24,0,0,1,435.28,128.7Zm.92,14.73h-1.89V131.68h1.89Z"/><path d="M441.93,141.74h0v1.69H440V126h1.88v7.71h0a4.46,4.46,0,0,1,4.07-2.34,4.33,4.33,0,0,1,3.54,1.58,6.53,6.53,0,0,1,1.28,4.23,7.27,7.27,0,0,1-1.44,4.72,4.78,4.78,0,0,1-3.92,1.77A3.88,3.88,0,0,1,441.93,141.74Zm0-4.74v1.64a3.49,3.49,0,0,0,.94,2.47,3.38,3.38,0,0,0,5.09-.29,6.06,6.06,0,0,0,1-3.64,4.74,4.74,0,0,0-.91-3.07,3,3,0,0,0-2.45-1.12,3.32,3.32,0,0,0-2.64,1.14A4.2,4.2,0,0,0,441.89,137Z"/><path d="M455.7,143.43h-1.88V126h1.88Z"/><path d="M460.48,128.7a1.2,1.2,0,0,1-1.22-1.22,1.15,1.15,0,0,1,.36-.87,1.14,1.14,0,0,1,.86-.35,1.18,1.18,0,0,1,.87.35,1.15,1.15,0,0,1,.36.87,1.19,1.19,0,0,1-.36.87A1.22,1.22,0,0,1,460.48,128.7Zm.91,14.73h-1.88V131.68h1.88Z"/><path d="M470.12,143.71a5.43,5.43,0,0,1-4.16-1.65,6.06,6.06,0,0,1-1.56-4.36,6.35,6.35,0,0,1,1.62-4.63,5.8,5.8,0,0,1,4.37-1.66,5.26,5.26,0,0,1,4.1,1.62,7.35,7.35,0,0,1-.11,9A5.56,5.56,0,0,1,470.12,143.71Zm.13-10.72a3.57,3.57,0,0,0-2.87,1.24,5.07,5.07,0,0,0-1.05,3.4,4.74,4.74,0,0,0,1.07,3.29,3.63,3.63,0,0,0,2.85,1.21,3.45,3.45,0,0,0,2.81-1.19,5.12,5.12,0,0,0,1-3.36,5.21,5.21,0,0,0-1-3.39A3.43,3.43,0,0,0,470.25,133Z"/><path d="M484.42,143.32a3.67,3.67,0,0,1-1.75.37q-3.09,0-3.09-3.45v-7h-2v-1.61h2v-2.86l1.88-.61v3.47h3v1.61h-3v6.62a2.74,2.74,0,0,0,.41,1.69,1.58,1.58,0,0,0,1.33.5,2,2,0,0,0,1.22-.39Z"/><path d="M496.38,138h-8.3a4.45,4.45,0,0,0,1.06,3,3.65,3.65,0,0,0,2.78,1.07,5.8,5.8,0,0,0,3.65-1.31v1.77a6.84,6.84,0,0,1-4.1,1.12,4.94,4.94,0,0,1-3.91-1.6,6.55,6.55,0,0,1-1.43-4.5,6.41,6.41,0,0,1,1.56-4.47,4.94,4.94,0,0,1,3.86-1.73,4.43,4.43,0,0,1,3.57,1.49,6.24,6.24,0,0,1,1.26,4.14Zm-1.93-1.59a3.82,3.82,0,0,0-.78-2.54,2.68,2.68,0,0,0-2.15-.91,3,3,0,0,0-2.27,1,4.31,4.31,0,0,0-1.14,2.49Z"/><path d="M507.24,142.9a6.18,6.18,0,0,1-3.22.81,5.28,5.28,0,0,1-4-1.64,5.92,5.92,0,0,1-1.55-4.24,6.51,6.51,0,0,1,1.67-4.66,5.84,5.84,0,0,1,4.44-1.76,6.23,6.23,0,0,1,2.73.57v1.93a4.81,4.81,0,0,0-2.8-.92,3.8,3.8,0,0,0-3,1.29,4.94,4.94,0,0,0-1.15,3.39,4.66,4.66,0,0,0,1.08,3.26,3.75,3.75,0,0,0,2.91,1.2,4.75,4.75,0,0,0,2.9-1Z"/><path d="M518.49,143.43h-1.88V141.6h-.05a3.92,3.92,0,0,1-3.61,2.11,3.86,3.86,0,0,1-2.75-.93,3.22,3.22,0,0,1-1-2.47q0-3.28,3.88-3.83l3.52-.49c0-2-.81-3-2.42-3a5.74,5.74,0,0,0-3.83,1.45v-1.93a7.29,7.29,0,0,1,4-1.1q4.14,0,4.14,4.38Zm-1.88-5.94-2.83.39a4.59,4.59,0,0,0-2,.65,1.88,1.88,0,0,0-.66,1.65,1.78,1.78,0,0,0,.61,1.4,2.41,2.41,0,0,0,1.64.55,3,3,0,0,0,2.31-1,3.52,3.52,0,0,0,.91-2.49Z"/><path d="M521.33,143v-2a5.53,5.53,0,0,0,3.38,1.14c1.65,0,2.48-.55,2.48-1.66a1.41,1.41,0,0,0-.21-.79,2.13,2.13,0,0,0-.58-.58,4.5,4.5,0,0,0-.85-.46l-1-.41c-.52-.21-1-.42-1.37-.63a4.19,4.19,0,0,1-1-.71,2.63,2.63,0,0,1-.6-.9,3.28,3.28,0,0,1-.2-1.18,2.85,2.85,0,0,1,.38-1.47,3.29,3.29,0,0,1,1-1.06,4.5,4.5,0,0,1,1.44-.65,6.17,6.17,0,0,1,1.67-.22,6.78,6.78,0,0,1,2.73.53v1.9a5.39,5.39,0,0,0-3-.85,3.48,3.48,0,0,0-1,.12,2.59,2.59,0,0,0-.73.34,1.65,1.65,0,0,0-.47.52,1.42,1.42,0,0,0-.16.68,1.58,1.58,0,0,0,.16.76,1.69,1.69,0,0,0,.49.55,3.39,3.39,0,0,0,.78.44l1,.43a13.33,13.33,0,0,1,1.4.61,4.94,4.94,0,0,1,1.05.71,2.69,2.69,0,0,1,.67.91,2.93,2.93,0,0,1,.24,1.23,2.89,2.89,0,0,1-.39,1.52,3.33,3.33,0,0,1-1,1.06,4.47,4.47,0,0,1-1.48.63,7.25,7.25,0,0,1-1.76.21A6.59,6.59,0,0,1,521.33,143Z"/><path d="M439.45,260.83V244.37H444q8.7,0,8.7,8a8.07,8.07,0,0,1-2.41,6.12,8.94,8.94,0,0,1-6.47,2.32Zm1.93-14.71v13h2.45a7,7,0,0,0,5-1.73,6.5,6.5,0,0,0,1.8-4.91q0-6.33-6.72-6.32Z"/><path d="M460.59,261.1a5.46,5.46,0,0,1-4.16-1.64,6.11,6.11,0,0,1-1.56-4.37,6.37,6.37,0,0,1,1.62-4.63,5.86,5.86,0,0,1,4.37-1.66,5.26,5.26,0,0,1,4.1,1.62,6.38,6.38,0,0,1,1.48,4.49,6.31,6.31,0,0,1-1.59,4.5A5.56,5.56,0,0,1,460.59,261.1Zm.13-10.72a3.6,3.6,0,0,0-2.87,1.24,5.07,5.07,0,0,0-1.05,3.4,4.74,4.74,0,0,0,1.07,3.29,3.6,3.6,0,0,0,2.85,1.21,3.46,3.46,0,0,0,2.81-1.18,5.17,5.17,0,0,0,1-3.37,5.23,5.23,0,0,0-1-3.39A3.42,3.42,0,0,0,460.72,250.38Z"/><path d="M477.45,260.29a6.12,6.12,0,0,1-3.21.81,5.32,5.32,0,0,1-4.06-1.63,6,6,0,0,1-1.54-4.24,6.57,6.57,0,0,1,1.66-4.67,5.84,5.84,0,0,1,4.45-1.76,6.09,6.09,0,0,1,2.73.58v1.92a4.83,4.83,0,0,0-2.8-.92,3.8,3.8,0,0,0-3,1.29,4.93,4.93,0,0,0-1.15,3.4,4.66,4.66,0,0,0,1.08,3.25,3.75,3.75,0,0,0,2.91,1.2,4.7,4.7,0,0,0,2.89-1Z"/><path d="M490.05,260.83h-2.64l-5.18-5.65h-.05v5.65H480.3v-17.4h1.88v11h.05l4.93-5.38h2.47l-5.45,5.66Z"/><path d="M501.42,255.42h-8.29a4.4,4.4,0,0,0,1.05,3,3.66,3.66,0,0,0,2.78,1.07,5.8,5.8,0,0,0,3.65-1.31V260a6.82,6.82,0,0,1-4.1,1.12,5,5,0,0,1-3.91-1.6,6.55,6.55,0,0,1-1.42-4.5,6.45,6.45,0,0,1,1.55-4.47,5,5,0,0,1,3.86-1.73,4.43,4.43,0,0,1,3.57,1.49,6.24,6.24,0,0,1,1.26,4.14Zm-1.92-1.59a3.84,3.84,0,0,0-.79-2.54,2.69,2.69,0,0,0-2.15-.91,3,3,0,0,0-2.26,1,4.32,4.32,0,0,0-1.15,2.49Z"/><path d="M510.4,251a2.34,2.34,0,0,0-1.43-.38,2.4,2.4,0,0,0-2,1.14,5.25,5.25,0,0,0-.81,3.1v6h-1.88V249.08h1.88v2.42h.05a4.08,4.08,0,0,1,1.22-1.94,2.84,2.84,0,0,1,1.85-.69,3,3,0,0,1,1.13.16Z"/><path d="M382.89,297.81v-2.27a4.38,4.38,0,0,0,.94.62,8.39,8.39,0,0,0,1.15.47,10.14,10.14,0,0,0,1.21.29,6.55,6.55,0,0,0,1.12.1,4.42,4.42,0,0,0,2.66-.66,2.24,2.24,0,0,0,.88-1.9,2.2,2.2,0,0,0-.3-1.16,3.1,3.1,0,0,0-.81-.9,8,8,0,0,0-1.22-.78l-1.52-.78c-.57-.29-1.11-.59-1.6-.89a7,7,0,0,1-1.3-1,4.05,4.05,0,0,1-.87-1.23,4.19,4.19,0,0,1,.18-3.55,4.15,4.15,0,0,1,1.3-1.37,5.86,5.86,0,0,1,1.83-.81,8.61,8.61,0,0,1,2.09-.26,8.06,8.06,0,0,1,3.55.58v2.17a6.45,6.45,0,0,0-3.74-1,6.1,6.1,0,0,0-1.27.14,3.57,3.57,0,0,0-1.12.42,2.46,2.46,0,0,0-.8.77,2,2,0,0,0-.31,1.15,2.31,2.31,0,0,0,.23,1.09,2.62,2.62,0,0,0,.7.84,6,6,0,0,0,1.12.73c.43.24.94.5,1.52.78s1.14.6,1.67.92a7.63,7.63,0,0,1,1.39,1.07,4.77,4.77,0,0,1,.95,1.3,3.64,3.64,0,0,1,.35,1.62,4.08,4.08,0,0,1-.48,2.06,4,4,0,0,1-1.29,1.38,5.64,5.64,0,0,1-1.86.76,10,10,0,0,1-2.23.23,9.43,9.43,0,0,1-1-.06q-.57-.06-1.17-.18a8.85,8.85,0,0,1-1.13-.3A3.46,3.46,0,0,1,382.89,297.81Z"/><path d="M396.86,283.75a1.19,1.19,0,0,1-.86-.35,1.15,1.15,0,0,1-.36-.87,1.18,1.18,0,0,1,.36-.88,1.19,1.19,0,0,1,.86-.35,1.24,1.24,0,0,1,.88.35,1.18,1.18,0,0,1,.36.88,1.16,1.16,0,0,1-.36.86A1.21,1.21,0,0,1,396.86,283.75Zm.92,14.73h-1.89V286.73h1.89Z"/><path d="M400.88,298.05v-2a5.53,5.53,0,0,0,3.38,1.14c1.65,0,2.48-.55,2.48-1.65a1.44,1.44,0,0,0-.21-.8,2.28,2.28,0,0,0-.58-.58,4,4,0,0,0-.85-.45q-.48-.21-1.05-.42c-.52-.21-1-.42-1.37-.63a3.93,3.93,0,0,1-1-.71,2.45,2.45,0,0,1-.6-.9,3,3,0,0,1-.2-1.18,2.72,2.72,0,0,1,.38-1.46,3.33,3.33,0,0,1,1-1.07,4.73,4.73,0,0,1,1.44-.65,6.59,6.59,0,0,1,1.67-.22,6.82,6.82,0,0,1,2.73.53v1.91a5.31,5.31,0,0,0-3-.85,3.48,3.48,0,0,0-.95.12,2.34,2.34,0,0,0-.73.34,1.55,1.55,0,0,0-.47.52,1.35,1.35,0,0,0-.16.67,1.63,1.63,0,0,0,.16.77,1.8,1.8,0,0,0,.49.55,3.55,3.55,0,0,0,.78.43c.31.14.65.28,1,.43a14.61,14.61,0,0,1,1.4.61,4.77,4.77,0,0,1,1.06.71,3,3,0,0,1,.52,3.66,3.28,3.28,0,0,1-1,1.07,4.73,4.73,0,0,1-1.48.63,7.11,7.11,0,0,1-1.75.2A6.59,6.59,0,0,1,400.88,298.05Z"/><path d="M417,298.36a3.59,3.59,0,0,1-1.76.37q-3.08,0-3.08-3.44v-7h-2v-1.6h2v-2.87l1.88-.61v3.48h3v1.6h-3V295a2.71,2.71,0,0,0,.4,1.68,1.59,1.59,0,0,0,1.33.51,2,2,0,0,0,1.23-.39Z"/><path d="M429,293.07h-8.3a4.4,4.4,0,0,0,1.05,3,3.66,3.66,0,0,0,2.78,1.07,5.78,5.78,0,0,0,3.65-1.31v1.77a6.82,6.82,0,0,1-4.1,1.12,5,5,0,0,1-3.91-1.6,6.53,6.53,0,0,1-1.42-4.5,6.45,6.45,0,0,1,1.55-4.47,5,5,0,0,1,3.86-1.73,4.4,4.4,0,0,1,3.57,1.5,6.21,6.21,0,0,1,1.27,4.14ZM427,291.48a3.84,3.84,0,0,0-.79-2.54,2.67,2.67,0,0,0-2.15-.9,3,3,0,0,0-2.26.95,4.32,4.32,0,0,0-1.15,2.49Z"/><path d="M448.5,298.48h-1.89v-6.75a5.09,5.09,0,0,0-.6-2.82,2.28,2.28,0,0,0-2-.87,2.48,2.48,0,0,0-2.05,1.1,4.22,4.22,0,0,0-.85,2.64v6.7h-1.88v-7q0-3.47-2.67-3.46a2.44,2.44,0,0,0-2,1,4.25,4.25,0,0,0-.81,2.7v6.7h-1.88V286.73h1.88v1.86h.05a4,4,0,0,1,3.65-2.14,3.46,3.46,0,0,1,2.1.67,3.41,3.41,0,0,1,1.22,1.77,4.21,4.21,0,0,1,3.91-2.44c2.58,0,3.88,1.6,3.88,4.79Z"/><path d="M460.46,298.48h-1.88v-1.84h0a4,4,0,0,1-3.62,2.11,3.86,3.86,0,0,1-2.75-.93,3.2,3.2,0,0,1-1-2.46q0-3.3,3.88-3.83l3.52-.5c0-2-.81-3-2.42-3a5.8,5.8,0,0,0-3.83,1.44v-1.93a7.29,7.29,0,0,1,4-1.1q4.14,0,4.14,4.39Zm-1.88-5.94-2.83.38a4.78,4.78,0,0,0-2,.65,1.88,1.88,0,0,0-.66,1.65,1.81,1.81,0,0,0,.61,1.41,2.4,2.4,0,0,0,1.64.54,3,3,0,0,0,2.31-1,3.48,3.48,0,0,0,.91-2.48Z"/><path d="M475.36,298.75a5.42,5.42,0,0,1-4.16-1.64,6.11,6.11,0,0,1-1.56-4.37,6.35,6.35,0,0,1,1.62-4.62,5.82,5.82,0,0,1,4.37-1.67,5.26,5.26,0,0,1,4.1,1.62,6.4,6.4,0,0,1,1.48,4.49,6.31,6.31,0,0,1-1.59,4.5A5.56,5.56,0,0,1,475.36,298.75Zm.13-10.71a3.57,3.57,0,0,0-2.86,1.23,5,5,0,0,0-1.06,3.4,4.83,4.83,0,0,0,1.07,3.3,3.62,3.62,0,0,0,2.85,1.2A3.43,3.43,0,0,0,478.3,296a5.16,5.16,0,0,0,1-3.36,5.26,5.26,0,0,0-1-3.4A3.41,3.41,0,0,0,475.49,288Z"/><path d="M486.14,296.78h0v7.1h-1.89V286.73h1.89v2.06h0a4.46,4.46,0,0,1,4.07-2.34,4.31,4.31,0,0,1,3.54,1.58,6.52,6.52,0,0,1,1.27,4.23,7.24,7.24,0,0,1-1.43,4.72,4.78,4.78,0,0,1-3.92,1.77A3.93,3.93,0,0,1,486.14,296.78Zm0-4.74v1.64a3.52,3.52,0,0,0,.94,2.48,3.39,3.39,0,0,0,5.09-.3,6,6,0,0,0,1-3.64,4.76,4.76,0,0,0-.91-3.07,3,3,0,0,0-2.46-1.11,3.32,3.32,0,0,0-2.63,1.14A4.16,4.16,0,0,0,486.1,292Z"/><path d="M507.47,293.07h-8.29a4.4,4.4,0,0,0,1.05,3,3.66,3.66,0,0,0,2.78,1.07,5.8,5.8,0,0,0,3.65-1.31v1.77a6.82,6.82,0,0,1-4.1,1.12,5,5,0,0,1-3.91-1.6,6.53,6.53,0,0,1-1.42-4.5,6.45,6.45,0,0,1,1.55-4.47,5,5,0,0,1,3.86-1.73,4.4,4.4,0,0,1,3.57,1.5,6.21,6.21,0,0,1,1.26,4.14Zm-1.92-1.59a3.84,3.84,0,0,0-.79-2.54,2.69,2.69,0,0,0-2.15-.9,3,3,0,0,0-2.26.95,4.32,4.32,0,0,0-1.15,2.49Z"/><path d="M516.45,288.63a2.34,2.34,0,0,0-1.43-.38,2.4,2.4,0,0,0-2,1.14,5.25,5.25,0,0,0-.81,3.1v6h-1.88V286.73h1.88v2.42h0a4,4,0,0,1,1.23-1.93,2.75,2.75,0,0,1,1.84-.7,3.27,3.27,0,0,1,1.13.16Z"/><path d="M526.9,298.48H525v-1.84h0a3.93,3.93,0,0,1-3.61,2.11,3.86,3.86,0,0,1-2.75-.93,3.2,3.2,0,0,1-1-2.46q0-3.3,3.88-3.83L525,291c0-2-.81-3-2.42-3a5.83,5.83,0,0,0-3.84,1.44v-1.93a7.35,7.35,0,0,1,4-1.1q4.14,0,4.14,4.39ZM525,292.54l-2.84.38a4.68,4.68,0,0,0-2,.65,1.88,1.88,0,0,0-.66,1.65,1.81,1.81,0,0,0,.61,1.41,2.38,2.38,0,0,0,1.63.54,3,3,0,0,0,2.32-1,3.53,3.53,0,0,0,.91-2.48Z"/><path d="M535.9,298.36a3.59,3.59,0,0,1-1.76.37q-3.09,0-3.09-3.44v-7h-2v-1.6h2v-2.87l1.89-.61v3.48h3v1.6h-3V295a2.71,2.71,0,0,0,.4,1.68,1.59,1.59,0,0,0,1.33.51,2,2,0,0,0,1.23-.39Z"/><path d="M539.37,283.75a1.21,1.21,0,0,1-.86-.35,1.15,1.15,0,0,1-.35-.87,1.17,1.17,0,0,1,.35-.88,1.21,1.21,0,0,1,.86-.35,1.22,1.22,0,0,1,.88.35,1.18,1.18,0,0,1,.36.88,1.16,1.16,0,0,1-.36.86A1.19,1.19,0,0,1,539.37,283.75Zm.92,14.73h-1.88V286.73h1.88Z"/><path d="M553.34,286.73l-4.68,11.75h-1.85l-4.45-11.75h2.06l3,8.54a7.47,7.47,0,0,1,.42,1.64h0a8,8,0,0,1,.37-1.6l3.12-8.58Z"/><path d="M560.27,298.75a5.42,5.42,0,0,1-4.16-1.64,6.11,6.11,0,0,1-1.56-4.37,6.35,6.35,0,0,1,1.62-4.62,5.82,5.82,0,0,1,4.37-1.67,5.3,5.3,0,0,1,4.11,1.62,6.44,6.44,0,0,1,1.47,4.49,6.31,6.31,0,0,1-1.59,4.5A5.56,5.56,0,0,1,560.27,298.75Zm.14-10.71a3.58,3.58,0,0,0-2.87,1.23,5,5,0,0,0-1.06,3.4,4.83,4.83,0,0,0,1.07,3.3,3.63,3.63,0,0,0,2.86,1.2,3.42,3.42,0,0,0,2.8-1.18,5.1,5.1,0,0,0,1-3.36,5.2,5.2,0,0,0-1-3.4A3.4,3.4,0,0,0,560.41,288Z"/><path d="M444.67,323.48h-1.88v-2h-.05a4.33,4.33,0,0,1-4,2.27,4.38,4.38,0,0,1-3.54-1.57,6.52,6.52,0,0,1-1.32-4.3,7.09,7.09,0,0,1,1.46-4.67,4.86,4.86,0,0,1,3.92-1.76,3.77,3.77,0,0,1,3.52,1.91h.05v-7.28h1.88Zm-1.88-5.31v-1.74a3.39,3.39,0,0,0-.94-2.41,3.2,3.2,0,0,0-2.39-1,3.25,3.25,0,0,0-2.71,1.26,5.51,5.51,0,0,0-1,3.49,5,5,0,0,0,.95,3.2,3.08,3.08,0,0,0,2.54,1.18A3.19,3.19,0,0,0,441.8,321,4.18,4.18,0,0,0,442.79,318.17Z"/><path d="M457.92,318.07h-8.29a4.4,4.4,0,0,0,1.05,3,3.65,3.65,0,0,0,2.78,1.07,5.8,5.8,0,0,0,3.65-1.31v1.77a6.84,6.84,0,0,1-4.1,1.12,4.94,4.94,0,0,1-3.91-1.6,6.53,6.53,0,0,1-1.43-4.5,6.41,6.41,0,0,1,1.56-4.47,5,5,0,0,1,3.86-1.73,4.4,4.4,0,0,1,3.57,1.5,6.21,6.21,0,0,1,1.26,4.14ZM456,316.48a3.84,3.84,0,0,0-.78-2.54,2.7,2.7,0,0,0-2.15-.9,3,3,0,0,0-2.27.95,4.31,4.31,0,0,0-1.14,2.49Z"/><path d="M462.65,323.48h-1.88v-17.4h1.88Z"/><path d="M482.65,323.48h-1.88v-6.77q0-3.68-2.73-3.67a3,3,0,0,0-2.32,1.06,3.93,3.93,0,0,0-.94,2.72v6.66h-1.89v-17.4h1.89v7.6h0a4.3,4.3,0,0,1,3.86-2.23q4,0,4,4.79Z"/><path d="M491.11,323.75a5.42,5.42,0,0,1-4.16-1.64,6.11,6.11,0,0,1-1.56-4.37,6.35,6.35,0,0,1,1.62-4.62,5.81,5.81,0,0,1,4.37-1.67,5.26,5.26,0,0,1,4.1,1.62,6.4,6.4,0,0,1,1.48,4.49,6.31,6.31,0,0,1-1.59,4.5A5.56,5.56,0,0,1,491.11,323.75Zm.13-10.71a3.59,3.59,0,0,0-2.87,1.23,5.08,5.08,0,0,0-1.05,3.4,4.78,4.78,0,0,0,1.07,3.3,3.62,3.62,0,0,0,2.85,1.2,3.45,3.45,0,0,0,2.81-1.18,5.16,5.16,0,0,0,1-3.36,5.26,5.26,0,0,0-1-3.4A3.42,3.42,0,0,0,491.24,313Z"/><path d="M499.25,323.05v-2a5.58,5.58,0,0,0,3.39,1.14c1.65,0,2.48-.55,2.48-1.65a1.45,1.45,0,0,0-.22-.8,2.09,2.09,0,0,0-.57-.58,4,4,0,0,0-.85-.45c-.32-.14-.68-.28-1.05-.42a13.92,13.92,0,0,1-1.37-.63,4.18,4.18,0,0,1-1-.71,2.56,2.56,0,0,1-.59-.9,3,3,0,0,1-.2-1.18,2.81,2.81,0,0,1,.37-1.46,3.44,3.44,0,0,1,1-1.07,4.73,4.73,0,0,1,1.44-.65,6.65,6.65,0,0,1,1.67-.22,6.75,6.75,0,0,1,2.73.53v1.91a5.28,5.28,0,0,0-3-.85,3.48,3.48,0,0,0-.95.12,2.24,2.24,0,0,0-.73.34,1.55,1.55,0,0,0-.47.52,1.36,1.36,0,0,0-.17.67,1.62,1.62,0,0,0,.17.77,1.68,1.68,0,0,0,.49.55,3.55,3.55,0,0,0,.78.43c.3.14.65.28,1,.43a14.61,14.61,0,0,1,1.4.61,5,5,0,0,1,1.06.71,2.87,2.87,0,0,1,.67.92,3,3,0,0,1,.23,1.22,2.86,2.86,0,0,1-.38,1.52,3.39,3.39,0,0,1-1,1.07,4.83,4.83,0,0,1-1.48.63,7.17,7.17,0,0,1-1.75.2A6.65,6.65,0,0,1,499.25,323.05Z"/><path d="M515.39,323.36a3.59,3.59,0,0,1-1.76.37q-3.09,0-3.09-3.44v-7h-2v-1.6h2v-2.87l1.88-.61v3.48h3v1.6h-3V320a2.7,2.7,0,0,0,.41,1.68,1.58,1.58,0,0,0,1.33.51,2,2,0,0,0,1.23-.39Z"/></g></svg>